<svg version="1.1" xmlns="http://www.w3.org/2000/svg" viewBox="0 0 1777.1720048871211 722.3778242316605" width="5331.516014661363" height="2167.1334726949817">
  <!-- svg-source:excalidraw -->
  
  <defs>
    <style class="style-fonts">
      @font-face {
        font-family: "Virgil";
        src: url("https://unpkg.com/@excalidraw/excalidraw@undefined/dist/excalidraw-assets/Virgil.woff2");
      }
      @font-face {
        font-family: "Cascadia";
        src: url("https://unpkg.com/@excalidraw/excalidraw@undefined/dist/excalidraw-assets/Cascadia.woff2");
      }
      @font-face {
        font-family: "Assistant";
        src: url("https://unpkg.com/@excalidraw/excalidraw@undefined/dist/excalidraw-assets/Assistant-Regular.woff2");
      }
    </style>
    
  </defs>
  <g stroke-linecap="round"><g transform="translate(71.47529007628327 631.0557475247319) rotate(318.0158154461604 139.72178744110533 -75.97773343623697)" fill-rule="evenodd"><path d="M0 0 C1.18 0.43, 5.47 0, 7.08 2.58 C8.69 5.15, -0.97 16.63, 9.66 15.45 C20.28 14.27, 42.39 -0.43, 70.83 -4.51 C99.26 -8.59, 145.84 -14.49, 180.29 -9.01 C214.73 -3.54, 253.37 21.03, 277.51 28.33 C301.66 35.63, 323.66 38.42, 325.16 34.77 C326.66 31.12, 295.86 11.27, 286.53 6.44 C277.19 1.61, 288.89 13.41, 269.14 5.79 C249.4 -1.82, 205.29 -16.2, 168.05 -39.28 C130.81 -62.35, 75.66 -111.93, 45.72 -132.64 C15.78 -153.35, 0.43 -154.53, -11.59 -163.55 C-23.61 -172.56, -22.64 -184.47, -26.4 -186.72 C-30.16 -188.98, -30.91 -180.61, -34.13 -177.07 C-37.34 -173.53, -51.3 -171.7, -45.72 -165.48 C-40.14 -159.25, -8.77 -146.26, -0.64 -139.72 C7.48 -133.18, -0.19 -129.24, 3.03 -126.24 C6.25 -123.23, 8.12 -126.21, 18.67 -121.69 C29.22 -117.18, 45.13 -114.59, 66.32 -99.16 C87.51 -83.73, 134.53 -41.85, 145.83 -29.12 C157.12 -16.39, 154.29 -26.43, 134.09 -22.77 C113.89 -19.11, 46.32 -10.29, 24.64 -7.16 C2.95 -4.02, 8.09 -5.14, 3.98 -3.95 C-0.12 -2.76, 0.66 -0.66, 0 0" stroke="none" stroke-width="0" fill="#ffffff" fill-rule="evenodd"></path><path d="M0 0 C1.18 0.43, 5.47 0, 7.08 2.58 C8.69 5.15, -0.97 16.63, 9.66 15.45 C20.28 14.27, 42.39 -0.43, 70.83 -4.51 C99.26 -8.59, 145.84 -14.49, 180.29 -9.01 C214.73 -3.54, 253.37 21.03, 277.51 28.33 C301.66 35.63, 323.66 38.42, 325.16 34.77 C326.66 31.12, 295.86 11.27, 286.53 6.44 C277.19 1.61, 288.89 13.41, 269.14 5.79 C249.4 -1.82, 205.29 -16.2, 168.05 -39.28 C130.81 -62.35, 75.66 -111.93, 45.72 -132.64 C15.78 -153.35, 0.43 -154.53, -11.59 -163.55 C-23.61 -172.56, -22.64 -184.47, -26.4 -186.72 C-30.16 -188.98, -30.91 -180.61, -34.13 -177.07 C-37.34 -173.53, -51.3 -171.7, -45.72 -165.48 C-40.14 -159.25, -8.77 -146.26, -0.64 -139.72 C7.48 -133.18, -0.19 -129.24, 3.03 -126.24 C6.25 -123.23, 8.12 -126.21, 18.67 -121.69 C29.22 -117.18, 45.13 -114.59, 66.32 -99.16 C87.51 -83.73, 134.53 -41.85, 145.83 -29.12 C157.12 -16.39, 154.29 -26.43, 134.09 -22.77 C113.89 -19.11, 46.32 -10.29, 24.64 -7.16 C2.95 -4.02, 8.09 -5.14, 3.98 -3.95 C-0.12 -2.76, 0.66 -0.66, 0 0 M0 0 C1.18 0.43, 5.47 0, 7.08 2.58 C8.69 5.15, -0.97 16.63, 9.66 15.45 C20.28 14.27, 42.39 -0.43, 70.83 -4.51 C99.26 -8.59, 145.84 -14.49, 180.29 -9.01 C214.73 -3.54, 253.37 21.03, 277.51 28.33 C301.66 35.63, 323.66 38.42, 325.16 34.77 C326.66 31.12, 295.86 11.27, 286.53 6.44 C277.19 1.61, 288.89 13.41, 269.14 5.79 C249.4 -1.82, 205.29 -16.2, 168.05 -39.28 C130.81 -62.35, 75.66 -111.93, 45.72 -132.64 C15.78 -153.35, 0.43 -154.53, -11.59 -163.55 C-23.61 -172.56, -22.64 -184.47, -26.4 -186.72 C-30.16 -188.98, -30.91 -180.61, -34.13 -177.07 C-37.34 -173.53, -51.3 -171.7, -45.72 -165.48 C-40.14 -159.25, -8.77 -146.26, -0.64 -139.72 C7.48 -133.18, -0.19 -129.24, 3.03 -126.24 C6.25 -123.23, 8.12 -126.21, 18.67 -121.69 C29.22 -117.18, 45.13 -114.59, 66.32 -99.16 C87.51 -83.73, 134.53 -41.85, 145.83 -29.12 C157.12 -16.39, 154.29 -26.43, 134.09 -22.77 C113.89 -19.11, 46.32 -10.29, 24.64 -7.16 C2.95 -4.02, 8.09 -5.14, 3.98 -3.95 C-0.12 -2.76, 0.66 -0.66, 0 0" stroke="#ffffff" stroke-width="1" fill="none"></path></g></g><mask></mask><g stroke-linecap="round"><g transform="translate(348.814855195742 429.27956245416544) rotate(340.11880019185435 236.9419640764736 -25.071359617883786)"><path d="M0 0 C8.3 -0.91, 29.57 -3.94, 49.77 -5.47 C69.97 -7, 103.31 -4.98, 121.2 -9.17 C139.09 -13.36, 141.48 -21.05, 157.12 -30.62 C172.76 -40.18, 195.07 -57.96, 215.03 -66.59 C234.99 -75.21, 257.84 -80.7, 276.88 -82.37 C295.92 -84.04, 313.99 -76.69, 329.28 -76.6 C344.57 -76.51, 351.46 -83.96, 368.64 -81.82 C385.82 -79.69, 432.41 -66.96, 432.34 -63.79 C432.28 -60.62, 371.37 -69.51, 368.23 -62.82 C365.1 -56.14, 395.94 -39.53, 413.55 -23.69 C431.16 -7.85, 463.83 22.91, 473.88 32.23 M0 0 C8.3 -0.91, 29.57 -3.94, 49.77 -5.47 C69.97 -7, 103.31 -4.98, 121.2 -9.17 C139.09 -13.36, 141.48 -21.05, 157.12 -30.62 C172.76 -40.18, 195.07 -57.96, 215.03 -66.59 C234.99 -75.21, 257.84 -80.7, 276.88 -82.37 C295.92 -84.04, 313.99 -76.69, 329.28 -76.6 C344.57 -76.51, 351.46 -83.96, 368.64 -81.82 C385.82 -79.69, 432.41 -66.96, 432.34 -63.79 C432.28 -60.62, 371.37 -69.51, 368.23 -62.82 C365.1 -56.14, 395.94 -39.53, 413.55 -23.69 C431.16 -7.85, 463.83 22.91, 473.88 32.23" stroke="#ffffff" stroke-width="4" fill="none"></path></g></g><mask></mask><g stroke-linecap="round"><g transform="translate(1054.9227215167775 631.1265684600298) rotate(340.11880019185435 -327.21307378301026 -99.27453874169925)"><path d="M0 0 C-13.08 6.48, -47.83 31.72, -78.5 38.9 C-109.18 46.08, -144.22 51.69, -184.06 43.08 C-223.9 34.46, -279 17.94, -317.54 -12.8 C-356.09 -43.53, -383.43 -109.56, -415.34 -141.31 C-447.24 -173.05, -469.14 -186.53, -508.99 -203.25 C-548.84 -219.97, -630.19 -235.23, -654.43 -241.63 M0 0 C-13.08 6.48, -47.83 31.72, -78.5 38.9 C-109.18 46.08, -144.22 51.69, -184.06 43.08 C-223.9 34.46, -279 17.94, -317.54 -12.8 C-356.09 -43.53, -383.43 -109.56, -415.34 -141.31 C-447.24 -173.05, -469.14 -186.53, -508.99 -203.25 C-548.84 -219.97, -630.19 -235.23, -654.43 -241.63" stroke="#ffffff" stroke-width="4" fill="none"></path></g></g><mask></mask><g stroke-linecap="round"><g transform="translate(1142.5796806449798 303.3784369215232) rotate(321.42224902311307 255.085588102389 210.4128097770286)"><path d="M0 0 C41.71 49.42, 192.49 222.68, 250.25 296.55 C308.01 370.42, 325.51 415.94, 346.57 443.24 C367.62 470.55, 359.61 456.55, 376.58 460.39 C393.55 464.23, 433.01 467.09, 448.39 466.29 C463.78 465.49, 458.59 462.92, 468.89 455.57 C479.18 448.22, 564.11 492.72, 510.17 422.17 C456.23 351.63, 217.92 110.24, 145.25 32.3 C72.58 -45.64, 85.99 -32.5, 74.14 -45.46 M0 0 C41.71 49.42, 192.49 222.68, 250.25 296.55 C308.01 370.42, 325.51 415.94, 346.57 443.24 C367.62 470.55, 359.61 456.55, 376.58 460.39 C393.55 464.23, 433.01 467.09, 448.39 466.29 C463.78 465.49, 458.59 462.92, 468.89 455.57 C479.18 448.22, 564.11 492.72, 510.17 422.17 C456.23 351.63, 217.92 110.24, 145.25 32.3 C72.58 -45.64, 85.99 -32.5, 74.14 -45.46" stroke="#ffffff" stroke-width="4" fill="none"></path></g></g><mask></mask><g stroke-linecap="round"><g transform="translate(1145.280988997838 311.7834887972281) rotate(321.42224902311307 235.5935805516565 199.27676585308643)"><path d="M0 0 C17.01 -10.01, 34.02 -20.03, 51.68 -30.42 M0 0 C17.64 -10.38, 35.27 -20.76, 51.68 -30.42 M51.68 -30.42 C140.07 66.37, 228.46 163.17, 471.19 428.98 M51.68 -30.42 C152.76 80.27, 253.84 190.96, 471.19 428.98 M471.19 428.98 C447.71 428.61, 424.23 428.24, 374.71 427.47 M471.19 428.98 C433.6 428.39, 396.02 427.8, 374.71 427.47 M374.71 427.47 C290.42 331.3, 206.12 235.14, 0 0 M374.71 427.47 C280.59 320.09, 186.46 212.72, 0 0" stroke="#ffffff" stroke-width="4" fill="none"></path></g></g><mask></mask><g stroke-linecap="round" transform="translate(579.3373657369375 386.34438004962203) rotate(0 28.27812478427404 28.278124784273132)"><path d="M56.56 28.28 C56.56 29.91, 56.41 31.58, 56.13 33.19 C55.84 34.8, 55.41 36.41, 54.85 37.95 C54.29 39.49, 53.59 41, 52.77 42.42 C51.95 43.83, 50.99 45.2, 49.94 46.45 C48.89 47.71, 47.71 48.89, 46.45 49.94 C45.2 50.99, 43.83 51.95, 42.42 52.77 C41 53.59, 39.49 54.29, 37.95 54.85 C36.41 55.41, 34.8 55.84, 33.19 56.13 C31.58 56.41, 29.91 56.56, 28.28 56.56 C26.64 56.56, 24.98 56.41, 23.37 56.13 C21.76 55.84, 20.14 55.41, 18.61 54.85 C17.07 54.29, 15.56 53.59, 14.14 52.77 C12.72 51.95, 11.36 50.99, 10.1 49.94 C8.85 48.89, 7.67 47.71, 6.62 46.45 C5.56 45.2, 4.61 43.83, 3.79 42.42 C2.97 41, 2.27 39.49, 1.71 37.95 C1.15 36.41, 0.71 34.8, 0.43 33.19 C0.15 31.58, 0 29.91, 0 28.28 C0 26.64, 0.15 24.98, 0.43 23.37 C0.71 21.76, 1.15 20.14, 1.71 18.61 C2.27 17.07, 2.97 15.56, 3.79 14.14 C4.61 12.72, 5.56 11.36, 6.62 10.1 C7.67 8.85, 8.85 7.67, 10.1 6.62 C11.36 5.56, 12.72 4.61, 14.14 3.79 C15.56 2.97, 17.07 2.27, 18.61 1.71 C20.14 1.15, 21.76 0.71, 23.37 0.43 C24.98 0.15, 26.64 0, 28.28 0 C29.91 0, 31.58 0.15, 33.19 0.43 C34.8 0.71, 36.41 1.15, 37.95 1.71 C39.49 2.27, 41 2.97, 42.42 3.79 C43.83 4.61, 45.2 5.56, 46.45 6.62 C47.71 7.67, 48.89 8.85, 49.94 10.1 C50.99 11.36, 51.95 12.72, 52.77 14.14 C53.59 15.56, 54.29 17.07, 54.85 18.61 C55.41 20.14, 55.84 21.76, 56.13 23.37 C56.41 24.98, 56.48 27.46, 56.56 28.28 C56.63 29.1, 56.63 27.46, 56.56 28.28" stroke="none" stroke-width="0" fill="#ffffff"></path><path d="M56.56 28.28 C56.56 29.91, 56.41 31.58, 56.13 33.19 C55.84 34.8, 55.41 36.41, 54.85 37.95 C54.29 39.49, 53.59 41, 52.77 42.42 C51.95 43.83, 50.99 45.2, 49.94 46.45 C48.89 47.71, 47.71 48.89, 46.45 49.94 C45.2 50.99, 43.83 51.95, 42.42 52.77 C41 53.59, 39.49 54.29, 37.95 54.85 C36.41 55.41, 34.8 55.84, 33.19 56.13 C31.58 56.41, 29.91 56.56, 28.28 56.56 C26.64 56.56, 24.98 56.41, 23.37 56.13 C21.76 55.84, 20.14 55.41, 18.61 54.85 C17.07 54.29, 15.56 53.59, 14.14 52.77 C12.72 51.95, 11.36 50.99, 10.1 49.94 C8.85 48.89, 7.67 47.71, 6.62 46.45 C5.56 45.2, 4.61 43.83, 3.79 42.42 C2.97 41, 2.27 39.49, 1.71 37.95 C1.15 36.41, 0.71 34.8, 0.43 33.19 C0.15 31.58, 0 29.91, 0 28.28 C0 26.64, 0.15 24.98, 0.43 23.37 C0.71 21.76, 1.15 20.14, 1.71 18.61 C2.27 17.07, 2.97 15.56, 3.79 14.14 C4.61 12.72, 5.56 11.36, 6.62 10.1 C7.67 8.85, 8.85 7.67, 10.1 6.62 C11.36 5.56, 12.72 4.61, 14.14 3.79 C15.56 2.97, 17.07 2.27, 18.61 1.71 C20.14 1.15, 21.76 0.71, 23.37 0.43 C24.98 0.15, 26.64 0, 28.28 0 C29.91 0, 31.58 0.15, 33.19 0.43 C34.8 0.71, 36.41 1.15, 37.95 1.71 C39.49 2.27, 41 2.97, 42.42 3.79 C43.83 4.61, 45.2 5.56, 46.45 6.62 C47.71 7.67, 48.89 8.85, 49.94 10.1 C50.99 11.36, 51.95 12.72, 52.77 14.14 C53.59 15.56, 54.29 17.07, 54.85 18.61 C55.41 20.14, 55.84 21.76, 56.13 23.37 C56.41 24.98, 56.48 27.46, 56.56 28.28 C56.63 29.1, 56.63 27.46, 56.56 28.28" stroke="#ffffff" stroke-width="4" fill="none"></path></g><g stroke-linecap="round"><g transform="translate(1089.9540215680317 392.90049439857694) rotate(292.2704923816565 -9.998895771310345 -177.88375742435397)"><path d="M0 0 C-10.55 -3.15, -39.19 -9.23, -63.33 -18.91 C-87.46 -28.59, -121.68 -43.94, -144.8 -58.08 C-167.91 -72.22, -185.87 -82.59, -202.02 -103.72 C-218.17 -124.85, -232.7 -157.23, -241.69 -184.87 C-250.67 -212.5, -256.35 -243.42, -255.92 -269.54 C-255.48 -295.66, -251.42 -324.86, -239.1 -341.57 C-226.77 -358.27, -205.79 -375.63, -181.96 -369.76 C-158.13 -363.88, -135.28 -340.38, -96.11 -306.31 C-56.93 -272.23, -2.24 -218.7, 53.1 -165.31 C108.44 -111.93, 205.45 -15.89, 235.92 13.99 M0 0 C-10.55 -3.15, -39.19 -9.23, -63.33 -18.91 C-87.46 -28.59, -121.68 -43.94, -144.8 -58.08 C-167.91 -72.22, -185.87 -82.59, -202.02 -103.72 C-218.17 -124.85, -232.7 -157.23, -241.69 -184.87 C-250.67 -212.5, -256.35 -243.42, -255.92 -269.54 C-255.48 -295.66, -251.42 -324.86, -239.1 -341.57 C-226.77 -358.27, -205.79 -375.63, -181.96 -369.76 C-158.13 -363.88, -135.28 -340.38, -96.11 -306.31 C-56.93 -272.23, -2.24 -218.7, 53.1 -165.31 C108.44 -111.93, 205.45 -15.89, 235.92 13.99" stroke="#ffffff" stroke-width="4" fill="none"></path></g></g><mask></mask><g stroke-linecap="round"><g transform="translate(1310.2455590208265 339.768330308591) rotate(292.2704923816565 -155.4412409798333 -122.92490755178835)"><path d="M0 0 C-69.24 -66.48, -138.47 -132.96, -256.05 -245.85 M0 0 C-55.8 -53.57, -111.59 -107.15, -256.05 -245.85 M-256.05 -245.85 C-262 -240.79, -267.96 -235.72, -271.71 -232.53 M-256.05 -245.85 C-259.7 -242.75, -263.35 -239.64, -271.71 -232.53 M-271.71 -232.53 C-205.26 -166.55, -138.82 -100.56, -47.67 -10.06 M-271.71 -232.53 C-183.22 -144.66, -94.73 -56.78, -47.67 -10.06 M-47.67 -10.06 C-60.36 -10.06, -73.04 -10.06, -108.78 -10.06 M-47.67 -10.06 C-61.96 -10.06, -76.24 -10.06, -108.78 -10.06 M-108.78 -10.06 C-174.35 -68.77, -239.93 -127.49, -310.88 -191.01 M-108.78 -10.06 C-187.13 -80.22, -265.49 -150.37, -310.88 -191.01" stroke="#ffffff" stroke-width="4" fill="none"></path></g></g><mask></mask><g stroke-linecap="round"><g transform="translate(1075.0310732865619 222.28859944680107) rotate(292.2704923816565 62.99010649353477 88.42719040143385)"><path d="M0 0 C-2.35 3.07, -16.53 8.7, -14.09 18.43 C-11.65 28.16, -11.07 31.95, 14.62 58.36 C40.32 84.76, 119.16 157.1, 140.07 176.85 M0 0 C-2.35 3.07, -16.53 8.7, -14.09 18.43 C-11.65 28.16, -11.07 31.95, 14.62 58.36 C40.32 84.76, 119.16 157.1, 140.07 176.85" stroke="#ffffff" stroke-width="4" fill="none"></path></g></g><mask></mask><g stroke-linecap="round"><g transform="translate(1257.929890188927 68.3208204724856) rotate(0 -93.8461955456296 53.61665556272294)"><path d="M0 0 C-55.45 27.59, -356.87 175.27, -332.7 165.55 C-308.54 155.83, 65.39 -21.01, 145.01 -58.32 M0 0 C-55.45 27.59, -356.87 175.27, -332.7 165.55 C-308.54 155.83, 65.39 -21.01, 145.01 -58.32" stroke="#ffffff" stroke-width="4" fill="none"></path></g></g><mask></mask><g stroke-linecap="round"><g transform="translate(1098.1762758421319 432.2671123476416) rotate(0 152.3321165017096 -211.04221824367937)"><path d="M0 0 C14.35 -9.61, 57.11 -30.06, 86.09 -57.67 C115.07 -85.28, 145.81 -122.1, 173.89 -165.67 C201.97 -209.25, 232.77 -276.38, 254.57 -319.12 C276.37 -361.85, 296.32 -404.92, 304.66 -422.08 M0 0 C14.35 -9.61, 57.11 -30.06, 86.09 -57.67 C115.07 -85.28, 145.81 -122.1, 173.89 -165.67 C201.97 -209.25, 232.77 -276.38, 254.57 -319.12 C276.37 -361.85, 296.32 -404.92, 304.66 -422.08" stroke="#ffffff" stroke-width="4" fill="none"></path></g></g><mask></mask><g stroke-linecap="round"><g transform="translate(808.6164409767734 346.89388144650684) rotate(352.90177224703075 263.6989392743053 -149.88925022537865)"><path d="M0 0 C-0.12 -12.7, -22.27 -50.92, -0.75 -76.23 C20.78 -101.54, 41 -114.59, 129.15 -151.85 C217.3 -189.11, 461.65 -275.12, 528.15 -299.78 M0 0 C-0.12 -12.7, -22.27 -50.92, -0.75 -76.23 C20.78 -101.54, 41 -114.59, 129.15 -151.85 C217.3 -189.11, 461.65 -275.12, 528.15 -299.78" stroke="#ffffff" stroke-width="4" fill="none"></path></g></g><mask></mask><g stroke-linecap="round"><g transform="translate(1315.995828743522 15.467633328048123) rotate(0 -28.761579099998926 26.272613947352284)"><path d="M0 0 C-9.59 8.76, -47.94 43.79, -57.52 52.55 M0 0 C-9.59 8.76, -47.94 43.79, -57.52 52.55" stroke="#ffffff" stroke-width="4" fill="none"></path></g></g><mask></mask><g stroke-linecap="round"><g transform="translate(511.5638046788881 449.77010254673087) rotate(0 283.6037693737544 -51.67756299522512)"><path d="M0 0 C10.32 -12.16, 38.31 -55.74, 61.95 -72.97 C85.59 -90.19, 115.66 -100.86, 141.84 -103.36 C168.01 -105.85, 189.29 -96.86, 219.01 -87.94 C248.73 -79.02, 282.71 -63.16, 320.15 -49.82 C357.59 -36.47, 402.49 -14.96, 443.67 -7.89 C484.84 -0.82, 546.62 -7.46, 567.21 -7.37 M0 0 C10.32 -12.16, 38.31 -55.74, 61.95 -72.97 C85.59 -90.19, 115.66 -100.86, 141.84 -103.36 C168.01 -105.85, 189.29 -96.86, 219.01 -87.94 C248.73 -79.02, 282.71 -63.16, 320.15 -49.82 C357.59 -36.47, 402.49 -14.96, 443.67 -7.89 C484.84 -0.82, 546.62 -7.46, 567.21 -7.37" stroke="#ffffff" stroke-width="4" fill="none"></path></g></g><mask></mask><g stroke-linecap="round"><g transform="translate(511.89178720044583 450.6926383659825) rotate(0 5.221382756593812 14.041767662762595)"><path d="M0 0 C1.2 1.96, 5.48 7.05, 7.22 11.73 C8.96 16.41, 9.91 25.36, 10.44 28.08 M0 0 C1.2 1.96, 5.48 7.05, 7.22 11.73 C8.96 16.41, 9.91 25.36, 10.44 28.08" stroke="#ffffff" stroke-width="4" fill="none"></path></g></g><mask></mask><g stroke-linecap="round"><g transform="translate(522.9727758590452 478.900579897027) rotate(0 278.1622786848893 42.34524847036994)"><path d="M0 0 C16.55 3.92, 55.84 3.28, 99.27 23.51 C142.7 43.73, 207.54 106.02, 260.56 121.35 C313.58 136.68, 375.32 127.28, 417.39 115.48 C459.46 103.68, 489.85 75.93, 513 50.57 C536.16 25.22, 549.1 -22.12, 556.32 -36.66 M0 0 C16.55 3.92, 55.84 3.28, 99.27 23.51 C142.7 43.73, 207.54 106.02, 260.56 121.35 C313.58 136.68, 375.32 127.28, 417.39 115.48 C459.46 103.68, 489.85 75.93, 513 50.57 C536.16 25.22, 549.1 -22.12, 556.32 -36.66" stroke="#ffffff" stroke-width="4" fill="none"></path></g></g><mask></mask><g stroke-linecap="round"><g transform="translate(1350.9660885182675 60.21420669230474) rotate(0 -11.899901894137656 29.672386162652742)"><path d="M0 0 C-3.97 9.89, -19.83 49.45, -23.8 59.34 M0 0 C-3.97 9.89, -19.83 49.45, -23.8 59.34" stroke="#ffffff" stroke-width="4" fill="none"></path></g></g><mask></mask><g stroke-linecap="round" transform="translate(1043.5482644639924 547.9020346910597) rotate(325.8254433948901 10.556403702197713 39.502669197412274)"><path d="M0 0 L21.11 0 L21.11 79.01 L0 79.01" stroke="none" stroke-width="0" fill="#ffffff"></path><path d="M0 0 C7.42 0, 14.84 0, 21.11 0 M0 0 C6.89 0, 13.78 0, 21.11 0 M21.11 0 C21.11 24.49, 21.11 48.98, 21.11 79.01 M21.11 0 C21.11 16.57, 21.11 33.14, 21.11 79.01 M21.11 79.01 C15.62 79.01, 10.13 79.01, 0 79.01 M21.11 79.01 C15.54 79.01, 9.97 79.01, 0 79.01 M0 79.01 C0 53.08, 0 27.15, 0 0 M0 79.01 C0 57.82, 0 36.64, 0 0" stroke="#ffffff" stroke-width="4" fill="none"></path></g><g stroke-linecap="round" transform="translate(1014.5964394114199 614.6966287385917) rotate(16.093539456447957 7.5615809933660785 34.32071239754214)"><path d="M0 0 L15.12 0 L15.12 68.64 L0 68.64" stroke="none" stroke-width="0" fill="#ffffff"></path><path d="M0 0 C3.68 0, 7.36 0, 15.12 0 M0 0 C5.89 0, 11.78 0, 15.12 0 M15.12 0 C15.12 15.44, 15.12 30.88, 15.12 68.64 M15.12 0 C15.12 17.24, 15.12 34.48, 15.12 68.64 M15.12 68.64 C9.24 68.64, 3.36 68.64, 0 68.64 M15.12 68.64 C9.29 68.64, 3.46 68.64, 0 68.64 M0 68.64 C0 52.04, 0 35.43, 0 0 M0 68.64 C0 54.19, 0 39.75, 0 0" stroke="#ffffff" stroke-width="4" fill="none"></path></g><g stroke-linecap="round" transform="translate(1060.6271816216977 611.6171657061964) rotate(16.093539456447957 7.5615809933660785 34.32071239754214)"><path d="M0 0 L15.12 0 L15.12 68.64 L0 68.64" stroke="none" stroke-width="0" fill="#ffffff"></path><path d="M0 0 C3.35 0, 6.7 0, 15.12 0 M0 0 C4.16 0, 8.33 0, 15.12 0 M15.12 0 C15.12 19.85, 15.12 39.7, 15.12 68.64 M15.12 0 C15.12 15.34, 15.12 30.69, 15.12 68.64 M15.12 68.64 C9.12 68.64, 3.12 68.64, 0 68.64 M15.12 68.64 C10.42 68.64, 5.72 68.64, 0 68.64 M0 68.64 C0 50.2, 0 31.76, 0 0 M0 68.64 C0 44.18, 0 19.73, 0 0" stroke="#ffffff" stroke-width="4" fill="none"></path></g><g stroke-linecap="round" transform="translate(1008.6883028346492 590.1194316960868) rotate(325.8254433948901 10.866942679445856 18.333733419325256)"><path d="M0 0 L21.73 0 L21.73 36.67 L0 36.67" stroke="none" stroke-width="0" fill="#ffffff"></path><path d="M0 0 C5.54 0, 11.07 0, 21.73 0 M0 0 C4.72 0, 9.44 0, 21.73 0 M21.73 0 C21.73 10.36, 21.73 20.72, 21.73 36.67 M21.73 0 C21.73 9.83, 21.73 19.65, 21.73 36.67 M21.73 36.67 C14.4 36.67, 7.07 36.67, 0 36.67 M21.73 36.67 C16.82 36.67, 11.91 36.67, 0 36.67 M0 36.67 C0 22.06, 0 7.46, 0 0 M0 36.67 C0 26.62, 0 16.56, 0 0" stroke="#ffffff" stroke-width="4" fill="none"></path></g><g stroke-linecap="round"><g transform="translate(371.4684994629206 509.83252496920113) rotate(0 697.8517527121003 -180.33737619085377)" fill-rule="evenodd"><path d="M0 0 L34.01 -4.79 L76.56 -9.57 L106.47 -12.65 L133.13 -14.18 L171.76 -12.3 L205.77 -7.86 L243.36 5.13 L273.61 21.02 L305.23 42.21 L357.18 81.35 L371.71 89.72 L395.3 100.49 L427.25 109.21 L457.85 111.77 L513.39 110.57 L546.37 105.79 L580.72 96.56 L615.59 80.67 L642.76 63.44 L665.12 42.29 L688.46 15.2 L696.98 3.79 L786.59 21.09 L865.3 35.75 L968.82 56.56 L1081.62 80.25 L1148.8 99.92 L1202.82 119.23 L1233.4 131.01 L1266.74 139.03 L1279.77 128.75 L1305.46 113.08 L1341.31 87.14 L1347.2 77.49 L1348.83 65.83 L1382.79 48.29 L1395.7 38.01 L1392.44 27.48 L1369.26 17.96 L1250.4 -3.37 L1056.41 -31.37 L887.81 -53.57 L726.61 -77.57 L749.81 -90.97 L789.41 -115.77 L824.01 -145.77 L874.01 -203.57 L917.01 -268.77 L947.81 -328.17 L993.21 -421.37 L1031.39 -499.7 L553.73 -276 L884.68 -440.91 L943.28 -493.89 L759.03 -400.59 L527.65 -276.58 L482.88 -246.1 L463.42 -228.52 L447.01 -207.19 L441.38 -192.42 L443.02 -169.92 L458.03 -132.41 L390.75 -160.31 L325.11 -183.28 L333.31 -192.89 L386.29 -208.36 L363.79 -209.77 L319.95 -204.61 L305.65 -198.75 L288.77 -187.26 L241.89 -177.18 L220.56 -167.57 L193.83 -149.52 L167.58 -125.38 L138.27 -85.06 L120.82 -59.6 L96.47 -43.88 L150.42 -30.71 L148.05 -48.31 L139.86 -60.48 L174.39 -105.42 L195.87 -129.77 L223.76 -146.82 L260.06 -160.32 L291.94 -164.75 L310.98 -161.65 L368.09 -145.71 L449.33 -114.28 L522.6 -86.16 L566.88 -71.77 L601.85 -65.13 L707.2 -68.5 L694.4 -34.78 L683.1 -8.91 L701.69 -7.36 L722.72 -62.48 L707.88 -68.95 L675.13 -83.51 L628.64 -82.4 L587.69 -86.38 L548.73 -95.68 L509.1 -111.84 L488.96 -125.79 L469.92 -146.15 L461.51 -164.75 L458.19 -176.92 L459.96 -198.17 L468.37 -212.56 L485.41 -226.51 L529.47 -250.42 L571.08 -271.45 L688.19 -324.57 L979.74 -450.73 L955.28 -389.97 L631.32 -246.68 L638.04 -225.97 L928.13 -349.91 L905.81 -295.07 L660.84 -174.93 L664.83 -160.45 L673.83 -154.2 L687.06 -153.7 L737.76 -171.69 L878.13 -238.12 L851.65 -204.16 L805.45 -155.2 L752.25 -112.99 L720.53 -94.51 L674.95 -83.52 L722.53 -62.54 L761.24 -57.8 L1336.09 34.14 L1261.54 92.25 L701.78 -7.39 L682.87 -8.92 L666.98 17.99 L627.18 54.61 L592.33 76.04 L555.36 88.64 L513.31 96.17 L475.84 99.11 L443.45 96.82 L406.47 88.81 L369.99 71.46 L304.05 25.98 L271.98 4.22 L230.1 -17.05 L178.56 -27.52 L151.89 -30.47 L96.58 -43.79 L49.31 -25.23 L1.7 -2.98" stroke="none" stroke-width="0" fill="#ffffff" fill-rule="evenodd"></path><path d="M0 0 C10.09 -1.42, 20.17 -2.84, 34.01 -4.79 M0 0 C13.43 -1.89, 26.87 -3.78, 34.01 -4.79 M34.01 -4.79 C42.84 -5.78, 51.68 -6.77, 76.56 -9.57 M34.01 -4.79 C43.96 -5.9, 53.91 -7.02, 76.56 -9.57 M76.56 -9.57 C86.27 -10.57, 95.97 -11.57, 106.47 -12.65 M76.56 -9.57 C88.16 -10.76, 99.75 -11.96, 106.47 -12.65 M106.47 -12.65 C114.97 -13.14, 123.47 -13.63, 133.13 -14.18 M106.47 -12.65 C116.22 -13.21, 125.97 -13.77, 133.13 -14.18 M133.13 -14.18 C147.06 -13.51, 160.98 -12.83, 171.76 -12.3 M133.13 -14.18 C145.1 -13.6, 157.07 -13.02, 171.76 -12.3 M171.76 -12.3 C183.82 -10.73, 195.89 -9.15, 205.77 -7.86 M171.76 -12.3 C183.93 -10.71, 196.11 -9.12, 205.77 -7.86 M205.77 -7.86 C220.06 -2.92, 234.35 2.01, 243.36 5.13 M205.77 -7.86 C213.52 -5.18, 221.28 -2.5, 243.36 5.13 M243.36 5.13 C253.2 10.3, 263.05 15.47, 273.61 21.02 M243.36 5.13 C251.58 9.44, 259.79 13.76, 273.61 21.02 M273.61 21.02 C283.96 27.96, 294.31 34.89, 305.23 42.21 M273.61 21.02 C281.63 26.39, 289.65 31.77, 305.23 42.21 M305.23 42.21 C316.07 50.38, 326.91 58.54, 357.18 81.35 M305.23 42.21 C320.72 53.88, 336.21 65.55, 357.18 81.35 M357.18 81.35 C361.76 83.99, 366.33 86.62, 371.71 89.72 M357.18 81.35 C362.4 84.36, 367.62 87.36, 371.71 89.72 M371.71 89.72 C380.01 93.51, 388.31 97.3, 395.3 100.49 M371.71 89.72 C380.22 93.61, 388.73 97.49, 395.3 100.49 M395.3 100.49 C402.46 102.44, 409.63 104.4, 427.25 109.21 M395.3 100.49 C406.85 103.64, 418.4 106.79, 427.25 109.21 M427.25 109.21 C435.55 109.9, 443.85 110.6, 457.85 111.77 M427.25 109.21 C436.87 110.01, 446.48 110.82, 457.85 111.77 M457.85 111.77 C474.83 111.4, 491.81 111.04, 513.39 110.57 M457.85 111.77 C470.67 111.49, 483.49 111.22, 513.39 110.57 M513.39 110.57 C521.67 109.37, 529.96 108.17, 546.37 105.79 M513.39 110.57 C524.73 108.93, 536.07 107.28, 546.37 105.79 M546.37 105.79 C559.38 102.29, 572.38 98.8, 580.72 96.56 M546.37 105.79 C555.6 103.31, 564.82 100.83, 580.72 96.56 M580.72 96.56 C592.75 91.08, 604.78 85.59, 615.59 80.67 M580.72 96.56 C593.5 90.73, 606.28 84.91, 615.59 80.67 M615.59 80.67 C621.85 76.7, 628.11 72.73, 642.76 63.44 M615.59 80.67 C623.93 75.38, 632.27 70.09, 642.76 63.44 M642.76 63.44 C651.15 55.5, 659.54 47.57, 665.12 42.29 M642.76 63.44 C647.91 58.57, 653.07 53.69, 665.12 42.29 M665.12 42.29 C670.21 36.39, 675.29 30.49, 688.46 15.2 M665.12 42.29 C672.36 33.89, 679.59 25.49, 688.46 15.2 M688.46 15.2 C691.29 11.41, 694.12 7.62, 696.98 3.79 M688.46 15.2 C691.14 11.61, 693.83 8.01, 696.98 3.79 M696.98 3.79 C720.82 8.4, 744.67 13, 786.59 21.09 M696.98 3.79 C730.37 10.24, 763.77 16.69, 786.59 21.09 M786.59 21.09 C816.22 26.61, 845.85 32.13, 865.3 35.75 M786.59 21.09 C812.64 25.94, 838.69 30.8, 865.3 35.75 M865.3 35.75 C893.17 41.36, 921.04 46.96, 968.82 56.56 M865.3 35.75 C898.54 42.44, 931.79 49.12, 968.82 56.56 M968.82 56.56 C995.41 62.14, 1021.99 67.72, 1081.62 80.25 M968.82 56.56 C1004.93 64.14, 1041.03 71.72, 1081.62 80.25 M1081.62 80.25 C1101.11 85.96, 1120.59 91.66, 1148.8 99.92 M1081.62 80.25 C1102.65 86.41, 1123.67 92.56, 1148.8 99.92 M1148.8 99.92 C1160 103.92, 1171.19 107.93, 1202.82 119.23 M1148.8 99.92 C1162.6 104.86, 1176.41 109.79, 1202.82 119.23 M1202.82 119.23 C1213.83 123.47, 1224.84 127.71, 1233.4 131.01 M1202.82 119.23 C1210.06 122.02, 1217.31 124.81, 1233.4 131.01 M1233.4 131.01 C1245.31 133.87, 1257.21 136.74, 1266.74 139.03 M1233.4 131.01 C1241.46 132.95, 1249.52 134.89, 1266.74 139.03 M1266.74 139.03 C1270.38 136.15, 1274.03 133.28, 1279.77 128.75 M1266.74 139.03 C1270.82 135.81, 1274.9 132.59, 1279.77 128.75 M1279.77 128.75 C1287.99 123.74, 1296.21 118.72, 1305.46 113.08 M1279.77 128.75 C1287.85 123.83, 1295.93 118.9, 1305.46 113.08 M1305.46 113.08 C1313.28 107.43, 1321.09 101.78, 1341.31 87.14 M1305.46 113.08 C1315.95 105.49, 1326.44 97.9, 1341.31 87.14 M1341.31 87.14 C1343.07 84.25, 1344.83 81.37, 1347.2 77.49 M1341.31 87.14 C1342.72 84.82, 1344.14 82.5, 1347.2 77.49 M1347.2 77.49 C1347.71 73.85, 1348.22 70.21, 1348.83 65.83 M1347.2 77.49 C1347.62 74.48, 1348.04 71.47, 1348.83 65.83 M1348.83 65.83 C1357.9 61.15, 1366.96 56.47, 1382.79 48.29 M1348.83 65.83 C1359.61 60.26, 1370.4 54.69, 1382.79 48.29 M1382.79 48.29 C1386.28 45.51, 1389.76 42.74, 1395.7 38.01 M1382.79 48.29 C1385.68 45.99, 1388.56 43.7, 1395.7 38.01 M1395.7 38.01 C1394.52 34.18, 1393.33 30.34, 1392.44 27.48 M1395.7 38.01 C1394.48 34.06, 1393.26 30.1, 1392.44 27.48 M1392.44 27.48 C1383.97 24, 1375.49 20.52, 1369.26 17.96 M1392.44 27.48 C1384.72 24.31, 1376.99 21.13, 1369.26 17.96 M1369.26 17.96 C1333.54 11.55, 1297.82 5.14, 1250.4 -3.37 M1369.26 17.96 C1324.66 9.95, 1280.06 1.95, 1250.4 -3.37 M1250.4 -3.37 C1203.17 -10.19, 1155.94 -17, 1056.41 -31.37 M1250.4 -3.37 C1199.16 -10.77, 1147.91 -18.16, 1056.41 -31.37 M1056.41 -31.37 C996.65 -39.24, 936.9 -47.11, 887.81 -53.57 M1056.41 -31.37 C1021.31 -35.99, 986.21 -40.61, 887.81 -53.57 M887.81 -53.57 C836.8 -61.16, 785.8 -68.76, 726.61 -77.57 M887.81 -53.57 C851.76 -58.94, 815.71 -64.3, 726.61 -77.57 M726.61 -77.57 C735.26 -82.57, 743.92 -87.57, 749.81 -90.97 M726.61 -77.57 C733.51 -81.56, 740.42 -85.55, 749.81 -90.97 M749.81 -90.97 C764.3 -100.04, 778.79 -109.12, 789.41 -115.77 M749.81 -90.97 C763.68 -99.66, 777.56 -108.35, 789.41 -115.77 M789.41 -115.77 C802.29 -126.94, 815.17 -138.1, 824.01 -145.77 M789.41 -115.77 C803.18 -127.71, 816.95 -139.65, 824.01 -145.77 M824.01 -145.77 C841.12 -165.55, 858.24 -185.34, 874.01 -203.57 M824.01 -145.77 C839.73 -163.95, 855.45 -182.12, 874.01 -203.57 M874.01 -203.57 C888.49 -225.53, 902.97 -247.49, 917.01 -268.77 M874.01 -203.57 C890.98 -229.31, 907.96 -255.05, 917.01 -268.77 M917.01 -268.77 C928.24 -290.42, 939.46 -312.08, 947.81 -328.17 M917.01 -268.77 C926.77 -287.6, 936.54 -306.44, 947.81 -328.17 M947.81 -328.17 C957.8 -348.68, 967.79 -369.18, 993.21 -421.37 M947.81 -328.17 C961.66 -356.61, 975.51 -385.04, 993.21 -421.37 M993.21 -421.37 C1005.45 -446.48, 1017.69 -471.59, 1031.39 -499.7 M993.21 -421.37 C1004.31 -444.15, 1015.42 -466.94, 1031.39 -499.7 M1031.39 -499.7 C866.99 -422.71, 702.58 -345.71, 553.73 -276 M1031.39 -499.7 C899.07 -437.73, 766.74 -375.76, 553.73 -276 M553.73 -276 C642.04 -320.01, 730.35 -364.01, 884.68 -440.91 M553.73 -276 C652.85 -325.39, 751.96 -374.78, 884.68 -440.91 M884.68 -440.91 C896.41 -451.51, 908.14 -462.12, 943.28 -493.89 M884.68 -440.91 C907.53 -461.57, 930.38 -482.22, 943.28 -493.89 M943.28 -493.89 C901.15 -472.56, 859.03 -451.23, 759.03 -400.59 M943.28 -493.89 C881 -462.35, 818.72 -430.82, 759.03 -400.59 M759.03 -400.59 C701.75 -369.89, 644.48 -339.19, 527.65 -276.58 M759.03 -400.59 C700.17 -369.04, 641.32 -337.5, 527.65 -276.58 M527.65 -276.58 C518.69 -270.48, 509.74 -264.39, 482.88 -246.1 M527.65 -276.58 C512.76 -266.44, 497.86 -256.3, 482.88 -246.1 M482.88 -246.1 C476.75 -240.57, 470.62 -235.03, 463.42 -228.52 M482.88 -246.1 C478.74 -242.37, 474.61 -238.64, 463.42 -228.52 M463.42 -228.52 C457.78 -221.19, 452.14 -213.85, 447.01 -207.19 M463.42 -228.52 C457.82 -221.25, 452.23 -213.97, 447.01 -207.19 M447.01 -207.19 C444.76 -201.29, 442.52 -195.4, 441.38 -192.42 M447.01 -207.19 C445.11 -202.21, 443.22 -197.24, 441.38 -192.42 M441.38 -192.42 C442.03 -183.61, 442.67 -174.8, 443.02 -169.92 M441.38 -192.42 C441.96 -184.5, 442.54 -176.59, 443.02 -169.92 M443.02 -169.92 C447.02 -159.92, 451.02 -149.92, 458.03 -132.41 M443.02 -169.92 C446.52 -161.19, 450.01 -152.46, 458.03 -132.41 M458.03 -132.41 C441.65 -139.2, 425.28 -145.99, 390.75 -160.31 M458.03 -132.41 C438.84 -140.36, 419.66 -148.32, 390.75 -160.31 M390.75 -160.31 C374.24 -166.08, 357.73 -171.86, 325.11 -183.28 M390.75 -160.31 C375.31 -165.71, 359.88 -171.11, 325.11 -183.28 M325.11 -183.28 C328.13 -186.82, 331.16 -190.36, 333.31 -192.89 M325.11 -183.28 C328.33 -187.05, 331.54 -190.82, 333.31 -192.89 M333.31 -192.89 C346.96 -196.88, 360.61 -200.86, 386.29 -208.36 M333.31 -192.89 C344.5 -196.16, 355.69 -199.42, 386.29 -208.36 M386.29 -208.36 C381.69 -208.65, 377.08 -208.94, 363.79 -209.77 M386.29 -208.36 C380.55 -208.72, 374.8 -209.08, 363.79 -209.77 M363.79 -209.77 C348.15 -207.93, 332.5 -206.09, 319.95 -204.61 M363.79 -209.77 C348.06 -207.92, 332.33 -206.07, 319.95 -204.61 M319.95 -204.61 C314.82 -202.51, 309.7 -200.41, 305.65 -198.75 M319.95 -204.61 C314.39 -202.33, 308.84 -200.06, 305.65 -198.75 M305.65 -198.75 C299.06 -194.27, 292.48 -189.78, 288.77 -187.26 M305.65 -198.75 C302.15 -196.36, 298.64 -193.98, 288.77 -187.26 M288.77 -187.26 C279.15 -185.19, 269.52 -183.13, 241.89 -177.18 M288.77 -187.26 C277.66 -184.87, 266.55 -182.49, 241.89 -177.18 M241.89 -177.18 C234.05 -173.65, 226.21 -170.12, 220.56 -167.57 M241.89 -177.18 C237.23 -175.09, 232.57 -172.99, 220.56 -167.57 M220.56 -167.57 C212.84 -162.36, 205.11 -157.14, 193.83 -149.52 M220.56 -167.57 C210.49 -160.77, 200.42 -153.97, 193.83 -149.52 M193.83 -149.52 C186.82 -143.08, 179.81 -136.63, 167.58 -125.38 M193.83 -149.52 C183.78 -140.28, 173.74 -131.04, 167.58 -125.38 M167.58 -125.38 C158.13 -112.38, 148.69 -99.39, 138.27 -85.06 M167.58 -125.38 C158.34 -112.67, 149.1 -99.96, 138.27 -85.06 M138.27 -85.06 C134.16 -79.05, 130.04 -73.05, 120.82 -59.6 M138.27 -85.06 C134.37 -79.36, 130.46 -73.66, 120.82 -59.6 M120.82 -59.6 C111.4 -53.52, 101.98 -47.44, 96.47 -43.88 M120.82 -59.6 C113.73 -55.02, 106.64 -50.44, 96.47 -43.88 M96.47 -43.88 C117.52 -38.74, 138.56 -33.61, 150.42 -30.71 M96.47 -43.88 C117.85 -38.66, 139.22 -33.45, 150.42 -30.71 M150.42 -30.71 C149.63 -36.57, 148.84 -42.43, 148.05 -48.31 M150.42 -30.71 C149.77 -35.55, 149.12 -40.39, 148.05 -48.31 M148.05 -48.31 C146.3 -50.92, 144.54 -53.53, 139.86 -60.48 M148.05 -48.31 C145.71 -51.78, 143.38 -55.26, 139.86 -60.48 M139.86 -60.48 C152.98 -77.55, 166.1 -94.62, 174.39 -105.42 M139.86 -60.48 C152.56 -77, 165.25 -93.53, 174.39 -105.42 M174.39 -105.42 C182.16 -114.23, 189.93 -123.04, 195.87 -129.77 M174.39 -105.42 C178.87 -110.49, 183.34 -115.56, 195.87 -129.77 M195.87 -129.77 C204.65 -135.14, 213.44 -140.51, 223.76 -146.82 M195.87 -129.77 C201.49 -133.21, 207.12 -136.65, 223.76 -146.82 M223.76 -146.82 C233.02 -150.26, 242.27 -153.7, 260.06 -160.32 M223.76 -146.82 C231.5 -149.69, 239.23 -152.57, 260.06 -160.32 M260.06 -160.32 C269.47 -161.63, 278.88 -162.93, 291.94 -164.75 M260.06 -160.32 C270.93 -161.83, 281.8 -163.34, 291.94 -164.75 M291.94 -164.75 C297.36 -163.87, 302.78 -162.98, 310.98 -161.65 M291.94 -164.75 C297.26 -163.88, 302.57 -163.02, 310.98 -161.65 M310.98 -161.65 C325 -157.74, 339.02 -153.82, 368.09 -145.71 M310.98 -161.65 C326.99 -157.18, 343 -152.71, 368.09 -145.71 M368.09 -145.71 C385.19 -139.1, 402.28 -132.48, 449.33 -114.28 M368.09 -145.71 C393.86 -135.74, 419.64 -125.77, 449.33 -114.28 M449.33 -114.28 C468.39 -106.96, 487.45 -99.65, 522.6 -86.16 M449.33 -114.28 C467.37 -107.35, 485.41 -100.43, 522.6 -86.16 M522.6 -86.16 C538.58 -80.97, 554.55 -75.78, 566.88 -71.77 M522.6 -86.16 C538.95 -80.85, 555.29 -75.54, 566.88 -71.77 M566.88 -71.77 C573.94 -70.43, 581 -69.09, 601.85 -65.13 M566.88 -71.77 C580.73 -69.14, 594.58 -66.51, 601.85 -65.13 M601.85 -65.13 C626.39 -65.92, 650.94 -66.7, 707.2 -68.5 M601.85 -65.13 C623.76 -65.83, 645.67 -66.53, 707.2 -68.5 M707.2 -68.5 C703.33 -58.31, 699.47 -48.12, 694.4 -34.78 M707.2 -68.5 C704.4 -61.12, 701.6 -53.75, 694.4 -34.78 M694.4 -34.78 C691.09 -27.21, 687.78 -19.63, 683.1 -8.91 M694.4 -34.78 C690.58 -26.03, 686.76 -17.28, 683.1 -8.91 M683.1 -8.91 C689.81 -8.35, 696.53 -7.79, 701.69 -7.36 M683.1 -8.91 C689.31 -8.39, 695.52 -7.87, 701.69 -7.36 M701.69 -7.36 C709.57 -28.02, 717.46 -48.68, 722.72 -62.48 M701.69 -7.36 C710 -29.15, 718.32 -50.94, 722.72 -62.48 M722.72 -62.48 C717.55 -64.73, 712.38 -66.99, 707.88 -68.95 M722.72 -62.48 C718.36 -64.38, 714.01 -66.28, 707.88 -68.95 M707.88 -68.95 C698.62 -73.07, 689.36 -77.18, 675.13 -83.51 M707.88 -68.95 C696.53 -74, 685.18 -79.04, 675.13 -83.51 M675.13 -83.51 C665.76 -83.28, 656.4 -83.06, 628.64 -82.4 M675.13 -83.51 C657.48 -83.09, 639.83 -82.67, 628.64 -82.4 M628.64 -82.4 C612.73 -83.95, 596.81 -85.5, 587.69 -86.38 M628.64 -82.4 C616.78 -83.55, 604.91 -84.71, 587.69 -86.38 M587.69 -86.38 C578.86 -88.49, 570.03 -90.6, 548.73 -95.68 M587.69 -86.38 C579.66 -88.3, 571.63 -90.22, 548.73 -95.68 M548.73 -95.68 C539.49 -99.45, 530.25 -103.22, 509.1 -111.84 M548.73 -95.68 C538.65 -99.79, 528.58 -103.9, 509.1 -111.84 M509.1 -111.84 C503.07 -116.02, 497.04 -120.19, 488.96 -125.79 M509.1 -111.84 C502.7 -116.27, 496.3 -120.71, 488.96 -125.79 M488.96 -125.79 C482.74 -132.43, 476.53 -139.08, 469.92 -146.15 M488.96 -125.79 C485.13 -129.88, 481.31 -133.97, 469.92 -146.15 M469.92 -146.15 C467.7 -151.06, 465.48 -155.96, 461.51 -164.75 M469.92 -146.15 C466.63 -153.43, 463.34 -160.7, 461.51 -164.75 M461.51 -164.75 C460.36 -168.97, 459.21 -173.18, 458.19 -176.92 M461.51 -164.75 C460.77 -167.45, 460.04 -170.15, 458.19 -176.92 M458.19 -176.92 C458.78 -183.99, 459.36 -191.05, 459.96 -198.17 M458.19 -176.92 C458.6 -181.89, 459.01 -186.86, 459.96 -198.17 M459.96 -198.17 C462.82 -203.07, 465.69 -207.97, 468.37 -212.56 M459.96 -198.17 C462.81 -203.06, 465.67 -207.94, 468.37 -212.56 M468.37 -212.56 C473.26 -216.57, 478.16 -220.57, 485.41 -226.51 M468.37 -212.56 C474.92 -217.92, 481.47 -223.28, 485.41 -226.51 M485.41 -226.51 C499.72 -234.27, 514.02 -242.03, 529.47 -250.42 M485.41 -226.51 C499.02 -233.89, 512.62 -241.27, 529.47 -250.42 M529.47 -250.42 C541.04 -256.27, 552.62 -262.12, 571.08 -271.45 M529.47 -250.42 C542.47 -256.99, 555.48 -263.56, 571.08 -271.45 M571.08 -271.45 C604.28 -286.51, 637.48 -301.57, 688.19 -324.57 M571.08 -271.45 C596.29 -282.88, 621.5 -294.32, 688.19 -324.57 M688.19 -324.57 C753.62 -352.89, 819.06 -381.2, 979.74 -450.73 M688.19 -324.57 C752.36 -352.34, 816.54 -380.11, 979.74 -450.73 M979.74 -450.73 C970.68 -428.22, 961.62 -405.72, 955.28 -389.97 M979.74 -450.73 C973 -433.97, 966.25 -417.21, 955.28 -389.97 M955.28 -389.97 C886.02 -359.34, 816.76 -328.7, 631.32 -246.68 M955.28 -389.97 C877.72 -355.66, 800.15 -321.35, 631.32 -246.68 M631.32 -246.68 C633.39 -240.31, 635.46 -233.94, 638.04 -225.97 M631.32 -246.68 C632.93 -241.74, 634.53 -236.8, 638.04 -225.97 M638.04 -225.97 C725.87 -263.5, 813.7 -301.02, 928.13 -349.91 M638.04 -225.97 C705.99 -255, 773.94 -284.04, 928.13 -349.91 M928.13 -349.91 C919.51 -328.75, 910.9 -307.58, 905.81 -295.07 M928.13 -349.91 C919.58 -328.91, 911.04 -307.91, 905.81 -295.07 M905.81 -295.07 C828.24 -257.02, 750.66 -218.98, 660.84 -174.93 M905.81 -295.07 C807.93 -247.07, 710.05 -199.07, 660.84 -174.93 M660.84 -174.93 C661.9 -171.09, 662.96 -167.25, 664.83 -160.45 M660.84 -174.93 C662.12 -170.3, 663.39 -165.68, 664.83 -160.45 M664.83 -160.45 C667.08 -158.89, 669.32 -157.33, 673.83 -154.2 M664.83 -160.45 C667.19 -158.81, 669.54 -157.18, 673.83 -154.2 M673.83 -154.2 C678.77 -154.02, 683.72 -153.83, 687.06 -153.7 M673.83 -154.2 C678.99 -154.01, 684.16 -153.81, 687.06 -153.7 M687.06 -153.7 C700.46 -158.45, 713.85 -163.2, 737.76 -171.69 M687.06 -153.7 C701.16 -158.7, 715.26 -163.7, 737.76 -171.69 M737.76 -171.69 C781.07 -192.18, 824.37 -212.68, 878.13 -238.12 M737.76 -171.69 C775.43 -189.51, 813.09 -207.34, 878.13 -238.12 M878.13 -238.12 C870.4 -228.2, 862.66 -218.28, 851.65 -204.16 M878.13 -238.12 C871.84 -230.05, 865.55 -221.98, 851.65 -204.16 M851.65 -204.16 C840.76 -192.61, 829.87 -181.07, 805.45 -155.2 M851.65 -204.16 C835.11 -186.63, 818.57 -169.1, 805.45 -155.2 M805.45 -155.2 C793.02 -145.34, 780.6 -135.48, 752.25 -112.99 M805.45 -155.2 C791.61 -144.22, 777.77 -133.24, 752.25 -112.99 M752.25 -112.99 C743.05 -107.63, 733.85 -102.27, 720.53 -94.51 M752.25 -112.99 C739.72 -105.69, 727.19 -98.39, 720.53 -94.51 M720.53 -94.51 C704.23 -90.58, 687.92 -86.65, 674.95 -83.52 M720.53 -94.51 C702.43 -90.15, 684.33 -85.78, 674.95 -83.52 M674.95 -83.52 C692.78 -75.66, 710.61 -67.8, 722.53 -62.54 M674.95 -83.52 C686.67 -78.35, 698.39 -73.19, 722.53 -62.54 M722.53 -62.54 C734.23 -61.11, 745.93 -59.67, 761.24 -57.8 M722.53 -62.54 C731.47 -61.45, 740.41 -60.35, 761.24 -57.8 M761.24 -57.8 C969.37 -24.51, 1177.49 8.77, 1336.09 34.14 M761.24 -57.8 C939.39 -29.31, 1117.53 -0.82, 1336.09 34.14 M1336.09 34.14 C1315.68 50.05, 1295.27 65.96, 1261.54 92.25 M1336.09 34.14 C1315.56 50.14, 1295.03 66.14, 1261.54 92.25 M1261.54 92.25 C1097.6 63.07, 933.65 33.88, 701.78 -7.39 M1261.54 92.25 C1085.07 60.84, 908.61 29.42, 701.78 -7.39 M701.78 -7.39 C697.1 -7.77, 692.42 -8.15, 682.87 -8.92 M701.78 -7.39 C694.68 -7.96, 687.58 -8.54, 682.87 -8.92 M682.87 -8.92 C676.88 1.22, 670.89 11.37, 666.98 17.99 M682.87 -8.92 C677.74 -0.23, 672.61 8.47, 666.98 17.99 M666.98 17.99 C652.35 31.46, 637.71 44.92, 627.18 54.61 M666.98 17.99 C654.74 29.25, 642.49 40.52, 627.18 54.61 M627.18 54.61 C613.5 63.02, 599.82 71.44, 592.33 76.04 M627.18 54.61 C615.85 61.58, 604.53 68.54, 592.33 76.04 M592.33 76.04 C579.5 80.41, 566.68 84.78, 555.36 88.64 M592.33 76.04 C578.31 80.82, 564.29 85.6, 555.36 88.64 M555.36 88.64 C543.29 90.8, 531.23 92.96, 513.31 96.17 M555.36 88.64 C545.07 90.48, 534.79 92.32, 513.31 96.17 M513.31 96.17 C503.31 96.95, 493.32 97.74, 475.84 99.11 M513.31 96.17 C504.73 96.84, 496.15 97.52, 475.84 99.11 M475.84 99.11 C463.66 98.25, 451.48 97.39, 443.45 96.82 M475.84 99.11 C464.96 98.34, 454.08 97.57, 443.45 96.82 M443.45 96.82 C429.49 93.8, 415.53 90.77, 406.47 88.81 M443.45 96.82 C435.05 95, 426.66 93.18, 406.47 88.81 M406.47 88.81 C393.9 82.83, 381.33 76.86, 369.99 71.46 M406.47 88.81 C392.44 82.13, 378.4 75.46, 369.99 71.46 M369.99 71.46 C350.32 57.89, 330.65 44.33, 304.05 25.98 M369.99 71.46 C351.88 58.98, 333.78 46.49, 304.05 25.98 M304.05 25.98 C296.17 20.63, 288.29 15.28, 271.98 4.22 M304.05 25.98 C294.18 19.28, 284.31 12.58, 271.98 4.22 M271.98 4.22 C262.9 -0.39, 253.82 -5.01, 230.1 -17.05 M271.98 4.22 C263.43 -0.12, 254.88 -4.46, 230.1 -17.05 M230.1 -17.05 C214.54 -20.21, 198.97 -23.37, 178.56 -27.52 M230.1 -17.05 C211.88 -20.75, 193.66 -24.45, 178.56 -27.52 M178.56 -27.52 C170.84 -28.37, 163.11 -29.23, 151.89 -30.47 M178.56 -27.52 C168.44 -28.64, 158.32 -29.76, 151.89 -30.47 M151.89 -30.47 C135.08 -34.52, 118.26 -38.57, 96.58 -43.79 M151.89 -30.47 C135.24 -34.48, 118.58 -38.49, 96.58 -43.79 M96.58 -43.79 C85.13 -39.3, 73.69 -34.8, 49.31 -25.23 M96.58 -43.79 C82.6 -38.3, 68.62 -32.81, 49.31 -25.23 M49.31 -25.23 C39.24 -20.52, 29.16 -15.81, 1.7 -2.98 M49.31 -25.23 C36.87 -19.42, 24.43 -13.6, 1.7 -2.98 M1.7 -2.98 C1.07 -1.88, 0.45 -0.79, 0 0 M1.7 -2.98 C1.06 -1.85, 0.41 -0.72, 0 0" stroke="#ffffff" stroke-width="1" fill="none"></path></g></g><mask></mask></svg>