<svg version="1.1" xmlns="http://www.w3.org/2000/svg" viewBox="0 0 984.7992458041585 984.799245804159" width="2954.3977374124756" height="2954.397737412477">
  <!-- svg-source:excalidraw -->
  
  <defs>
    <style class="style-fonts">
      @font-face {
        font-family: "Virgil";
        src: url("https://unpkg.com/@excalidraw/excalidraw@undefined/dist/excalidraw-assets/Virgil.woff2");
      }
      @font-face {
        font-family: "Cascadia";
        src: url("https://unpkg.com/@excalidraw/excalidraw@undefined/dist/excalidraw-assets/Cascadia.woff2");
      }
      @font-face {
        font-family: "Assistant";
        src: url("https://unpkg.com/@excalidraw/excalidraw@undefined/dist/excalidraw-assets/Assistant-Regular.woff2");
      }
    </style>
    
  </defs>
  <g stroke-linecap="round" transform="translate(213.85224678106846 27.1332040177449) rotate(0 277.3639876881753 277.36398768817526)"><path d="M171.08 21.31 C188.26 9.39, 212.66 6.96, 233.9 3.37 C255.14 -0.21, 277.17 -1.93, 298.52 -0.22 C319.88 1.48, 341.8 6.86, 362.05 13.61 C382.29 20.36, 401.83 29.56, 419.99 40.29 C438.15 51.02, 455.73 63.34, 471.01 77.99 C486.3 92.64, 500.33 110.16, 511.7 128.2 C523.07 146.24, 532.17 165.96, 539.23 186.24 C546.29 206.52, 551.84 228.6, 554.07 249.88 C556.3 271.16, 555.67 292.76, 552.62 313.9 C549.58 335.05, 543.64 356.88, 535.82 376.76 C528 396.64, 517.68 415.5, 505.69 433.18 C493.7 450.85, 479.48 468.2, 463.88 482.79 C448.28 497.38, 430.65 510.49, 412.11 520.73 C393.56 530.96, 373.2 538.48, 352.62 544.2 C332.04 549.92, 309.95 554.05, 288.62 555.06 C267.28 556.07, 245.57 554.38, 224.6 550.28 C203.63 546.18, 182.31 539.46, 162.79 530.44 C143.27 521.42, 124.38 509.16, 107.49 496.16 C90.6 483.16, 74.65 468.97, 61.45 452.46 C48.25 435.95, 37.38 416.36, 28.29 397.1 C19.21 377.85, 11.64 357.76, 6.94 336.92 C2.24 316.08, -0.21 293.51, 0.07 272.07 C0.35 250.64, 3.25 228.79, 8.62 208.32 C13.99 187.86, 22.37 168.22, 32.31 149.28 C42.25 130.33, 54.38 110.78, 68.27 94.64 C82.16 78.51, 96.67 65.32, 115.64 52.49 C134.61 39.67, 169.24 23.3, 182.11 17.69 C194.99 12.09, 191.38 14.56, 192.9 18.86 M225.87 6.02 C244.96 -2.02, 270.15 -0.61, 291.53 0.08 C312.92 0.78, 333.66 4.5, 354.17 10.21 C374.68 15.92, 395.99 23.84, 414.61 34.33 C433.24 44.82, 450.66 58.53, 465.94 73.15 C481.22 87.76, 494.49 104.05, 506.28 122.02 C518.06 139.99, 528.91 160.7, 536.64 180.97 C544.37 201.23, 549.71 222.56, 552.68 243.59 C555.65 264.62, 556.88 285.99, 554.44 307.16 C552 328.32, 545.23 350.68, 538.06 370.55 C530.89 390.42, 522.64 408.65, 511.43 426.38 C500.22 444.1, 486.15 461.78, 470.8 476.92 C455.45 492.06, 438.03 506.36, 419.36 517.2 C400.69 528.04, 379.38 535.56, 358.77 541.96 C338.16 548.35, 316.61 553.9, 295.69 555.58 C274.76 557.26, 253.94 555.68, 233.23 552.05 C212.52 548.43, 191.35 542.4, 171.45 533.83 C151.55 525.27, 131.11 513.58, 113.82 500.67 C96.53 487.76, 81.7 472.56, 67.69 456.4 C53.69 440.25, 39.79 422.31, 29.8 403.72 C19.82 385.13, 12.8 365.6, 7.78 344.87 C2.77 324.14, -0.11 300.73, -0.29 279.34 C-0.46 257.96, 2.07 237.2, 6.72 216.56 C11.37 195.92, 18.3 174.86, 27.6 155.5 C36.9 136.14, 48.66 117.08, 62.5 100.39 C76.34 83.7, 93.54 67.9, 110.63 55.35 C127.72 42.8, 145.91 33.71, 165.03 25.09 C184.15 16.46, 215.12 6.32, 225.36 3.61 C235.6 0.9, 225.25 4.22, 226.48 8.81" stroke="none" stroke-width="0" fill="#ffffff"></path><path d="M254.29 0.92 C274.03 -5.06, 297.93 0.89, 318.9 4.1 C339.87 7.31, 360.23 12.52, 380.13 20.18 C400.04 27.84, 420.94 37.92, 438.33 50.06 C455.72 62.2, 470.38 76.83, 484.48 93.03 C498.59 109.23, 512.68 128.36, 522.98 147.25 C533.29 166.14, 540.85 185.89, 546.29 206.35 C551.74 226.8, 555.08 248.63, 555.64 269.99 C556.2 291.35, 554.1 313.58, 549.64 334.5 C545.18 355.41, 538.07 376.15, 528.87 395.47 C519.67 414.8, 507.84 433.77, 494.45 450.42 C481.05 467.07, 465.47 482.2, 448.5 495.37 C431.54 508.54, 412 520.43, 392.66 529.44 C373.31 538.46, 353.27 545.3, 332.44 549.47 C311.62 553.64, 288.96 555.36, 267.73 554.48 C246.5 553.61, 225.67 549.71, 205.07 544.24 C184.46 538.77, 162.96 531.83, 144.1 521.66 C125.25 511.49, 107.7 497.6, 91.94 483.23 C76.17 468.85, 61.5 452.79, 49.52 435.39 C37.53 418, 27.73 398.61, 20.04 378.87 C12.36 359.12, 6.64 338.12, 3.42 316.93 C0.2 295.74, -1.16 273.13, 0.71 251.72 C2.59 230.3, 7.74 208.45, 14.67 188.45 C21.6 168.45, 31.17 149.83, 42.3 131.7 C53.42 113.57, 66.24 94.88, 81.42 79.67 C96.6 64.45, 115 51.32, 133.37 40.39 C151.74 29.46, 169.48 20.69, 191.63 14.08 C213.78 7.48, 252.01 2, 266.28 0.74 C280.54 -0.52, 277.09 1.87, 277.22 6.52 M308.89 2.27 C329.82 -0.26, 351.45 8.87, 371.51 15.75 C391.57 22.62, 411.41 31.61, 429.25 43.53 C447.1 55.45, 463.89 71.77, 478.59 87.26 C493.29 102.74, 506.71 118.25, 517.43 136.44 C528.16 154.63, 536.64 175.93, 542.96 196.4 C549.28 216.87, 554.25 238.17, 555.35 259.29 C556.44 280.4, 553.11 301.86, 549.54 323.08 C545.97 344.3, 542.02 366.85, 533.92 386.61 C525.83 406.37, 513.65 424.6, 500.96 441.62 C488.27 458.64, 474.15 475.09, 457.8 488.75 C441.45 502.41, 422.27 513.94, 402.86 523.57 C383.45 533.21, 361.86 541.31, 341.32 546.55 C320.79 551.79, 300.87 554.93, 279.67 555.01 C258.47 555.08, 234.88 551.97, 214.13 547.01 C193.38 542.06, 174.03 534.45, 155.17 525.27 C136.31 516.08, 117.52 505.57, 100.97 491.92 C84.41 478.26, 69.04 460.51, 55.86 443.33 C42.69 426.15, 30.32 408.16, 21.9 388.85 C13.48 369.54, 9.12 348.36, 5.33 327.49 C1.54 306.62, -1.75 285.1, -0.84 263.63 C0.07 242.15, 4.71 219.15, 10.78 198.66 C16.86 178.16, 24.78 159.26, 35.61 140.66 C46.44 122.05, 61.24 102.78, 75.76 87.04 C90.29 71.31, 105.01 57.85, 122.79 46.25 C140.57 34.64, 162 24.6, 182.44 17.4 C202.89 10.2, 224.31 5.79, 245.49 3.06 C266.66 0.32, 299.18 0.18, 309.5 0.96 C319.81 1.75, 308.23 3.17, 307.38 7.77" stroke="#ffffff" stroke-width="4" fill="none"></path></g><g stroke-linecap="round"><g transform="translate(213.85224646656155 298.3329765314056) rotate(0 271.0314536081904 40.02742906918911)"><path d="M0 0 C12.03 13.35, 38.67 81.31, 72.2 80.12 C105.73 78.93, 157.48 -7.59, 201.16 -7.13 C244.85 -6.67, 295.47 78.46, 334.29 82.89 C373.11 87.33, 399.45 18.77, 434.08 19.49 C468.71 20.2, 524.07 75.9, 542.06 87.19 M0 0 C12.03 13.35, 38.67 81.31, 72.2 80.12 C105.73 78.93, 157.48 -7.59, 201.16 -7.13 C244.85 -6.67, 295.47 78.46, 334.29 82.89 C373.11 87.33, 399.45 18.77, 434.08 19.49 C468.71 20.2, 524.07 75.9, 542.06 87.19" stroke="#000" stroke-width="1" fill="none"></path></g></g><mask></mask><g stroke-linecap="round"><g transform="translate(216.46665040874854 301.46842351155374) rotate(0 270.3778543799789 37.21108389836036)"><path d="M0 0 C11.99 11.99, 38.81 72.88, 71.92 71.92 C105.03 70.97, 155.25 -5.99, 198.66 -5.71 C242.07 -5.42, 294.57 69.27, 332.39 73.63 C370.21 77.99, 390.85 19.36, 425.58 20.44 C460.31 21.52, 521.56 70.18, 540.76 80.13 M0 0 C11.99 11.99, 38.81 72.88, 71.92 71.92 C105.03 70.97, 155.25 -5.99, 198.66 -5.71 C242.07 -5.42, 294.57 69.27, 332.39 73.63 C370.21 77.99, 390.85 19.36, 425.58 20.44 C460.31 21.52, 521.56 70.18, 540.76 80.13" stroke="#000" stroke-width="1" fill="none"></path></g></g><mask></mask><g stroke-linecap="round"><g transform="translate(455.08712270255546 587.6962116270597) rotate(0 8.636941087824283 48.04672751408589)"><path d="M0 0 C0.42 8.1, -0.36 32.58, 2.52 48.59 C5.4 64.61, 14.81 88.18, 17.27 96.09 M0 0 C0.42 8.1, -0.36 32.58, 2.52 48.59 C5.4 64.61, 14.81 88.18, 17.27 96.09" stroke="#ffffff" stroke-width="2" fill="none"></path></g></g><mask></mask><g stroke-linecap="round"><g transform="translate(527.2651490462713 587.6962116117584) rotate(0 -8.636941087824312 48.04672751408589)"><path d="M0 0 C-0.42 8.1, 0.36 32.58, -2.52 48.59 C-5.4 64.61, -14.81 88.18, -17.27 96.09 M0 0 C-0.42 8.1, 0.36 32.58, -2.52 48.59 C-5.4 64.61, -14.81 88.18, -17.27 96.09" stroke="#ffffff" stroke-width="2" fill="none"></path></g></g><mask></mask><g stroke-linecap="round" transform="translate(472.08888446303445 682.1935766303659) rotate(0 19.133706672912048 10.445719243943131)"><path d="M0 0 C15.3 0, 30.6 0, 38.27 0 M0 0 C14.98 0, 29.96 0, 38.27 0 M38.27 0 C38.27 5.99, 38.27 11.97, 38.27 20.89 M38.27 0 C38.27 4.53, 38.27 9.05, 38.27 20.89 M38.27 20.89 C29.55 20.89, 20.83 20.89, 0 20.89 M38.27 20.89 C23.38 20.89, 8.49 20.89, 0 20.89 M0 20.89 C0 15.73, 0 10.57, 0 0 M0 20.89 C0 13.86, 0 6.83, 0 0" stroke="#ffffff" stroke-width="1" fill="none"></path></g><g stroke-linecap="round" transform="translate(472.00233035020244 691.4408916117836) rotate(0 19.133706414303248 5.822061688871145)"><path d="M0 0 L38.27 0 L38.27 11.64 L0 11.64" stroke="none" stroke-width="0" fill="#ffffff"></path><path d="M0 0 C12 0, 24 0, 38.27 0 M0 0 C14.19 0, 28.38 0, 38.27 0 M38.27 0 C38.27 3.26, 38.27 6.52, 38.27 11.64 M38.27 0 C38.27 3.7, 38.27 7.39, 38.27 11.64 M38.27 11.64 C23.99 11.64, 9.72 11.64, 0 11.64 M38.27 11.64 C24.24 11.64, 10.22 11.64, 0 11.64 M0 11.64 C0 7.02, 0 2.39, 0 0 M0 11.64 C0 7.94, 0 4.24, 0 0" stroke="#ffffff" stroke-width="1" fill="none"></path></g><g stroke-linecap="round" transform="translate(472.0888844884021 682.2283834196323) rotate(0 19.133706469528335 1.5612833134955508)"><path d="M0 0 L38.27 0 L38.27 3.12 L0 3.12" stroke="none" stroke-width="0" fill="#ffffff"></path><path d="M0 0 C8.45 0, 16.89 0, 38.27 0 M0 0 C15.3 0, 30.61 0, 38.27 0 M38.27 0 C38.27 0.96, 38.27 1.93, 38.27 3.12 M38.27 0 C38.27 0.82, 38.27 1.65, 38.27 3.12 M38.27 3.12 C28.82 3.12, 19.38 3.12, 0 3.12 M38.27 3.12 C28.51 3.12, 18.75 3.12, 0 3.12 M0 3.12 C0 2.41, 0 1.7, 0 0 M0 3.12 C0 2.37, 0 1.62, 0 0" stroke="#ffffff" stroke-width="1" fill="none"></path></g><g stroke-linecap="round"><g transform="translate(492.3996224725901 703.0850148020218) rotate(0 49.28415119890385 131.86246302375457)"><path d="M0 0 C4.13 17.45, 10.29 71.3, 24.75 104.7 C39.21 138.11, 74.44 173.92, 86.74 200.42 C99.04 226.93, 96.6 253.17, 98.57 263.72 M0 0 C4.13 17.45, 10.29 71.3, 24.75 104.7 C39.21 138.11, 74.44 173.92, 86.74 200.42 C99.04 226.93, 96.6 253.17, 98.57 263.72" stroke="#ffffff" stroke-width="2" fill="none"></path></g></g><mask></mask><g stroke-opacity="0" fill-opacity="0" stroke-linecap="round" transform="translate(10 10) rotate(0 482.3996229020793 482.3996229020795)"><path d="M32 0 C370.34 3.81, 707 2.53, 932.8 0 M32 0 C317.02 3.49, 601.79 3.52, 932.8 0 M932.8 0 C952.91 1.46, 966.37 11.33, 964.8 32 M932.8 0 C952.66 0.5, 963.5 9.99, 964.8 32 M964.8 32 C966.18 386.71, 967.11 740.95, 964.8 932.8 M964.8 32 C967.04 334.74, 966.95 638.34, 964.8 932.8 M964.8 932.8 C963.48 955.94, 952.56 966.17, 932.8 964.8 M964.8 932.8 C966 952.02, 952.68 967.01, 932.8 964.8 M932.8 964.8 C638.09 966.34, 343.52 967.17, 32 964.8 M932.8 964.8 C684.5 961.07, 435.51 961.26, 32 964.8 M32 964.8 C9.57 964.63, 1.87 954.24, 0 932.8 M32 964.8 C11.72 966.14, 1.92 954.08, 0 932.8 M0 932.8 C1.61 650.63, 1.36 367.49, 0 32 M0 932.8 C1.76 696.9, 1.95 460.15, 0 32 M0 32 C-0.2 8.8, 9.66 1.97, 32 0 M0 32 C0.88 8.77, 8.48 -0.45, 32 0" stroke="#ffffff" stroke-width="2" fill="none"></path></g></svg>