<svg version="1.1" xmlns="http://www.w3.org/2000/svg" viewBox="0 0 1777.1720048871211 722.377824231663" width="5331.516014661363" height="2167.133472694989" filter="invert(93%) hue-rotate(180deg)">
  <!-- svg-source:excalidraw -->
  
  <defs>
    <style class="style-fonts">
      @font-face {
        font-family: "Virgil";
        src: url("https://unpkg.com/@excalidraw/excalidraw@undefined/dist/excalidraw-assets/Virgil.woff2");
      }
      @font-face {
        font-family: "Cascadia";
        src: url("https://unpkg.com/@excalidraw/excalidraw@undefined/dist/excalidraw-assets/Cascadia.woff2");
      }
      @font-face {
        font-family: "Assistant";
        src: url("https://unpkg.com/@excalidraw/excalidraw@undefined/dist/excalidraw-assets/Assistant-Regular.woff2");
      }
    </style>
    
  </defs>
  <g stroke-linecap="round"><g transform="translate(506.25385439646925 469.98389403390024) rotate(0 288.8848188426782 6.318923636450563)" fill-rule="evenodd"><path d="M0 0 L9.62 19.51 L39.84 21.43 L80.22 27.75 L106.6 35.44 L139.02 53.57 L244.79 128.58 L288.75 139.57 L343.42 147.53 L389.58 141.21 L464.85 125 L507.44 94.51 L558.54 34.34 L578.32 -28.3 L568.43 -32.97 L478.32 -28.85 L373.64 -57.15 L287.37 -92.86 L221.44 -120.06 L164.57 -134.9 L105.77 -123.08 L46.71 -87.09 L0 -26.1 L-0.55 -3.85" stroke="none" stroke-width="0" fill="#fab005" fill-rule="evenodd"></path><path d="M0 0 C3.12 6.33, 6.24 12.65, 9.62 19.51 M0 0 C3.72 7.54, 7.44 15.08, 9.62 19.51 M9.62 19.51 C16.51 19.95, 23.41 20.38, 39.84 21.43 M9.62 19.51 C15.75 19.9, 21.89 20.29, 39.84 21.43 M39.84 21.43 C50.92 23.16, 62.01 24.9, 80.22 27.75 M39.84 21.43 C49.49 22.94, 59.15 24.45, 80.22 27.75 M80.22 27.75 C89.38 30.42, 98.54 33.09, 106.6 35.44 M80.22 27.75 C90.46 30.74, 100.7 33.72, 106.6 35.44 M106.6 35.44 C119.38 42.59, 132.17 49.74, 139.02 53.57 M106.6 35.44 C117.25 41.4, 127.91 47.36, 139.02 53.57 M139.02 53.57 C176.74 80.32, 214.46 107.07, 244.79 128.58 M139.02 53.57 C175.45 79.41, 211.88 105.24, 244.79 128.58 M244.79 128.58 C262.13 132.91, 279.48 137.25, 288.75 139.57 M244.79 128.58 C255.68 131.3, 266.57 134.02, 288.75 139.57 M288.75 139.57 C300.65 141.3, 312.54 143.03, 343.42 147.53 M288.75 139.57 C299.72 141.16, 310.69 142.76, 343.42 147.53 M343.42 147.53 C357.81 145.56, 372.2 143.59, 389.58 141.21 M343.42 147.53 C354.36 146.04, 365.31 144.54, 389.58 141.21 M389.58 141.21 C409.75 136.87, 429.92 132.53, 464.85 125 M389.58 141.21 C410.99 136.6, 432.41 131.99, 464.85 125 M464.85 125 C473.78 118.61, 482.71 112.22, 507.44 94.51 M464.85 125 C477.03 116.28, 489.21 107.56, 507.44 94.51 M507.44 94.51 C523.88 75.15, 540.33 55.78, 558.54 34.34 M507.44 94.51 C518.78 81.16, 530.11 67.81, 558.54 34.34 M558.54 34.34 C564.04 16.91, 569.55 -0.52, 578.32 -28.3 M558.54 34.34 C563.13 19.81, 567.72 5.28, 578.32 -28.3 M578.32 -28.3 C574.66 -30.03, 571 -31.76, 568.43 -32.97 M578.32 -28.3 C575.97 -29.41, 573.63 -30.51, 568.43 -32.97 M568.43 -32.97 C538.32 -31.59, 508.21 -30.21, 478.32 -28.85 M568.43 -32.97 C544.88 -31.89, 521.32 -30.81, 478.32 -28.85 M478.32 -28.85 C448.98 -36.78, 419.64 -44.71, 373.64 -57.15 M478.32 -28.85 C451.8 -36.01, 425.29 -43.18, 373.64 -57.15 M373.64 -57.15 C346 -68.59, 318.35 -80.04, 287.37 -92.86 M373.64 -57.15 C355.65 -64.59, 337.66 -72.04, 287.37 -92.86 M287.37 -92.86 C267.84 -100.92, 248.31 -108.97, 221.44 -120.06 M287.37 -92.86 C261.57 -103.51, 235.76 -114.15, 221.44 -120.06 M221.44 -120.06 C209.66 -123.13, 197.89 -126.2, 164.57 -134.9 M221.44 -120.06 C206.85 -123.87, 192.25 -127.67, 164.57 -134.9 M164.57 -134.9 C144.67 -130.9, 124.77 -126.9, 105.77 -123.08 M164.57 -134.9 C148.62 -131.69, 132.67 -128.49, 105.77 -123.08 M105.77 -123.08 C88.63 -112.64, 71.49 -102.19, 46.71 -87.09 M105.77 -123.08 C91.78 -114.56, 77.79 -106.03, 46.71 -87.09 M46.71 -87.09 C32.5 -68.54, 18.29 -49.99, 0 -26.1 M46.71 -87.09 C32.18 -68.13, 17.66 -49.16, 0 -26.1 M0 -26.1 C-0.16 -19.58, -0.32 -13.07, -0.55 -3.85 M0 -26.1 C-0.18 -18.77, -0.36 -11.45, -0.55 -3.85 M-0.55 -3.85 C-0.35 -2.43, -0.15 -1.02, 0 0 M-0.55 -3.85 C-0.42 -2.97, -0.3 -2.1, 0 0" stroke="#000" stroke-width="1" fill="none"></path></g></g><mask></mask><g stroke-linecap="round"><g transform="translate(1374.7330679972038 35.701192942766966) rotate(0 -107.28126717062696 291.1051742103243)" fill-rule="evenodd"><path d="M0 0 L-287.5 124.03 L-425.41 187 L-519.34 233.2 L-559.35 275.38 L-554.35 318.48 L-533.71 346.82 L-489.04 378.12 L-419.87 392.63 L-366.81 400.12 L-302.63 405.78 L-290.84 411.91 L-312.16 466.1 L-262.95 478.8 L-102.17 511.46 L93.76 545.47 L251.13 582.21 L344.79 504.88 L91.85 459.92 L-286.89 401.84 L-294.56 394.58 L-258.66 371.59 L-203.8 331.66 L-128.78 242.92 L-93.29 194.92 L0 0" stroke="none" stroke-width="0" fill="#d2bab0" fill-rule="evenodd"></path><path d="M0 0 C-58.97 25.44, -117.95 50.88, -287.5 124.03 M0 0 C-66.63 28.74, -133.26 57.49, -287.5 124.03 M-287.5 124.03 C-338.96 147.53, -390.42 171.02, -425.41 187 M-287.5 124.03 C-341.43 148.65, -395.36 173.28, -425.41 187 M-425.41 187 C-455.25 201.68, -485.1 216.36, -519.34 233.2 M-425.41 187 C-461.35 204.68, -497.29 222.35, -519.34 233.2 M-519.34 233.2 C-534.3 248.97, -549.26 264.74, -559.35 275.38 M-519.34 233.2 C-531.51 246.02, -543.67 258.85, -559.35 275.38 M-559.35 275.38 C-558.2 285.27, -557.06 295.16, -554.35 318.48 M-559.35 275.38 C-557.47 291.6, -555.58 307.82, -554.35 318.48 M-554.35 318.48 C-547.18 328.32, -540.01 338.17, -533.71 346.82 M-554.35 318.48 C-546.66 329.03, -538.98 339.59, -533.71 346.82 M-533.71 346.82 C-520.88 355.82, -508.04 364.81, -489.04 378.12 M-533.71 346.82 C-518.32 357.6, -502.93 368.38, -489.04 378.12 M-489.04 378.12 C-466.39 382.87, -443.74 387.62, -419.87 392.63 M-489.04 378.12 C-471.53 381.79, -454.01 385.47, -419.87 392.63 M-419.87 392.63 C-399.35 395.53, -378.82 398.42, -366.81 400.12 M-419.87 392.63 C-404.22 394.84, -388.57 397.05, -366.81 400.12 M-366.81 400.12 C-351 401.51, -335.18 402.91, -302.63 405.78 M-366.81 400.12 C-345.61 401.99, -324.4 403.86, -302.63 405.78 M-302.63 405.78 C-299.43 407.45, -296.22 409.11, -290.84 411.91 M-302.63 405.78 C-300.13 407.09, -297.62 408.39, -290.84 411.91 M-290.84 411.91 C-295.85 424.63, -300.85 437.36, -312.16 466.1 M-290.84 411.91 C-295.41 423.53, -299.98 435.14, -312.16 466.1 M-312.16 466.1 C-300.6 469.09, -289.04 472.07, -262.95 478.8 M-312.16 466.1 C-294.54 470.65, -276.92 475.2, -262.95 478.8 M-262.95 478.8 C-211.23 489.31, -159.51 499.81, -102.17 511.46 M-262.95 478.8 C-224.04 486.71, -185.13 494.61, -102.17 511.46 M-102.17 511.46 C-59.74 518.83, -17.31 526.19, 93.76 545.47 M-102.17 511.46 C-29.77 524.03, 42.63 536.6, 93.76 545.47 M93.76 545.47 C146.41 557.77, 199.07 570.06, 251.13 582.21 M93.76 545.47 C153.06 559.32, 212.36 573.16, 251.13 582.21 M251.13 582.21 C279.82 558.53, 308.5 534.85, 344.79 504.88 M251.13 582.21 C284.96 554.29, 318.78 526.36, 344.79 504.88 M344.79 504.88 C243.74 486.92, 142.7 468.96, 91.85 459.92 M344.79 504.88 C266.67 491, 188.54 477.11, 91.85 459.92 M91.85 459.92 C0.37 445.89, -91.11 431.87, -286.89 401.84 M91.85 459.92 C7.12 446.93, -77.61 433.94, -286.89 401.84 M-286.89 401.84 C-288.74 400.09, -290.58 398.34, -294.56 394.58 M-286.89 401.84 C-289.61 399.26, -292.33 396.69, -294.56 394.58 M-294.56 394.58 C-283.48 387.49, -272.4 380.39, -258.66 371.59 M-294.56 394.58 C-282.9 387.12, -271.25 379.65, -258.66 371.59 M-258.66 371.59 C-243.23 360.36, -227.81 349.13, -203.8 331.66 M-258.66 371.59 C-239.03 357.3, -219.41 343.02, -203.8 331.66 M-203.8 331.66 C-185.66 310.2, -167.51 288.74, -128.78 242.92 M-203.8 331.66 C-188.2 313.2, -172.59 294.74, -128.78 242.92 M-128.78 242.92 C-116.64 226.5, -104.49 210.07, -93.29 194.92 M-128.78 242.92 C-115.03 224.32, -101.27 205.72, -93.29 194.92 M-93.29 194.92 C-63.02 131.69, -32.76 68.45, 0 0 M-93.29 194.92 C-65.83 137.56, -38.38 80.2, 0 0 M0 0 C0 0, 0 0, 0 0 M0 0 C0 0, 0 0, 0 0" stroke="#a18072" stroke-width="1" fill="none"></path></g></g><mask></mask><g stroke-linecap="round"><g transform="translate(71.47529007628327 631.0557475247319) rotate(318.0158154461604 139.72178744110533 -75.97773343623703)" fill-rule="evenodd"><path d="M0 0 C1.18 0.43, 5.47 0, 7.08 2.58 C8.69 5.15, -0.97 16.63, 9.66 15.45 C20.28 14.27, 42.39 -0.43, 70.83 -4.51 C99.26 -8.59, 145.84 -14.49, 180.29 -9.01 C214.73 -3.54, 253.37 21.03, 277.51 28.33 C301.66 35.63, 323.66 38.42, 325.16 34.77 C326.66 31.12, 295.86 11.27, 286.53 6.44 C277.19 1.61, 288.89 13.41, 269.14 5.79 C249.4 -1.82, 205.29 -16.2, 168.05 -39.28 C130.81 -62.35, 75.66 -111.93, 45.72 -132.64 C15.78 -153.35, 0.43 -154.53, -11.59 -163.55 C-23.61 -172.56, -22.64 -184.47, -26.4 -186.72 C-30.16 -188.98, -30.91 -180.61, -34.13 -177.07 C-37.34 -173.53, -51.3 -171.7, -45.72 -165.48 C-40.14 -159.25, -8.77 -146.26, -0.64 -139.72 C7.48 -133.18, -0.19 -129.24, 3.03 -126.24 C6.25 -123.23, 8.12 -126.21, 18.67 -121.69 C29.22 -117.18, 45.13 -114.59, 66.32 -99.16 C87.51 -83.73, 134.53 -41.85, 145.83 -29.12 C157.12 -16.39, 154.29 -26.43, 134.09 -22.77 C113.89 -19.11, 46.32 -10.29, 24.64 -7.16 C2.95 -4.02, 8.09 -5.14, 3.98 -3.95 C-0.12 -2.76, 0.66 -0.66, 0 0" stroke="none" stroke-width="0" fill="#ffffff" fill-rule="evenodd"></path><path d="M0 0 C1.18 0.43, 5.47 0, 7.08 2.58 C8.69 5.15, -0.97 16.63, 9.66 15.45 C20.28 14.27, 42.39 -0.43, 70.83 -4.51 C99.26 -8.59, 145.84 -14.49, 180.29 -9.01 C214.73 -3.54, 253.37 21.03, 277.51 28.33 C301.66 35.63, 323.66 38.42, 325.16 34.77 C326.66 31.12, 295.86 11.27, 286.53 6.44 C277.19 1.61, 288.89 13.41, 269.14 5.79 C249.4 -1.82, 205.29 -16.2, 168.05 -39.28 C130.81 -62.35, 75.66 -111.93, 45.72 -132.64 C15.78 -153.35, 0.43 -154.53, -11.59 -163.55 C-23.61 -172.56, -22.64 -184.47, -26.4 -186.72 C-30.16 -188.98, -30.91 -180.61, -34.13 -177.07 C-37.34 -173.53, -51.3 -171.7, -45.72 -165.48 C-40.14 -159.25, -8.77 -146.26, -0.64 -139.72 C7.48 -133.18, -0.19 -129.24, 3.03 -126.24 C6.25 -123.23, 8.12 -126.21, 18.67 -121.69 C29.22 -117.18, 45.13 -114.59, 66.32 -99.16 C87.51 -83.73, 134.53 -41.85, 145.83 -29.12 C157.12 -16.39, 154.29 -26.43, 134.09 -22.77 C113.89 -19.11, 46.32 -10.29, 24.64 -7.16 C2.95 -4.02, 8.09 -5.14, 3.98 -3.95 C-0.12 -2.76, 0.66 -0.66, 0 0 M0 0 C1.18 0.43, 5.47 0, 7.08 2.58 C8.69 5.15, -0.97 16.63, 9.66 15.45 C20.28 14.27, 42.39 -0.43, 70.83 -4.51 C99.26 -8.59, 145.84 -14.49, 180.29 -9.01 C214.73 -3.54, 253.37 21.03, 277.51 28.33 C301.66 35.63, 323.66 38.42, 325.16 34.77 C326.66 31.12, 295.86 11.27, 286.53 6.44 C277.19 1.61, 288.89 13.41, 269.14 5.79 C249.4 -1.82, 205.29 -16.2, 168.05 -39.28 C130.81 -62.35, 75.66 -111.93, 45.72 -132.64 C15.78 -153.35, 0.43 -154.53, -11.59 -163.55 C-23.61 -172.56, -22.64 -184.47, -26.4 -186.72 C-30.16 -188.98, -30.91 -180.61, -34.13 -177.07 C-37.34 -173.53, -51.3 -171.7, -45.72 -165.48 C-40.14 -159.25, -8.77 -146.26, -0.64 -139.72 C7.48 -133.18, -0.19 -129.24, 3.03 -126.24 C6.25 -123.23, 8.12 -126.21, 18.67 -121.69 C29.22 -117.18, 45.13 -114.59, 66.32 -99.16 C87.51 -83.73, 134.53 -41.85, 145.83 -29.12 C157.12 -16.39, 154.29 -26.43, 134.09 -22.77 C113.89 -19.11, 46.32 -10.29, 24.64 -7.16 C2.95 -4.02, 8.09 -5.14, 3.98 -3.95 C-0.12 -2.76, 0.66 -0.66, 0 0" stroke="#ffffff" stroke-width="1" fill="none"></path></g></g><mask></mask><g stroke-linecap="round"><g transform="translate(348.814855195742 429.27956245416544) rotate(340.11880019185435 236.9419640764736 -25.071359617883786)"><path d="M0 0 C8.3 -0.91, 29.57 -3.94, 49.77 -5.47 C69.97 -7, 103.31 -4.98, 121.2 -9.17 C139.09 -13.36, 141.48 -21.05, 157.12 -30.62 C172.76 -40.18, 195.07 -57.96, 215.03 -66.59 C234.99 -75.21, 257.84 -80.7, 276.88 -82.37 C295.92 -84.04, 313.99 -76.69, 329.28 -76.6 C344.57 -76.51, 351.46 -83.96, 368.64 -81.82 C385.82 -79.69, 432.41 -66.96, 432.34 -63.79 C432.28 -60.62, 371.37 -69.51, 368.23 -62.82 C365.1 -56.14, 395.94 -39.53, 413.55 -23.69 C431.16 -7.85, 463.83 22.91, 473.88 32.23 M0 0 C8.3 -0.91, 29.57 -3.94, 49.77 -5.47 C69.97 -7, 103.31 -4.98, 121.2 -9.17 C139.09 -13.36, 141.48 -21.05, 157.12 -30.62 C172.76 -40.18, 195.07 -57.96, 215.03 -66.59 C234.99 -75.21, 257.84 -80.7, 276.88 -82.37 C295.92 -84.04, 313.99 -76.69, 329.28 -76.6 C344.57 -76.51, 351.46 -83.96, 368.64 -81.82 C385.82 -79.69, 432.41 -66.96, 432.34 -63.79 C432.28 -60.62, 371.37 -69.51, 368.23 -62.82 C365.1 -56.14, 395.94 -39.53, 413.55 -23.69 C431.16 -7.85, 463.83 22.91, 473.88 32.23" stroke="#ffffff" stroke-width="4" fill="none"></path></g></g><mask></mask><g stroke-linecap="round"><g transform="translate(1054.9227215167775 631.1265684600298) rotate(340.11880019185435 -327.21307378301026 -99.2745387416993)"><path d="M0 0 C-13.08 6.48, -47.83 31.72, -78.5 38.9 C-109.18 46.08, -144.22 51.69, -184.06 43.08 C-223.9 34.46, -279 17.94, -317.54 -12.8 C-356.09 -43.53, -383.43 -109.56, -415.34 -141.31 C-447.24 -173.05, -469.14 -186.53, -508.99 -203.25 C-548.84 -219.97, -630.19 -235.23, -654.43 -241.63 M0 0 C-13.08 6.48, -47.83 31.72, -78.5 38.9 C-109.18 46.08, -144.22 51.69, -184.06 43.08 C-223.9 34.46, -279 17.94, -317.54 -12.8 C-356.09 -43.53, -383.43 -109.56, -415.34 -141.31 C-447.24 -173.05, -469.14 -186.53, -508.99 -203.25 C-548.84 -219.97, -630.19 -235.23, -654.43 -241.63" stroke="#ffffff" stroke-width="4" fill="none"></path></g></g><mask></mask><g stroke-linecap="round"><g transform="translate(1142.5796806449798 303.3784369215232) rotate(321.42224902311307 255.085588102389 210.41280977702854)"><path d="M0 0 C41.71 49.42, 192.49 222.68, 250.25 296.55 C308.01 370.42, 325.51 415.94, 346.57 443.24 C367.62 470.55, 359.61 456.55, 376.58 460.39 C393.55 464.23, 433.01 467.09, 448.39 466.29 C463.78 465.49, 458.59 462.92, 468.89 455.57 C479.18 448.22, 564.11 492.72, 510.17 422.17 C456.23 351.63, 217.92 110.24, 145.25 32.3 C72.58 -45.64, 85.99 -32.5, 74.14 -45.46 M0 0 C41.71 49.42, 192.49 222.68, 250.25 296.55 C308.01 370.42, 325.51 415.94, 346.57 443.24 C367.62 470.55, 359.61 456.55, 376.58 460.39 C393.55 464.23, 433.01 467.09, 448.39 466.29 C463.78 465.49, 458.59 462.92, 468.89 455.57 C479.18 448.22, 564.11 492.72, 510.17 422.17 C456.23 351.63, 217.92 110.24, 145.25 32.3 C72.58 -45.64, 85.99 -32.5, 74.14 -45.46" stroke="#ffffff" stroke-width="4" fill="none"></path></g></g><mask></mask><g stroke-linecap="round"><g transform="translate(1145.280988997838 311.7834887972281) rotate(321.42224902311307 235.5935805516565 199.27676585308643)"><path d="M0 0 C18.26 -10.75, 36.52 -21.5, 51.68 -30.42 M0 0 C13.81 -8.13, 27.61 -16.25, 51.68 -30.42 M51.68 -30.42 C206.34 138.94, 361 308.31, 471.19 428.98 M51.68 -30.42 C169.48 98.57, 287.27 227.57, 471.19 428.98 M471.19 428.98 C437.33 428.45, 403.47 427.92, 374.71 427.47 M471.19 428.98 C451.52 428.67, 431.86 428.36, 374.71 427.47 M374.71 427.47 C296.44 338.18, 218.17 248.89, 0 0 M374.71 427.47 C297.76 339.68, 220.81 251.9, 0 0" stroke="#ffffff" stroke-width="4" fill="none"></path></g></g><mask></mask><g stroke-linecap="round" transform="translate(579.3373657369375 386.34438004962203) rotate(0 28.27812478427404 28.278124784273132)"><path d="M56.56 28.28 C56.56 29.91, 56.41 31.58, 56.13 33.19 C55.84 34.8, 55.41 36.41, 54.85 37.95 C54.29 39.49, 53.59 41, 52.77 42.42 C51.95 43.83, 50.99 45.2, 49.94 46.45 C48.89 47.71, 47.71 48.89, 46.45 49.94 C45.2 50.99, 43.83 51.95, 42.42 52.77 C41 53.59, 39.49 54.29, 37.95 54.85 C36.41 55.41, 34.8 55.84, 33.19 56.13 C31.58 56.41, 29.91 56.56, 28.28 56.56 C26.64 56.56, 24.98 56.41, 23.37 56.13 C21.76 55.84, 20.14 55.41, 18.61 54.85 C17.07 54.29, 15.56 53.59, 14.14 52.77 C12.72 51.95, 11.36 50.99, 10.1 49.94 C8.85 48.89, 7.67 47.71, 6.62 46.45 C5.56 45.2, 4.61 43.83, 3.79 42.42 C2.97 41, 2.27 39.49, 1.71 37.95 C1.15 36.41, 0.71 34.8, 0.43 33.19 C0.15 31.58, 0 29.91, 0 28.28 C0 26.64, 0.15 24.98, 0.43 23.37 C0.71 21.76, 1.15 20.14, 1.71 18.61 C2.27 17.07, 2.97 15.56, 3.79 14.14 C4.61 12.72, 5.56 11.36, 6.62 10.1 C7.67 8.85, 8.85 7.67, 10.1 6.62 C11.36 5.56, 12.72 4.61, 14.14 3.79 C15.56 2.97, 17.07 2.27, 18.61 1.71 C20.14 1.15, 21.76 0.71, 23.37 0.43 C24.98 0.15, 26.64 0, 28.28 0 C29.91 0, 31.58 0.15, 33.19 0.43 C34.8 0.71, 36.41 1.15, 37.95 1.71 C39.49 2.27, 41 2.97, 42.42 3.79 C43.83 4.61, 45.2 5.56, 46.45 6.62 C47.71 7.67, 48.89 8.85, 49.94 10.1 C50.99 11.36, 51.95 12.72, 52.77 14.14 C53.59 15.56, 54.29 17.07, 54.85 18.61 C55.41 20.14, 55.84 21.76, 56.13 23.37 C56.41 24.98, 56.48 27.46, 56.56 28.28 C56.63 29.1, 56.63 27.46, 56.56 28.28" stroke="none" stroke-width="0" fill="#ffffff"></path><path d="M56.56 28.28 C56.56 29.91, 56.41 31.58, 56.13 33.19 C55.84 34.8, 55.41 36.41, 54.85 37.95 C54.29 39.49, 53.59 41, 52.77 42.42 C51.95 43.83, 50.99 45.2, 49.94 46.45 C48.89 47.71, 47.71 48.89, 46.45 49.94 C45.2 50.99, 43.83 51.95, 42.42 52.77 C41 53.59, 39.49 54.29, 37.95 54.85 C36.41 55.41, 34.8 55.84, 33.19 56.13 C31.58 56.41, 29.91 56.56, 28.28 56.56 C26.64 56.56, 24.98 56.41, 23.37 56.13 C21.76 55.84, 20.14 55.41, 18.61 54.85 C17.07 54.29, 15.56 53.59, 14.14 52.77 C12.72 51.95, 11.36 50.99, 10.1 49.94 C8.85 48.89, 7.67 47.71, 6.62 46.45 C5.56 45.2, 4.61 43.83, 3.79 42.42 C2.97 41, 2.27 39.49, 1.71 37.95 C1.15 36.41, 0.71 34.8, 0.43 33.19 C0.15 31.58, 0 29.91, 0 28.28 C0 26.64, 0.15 24.98, 0.43 23.37 C0.71 21.76, 1.15 20.14, 1.71 18.61 C2.27 17.07, 2.97 15.56, 3.79 14.14 C4.61 12.72, 5.56 11.36, 6.62 10.1 C7.67 8.85, 8.85 7.67, 10.1 6.62 C11.36 5.56, 12.72 4.61, 14.14 3.79 C15.56 2.97, 17.07 2.27, 18.61 1.71 C20.14 1.15, 21.76 0.71, 23.37 0.43 C24.98 0.15, 26.64 0, 28.28 0 C29.91 0, 31.58 0.15, 33.19 0.43 C34.8 0.71, 36.41 1.15, 37.95 1.71 C39.49 2.27, 41 2.97, 42.42 3.79 C43.83 4.61, 45.2 5.56, 46.45 6.62 C47.71 7.67, 48.89 8.85, 49.94 10.1 C50.99 11.36, 51.95 12.72, 52.77 14.14 C53.59 15.56, 54.29 17.07, 54.85 18.61 C55.41 20.14, 55.84 21.76, 56.13 23.37 C56.41 24.98, 56.48 27.46, 56.56 28.28 C56.63 29.1, 56.63 27.46, 56.56 28.28" stroke="#ffffff" stroke-width="4" fill="none"></path></g><g stroke-linecap="round"><g transform="translate(1089.9540215680317 392.90049439857694) rotate(292.2704923816565 -9.998895771310345 -177.88375742435403)"><path d="M0 0 C-10.55 -3.15, -39.19 -9.23, -63.33 -18.91 C-87.46 -28.59, -121.68 -43.94, -144.8 -58.08 C-167.91 -72.22, -185.87 -82.59, -202.02 -103.72 C-218.17 -124.85, -232.7 -157.23, -241.69 -184.87 C-250.67 -212.5, -256.35 -243.42, -255.92 -269.54 C-255.48 -295.66, -251.42 -324.86, -239.1 -341.57 C-226.77 -358.27, -205.79 -375.63, -181.96 -369.76 C-158.13 -363.88, -135.28 -340.38, -96.11 -306.31 C-56.93 -272.23, -2.24 -218.7, 53.1 -165.31 C108.44 -111.93, 205.45 -15.89, 235.92 13.99 M0 0 C-10.55 -3.15, -39.19 -9.23, -63.33 -18.91 C-87.46 -28.59, -121.68 -43.94, -144.8 -58.08 C-167.91 -72.22, -185.87 -82.59, -202.02 -103.72 C-218.17 -124.85, -232.7 -157.23, -241.69 -184.87 C-250.67 -212.5, -256.35 -243.42, -255.92 -269.54 C-255.48 -295.66, -251.42 -324.86, -239.1 -341.57 C-226.77 -358.27, -205.79 -375.63, -181.96 -369.76 C-158.13 -363.88, -135.28 -340.38, -96.11 -306.31 C-56.93 -272.23, -2.24 -218.7, 53.1 -165.31 C108.44 -111.93, 205.45 -15.89, 235.92 13.99" stroke="#ffffff" stroke-width="4" fill="none"></path></g></g><mask></mask><g stroke-linecap="round"><g transform="translate(1310.2455590208265 339.768330308591) rotate(292.2704923816565 -155.4412409798333 -122.92490755178835)"><path d="M0 0 C-66.93 -64.27, -133.86 -128.53, -256.05 -245.85 M0 0 C-53.41 -51.28, -106.81 -102.56, -256.05 -245.85 M-256.05 -245.85 C-259.38 -243.01, -262.72 -240.18, -271.71 -232.53 M-256.05 -245.85 C-260.38 -242.17, -264.71 -238.49, -271.71 -232.53 M-271.71 -232.53 C-220.23 -181.41, -168.75 -130.29, -47.67 -10.06 M-271.71 -232.53 C-218.77 -179.96, -165.82 -127.38, -47.67 -10.06 M-47.67 -10.06 C-62.85 -10.06, -78.04 -10.06, -108.78 -10.06 M-47.67 -10.06 C-60.65 -10.06, -73.64 -10.06, -108.78 -10.06 M-108.78 -10.06 C-159.7 -55.65, -210.62 -101.24, -310.88 -191.01 M-108.78 -10.06 C-161.11 -56.91, -213.44 -103.77, -310.88 -191.01" stroke="#ffffff" stroke-width="4" fill="none"></path></g></g><mask></mask><g stroke-linecap="round"><g transform="translate(1075.0310732865619 222.28859944680107) rotate(292.2704923816565 62.99010649353477 88.4271904014339)"><path d="M0 0 C-2.35 3.07, -16.53 8.7, -14.09 18.43 C-11.65 28.16, -11.07 31.95, 14.62 58.36 C40.32 84.76, 119.16 157.1, 140.07 176.85 M0 0 C-2.35 3.07, -16.53 8.7, -14.09 18.43 C-11.65 28.16, -11.07 31.95, 14.62 58.36 C40.32 84.76, 119.16 157.1, 140.07 176.85" stroke="#ffffff" stroke-width="4" fill="none"></path></g></g><mask></mask><g stroke-linecap="round"><g transform="translate(1257.929890188927 68.3208204724856) rotate(0 -93.8461955456296 53.61665556272294)"><path d="M0 0 C-55.45 27.59, -356.87 175.27, -332.7 165.55 C-308.54 155.83, 65.39 -21.01, 145.01 -58.32 M0 0 C-55.45 27.59, -356.87 175.27, -332.7 165.55 C-308.54 155.83, 65.39 -21.01, 145.01 -58.32" stroke="#ffffff" stroke-width="4" fill="none"></path></g></g><mask></mask><g stroke-linecap="round"><g transform="translate(1098.1762758421246 432.2671123476416) rotate(0 152.3321165017096 -211.04221824367926)"><path d="M0 0 C14.35 -9.61, 57.11 -30.06, 86.09 -57.67 C115.07 -85.28, 145.81 -122.1, 173.89 -165.67 C201.97 -209.25, 232.77 -276.38, 254.57 -319.12 C276.37 -361.85, 296.32 -404.92, 304.66 -422.08 M0 0 C14.35 -9.61, 57.11 -30.06, 86.09 -57.67 C115.07 -85.28, 145.81 -122.1, 173.89 -165.67 C201.97 -209.25, 232.77 -276.38, 254.57 -319.12 C276.37 -361.85, 296.32 -404.92, 304.66 -422.08" stroke="#ffffff" stroke-width="4" fill="none"></path></g></g><mask></mask><g stroke-linecap="round"><g transform="translate(808.6164409767662 346.89388144650684) rotate(352.90177224703075 263.6989392743053 -149.88925022537865)"><path d="M0 0 C-0.12 -12.7, -22.27 -50.92, -0.75 -76.23 C20.78 -101.54, 41 -114.59, 129.15 -151.85 C217.3 -189.11, 461.65 -275.12, 528.15 -299.78 M0 0 C-0.12 -12.7, -22.27 -50.92, -0.75 -76.23 C20.78 -101.54, 41 -114.59, 129.15 -151.85 C217.3 -189.11, 461.65 -275.12, 528.15 -299.78" stroke="#ffffff" stroke-width="4" fill="none"></path></g></g><mask></mask><g stroke-linecap="round"><g transform="translate(1315.9958287435147 15.467633328048123) rotate(0 -28.761579099998926 26.272613947352284)"><path d="M0 0 C-9.59 8.76, -47.94 43.79, -57.52 52.55 M0 0 C-9.59 8.76, -47.94 43.79, -57.52 52.55" stroke="#ffffff" stroke-width="4" fill="none"></path></g></g><mask></mask><g stroke-linecap="round"><g transform="translate(511.56380467888084 449.77010254673087) rotate(0 283.6037693737544 -51.67756299522512)"><path d="M0 0 C10.32 -12.16, 38.31 -55.74, 61.95 -72.97 C85.59 -90.19, 115.66 -100.86, 141.84 -103.36 C168.01 -105.85, 189.29 -96.86, 219.01 -87.94 C248.73 -79.02, 282.71 -63.16, 320.15 -49.82 C357.59 -36.47, 402.49 -14.96, 443.67 -7.89 C484.84 -0.82, 546.62 -7.46, 567.21 -7.37 M0 0 C10.32 -12.16, 38.31 -55.74, 61.95 -72.97 C85.59 -90.19, 115.66 -100.86, 141.84 -103.36 C168.01 -105.85, 189.29 -96.86, 219.01 -87.94 C248.73 -79.02, 282.71 -63.16, 320.15 -49.82 C357.59 -36.47, 402.49 -14.96, 443.67 -7.89 C484.84 -0.82, 546.62 -7.46, 567.21 -7.37" stroke="#ffffff" stroke-width="4" fill="none"></path></g></g><mask></mask><g stroke-linecap="round"><g transform="translate(511.89178720043856 450.6926383659825) rotate(0 5.221382756593812 14.041767662762595)"><path d="M0 0 C1.2 1.96, 5.48 7.05, 7.22 11.73 C8.96 16.41, 9.91 25.36, 10.44 28.08 M0 0 C1.2 1.96, 5.48 7.05, 7.22 11.73 C8.96 16.41, 9.91 25.36, 10.44 28.08" stroke="#ffffff" stroke-width="4" fill="none"></path></g></g><mask></mask><g stroke-linecap="round"><g transform="translate(522.9727758590452 478.900579897027) rotate(0 278.1622786848893 42.34524847036994)"><path d="M0 0 C16.55 3.92, 55.84 3.28, 99.27 23.51 C142.7 43.73, 207.54 106.02, 260.56 121.35 C313.58 136.68, 375.32 127.28, 417.39 115.48 C459.46 103.68, 489.85 75.93, 513 50.57 C536.16 25.22, 549.1 -22.12, 556.32 -36.66 M0 0 C16.55 3.92, 55.84 3.28, 99.27 23.51 C142.7 43.73, 207.54 106.02, 260.56 121.35 C313.58 136.68, 375.32 127.28, 417.39 115.48 C459.46 103.68, 489.85 75.93, 513 50.57 C536.16 25.22, 549.1 -22.12, 556.32 -36.66" stroke="#ffffff" stroke-width="4" fill="none"></path></g></g><mask></mask><g stroke-linecap="round"><g transform="translate(1350.9660885182675 60.21420669230474) rotate(0 -11.899901894137656 29.672386162652742)"><path d="M0 0 C-3.97 9.89, -19.83 49.45, -23.8 59.34 M0 0 C-3.97 9.89, -19.83 49.45, -23.8 59.34" stroke="#ffffff" stroke-width="4" fill="none"></path></g></g><mask></mask><g stroke-linecap="round" transform="translate(1043.548264463985 547.9020346910597) rotate(325.8254433948901 10.556403702197713 39.502669197412274)"><path d="M0 0 L21.11 0 L21.11 79.01 L0 79.01" stroke="none" stroke-width="0" fill="#ffffff"></path><path d="M0 0 C5.23 0, 10.47 0, 21.11 0 M0 0 C6.49 0, 12.97 0, 21.11 0 M21.11 0 C21.11 20.23, 21.11 40.45, 21.11 79.01 M21.11 0 C21.11 25.9, 21.11 51.81, 21.11 79.01 M21.11 79.01 C13.09 79.01, 5.06 79.01, 0 79.01 M21.11 79.01 C16.29 79.01, 11.47 79.01, 0 79.01 M0 79.01 C0 56.31, 0 33.6, 0 0 M0 79.01 C0 58.31, 0 37.61, 0 0" stroke="#ffffff" stroke-width="4" fill="none"></path></g><g stroke-linecap="round" transform="translate(1014.5964394114126 614.6966287385917) rotate(16.093539456447957 7.5615809933660785 34.32071239754214)"><path d="M0 0 L15.12 0 L15.12 68.64 L0 68.64" stroke="none" stroke-width="0" fill="#ffffff"></path><path d="M0 0 C5.31 0, 10.62 0, 15.12 0 M0 0 C3.08 0, 6.17 0, 15.12 0 M15.12 0 C15.12 14.34, 15.12 28.68, 15.12 68.64 M15.12 0 C15.12 14.1, 15.12 28.19, 15.12 68.64 M15.12 68.64 C9.25 68.64, 3.37 68.64, 0 68.64 M15.12 68.64 C11.44 68.64, 7.75 68.64, 0 68.64 M0 68.64 C0 41.52, 0 14.4, 0 0 M0 68.64 C0 41.58, 0 14.52, 0 0" stroke="#ffffff" stroke-width="4" fill="none"></path></g><g stroke-linecap="round" transform="translate(1060.6271816216904 611.6171657061964) rotate(16.093539456447957 7.5615809933660785 34.32071239754214)"><path d="M0 0 L15.12 0 L15.12 68.64 L0 68.64" stroke="none" stroke-width="0" fill="#ffffff"></path><path d="M0 0 C6 0, 12.01 0, 15.12 0 M0 0 C5.95 0, 11.89 0, 15.12 0 M15.12 0 C15.12 15.54, 15.12 31.08, 15.12 68.64 M15.12 0 C15.12 18, 15.12 35.99, 15.12 68.64 M15.12 68.64 C9.5 68.64, 3.87 68.64, 0 68.64 M15.12 68.64 C11.53 68.64, 7.94 68.64, 0 68.64 M0 68.64 C0 44.65, 0 20.66, 0 0 M0 68.64 C0 48.39, 0 28.13, 0 0" stroke="#ffffff" stroke-width="4" fill="none"></path></g><g stroke-linecap="round" transform="translate(1008.6883028346492 590.1194316960868) rotate(325.8254433948901 10.866942679445856 18.3337334193252)"><path d="M0 0 L21.73 0 L21.73 36.67 L0 36.67" stroke="none" stroke-width="0" fill="#ffffff"></path><path d="M0 0 C4.79 0, 9.57 0, 21.73 0 M0 0 C6.17 0, 12.34 0, 21.73 0 M21.73 0 C21.73 12.2, 21.73 24.39, 21.73 36.67 M21.73 0 C21.73 12.94, 21.73 25.89, 21.73 36.67 M21.73 36.67 C15.26 36.67, 8.79 36.67, 0 36.67 M21.73 36.67 C15.05 36.67, 8.38 36.67, 0 36.67 M0 36.67 C0 25.16, 0 13.65, 0 0 M0 36.67 C0 29.27, 0 21.87, 0 0" stroke="#ffffff" stroke-width="4" fill="none"></path></g><g stroke-linecap="round"><g transform="translate(371.4684994629206 509.83252496920113) rotate(0 697.8517527121003 -180.33737619085377)" fill-rule="evenodd"><path d="M0 0 L34.01 -4.79 L76.56 -9.57 L106.47 -12.65 L133.13 -14.18 L171.76 -12.3 L205.77 -7.86 L243.36 5.13 L273.61 21.02 L305.23 42.21 L357.18 81.35 L371.71 89.72 L395.3 100.49 L427.25 109.21 L457.85 111.77 L513.39 110.57 L546.37 105.79 L580.72 96.56 L615.59 80.67 L642.76 63.44 L665.12 42.29 L688.46 15.2 L696.98 3.79 L786.59 21.09 L865.3 35.75 L968.82 56.56 L1081.62 80.25 L1148.8 99.92 L1202.82 119.23 L1233.4 131.01 L1266.74 139.03 L1279.77 128.75 L1305.46 113.08 L1341.31 87.14 L1347.2 77.49 L1348.83 65.83 L1382.79 48.29 L1395.7 38.01 L1392.44 27.48 L1369.26 17.96 L1250.4 -3.37 L1056.41 -31.37 L887.81 -53.57 L726.61 -77.57 L749.81 -90.97 L789.41 -115.77 L824.01 -145.77 L874.01 -203.57 L917.01 -268.77 L947.81 -328.17 L993.21 -421.37 L1031.39 -499.7 L553.73 -276 L884.68 -440.91 L943.28 -493.89 L759.03 -400.59 L527.65 -276.58 L482.88 -246.1 L463.42 -228.52 L447.01 -207.19 L441.38 -192.42 L443.02 -169.92 L458.03 -132.41 L390.75 -160.31 L325.11 -183.28 L333.31 -192.89 L386.29 -208.36 L363.79 -209.77 L319.95 -204.61 L305.65 -198.75 L288.77 -187.26 L241.89 -177.18 L220.56 -167.57 L193.83 -149.52 L167.58 -125.38 L138.27 -85.06 L120.82 -59.6 L96.47 -43.88 L150.42 -30.71 L148.05 -48.31 L139.86 -60.48 L174.39 -105.42 L195.87 -129.77 L223.76 -146.82 L260.06 -160.32 L291.94 -164.75 L310.98 -161.65 L368.09 -145.71 L449.33 -114.28 L522.6 -86.16 L566.88 -71.77 L601.85 -65.13 L707.2 -68.5 L694.4 -34.78 L683.1 -8.91 L701.69 -7.36 L722.72 -62.48 L707.88 -68.95 L675.13 -83.51 L628.64 -82.4 L587.69 -86.38 L548.73 -95.68 L509.1 -111.84 L488.96 -125.79 L469.92 -146.15 L461.51 -164.75 L458.19 -176.92 L459.96 -198.17 L468.37 -212.56 L485.41 -226.51 L529.47 -250.42 L571.08 -271.45 L688.19 -324.57 L979.74 -450.73 L955.28 -389.97 L631.32 -246.68 L638.04 -225.97 L928.13 -349.91 L905.81 -295.07 L660.84 -174.93 L664.83 -160.45 L673.83 -154.2 L687.06 -153.7 L737.76 -171.69 L878.13 -238.12 L851.65 -204.16 L805.45 -155.2 L752.25 -112.99 L720.53 -94.51 L674.95 -83.52 L722.53 -62.54 L761.24 -57.8 L1336.09 34.14 L1261.54 92.25 L701.78 -7.39 L682.87 -8.92 L666.98 17.99 L627.18 54.61 L592.33 76.04 L555.36 88.64 L513.31 96.17 L475.84 99.11 L443.45 96.82 L406.47 88.81 L369.99 71.46 L304.05 25.98 L271.98 4.22 L230.1 -17.05 L178.56 -27.52 L151.89 -30.47 L96.58 -43.79 L49.31 -25.23 L1.7 -2.98" stroke="none" stroke-width="0" fill="#ffffff" fill-rule="evenodd"></path><path d="M0 0 C7.82 -1.1, 15.63 -2.2, 34.01 -4.79 M0 0 C8.04 -1.13, 16.07 -2.26, 34.01 -4.79 M34.01 -4.79 C44.58 -5.97, 55.16 -7.16, 76.56 -9.57 M34.01 -4.79 C43.05 -5.8, 52.09 -6.82, 76.56 -9.57 M76.56 -9.57 C84.1 -10.35, 91.63 -11.12, 106.47 -12.65 M76.56 -9.57 C84.31 -10.37, 92.05 -11.16, 106.47 -12.65 M106.47 -12.65 C114.26 -13.1, 122.04 -13.55, 133.13 -14.18 M106.47 -12.65 C116.81 -13.24, 127.15 -13.84, 133.13 -14.18 M133.13 -14.18 C141.28 -13.79, 149.42 -13.39, 171.76 -12.3 M133.13 -14.18 C144.6 -13.63, 156.07 -13.07, 171.76 -12.3 M171.76 -12.3 C180.71 -11.14, 189.66 -9.97, 205.77 -7.86 M171.76 -12.3 C185.31 -10.53, 198.87 -8.76, 205.77 -7.86 M205.77 -7.86 C214.71 -4.77, 223.66 -1.68, 243.36 5.13 M205.77 -7.86 C218.83 -3.35, 231.89 1.16, 243.36 5.13 M243.36 5.13 C251.84 9.58, 260.32 14.04, 273.61 21.02 M243.36 5.13 C251.47 9.39, 259.58 13.65, 273.61 21.02 M273.61 21.02 C280.35 25.54, 287.09 30.05, 305.23 42.21 M273.61 21.02 C282.59 27.04, 291.57 33.06, 305.23 42.21 M305.23 42.21 C323.92 56.29, 342.6 70.37, 357.18 81.35 M305.23 42.21 C323.18 55.73, 341.12 69.25, 357.18 81.35 M357.18 81.35 C361.03 83.57, 364.87 85.78, 371.71 89.72 M357.18 81.35 C362.37 84.34, 367.56 87.33, 371.71 89.72 M371.71 89.72 C379.18 93.13, 386.64 96.54, 395.3 100.49 M371.71 89.72 C376.59 91.95, 381.46 94.17, 395.3 100.49 M395.3 100.49 C403.9 102.84, 412.5 105.18, 427.25 109.21 M395.3 100.49 C404.66 103.05, 414.03 105.6, 427.25 109.21 M427.25 109.21 C435.33 109.88, 443.42 110.56, 457.85 111.77 M427.25 109.21 C438.1 110.11, 448.94 111.02, 457.85 111.77 M457.85 111.77 C477.4 111.35, 496.95 110.93, 513.39 110.57 M457.85 111.77 C479.83 111.3, 501.81 110.82, 513.39 110.57 M513.39 110.57 C523.76 109.07, 534.14 107.56, 546.37 105.79 M513.39 110.57 C523.87 109.05, 534.36 107.53, 546.37 105.79 M546.37 105.79 C559.65 102.22, 572.94 98.65, 580.72 96.56 M546.37 105.79 C554.78 103.53, 563.19 101.27, 580.72 96.56 M580.72 96.56 C590.42 92.14, 600.11 87.72, 615.59 80.67 M580.72 96.56 C593.02 90.96, 605.31 85.35, 615.59 80.67 M615.59 80.67 C623.61 75.58, 631.63 70.5, 642.76 63.44 M615.59 80.67 C626.37 73.83, 637.15 67, 642.76 63.44 M642.76 63.44 C650.88 55.75, 659.01 48.07, 665.12 42.29 M642.76 63.44 C650.38 56.23, 658 49.02, 665.12 42.29 M665.12 42.29 C673.25 32.86, 681.37 23.43, 688.46 15.2 M665.12 42.29 C671.76 34.58, 678.4 26.87, 688.46 15.2 M688.46 15.2 C690.82 12.03, 693.19 8.87, 696.98 3.79 M688.46 15.2 C690.94 11.88, 693.42 8.55, 696.98 3.79 M696.98 3.79 C720.66 8.37, 744.35 12.94, 786.59 21.09 M696.98 3.79 C725.46 9.29, 753.94 14.79, 786.59 21.09 M786.59 21.09 C812.3 25.88, 838.01 30.67, 865.3 35.75 M786.59 21.09 C805.47 24.61, 824.36 28.13, 865.3 35.75 M865.3 35.75 C897.51 42.23, 929.73 48.7, 968.82 56.56 M865.3 35.75 C904.93 43.72, 944.55 51.68, 968.82 56.56 M968.82 56.56 C1004.29 64.01, 1039.75 71.45, 1081.62 80.25 M968.82 56.56 C1008.08 64.8, 1047.34 73.05, 1081.62 80.25 M1081.62 80.25 C1095.36 84.27, 1109.1 88.3, 1148.8 99.92 M1081.62 80.25 C1104.6 86.98, 1127.59 93.71, 1148.8 99.92 M1148.8 99.92 C1161.95 104.62, 1175.1 109.32, 1202.82 119.23 M1148.8 99.92 C1159.84 103.87, 1170.87 107.81, 1202.82 119.23 M1202.82 119.23 C1209.19 121.68, 1215.57 124.14, 1233.4 131.01 M1202.82 119.23 C1213.06 123.17, 1223.31 127.12, 1233.4 131.01 M1233.4 131.01 C1240.56 132.73, 1247.71 134.45, 1266.74 139.03 M1233.4 131.01 C1244.2 133.6, 1254.99 136.2, 1266.74 139.03 M1266.74 139.03 C1269.81 136.6, 1272.89 134.18, 1279.77 128.75 M1266.74 139.03 C1270.35 136.18, 1273.97 133.32, 1279.77 128.75 M1279.77 128.75 C1288.19 123.62, 1296.6 118.49, 1305.46 113.08 M1279.77 128.75 C1286.15 124.86, 1292.53 120.97, 1305.46 113.08 M1305.46 113.08 C1317.93 104.06, 1330.39 95.04, 1341.31 87.14 M1305.46 113.08 C1318.44 103.69, 1331.41 94.3, 1341.31 87.14 M1341.31 87.14 C1343.55 83.48, 1345.78 79.81, 1347.2 77.49 M1341.31 87.14 C1342.76 84.77, 1344.21 82.4, 1347.2 77.49 M1347.2 77.49 C1347.61 74.53, 1348.03 71.58, 1348.83 65.83 M1347.2 77.49 C1347.78 73.33, 1348.36 69.16, 1348.83 65.83 M1348.83 65.83 C1361.32 59.38, 1373.81 52.93, 1382.79 48.29 M1348.83 65.83 C1356 62.13, 1363.17 58.42, 1382.79 48.29 M1382.79 48.29 C1385.52 46.11, 1388.25 43.94, 1395.7 38.01 M1382.79 48.29 C1386.78 45.11, 1390.77 41.94, 1395.7 38.01 M1395.7 38.01 C1394.45 33.95, 1393.19 29.88, 1392.44 27.48 M1395.7 38.01 C1394.51 34.16, 1393.32 30.31, 1392.44 27.48 M1392.44 27.48 C1384.85 24.36, 1377.25 21.24, 1369.26 17.96 M1392.44 27.48 C1386.9 25.21, 1381.36 22.93, 1369.26 17.96 M1369.26 17.96 C1330.26 10.96, 1291.27 3.96, 1250.4 -3.37 M1369.26 17.96 C1326.81 10.34, 1284.36 2.72, 1250.4 -3.37 M1250.4 -3.37 C1200.5 -10.57, 1150.59 -17.78, 1056.41 -31.37 M1250.4 -3.37 C1202.6 -10.27, 1154.8 -17.17, 1056.41 -31.37 M1056.41 -31.37 C991.47 -39.92, 926.54 -48.47, 887.81 -53.57 M1056.41 -31.37 C995.7 -39.36, 934.99 -47.36, 887.81 -53.57 M887.81 -53.57 C838.9 -60.85, 790 -68.13, 726.61 -77.57 M887.81 -53.57 C854.58 -58.52, 821.35 -63.46, 726.61 -77.57 M726.61 -77.57 C734.67 -82.22, 742.72 -86.88, 749.81 -90.97 M726.61 -77.57 C735.32 -82.6, 744.03 -87.63, 749.81 -90.97 M749.81 -90.97 C762.39 -98.85, 774.98 -106.73, 789.41 -115.77 M749.81 -90.97 C760.5 -97.67, 771.19 -104.36, 789.41 -115.77 M789.41 -115.77 C799.89 -124.86, 810.38 -133.95, 824.01 -145.77 M789.41 -115.77 C800.85 -125.7, 812.3 -135.62, 824.01 -145.77 M824.01 -145.77 C834.04 -157.37, 844.07 -168.97, 874.01 -203.57 M824.01 -145.77 C842.33 -166.95, 860.65 -188.12, 874.01 -203.57 M874.01 -203.57 C888.6 -225.69, 903.19 -247.81, 917.01 -268.77 M874.01 -203.57 C890.36 -228.37, 906.72 -253.17, 917.01 -268.77 M917.01 -268.77 C923.19 -280.69, 929.37 -292.6, 947.81 -328.17 M917.01 -268.77 C926.25 -286.6, 935.5 -304.43, 947.81 -328.17 M947.81 -328.17 C958.76 -350.66, 969.72 -373.15, 993.21 -421.37 M947.81 -328.17 C957.1 -347.25, 966.4 -366.34, 993.21 -421.37 M993.21 -421.37 C1001.41 -438.19, 1009.61 -455.01, 1031.39 -499.7 M993.21 -421.37 C1002.86 -441.18, 1012.52 -460.99, 1031.39 -499.7 M1031.39 -499.7 C843.7 -411.8, 656.02 -323.9, 553.73 -276 M1031.39 -499.7 C882.73 -430.08, 734.08 -360.46, 553.73 -276 M553.73 -276 C649.19 -323.57, 744.66 -371.14, 884.68 -440.91 M553.73 -276 C647.22 -322.59, 740.71 -369.17, 884.68 -440.91 M884.68 -440.91 C900.87 -455.55, 917.06 -470.19, 943.28 -493.89 M884.68 -440.91 C904.23 -458.58, 923.78 -476.25, 943.28 -493.89 M943.28 -493.89 C885.11 -464.43, 826.94 -434.98, 759.03 -400.59 M943.28 -493.89 C902.08 -473.03, 860.88 -452.17, 759.03 -400.59 M759.03 -400.59 C672.94 -354.45, 586.85 -308.31, 527.65 -276.58 M759.03 -400.59 C682.17 -359.4, 605.31 -318.2, 527.65 -276.58 M527.65 -276.58 C512.48 -266.25, 497.31 -255.93, 482.88 -246.1 M527.65 -276.58 C510.31 -264.77, 492.96 -252.97, 482.88 -246.1 M482.88 -246.1 C477.83 -241.54, 472.78 -236.99, 463.42 -228.52 M482.88 -246.1 C477.16 -240.94, 471.44 -235.77, 463.42 -228.52 M463.42 -228.52 C459.34 -223.22, 455.26 -217.91, 447.01 -207.19 M463.42 -228.52 C459.13 -222.94, 454.83 -217.36, 447.01 -207.19 M447.01 -207.19 C445.23 -202.53, 443.46 -197.87, 441.38 -192.42 M447.01 -207.19 C445.7 -203.76, 444.39 -200.32, 441.38 -192.42 M441.38 -192.42 C441.85 -186.02, 442.32 -179.62, 443.02 -169.92 M441.38 -192.42 C441.73 -187.69, 442.07 -182.95, 443.02 -169.92 M443.02 -169.92 C446.28 -161.78, 449.53 -153.65, 458.03 -132.41 M443.02 -169.92 C447.34 -159.12, 451.66 -148.32, 458.03 -132.41 M458.03 -132.41 C435.57 -141.72, 413.12 -151.03, 390.75 -160.31 M458.03 -132.41 C432.81 -142.86, 407.6 -153.32, 390.75 -160.31 M390.75 -160.31 C375.17 -165.76, 359.59 -171.21, 325.11 -183.28 M390.75 -160.31 C375.88 -165.51, 361.01 -170.71, 325.11 -183.28 M325.11 -183.28 C327.02 -185.52, 328.93 -187.75, 333.31 -192.89 M325.11 -183.28 C328.16 -186.86, 331.21 -190.43, 333.31 -192.89 M333.31 -192.89 C351.86 -198.31, 370.41 -203.72, 386.29 -208.36 M333.31 -192.89 C351.42 -198.18, 369.54 -203.47, 386.29 -208.36 M386.29 -208.36 C380.31 -208.74, 374.32 -209.11, 363.79 -209.77 M386.29 -208.36 C377.38 -208.92, 368.46 -209.48, 363.79 -209.77 M363.79 -209.77 C349.49 -208.09, 335.18 -206.4, 319.95 -204.61 M363.79 -209.77 C348.29 -207.95, 332.8 -206.12, 319.95 -204.61 M319.95 -204.61 C316.14 -203.05, 312.33 -201.49, 305.65 -198.75 M319.95 -204.61 C315.41 -202.75, 310.86 -200.89, 305.65 -198.75 M305.65 -198.75 C301.68 -196.05, 297.7 -193.34, 288.77 -187.26 M305.65 -198.75 C300.46 -195.22, 295.26 -191.68, 288.77 -187.26 M288.77 -187.26 C273.97 -184.08, 259.16 -180.9, 241.89 -177.18 M288.77 -187.26 C270.77 -183.39, 252.77 -179.52, 241.89 -177.18 M241.89 -177.18 C234.51 -173.86, 227.12 -170.53, 220.56 -167.57 M241.89 -177.18 C235.97 -174.52, 230.05 -171.85, 220.56 -167.57 M220.56 -167.57 C214.05 -163.18, 207.54 -158.78, 193.83 -149.52 M220.56 -167.57 C212.05 -161.83, 203.55 -156.08, 193.83 -149.52 M193.83 -149.52 C187.94 -144.1, 182.04 -138.68, 167.58 -125.38 M193.83 -149.52 C186.94 -143.19, 180.06 -136.85, 167.58 -125.38 M167.58 -125.38 C157.97 -112.15, 148.36 -98.93, 138.27 -85.06 M167.58 -125.38 C161.1 -116.47, 154.63 -107.56, 138.27 -85.06 M138.27 -85.06 C134.16 -79.05, 130.04 -73.05, 120.82 -59.6 M138.27 -85.06 C133.25 -77.72, 128.22 -70.39, 120.82 -59.6 M120.82 -59.6 C111.18 -53.38, 101.54 -47.15, 96.47 -43.88 M120.82 -59.6 C114.28 -55.37, 107.73 -51.15, 96.47 -43.88 M96.47 -43.88 C109.61 -40.68, 122.74 -37.47, 150.42 -30.71 M96.47 -43.88 C113.06 -39.83, 129.64 -35.79, 150.42 -30.71 M150.42 -30.71 C149.66 -36.39, 148.89 -42.07, 148.05 -48.31 M150.42 -30.71 C149.91 -34.5, 149.4 -38.29, 148.05 -48.31 M148.05 -48.31 C145.52 -52.07, 142.99 -55.84, 139.86 -60.48 M148.05 -48.31 C145.6 -51.95, 143.15 -55.6, 139.86 -60.48 M139.86 -60.48 C151.32 -75.39, 162.77 -90.3, 174.39 -105.42 M139.86 -60.48 C149.88 -73.52, 159.89 -86.55, 174.39 -105.42 M174.39 -105.42 C182.85 -115.01, 191.3 -124.59, 195.87 -129.77 M174.39 -105.42 C182.33 -114.42, 190.27 -123.42, 195.87 -129.77 M195.87 -129.77 C204.1 -134.8, 212.33 -139.83, 223.76 -146.82 M195.87 -129.77 C204.23 -134.88, 212.59 -139.99, 223.76 -146.82 M223.76 -146.82 C233.03 -150.26, 242.29 -153.71, 260.06 -160.32 M223.76 -146.82 C232.85 -150.2, 241.94 -153.58, 260.06 -160.32 M260.06 -160.32 C267.5 -161.35, 274.94 -162.39, 291.94 -164.75 M260.06 -160.32 C270.5 -161.77, 280.94 -163.22, 291.94 -164.75 M291.94 -164.75 C298.63 -163.66, 305.32 -162.57, 310.98 -161.65 M291.94 -164.75 C295.76 -164.13, 299.58 -163.5, 310.98 -161.65 M310.98 -161.65 C323.28 -158.22, 335.59 -154.78, 368.09 -145.71 M310.98 -161.65 C324.26 -157.94, 337.55 -154.23, 368.09 -145.71 M368.09 -145.71 C395.53 -135.09, 422.96 -124.48, 449.33 -114.28 M368.09 -145.71 C392.93 -136.1, 417.77 -126.49, 449.33 -114.28 M449.33 -114.28 C468.28 -107.01, 487.23 -99.74, 522.6 -86.16 M449.33 -114.28 C475.09 -104.4, 500.84 -94.51, 522.6 -86.16 M522.6 -86.16 C538.91 -80.86, 555.21 -75.57, 566.88 -71.77 M522.6 -86.16 C539.32 -80.73, 556.04 -75.3, 566.88 -71.77 M566.88 -71.77 C574.88 -70.26, 582.87 -68.74, 601.85 -65.13 M566.88 -71.77 C580.75 -69.14, 594.63 -66.5, 601.85 -65.13 M601.85 -65.13 C643.52 -66.46, 685.18 -67.8, 707.2 -68.5 M601.85 -65.13 C628.67 -65.99, 655.49 -66.85, 707.2 -68.5 M707.2 -68.5 C702.85 -57.04, 698.5 -45.58, 694.4 -34.78 M707.2 -68.5 C702.62 -56.44, 698.04 -44.38, 694.4 -34.78 M694.4 -34.78 C691.35 -27.78, 688.29 -20.79, 683.1 -8.91 M694.4 -34.78 C690.99 -26.97, 687.58 -19.16, 683.1 -8.91 M683.1 -8.91 C687.84 -8.51, 692.58 -8.12, 701.69 -7.36 M683.1 -8.91 C686.82 -8.6, 690.54 -8.29, 701.69 -7.36 M701.69 -7.36 C706.79 -20.72, 711.89 -34.08, 722.72 -62.48 M701.69 -7.36 C708.23 -24.5, 714.78 -41.65, 722.72 -62.48 M722.72 -62.48 C717.01 -64.97, 711.3 -67.46, 707.88 -68.95 M722.72 -62.48 C717.28 -64.85, 711.84 -67.23, 707.88 -68.95 M707.88 -68.95 C699.39 -72.73, 690.89 -76.5, 675.13 -83.51 M707.88 -68.95 C701.32 -71.87, 694.75 -74.79, 675.13 -83.51 M675.13 -83.51 C657.02 -83.08, 638.92 -82.64, 628.64 -82.4 M675.13 -83.51 C662.3 -83.2, 649.47 -82.9, 628.64 -82.4 M628.64 -82.4 C617.69 -83.47, 606.73 -84.53, 587.69 -86.38 M628.64 -82.4 C615.76 -83.65, 602.87 -84.91, 587.69 -86.38 M587.69 -86.38 C576.92 -88.95, 566.15 -91.52, 548.73 -95.68 M587.69 -86.38 C578.97 -88.46, 570.25 -90.54, 548.73 -95.68 M548.73 -95.68 C536.39 -100.71, 524.05 -105.75, 509.1 -111.84 M548.73 -95.68 C535.85 -100.93, 522.97 -106.18, 509.1 -111.84 M509.1 -111.84 C503.01 -116.06, 496.93 -120.27, 488.96 -125.79 M509.1 -111.84 C503.42 -115.77, 497.74 -119.71, 488.96 -125.79 M488.96 -125.79 C484.49 -130.56, 480.03 -135.33, 469.92 -146.15 M488.96 -125.79 C482.69 -132.49, 476.42 -139.2, 469.92 -146.15 M469.92 -146.15 C467.63 -151.21, 465.35 -156.26, 461.51 -164.75 M469.92 -146.15 C466.56 -153.58, 463.2 -161.01, 461.51 -164.75 M461.51 -164.75 C460.25 -169.35, 459 -173.95, 458.19 -176.92 M461.51 -164.75 C460.34 -169.04, 459.17 -173.32, 458.19 -176.92 M458.19 -176.92 C458.61 -181.99, 459.03 -187.05, 459.96 -198.17 M458.19 -176.92 C458.72 -183.33, 459.25 -189.74, 459.96 -198.17 M459.96 -198.17 C462.33 -202.23, 464.7 -206.29, 468.37 -212.56 M459.96 -198.17 C462.01 -201.69, 464.07 -205.21, 468.37 -212.56 M468.37 -212.56 C471.84 -215.4, 475.31 -218.25, 485.41 -226.51 M468.37 -212.56 C475.01 -218, 481.65 -223.43, 485.41 -226.51 M485.41 -226.51 C502.39 -235.72, 519.36 -244.93, 529.47 -250.42 M485.41 -226.51 C502.33 -235.69, 519.24 -244.87, 529.47 -250.42 M529.47 -250.42 C538.54 -255, 547.62 -259.59, 571.08 -271.45 M529.47 -250.42 C539.55 -255.51, 549.63 -260.61, 571.08 -271.45 M571.08 -271.45 C609.08 -288.68, 647.07 -305.92, 688.19 -324.57 M571.08 -271.45 C614.94 -291.34, 658.8 -311.24, 688.19 -324.57 M688.19 -324.57 C769.8 -359.89, 851.42 -395.2, 979.74 -450.73 M688.19 -324.57 C779.84 -364.23, 871.49 -403.89, 979.74 -450.73 M979.74 -450.73 C974 -436.46, 968.25 -422.19, 955.28 -389.97 M979.74 -450.73 C971.26 -429.65, 962.77 -408.57, 955.28 -389.97 M955.28 -389.97 C878.7 -356.1, 802.11 -322.22, 631.32 -246.68 M955.28 -389.97 C878.39 -355.96, 801.49 -321.95, 631.32 -246.68 M631.32 -246.68 C633 -241.49, 634.69 -236.31, 638.04 -225.97 M631.32 -246.68 C633.06 -241.32, 634.8 -235.97, 638.04 -225.97 M638.04 -225.97 C720.12 -261.04, 802.2 -296.11, 928.13 -349.91 M638.04 -225.97 C730.67 -265.55, 823.3 -305.13, 928.13 -349.91 M928.13 -349.91 C923.6 -338.78, 919.07 -327.64, 905.81 -295.07 M928.13 -349.91 C919.36 -328.36, 910.59 -306.81, 905.81 -295.07 M905.81 -295.07 C841.26 -263.41, 776.71 -231.76, 660.84 -174.93 M905.81 -295.07 C845.84 -265.66, 785.86 -236.24, 660.84 -174.93 M660.84 -174.93 C662.13 -170.25, 663.42 -165.56, 664.83 -160.45 M660.84 -174.93 C661.88 -171.16, 662.92 -167.38, 664.83 -160.45 M664.83 -160.45 C668.17 -158.13, 671.5 -155.82, 673.83 -154.2 M664.83 -160.45 C668.21 -158.11, 671.58 -155.76, 673.83 -154.2 M673.83 -154.2 C678.34 -154.03, 682.86 -153.86, 687.06 -153.7 M673.83 -154.2 C677.78 -154.05, 681.74 -153.9, 687.06 -153.7 M687.06 -153.7 C699.46 -158.1, 711.86 -162.5, 737.76 -171.69 M687.06 -153.7 C699.62 -158.16, 712.18 -162.61, 737.76 -171.69 M737.76 -171.69 C791.54 -197.14, 845.31 -222.59, 878.13 -238.12 M737.76 -171.69 C789.77 -196.3, 841.77 -220.91, 878.13 -238.12 M878.13 -238.12 C870.85 -228.78, 863.57 -219.44, 851.65 -204.16 M878.13 -238.12 C870.8 -228.71, 863.46 -219.31, 851.65 -204.16 M851.65 -204.16 C838.92 -190.67, 826.19 -177.18, 805.45 -155.2 M851.65 -204.16 C839.36 -191.13, 827.07 -178.11, 805.45 -155.2 M805.45 -155.2 C789.52 -142.56, 773.58 -129.92, 752.25 -112.99 M805.45 -155.2 C791.94 -144.49, 778.44 -133.77, 752.25 -112.99 M752.25 -112.99 C744.55 -108.51, 736.85 -104.02, 720.53 -94.51 M752.25 -112.99 C745.84 -109.26, 739.43 -105.53, 720.53 -94.51 M720.53 -94.51 C706.67 -91.17, 692.8 -87.83, 674.95 -83.52 M720.53 -94.51 C709.33 -91.81, 698.13 -89.11, 674.95 -83.52 M674.95 -83.52 C684.83 -79.17, 694.7 -74.81, 722.53 -62.54 M674.95 -83.52 C690.25 -76.77, 705.56 -70.03, 722.53 -62.54 M722.53 -62.54 C735.06 -61.01, 747.58 -59.47, 761.24 -57.8 M722.53 -62.54 C734 -61.14, 745.48 -59.73, 761.24 -57.8 M761.24 -57.8 C928.73 -31.01, 1096.22 -4.22, 1336.09 34.14 M761.24 -57.8 C988.07 -21.52, 1214.91 14.76, 1336.09 34.14 M1336.09 34.14 C1310.69 53.94, 1285.29 73.73, 1261.54 92.25 M1336.09 34.14 C1311.74 53.12, 1287.39 72.1, 1261.54 92.25 M1261.54 92.25 C1085.93 60.99, 910.31 29.73, 701.78 -7.39 M1261.54 92.25 C1083.96 60.64, 906.37 29.03, 701.78 -7.39 M701.78 -7.39 C694.46 -7.98, 687.15 -8.57, 682.87 -8.92 M701.78 -7.39 C697.36 -7.75, 692.95 -8.1, 682.87 -8.92 M682.87 -8.92 C678.22 -1.04, 673.56 6.84, 666.98 17.99 M682.87 -8.92 C679.5 -3.2, 676.12 2.52, 666.98 17.99 M666.98 17.99 C657.34 26.86, 647.71 35.72, 627.18 54.61 M666.98 17.99 C651.44 32.28, 635.91 46.58, 627.18 54.61 M627.18 54.61 C615.15 62.01, 603.12 69.41, 592.33 76.04 M627.18 54.61 C615.69 61.68, 604.2 68.74, 592.33 76.04 M592.33 76.04 C579.96 80.26, 567.59 84.47, 555.36 88.64 M592.33 76.04 C579.47 80.42, 566.62 84.81, 555.36 88.64 M555.36 88.64 C539.12 91.55, 522.89 94.45, 513.31 96.17 M555.36 88.64 C540.86 91.24, 526.35 93.83, 513.31 96.17 M513.31 96.17 C504.28 96.88, 495.24 97.59, 475.84 99.11 M513.31 96.17 C500.86 97.15, 488.4 98.13, 475.84 99.11 M475.84 99.11 C468.44 98.59, 461.03 98.07, 443.45 96.82 M475.84 99.11 C467.4 98.52, 458.95 97.92, 443.45 96.82 M443.45 96.82 C429.15 93.72, 414.85 90.62, 406.47 88.81 M443.45 96.82 C430.6 94.04, 417.75 91.25, 406.47 88.81 M406.47 88.81 C396.08 83.87, 385.69 78.93, 369.99 71.46 M406.47 88.81 C395.3 83.5, 384.13 78.19, 369.99 71.46 M369.99 71.46 C347.23 55.76, 324.47 40.06, 304.05 25.98 M369.99 71.46 C351.98 59.04, 333.97 46.62, 304.05 25.98 M304.05 25.98 C295.55 20.21, 287.05 14.44, 271.98 4.22 M304.05 25.98 C296.45 20.82, 288.86 15.67, 271.98 4.22 M271.98 4.22 C257.81 -2.98, 243.63 -10.18, 230.1 -17.05 M271.98 4.22 C256.67 -3.56, 241.35 -11.34, 230.1 -17.05 M230.1 -17.05 C215.77 -19.96, 201.44 -22.87, 178.56 -27.52 M230.1 -17.05 C217.97 -19.52, 205.84 -21.98, 178.56 -27.52 M178.56 -27.52 C169.57 -28.51, 160.58 -29.51, 151.89 -30.47 M178.56 -27.52 C169.01 -28.58, 159.46 -29.63, 151.89 -30.47 M151.89 -30.47 C133.58 -34.88, 115.27 -39.29, 96.58 -43.79 M151.89 -30.47 C140.26 -33.27, 128.63 -36.07, 96.58 -43.79 M96.58 -43.79 C79.57 -37.11, 62.55 -30.43, 49.31 -25.23 M96.58 -43.79 C79.55 -37.11, 62.52 -30.42, 49.31 -25.23 M49.31 -25.23 C38.38 -20.12, 27.44 -15.01, 1.7 -2.98 M49.31 -25.23 C35.17 -18.62, 21.03 -12.01, 1.7 -2.98 M1.7 -2.98 C1.06 -1.86, 0.43 -0.75, 0 0 M1.7 -2.98 C1.09 -1.91, 0.48 -0.85, 0 0" stroke="#ffffff" stroke-width="1" fill="none"></path></g></g><mask></mask></svg>