<svg version="1.1" xmlns="http://www.w3.org/2000/svg" viewBox="0 0 984.7992458041585 984.7992458041581" width="2954.3977374124756" height="2954.3977374124743">
  <!-- svg-source:excalidraw -->
  
  <defs>
    <style class="style-fonts">
      @font-face {
        font-family: "Virgil";
        src: url("https://unpkg.com/@excalidraw/excalidraw@undefined/dist/excalidraw-assets/Virgil.woff2");
      }
      @font-face {
        font-family: "Cascadia";
        src: url("https://unpkg.com/@excalidraw/excalidraw@undefined/dist/excalidraw-assets/Cascadia.woff2");
      }
      @font-face {
        font-family: "Assistant";
        src: url("https://unpkg.com/@excalidraw/excalidraw@undefined/dist/excalidraw-assets/Assistant-Regular.woff2");
      }
    </style>
    
  </defs>
  <g stroke-linecap="round"><g transform="translate(478.9515909191041 198.634172908025) rotate(0 -193.63236951031695 247.34875956917904)"><path d="M0 0 C-6.25 -2.18, -18.72 -10.21, -37.48 -13.07 C-56.25 -15.93, -92.52 -9.66, -112.59 -17.18 C-132.66 -24.7, -142.8 -48.31, -157.91 -58.2 C-173.01 -68.08, -186.25 -73.92, -203.2 -76.5 C-220.16 -79.08, -245.51 -72.35, -259.61 -73.66 C-273.72 -74.97, -276.06 -82.54, -287.84 -84.37 C-299.61 -86.2, -329.62 -87.87, -330.25 -84.63 C-330.89 -81.39, -289.29 -79.85, -291.66 -64.91 C-294.02 -49.97, -330.26 -18.43, -344.42 5.03 C-358.59 28.49, -369.51 46.79, -376.65 75.85 C-383.79 104.9, -388.88 144.54, -387.26 179.35 C-385.65 214.16, -381.17 249.89, -366.97 284.71 C-352.77 319.53, -324.71 362.26, -302.06 388.27 C-279.4 414.28, -249.28 429.64, -231.06 440.77 C-212.84 451.9, -198.96 450.4, -192.76 455.06 C-186.56 459.73, -184.29 448.03, -193.85 468.74 C-203.42 489.45, -240.76 560.9, -250.14 579.33 M0 0 C-6.25 -2.18, -18.72 -10.21, -37.48 -13.07 C-56.25 -15.93, -92.52 -9.66, -112.59 -17.18 C-132.66 -24.7, -142.8 -48.31, -157.91 -58.2 C-173.01 -68.08, -186.25 -73.92, -203.2 -76.5 C-220.16 -79.08, -245.51 -72.35, -259.61 -73.66 C-273.72 -74.97, -276.06 -82.54, -287.84 -84.37 C-299.61 -86.2, -329.62 -87.87, -330.25 -84.63 C-330.89 -81.39, -289.29 -79.85, -291.66 -64.91 C-294.02 -49.97, -330.26 -18.43, -344.42 5.03 C-358.59 28.49, -369.51 46.79, -376.65 75.85 C-383.79 104.9, -388.88 144.54, -387.26 179.35 C-385.65 214.16, -381.17 249.89, -366.97 284.71 C-352.77 319.53, -324.71 362.26, -302.06 388.27 C-279.4 414.28, -249.28 429.64, -231.06 440.77 C-212.84 451.9, -198.96 450.4, -192.76 455.06 C-186.56 459.73, -184.29 448.03, -193.85 468.74 C-203.42 489.45, -240.76 560.9, -250.14 579.33" stroke="#ffffff" stroke-width="4" fill="none"></path></g></g><mask></mask><g stroke-linecap="round"><g transform="translate(228.8554721592609 778.0832708097978) rotate(0 68.79876270247985 -41.44519137617817)"><path d="M0 0 C2.58 1.47, 11.28 9.52, 15.49 8.83 C19.69 8.14, 14 15.28, 25.24 -4.13 C36.49 -23.53, 70.24 -89.29, 82.97 -107.59 C95.7 -125.89, 94.7 -113.56, 101.64 -113.92 C108.58 -114.28, 118.62 -109.99, 124.61 -109.76 C130.6 -109.53, 135.97 -114.58, 137.6 -112.54 C139.22 -110.5, 140.85 -111.11, 134.36 -97.53 C127.87 -83.95, 110.13 -52.5, 98.66 -31.07 C87.18 -9.64, 71.04 20.68, 65.52 31.03 M0 0 C2.58 1.47, 11.28 9.52, 15.49 8.83 C19.69 8.14, 14 15.28, 25.24 -4.13 C36.49 -23.53, 70.24 -89.29, 82.97 -107.59 C95.7 -125.89, 94.7 -113.56, 101.64 -113.92 C108.58 -114.28, 118.62 -109.99, 124.61 -109.76 C130.6 -109.53, 135.97 -114.58, 137.6 -112.54 C139.22 -110.5, 140.85 -111.11, 134.36 -97.53 C127.87 -83.95, 110.13 -52.5, 98.66 -31.07 C87.18 -9.64, 71.04 20.68, 65.52 31.03" stroke="#ffffff" stroke-width="4" fill="none"></path></g></g><mask></mask><g stroke-linecap="round"><g transform="translate(294.48069967429456 809.4390296105548) rotate(0 51.69433987462071 -63.23239469432929)"><path d="M0 0 C1.88 2.52, 6.16 17.1, 11.28 15.14 C16.4 13.18, 15.35 14.37, 30.7 -11.76 C46.05 -37.88, 91.27 -119.97, 103.39 -141.61 M0 0 C1.88 2.52, 6.16 17.1, 11.28 15.14 C16.4 13.18, 15.35 14.37, 30.7 -11.76 C46.05 -37.88, 91.27 -119.97, 103.39 -141.61" stroke="#ffffff" stroke-width="4" fill="none"></path></g></g><mask></mask><g stroke-linecap="round"><g transform="translate(398.24804271586027 667.5211419259713) rotate(0 39.84911424417885 -24.419373897733294)"><path d="M0 0 C5.48 -1.66, 22.38 -5.44, 32.88 -9.95 C43.38 -14.46, 55.2 -20.57, 63 -27.05 C70.8 -33.54, 76.92 -45.21, 79.7 -48.84 M0 0 C5.48 -1.66, 22.38 -5.44, 32.88 -9.95 C43.38 -14.46, 55.2 -20.57, 63 -27.05 C70.8 -33.54, 76.92 -45.21, 79.7 -48.84" stroke="#ffffff" stroke-width="4" fill="none"></path></g></g><mask></mask><g stroke-linecap="round"><g transform="translate(478.15146202493816 618.4038493492853) rotate(0 34.9452120320193 8.203186574479332)"><path d="M0 0 C2.3 1.36, 7.79 5.92, 13.82 8.17 C19.85 10.43, 26.85 12.17, 36.19 13.54 C45.54 14.91, 64.27 15.93, 69.89 16.41 M0 0 C2.3 1.36, 7.79 5.92, 13.82 8.17 C19.85 10.43, 26.85 12.17, 36.19 13.54 C45.54 14.91, 64.27 15.93, 69.89 16.41" stroke="#ffffff" stroke-width="4" fill="none"></path></g></g><mask></mask><g stroke-linecap="round"><g transform="translate(548.2881688585617 634.7867679319634) rotate(0 61.68860763356048 -54.639069604654196)"><path d="M0 0 C24.49 26.05, 112.77 119.55, 146.96 156.3 C181.15 193.04, 191.53 207.54, 205.14 220.47 C218.76 233.41, 215.36 230.9, 228.66 233.91 C241.96 236.92, 272.87 239.16, 284.93 238.53 C296.98 237.9, 292.92 235.89, 300.99 230.13 C309.05 224.37, 370.37 252.53, 333.33 203.96 C296.29 155.39, 141 3.82, 78.75 -61.29 C16.5 -126.39, -0.92 -145.75, -40.18 -186.67 C-79.45 -227.59, -128.54 -279.97, -156.83 -306.82 C-185.13 -333.68, -201.1 -340.98, -209.95 -347.81 M0 0 C24.49 26.05, 112.77 119.55, 146.96 156.3 C181.15 193.04, 191.53 207.54, 205.14 220.47 C218.76 233.41, 215.36 230.9, 228.66 233.91 C241.96 236.92, 272.87 239.16, 284.93 238.53 C296.98 237.9, 292.92 235.89, 300.99 230.13 C309.05 224.37, 370.37 252.53, 333.33 203.96 C296.29 155.39, 141 3.82, 78.75 -61.29 C16.5 -126.39, -0.92 -145.75, -40.18 -186.67 C-79.45 -227.59, -128.54 -279.97, -156.83 -306.82 C-185.13 -333.68, -201.1 -340.98, -209.95 -347.81" stroke="#ffffff" stroke-width="4" fill="none"></path></g></g><mask></mask><g stroke-linecap="round"><g transform="translate(338.2257124595635 286.38225083237194) rotate(0 70.31959361628662 -43.83239405256609)"><path d="M0 0 C1.49 -4.07, -0.41 -13.96, 8.91 -24.42 C18.24 -34.89, 34 -52.25, 55.95 -62.79 C77.91 -73.33, 126.52 -83.52, 140.64 -87.66 M0 0 C1.49 -4.07, -0.41 -13.96, 8.91 -24.42 C18.24 -34.89, 34 -52.25, 55.95 -62.79 C77.91 -73.33, 126.52 -83.52, 140.64 -87.66" stroke="#ffffff" stroke-width="4" fill="none"></path></g></g><mask></mask><g stroke-linecap="round"><g transform="translate(424.2489869602441 625.7973570515805) rotate(0 -100.34996658331363 -169.4123024294413)"><path d="M0 0 C-11.8 -4.87, -48.89 -17.2, -70.82 -29.21 C-92.75 -41.22, -113.14 -54.43, -131.58 -72.05 C-150.01 -89.68, -169.91 -111.66, -181.43 -134.96 C-192.96 -158.26, -199.92 -187.46, -200.7 -211.85 C-201.48 -236.24, -194.36 -262.53, -186.13 -281.3 C-177.9 -300.07, -163.69 -314.88, -151.34 -324.47 C-138.98 -334.06, -118.56 -336.43, -112 -338.82 M0 0 C-11.8 -4.87, -48.89 -17.2, -70.82 -29.21 C-92.75 -41.22, -113.14 -54.43, -131.58 -72.05 C-150.01 -89.68, -169.91 -111.66, -181.43 -134.96 C-192.96 -158.26, -199.92 -187.46, -200.7 -211.85 C-201.48 -236.24, -194.36 -262.53, -186.13 -281.3 C-177.9 -300.07, -163.69 -314.88, -151.34 -324.47 C-138.98 -334.06, -118.56 -336.43, -112 -338.82" stroke="#ffffff" stroke-width="4" fill="none"></path></g></g><mask></mask><g stroke-linecap="round"><g transform="translate(311.91225911978245 287.5586041105471) rotate(0 20.63328372870228 -34.197960644739396)"><path d="M0 0 C2.2 -5.57, 8.24 -23.99, 13.22 -33.41 C18.2 -42.83, 25.2 -50.69, 29.87 -56.52 C34.55 -62.35, 39.37 -66.42, 41.27 -68.4 M0 0 C2.2 -5.57, 8.24 -23.99, 13.22 -33.41 C18.2 -42.83, 25.2 -50.69, 29.87 -56.52 C34.55 -62.35, 39.37 -66.42, 41.27 -68.4" stroke="#ffffff" stroke-width="4" fill="none"></path></g></g><mask></mask><g stroke-linecap="round"><g transform="translate(353.29385473866205 218.7375341185625) rotate(0 -80.91721019262718 177.00424558829263)"><path d="M0 0 C-3.5 -5.88, -9.6 -24.1, -21.01 -35.27 C-32.42 -46.43, -50.53 -62.62, -68.47 -66.97 C-86.4 -71.32, -109.3 -68.97, -128.61 -61.39 C-147.93 -53.8, -169.22 -37.95, -184.35 -21.46 C-199.48 -4.97, -211.32 15.63, -219.38 37.53 C-227.43 59.42, -230.4 85.87, -232.67 109.91 C-234.94 133.95, -236.64 155, -232.97 181.74 C-229.29 208.48, -221.78 244.02, -210.61 270.36 C-199.45 296.69, -183.87 319.67, -166 339.74 C-148.13 359.82, -121.72 378.84, -103.4 390.82 C-85.07 402.8, -71.35 406.58, -56.05 411.6 C-40.75 416.63, -27.86 419.59, -11.6 420.98 C4.67 422.37, 27.74 422.26, 41.53 419.97 C55.32 417.67, 66.2 409.34, 71.13 407.21 M0 0 C-3.5 -5.88, -9.6 -24.1, -21.01 -35.27 C-32.42 -46.43, -50.53 -62.62, -68.47 -66.97 C-86.4 -71.32, -109.3 -68.97, -128.61 -61.39 C-147.93 -53.8, -169.22 -37.95, -184.35 -21.46 C-199.48 -4.97, -211.32 15.63, -219.38 37.53 C-227.43 59.42, -230.4 85.87, -232.67 109.91 C-234.94 133.95, -236.64 155, -232.97 181.74 C-229.29 208.48, -221.78 244.02, -210.61 270.36 C-199.45 296.69, -183.87 319.67, -166 339.74 C-148.13 359.82, -121.72 378.84, -103.4 390.82 C-85.07 402.8, -71.35 406.58, -56.05 411.6 C-40.75 416.63, -27.86 419.59, -11.6 420.98 C4.67 422.37, 27.74 422.26, 41.53 419.97 C55.32 417.67, 66.2 409.34, 71.13 407.21" stroke="#ffffff" stroke-width="4" fill="none"></path></g></g><mask></mask><g stroke-linecap="round"><g transform="translate(447.2499381122293 600.0635673133493) rotate(0 -6.652506068186312 -133.27602668666077)"><path d="M0 0 C-8.27 -2.47, -30.71 -7.23, -49.62 -14.82 C-68.52 -22.4, -96.47 -34.56, -113.45 -45.51 C-130.43 -56.45, -139.13 -64.74, -151.5 -80.49 C-163.88 -96.25, -179.94 -119.98, -187.72 -140.03 C-195.49 -160.08, -199.58 -181.87, -198.15 -200.79 C-196.72 -219.72, -186.49 -240.99, -179.12 -253.58 C-171.76 -266.16, -164.49 -272.3, -153.96 -276.29 C-143.42 -280.27, -132.27 -285.18, -115.9 -277.51 C-99.54 -269.84, -105.88 -278.33, -55.75 -230.25 C-5.63 -182.17, 144.74 -29.24, 184.84 10.96 M0 0 C-8.27 -2.47, -30.71 -7.23, -49.62 -14.82 C-68.52 -22.4, -96.47 -34.56, -113.45 -45.51 C-130.43 -56.45, -139.13 -64.74, -151.5 -80.49 C-163.88 -96.25, -179.94 -119.98, -187.72 -140.03 C-195.49 -160.08, -199.58 -181.87, -198.15 -200.79 C-196.72 -219.72, -186.49 -240.99, -179.12 -253.58 C-171.76 -266.16, -164.49 -272.3, -153.96 -276.29 C-143.42 -280.27, -132.27 -285.18, -115.9 -277.51 C-99.54 -269.84, -105.88 -278.33, -55.75 -230.25 C-5.63 -182.17, 144.74 -29.24, 184.84 10.96" stroke="#ffffff" stroke-width="4" fill="none"></path></g></g><mask></mask><g stroke-linecap="round"><g transform="translate(632.094777937567 611.0243313735473) rotate(0 -25.007795452304094 0.5592378184524023)"><path d="M0 0 C-8.34 0.19, -41.68 0.93, -50.02 1.12 M0 0 C-8.34 0.19, -41.68 0.93, -50.02 1.12" stroke="#ffffff" stroke-width="4" fill="none"></path></g></g><mask></mask><g stroke-linecap="round"><g transform="translate(581.6778557159796 611.5398407561088) rotate(0 -121.79030285907061 -96.31331830140152)"><path d="M0 0 C-61.9 -59.43, -123.8 -118.87, -200.62 -192.63 M0 0 C-65.83 -63.21, -131.67 -126.43, -200.62 -192.63 M-200.62 -192.63 C-205.09 -188.83, -209.55 -185.03, -212.89 -182.19 M-200.62 -192.63 C-204.57 -189.27, -208.52 -185.91, -212.89 -182.19 M-212.89 -182.19 C-162.21 -131.86, -111.52 -81.53, -37.35 -7.88 M-212.89 -182.19 C-154.12 -123.83, -95.35 -65.47, -37.35 -7.88 M-37.35 -7.88 C-54.83 -7.88, -72.31 -7.88, -85.23 -7.88 M-37.35 -7.88 C-53.91 -7.88, -70.46 -7.88, -85.23 -7.88 M-85.23 -7.88 C-133.58 -51.17, -181.93 -94.46, -243.58 -149.66 M-85.23 -7.88 C-144.62 -61.06, -204.02 -114.24, -243.58 -149.66" stroke="#ffffff" stroke-width="4" fill="none"></path></g></g><mask></mask><g stroke-linecap="round"><g transform="translate(337.55492073916594 461.5460636656435) rotate(0 49.35359560059021 69.28389294939143)"><path d="M0 0 C-1.84 2.41, -12.95 6.82, -11.04 14.44 C-9.13 22.06, -8.67 25.04, 11.46 45.72 C31.59 66.41, 93.36 123.09, 109.75 138.57 M0 0 C-1.84 2.41, -12.95 6.82, -11.04 14.44 C-9.13 22.06, -8.67 25.04, 11.46 45.72 C31.59 66.41, 93.36 123.09, 109.75 138.57" stroke="#ffffff" stroke-width="4" fill="none"></path></g></g><mask></mask><g stroke-linecap="round" transform="translate(246.26585470905366 189.07093437174262) rotate(0 22.156291085002636 22.156291085002522)"><path d="M44.31 22.16 C44.31 23.44, 44.2 24.74, 43.98 26 C43.75 27.27, 43.42 28.53, 42.98 29.73 C42.54 30.94, 41.99 32.12, 41.34 33.23 C40.7 34.35, 39.95 35.42, 39.13 36.4 C38.3 37.38, 37.38 38.3, 36.4 39.13 C35.42 39.95, 34.35 40.7, 33.23 41.34 C32.12 41.99, 30.94 42.54, 29.73 42.98 C28.53 43.42, 27.27 43.75, 26 43.98 C24.74 44.2, 23.44 44.31, 22.16 44.31 C20.87 44.31, 19.57 44.2, 18.31 43.98 C17.05 43.75, 15.78 43.42, 14.58 42.98 C13.37 42.54, 12.19 41.99, 11.08 41.34 C9.97 40.7, 8.9 39.95, 7.91 39.13 C6.93 38.3, 6.01 37.38, 5.18 36.4 C4.36 35.42, 3.61 34.35, 2.97 33.23 C2.33 32.12, 1.77 30.94, 1.34 29.73 C0.9 28.53, 0.56 27.27, 0.34 26 C0.11 24.74, 0 23.44, 0 22.16 C0 20.87, 0.11 19.57, 0.34 18.31 C0.56 17.05, 0.9 15.78, 1.34 14.58 C1.77 13.37, 2.33 12.19, 2.97 11.08 C3.61 9.97, 4.36 8.9, 5.18 7.91 C6.01 6.93, 6.93 6.01, 7.91 5.18 C8.9 4.36, 9.97 3.61, 11.08 2.97 C12.19 2.33, 13.37 1.77, 14.58 1.34 C15.78 0.9, 17.05 0.56, 18.31 0.34 C19.57 0.11, 20.87 0, 22.16 0 C23.44 0, 24.74 0.11, 26 0.34 C27.27 0.56, 28.53 0.9, 29.73 1.34 C30.94 1.77, 32.12 2.33, 33.23 2.97 C34.35 3.61, 35.42 4.36, 36.4 5.18 C37.38 6.01, 38.3 6.93, 39.13 7.91 C39.95 8.9, 40.7 9.97, 41.34 11.08 C41.99 12.19, 42.54 13.37, 42.98 14.58 C43.42 15.78, 43.75 17.05, 43.98 18.31 C44.2 19.57, 44.26 21.52, 44.31 22.16 C44.37 22.8, 44.37 21.52, 44.31 22.16" stroke="none" stroke-width="0" fill="#ffffff"></path><path d="M44.31 22.16 C44.31 23.44, 44.2 24.74, 43.98 26 C43.75 27.27, 43.42 28.53, 42.98 29.73 C42.54 30.94, 41.99 32.12, 41.34 33.23 C40.7 34.35, 39.95 35.42, 39.13 36.4 C38.3 37.38, 37.38 38.3, 36.4 39.13 C35.42 39.95, 34.35 40.7, 33.23 41.34 C32.12 41.99, 30.94 42.54, 29.73 42.98 C28.53 43.42, 27.27 43.75, 26 43.98 C24.74 44.2, 23.44 44.31, 22.16 44.31 C20.87 44.31, 19.57 44.2, 18.31 43.98 C17.05 43.75, 15.78 43.42, 14.58 42.98 C13.37 42.54, 12.19 41.99, 11.08 41.34 C9.97 40.7, 8.9 39.95, 7.91 39.13 C6.93 38.3, 6.01 37.38, 5.18 36.4 C4.36 35.42, 3.61 34.35, 2.97 33.23 C2.33 32.12, 1.77 30.94, 1.34 29.73 C0.9 28.53, 0.56 27.27, 0.34 26 C0.11 24.74, 0 23.44, 0 22.16 C0 20.87, 0.11 19.57, 0.34 18.31 C0.56 17.05, 0.9 15.78, 1.34 14.58 C1.77 13.37, 2.33 12.19, 2.97 11.08 C3.61 9.97, 4.36 8.9, 5.18 7.91 C6.01 6.93, 6.93 6.01, 7.91 5.18 C8.9 4.36, 9.97 3.61, 11.08 2.97 C12.19 2.33, 13.37 1.77, 14.58 1.34 C15.78 0.9, 17.05 0.56, 18.31 0.34 C19.57 0.11, 20.87 0, 22.16 0 C23.44 0, 24.74 0.11, 26 0.34 C27.27 0.56, 28.53 0.9, 29.73 1.34 C30.94 1.77, 32.12 2.33, 33.23 2.97 C34.35 3.61, 35.42 4.36, 36.4 5.18 C37.38 6.01, 38.3 6.93, 39.13 7.91 C39.95 8.9, 40.7 9.97, 41.34 11.08 C41.99 12.19, 42.54 13.37, 42.98 14.58 C43.42 15.78, 43.75 17.05, 43.98 18.31 C44.2 19.57, 44.26 21.52, 44.31 22.16 C44.37 22.8, 44.37 21.52, 44.31 22.16" stroke="#ffffff" stroke-width="4" fill="none"></path></g><g stroke-linecap="round"><g transform="translate(591.5273237405845 642.4770102909315) rotate(0 131.64759153802095 101.71615459340774)"><path d="M0 0 C17.02 1.03, 34.04 2.07, 72.38 4.4 M0 0 C19.94 1.21, 39.88 2.42, 72.38 4.4 M72.38 4.4 C118.31 52.29, 164.25 100.17, 263.3 203.43 M72.38 4.4 C144.09 79.15, 215.79 153.91, 263.3 203.43 M263.3 203.43 C242.99 203.11, 222.69 202.8, 187.71 202.25 M263.3 203.43 C245.41 203.15, 227.52 202.87, 187.71 202.25 M187.71 202.25 C127.68 137.58, 67.66 72.9, 0 0 M187.71 202.25 C116.7 125.74, 45.7 49.24, 0 0" stroke="#ffffff" stroke-width="4" fill="none"></path></g></g><mask></mask><g stroke-linecap="round"><g transform="translate(149.00422960678407 113.95773010530229) rotate(0 367.5822156727017 374.61078449499746)" fill-rule="evenodd"><path d="M0 0 L14.22 -2.12 L26.46 -2.62 L41.28 -0.7 L56.5 6.24 L67.64 9.61 L83.64 9.11 L107.25 7.07 L124.75 7.16 L148.59 12.47 L170.54 24.59 L188.3 42.56 L200.56 57.82 L216.41 67.15 L240.2 70.63 L270.51 69.91 L290.69 70.02 L310.41 75.96 L327.36 83.82 L271.97 97.6 L249.08 105.26 L222.3 121.72 L200.16 142.77 L193.23 154.42 L189.12 170.87 L225.66 196.23 L323.35 293.43 L448.27 425.58 L585.22 566.78 L704.65 689.53 L719.98 707.07 L734.9 724.82 L744.38 742.37 L742.97 749.83 L734.3 751.84 L703.85 747.61 L704.45 729.66 L699.41 721.8 L537.27 553.61 L515.69 531.02 L437.16 526.02 L421.51 496.37 L482.42 494.32 L395.93 406.01 L274.65 285.01 L203.9 220 L189.5 210.92 L172.44 205.15 L159.41 204.14 L147.66 207.92 L137.23 212.4 L128.09 219.49 L114.22 239.47 L102.5 267.81 L99.23 285.92 L102.81 320.59 L114.08 354.06 L136.73 392.31 L155.95 415.71 L176.67 435.09 L207.66 452.29 L249.99 471.31 L299.73 486.04 L333.85 492.46 L318.33 519.02 L270.99 509.63 L202.27 480.38 L166.85 456.86 L146.77 440.36 L114.56 406.22 L99.54 385.48 L85.12 352.73 L75.99 318.03 L74.61 286.52 L79.59 256.8 L90.51 225.42 L104.69 204.19 L121.07 188.11 L134.91 180.11 L150.99 176.42 L163.22 172.02 L175.71 140.96 L184.26 127.56 L204.13 102.81 L195.56 83.74 L187.41 71.16 L160.57 49.22 L138.75 37.12 L114.2 34.71 L91.34 37.01 L68.81 44.34 L58.72 49.87 L40.19 61.62 L20.43 79.45 L6.47 98.53 L-9.22 79.4 L17.47 47.99 L31 31.77 L38.43 20 L37.47 12.96 L29.28 6.01 L5.68 1.66" stroke="none" stroke-width="0" fill="#ffffff" fill-rule="evenodd"></path><path d="M0 0 C5.32 -0.79, 10.64 -1.59, 14.22 -2.12 M0 0 C5.52 -0.82, 11.04 -1.65, 14.22 -2.12 M14.22 -2.12 C17.8 -2.27, 21.38 -2.41, 26.46 -2.62 M14.22 -2.12 C17.84 -2.27, 21.46 -2.42, 26.46 -2.62 M26.46 -2.62 C30.91 -2.05, 35.37 -1.47, 41.28 -0.7 M26.46 -2.62 C31 -2.03, 35.54 -1.45, 41.28 -0.7 M41.28 -0.7 C46.11 1.5, 50.94 3.7, 56.5 6.24 M41.28 -0.7 C46.96 1.89, 52.65 4.48, 56.5 6.24 M56.5 6.24 C59.48 7.14, 62.45 8.04, 67.64 9.61 M56.5 6.24 C60.05 7.31, 63.59 8.39, 67.64 9.61 M67.64 9.61 C73.8 9.42, 79.97 9.23, 83.64 9.11 M67.64 9.61 C71.21 9.5, 74.78 9.39, 83.64 9.11 M83.64 9.11 C91.28 8.45, 98.92 7.79, 107.25 7.07 M83.64 9.11 C88.94 8.65, 94.23 8.19, 107.25 7.07 M107.25 7.07 C111.78 7.09, 116.3 7.12, 124.75 7.16 M107.25 7.07 C112.61 7.1, 117.97 7.12, 124.75 7.16 M124.75 7.16 C134.2 9.27, 143.66 11.37, 148.59 12.47 M124.75 7.16 C131.8 8.73, 138.86 10.3, 148.59 12.47 M148.59 12.47 C154.73 15.86, 160.86 19.24, 170.54 24.59 M148.59 12.47 C154.2 15.56, 159.8 18.66, 170.54 24.59 M170.54 24.59 C175.73 29.84, 180.91 35.08, 188.3 42.56 M170.54 24.59 C175.46 29.56, 180.37 34.54, 188.3 42.56 M188.3 42.56 C192.8 48.16, 197.31 53.76, 200.56 57.82 M188.3 42.56 C191.67 46.76, 195.05 50.95, 200.56 57.82 M200.56 57.82 C205.21 60.55, 209.86 63.29, 216.41 67.15 M200.56 57.82 C206.63 61.39, 212.69 64.96, 216.41 67.15 M216.41 67.15 C221.63 67.91, 226.86 68.68, 240.2 70.63 M216.41 67.15 C224.54 68.34, 232.68 69.53, 240.2 70.63 M240.2 70.63 C251.19 70.37, 262.18 70.11, 270.51 69.91 M240.2 70.63 C249.32 70.41, 258.43 70.2, 270.51 69.91 M270.51 69.91 C276.82 69.95, 283.12 69.98, 290.69 70.02 M270.51 69.91 C274.64 69.93, 278.76 69.96, 290.69 70.02 M290.69 70.02 C297.38 72.04, 304.07 74.05, 310.41 75.96 M290.69 70.02 C298.39 72.34, 306.09 74.66, 310.41 75.96 M310.41 75.96 C315.49 78.31, 320.57 80.67, 327.36 83.82 M310.41 75.96 C316.9 78.97, 323.39 81.98, 327.36 83.82 M327.36 83.82 C308.42 88.53, 289.48 93.24, 271.97 97.6 M327.36 83.82 C311.66 87.73, 295.95 91.63, 271.97 97.6 M271.97 97.6 C267.08 99.24, 262.2 100.87, 249.08 105.26 M271.97 97.6 C263.52 100.43, 255.07 103.26, 249.08 105.26 M249.08 105.26 C239.27 111.29, 229.46 117.32, 222.3 121.72 M249.08 105.26 C241.52 109.91, 233.96 114.56, 222.3 121.72 M222.3 121.72 C216.46 127.27, 210.61 132.83, 200.16 142.77 M222.3 121.72 C217.27 126.5, 212.24 131.28, 200.16 142.77 M200.16 142.77 C198.17 146.11, 196.18 149.45, 193.23 154.42 M200.16 142.77 C197.65 146.99, 195.14 151.2, 193.23 154.42 M193.23 154.42 C192.25 158.36, 191.26 162.3, 189.12 170.87 M193.23 154.42 C191.61 160.89, 190 167.36, 189.12 170.87 M189.12 170.87 C198.47 177.36, 207.81 183.85, 225.66 196.23 M189.12 170.87 C202.62 180.24, 216.13 189.62, 225.66 196.23 M225.66 196.23 C255.59 226.01, 285.52 255.79, 323.35 293.43 M225.66 196.23 C252.53 222.97, 279.4 249.71, 323.35 293.43 M323.35 293.43 C361.3 333.57, 399.25 373.72, 448.27 425.58 M323.35 293.43 C351.28 322.97, 379.21 352.52, 448.27 425.58 M448.27 425.58 C476.95 455.15, 505.63 484.71, 585.22 566.78 M448.27 425.58 C482.8 461.17, 517.32 496.77, 585.22 566.78 M585.22 566.78 C625.76 608.44, 666.3 650.11, 704.65 689.53 M585.22 566.78 C622.79 605.4, 660.37 644.01, 704.65 689.53 M704.65 689.53 C708.81 694.29, 712.97 699.05, 719.98 707.07 M704.65 689.53 C708.88 694.37, 713.11 699.21, 719.98 707.07 M719.98 707.07 C725.19 713.28, 730.41 719.48, 734.9 724.82 M719.98 707.07 C724.53 712.49, 729.09 717.9, 734.9 724.82 M734.9 724.82 C738.62 731.71, 742.34 738.6, 744.38 742.37 M734.9 724.82 C737.46 729.55, 740.02 734.29, 744.38 742.37 M744.38 742.37 C743.82 745.34, 743.25 748.32, 742.97 749.83 M744.38 742.37 C743.91 744.82, 743.45 747.28, 742.97 749.83 M742.97 749.83 C740.78 750.34, 738.59 750.85, 734.3 751.84 M742.97 749.83 C740.11 750.49, 737.26 751.15, 734.3 751.84 M734.3 751.84 C727.28 750.87, 720.25 749.89, 703.85 747.61 M734.3 751.84 C722.31 750.18, 710.31 748.51, 703.85 747.61 M703.85 747.61 C704.03 742.08, 704.22 736.55, 704.45 729.66 M703.85 747.61 C704.04 741.84, 704.23 736.08, 704.45 729.66 M704.45 729.66 C703.11 727.57, 701.77 725.48, 699.41 721.8 M704.45 729.66 C702.55 726.7, 700.66 723.74, 699.41 721.8 M699.41 721.8 C635.42 655.42, 571.43 589.05, 537.27 553.61 M699.41 721.8 C653.24 673.91, 607.08 626.02, 537.27 553.61 M537.27 553.61 C532.87 549.01, 528.48 544.41, 515.69 531.02 M537.27 553.61 C532.38 548.49, 527.48 543.36, 515.69 531.02 M515.69 531.02 C490.15 529.39, 464.6 527.77, 437.16 526.02 M515.69 531.02 C497.57 529.87, 479.45 528.71, 437.16 526.02 M437.16 526.02 C433.69 519.45, 430.22 512.87, 421.51 496.37 M437.16 526.02 C431.41 515.14, 425.67 504.25, 421.51 496.37 M421.51 496.37 C439.26 495.77, 457.02 495.18, 482.42 494.32 M421.51 496.37 C442.34 495.67, 463.17 494.97, 482.42 494.32 M482.42 494.32 C449.95 461.16, 417.48 428.01, 395.93 406.01 M482.42 494.32 C457.24 468.61, 432.07 442.91, 395.93 406.01 M395.93 406.01 C364.04 374.19, 332.14 342.37, 274.65 285.01 M395.93 406.01 C350.67 360.86, 305.42 315.71, 274.65 285.01 M274.65 285.01 C246.46 259.11, 218.27 233.2, 203.9 220 M274.65 285.01 C248.88 261.34, 223.12 237.66, 203.9 220 M203.9 220 C198.32 216.48, 192.74 212.96, 189.5 210.92 M203.9 220 C200.29 217.72, 196.68 215.45, 189.5 210.92 M189.5 210.92 C184.34 209.17, 179.18 207.43, 172.44 205.15 M189.5 210.92 C185.68 209.63, 181.86 208.33, 172.44 205.15 M172.44 205.15 C167.36 204.75, 162.27 204.36, 159.41 204.14 M172.44 205.15 C168.89 204.87, 165.33 204.6, 159.41 204.14 M159.41 204.14 C154.98 205.57, 150.54 206.99, 147.66 207.92 M159.41 204.14 C154.95 205.57, 150.49 207.01, 147.66 207.92 M147.66 207.92 C143.73 209.61, 139.81 211.29, 137.23 212.4 M147.66 207.92 C144.42 209.31, 141.18 210.7, 137.23 212.4 M137.23 212.4 C133.65 215.17, 130.07 217.95, 128.09 219.49 M137.23 212.4 C135.29 213.9, 133.35 215.41, 128.09 219.49 M128.09 219.49 C124.94 224.02, 121.79 228.56, 114.22 239.47 M128.09 219.49 C125.24 223.58, 122.4 227.68, 114.22 239.47 M114.22 239.47 C109.64 250.54, 105.07 261.61, 102.5 267.81 M114.22 239.47 C109.82 250.1, 105.43 260.74, 102.5 267.81 M102.5 267.81 C101.84 271.47, 101.18 275.14, 99.23 285.92 M102.5 267.81 C101.29 274.52, 100.07 281.23, 99.23 285.92 M99.23 285.92 C100.3 296.29, 101.37 306.66, 102.81 320.59 M99.23 285.92 C100.64 299.56, 102.05 313.19, 102.81 320.59 M102.81 320.59 C106.66 332.01, 110.5 343.43, 114.08 354.06 M102.81 320.59 C107.25 333.76, 111.68 346.93, 114.08 354.06 M114.08 354.06 C121.31 366.27, 128.55 378.49, 136.73 392.31 M114.08 354.06 C120.05 364.13, 126.01 374.21, 136.73 392.31 M136.73 392.31 C141.72 398.39, 146.72 404.47, 155.95 415.71 M136.73 392.31 C141.17 397.72, 145.61 403.13, 155.95 415.71 M155.95 415.71 C162.83 422.14, 169.7 428.58, 176.67 435.09 M155.95 415.71 C161.22 420.64, 166.48 425.56, 176.67 435.09 M176.67 435.09 C187.6 441.16, 198.54 447.23, 207.66 452.29 M176.67 435.09 C183.28 438.76, 189.89 442.43, 207.66 452.29 M207.66 452.29 C220.16 457.91, 232.67 463.53, 249.99 471.31 M207.66 452.29 C220.62 458.12, 233.58 463.94, 249.99 471.31 M249.99 471.31 C269.53 477.09, 289.08 482.88, 299.73 486.04 M249.99 471.31 C262 474.86, 274.01 478.42, 299.73 486.04 M299.73 486.04 C308.14 487.62, 316.55 489.2, 333.85 492.46 M299.73 486.04 C307.64 487.53, 315.56 489.02, 333.85 492.46 M333.85 492.46 C328.71 501.25, 323.58 510.04, 318.33 519.02 M333.85 492.46 C327.81 502.79, 321.77 513.13, 318.33 519.02 M318.33 519.02 C304.11 516.2, 289.89 513.38, 270.99 509.63 M318.33 519.02 C303.38 516.06, 288.43 513.09, 270.99 509.63 M270.99 509.63 C250.67 500.98, 230.36 492.33, 202.27 480.38 M270.99 509.63 C250.29 500.82, 229.59 492.01, 202.27 480.38 M202.27 480.38 C193.43 474.51, 184.58 468.63, 166.85 456.86 M202.27 480.38 C191.16 473, 180.04 465.62, 166.85 456.86 M166.85 456.86 C158.93 450.36, 151.01 443.85, 146.77 440.36 M166.85 456.86 C158.91 450.34, 150.98 443.82, 146.77 440.36 M146.77 440.36 C134.98 427.87, 123.2 415.38, 114.56 406.22 M146.77 440.36 C138.58 431.69, 130.4 423.01, 114.56 406.22 M114.56 406.22 C109.87 399.75, 105.18 393.27, 99.54 385.48 M114.56 406.22 C110.65 400.83, 106.75 395.43, 99.54 385.48 M99.54 385.48 C93.8 372.44, 88.06 359.4, 85.12 352.73 M99.54 385.48 C96.13 377.72, 92.71 369.97, 85.12 352.73 M85.12 352.73 C82.27 341.89, 79.42 331.05, 75.99 318.03 M85.12 352.73 C82.78 343.83, 80.44 334.93, 75.99 318.03 M75.99 318.03 C75.48 306.26, 74.96 294.48, 74.61 286.52 M75.99 318.03 C75.67 310.67, 75.35 303.32, 74.61 286.52 M74.61 286.52 C75.79 279.49, 76.97 272.46, 79.59 256.8 M74.61 286.52 C76.19 277.08, 77.77 267.65, 79.59 256.8 M79.59 256.8 C83.94 244.3, 88.28 231.81, 90.51 225.42 M79.59 256.8 C82.73 247.76, 85.88 238.73, 90.51 225.42 M90.51 225.42 C94.82 218.96, 99.14 212.5, 104.69 204.19 M90.51 225.42 C95.44 218.04, 100.37 210.66, 104.69 204.19 M104.69 204.19 C108.87 200.09, 113.05 195.98, 121.07 188.11 M104.69 204.19 C109.86 199.11, 115.04 194.04, 121.07 188.11 M121.07 188.11 C125.41 185.61, 129.74 183.1, 134.91 180.11 M121.07 188.11 C124.16 186.33, 127.25 184.54, 134.91 180.11 M134.91 180.11 C138.24 179.34, 141.56 178.58, 150.99 176.42 M134.91 180.11 C139.81 178.98, 144.71 177.86, 150.99 176.42 M150.99 176.42 C153.91 175.37, 156.84 174.32, 163.22 172.02 M150.99 176.42 C155.8 174.69, 160.6 172.96, 163.22 172.02 M163.22 172.02 C168.12 159.83, 173.02 147.65, 175.71 140.96 M163.22 172.02 C167.13 162.28, 171.05 152.55, 175.71 140.96 M175.71 140.96 C177.73 137.8, 179.74 134.64, 184.26 127.56 M175.71 140.96 C178.08 137.25, 180.44 133.54, 184.26 127.56 M184.26 127.56 C188.83 121.86, 193.41 116.16, 204.13 102.81 M184.26 127.56 C189.69 120.79, 195.13 114.02, 204.13 102.81 M204.13 102.81 C202.11 98.32, 200.09 93.82, 195.56 83.74 M204.13 102.81 C201.84 97.72, 199.55 92.62, 195.56 83.74 M195.56 83.74 C193.79 81.01, 192.03 78.29, 187.41 71.16 M195.56 83.74 C192.4 78.85, 189.23 73.97, 187.41 71.16 M187.41 71.16 C178.04 63.5, 168.68 55.85, 160.57 49.22 M187.41 71.16 C178.61 63.96, 169.81 56.77, 160.57 49.22 M160.57 49.22 C153.47 45.28, 146.36 41.34, 138.75 37.12 M160.57 49.22 C153.32 45.2, 146.08 41.18, 138.75 37.12 M138.75 37.12 C132.28 36.48, 125.8 35.85, 114.2 34.71 M138.75 37.12 C129.05 36.16, 119.36 35.21, 114.2 34.71 M114.2 34.71 C109.41 35.19, 104.61 35.67, 91.34 37.01 M114.2 34.71 C108.43 35.29, 102.66 35.87, 91.34 37.01 M91.34 37.01 C85.79 38.81, 80.23 40.62, 68.81 44.34 M91.34 37.01 C82.87 39.76, 74.39 42.52, 68.81 44.34 M68.81 44.34 C64.78 46.55, 60.75 48.76, 58.72 49.87 M68.81 44.34 C65.1 46.37, 61.39 48.41, 58.72 49.87 M58.72 49.87 C52.38 53.89, 46.05 57.91, 40.19 61.62 M58.72 49.87 C52.22 53.99, 45.72 58.12, 40.19 61.62 M40.19 61.62 C34.2 67.03, 28.21 72.43, 20.43 79.45 M40.19 61.62 C32.92 68.18, 25.65 74.74, 20.43 79.45 M20.43 79.45 C15.22 86.56, 10.02 93.67, 6.47 98.53 M20.43 79.45 C15.25 86.53, 10.07 93.6, 6.47 98.53 M6.47 98.53 C3.21 94.55, -0.06 90.57, -9.22 79.4 M6.47 98.53 C3.07 94.39, -0.32 90.24, -9.22 79.4 M-9.22 79.4 C-0.15 68.73, 8.91 58.06, 17.47 47.99 M-9.22 79.4 C-2.29 71.24, 4.64 63.09, 17.47 47.99 M17.47 47.99 C21.24 43.47, 25.01 38.95, 31 31.77 M17.47 47.99 C22.17 42.35, 26.87 36.72, 31 31.77 M31 31.77 C32.65 29.16, 34.3 26.55, 38.43 20 M31 31.77 C32.58 29.27, 34.16 26.78, 38.43 20 M38.43 20 C38.09 17.48, 37.75 14.95, 37.47 12.96 M38.43 20 C38.18 18.12, 37.92 16.25, 37.47 12.96 M37.47 12.96 C34.39 10.34, 31.31 7.73, 29.28 6.01 M37.47 12.96 C34.23 10.21, 30.99 7.46, 29.28 6.01 M29.28 6.01 C20.6 4.41, 11.92 2.81, 5.68 1.66 M29.28 6.01 C20.97 4.48, 12.66 2.95, 5.68 1.66 M5.68 1.66 C3.76 1.1, 1.85 0.54, 0 0 M5.68 1.66 C3.7 1.08, 1.71 0.5, 0 0" stroke="#ffffff" stroke-width="1" fill="none"></path></g></g><mask></mask><g stroke-linecap="round"><g transform="translate(139.74219537958152 195.42125235439744) rotate(0 139.52917237087127 309.1294746177441)" fill-rule="evenodd"><path d="M0 0 L-24.01 40.83 L-32.02 61.89 L-41.37 94.18 L-48.13 153.87 L-46.32 209.86 L-40.39 249.12 L-25.12 295.63 L-1.97 337.26 L28.22 381.4 L52.84 407.97 L80.45 427.43 L119.43 449.88 L142.58 456.29 L149.14 459.08 L144.16 456.91 L151.58 461.31 L104.02 553.43 L89.52 581.18 L86.35 607.65 L109.14 587.17 L130.03 549.73 L161.97 491.44 L175.71 469.82 L182.4 464.31 L190.42 469.4 L204.5 470.59 L215.24 473.03 L225.77 469.33 L229.26 474.91 L224.59 482.93 L200.95 527.77 L165.18 593.18 L154.37 614.03 L168.62 620.52 L176.65 616.72 L214.06 552.31 L252.27 482.79 L258.13 472.61 L294.67 461.31 L314.72 450.27 L327.19 438.57 L292.36 424.28 L277.13 435.48 L254.29 443.25 L228.77 445.28 L191.46 443.67 L161.34 436.49 L121.31 421.57 L72.71 387.19 L44.54 360.2 L14.7 319.13 L-6.15 269.2 L-14.52 234.06 L-20.24 201.77 L-20.87 169.7 L-18.64 132.95 L-15.01 99.34 L-9.99 75.63 L-3.02 54.36 L11.07 25.7 L16.79 17.2 L2.35 -2.26" stroke="none" stroke-width="0" fill="#ffffff" fill-rule="evenodd"></path><path d="M0 0 C-8.42 14.32, -16.83 28.63, -24.01 40.83 M-24.01 40.83 C-25.79 45.52, -27.58 50.21, -32.02 61.89 M-32.02 61.89 C-35.59 74.22, -39.16 86.55, -41.37 94.18 M-41.37 94.18 C-43.7 114.74, -46.03 135.31, -48.13 153.87 M-48.13 153.87 C-47.44 175.38, -46.74 196.9, -46.32 209.86 M-46.32 209.86 C-45.03 218.42, -43.74 226.98, -40.39 249.12 M-40.39 249.12 C-37.31 258.5, -34.24 267.88, -25.12 295.63 M-25.12 295.63 C-17.58 309.19, -10.04 322.76, -1.97 337.26 M-1.97 337.26 C7.89 351.68, 17.75 366.09, 28.22 381.4 M28.22 381.4 C34.95 388.67, 41.69 395.93, 52.84 407.97 M52.84 407.97 C58.54 411.99, 64.25 416.01, 80.45 427.43 M80.45 427.43 C95.42 436.05, 110.38 444.67, 119.43 449.88 M119.43 449.88 C127.54 452.13, 135.65 454.37, 142.58 456.29 M142.58 456.29 C144.49 457.1, 146.39 457.91, 149.14 459.08 M149.14 459.08 C147.97 458.57, 146.81 458.07, 144.16 456.91 M144.16 456.91 C146.62 458.37, 149.08 459.83, 151.58 461.31 M151.58 461.31 C141.76 480.33, 131.94 499.34, 104.02 553.43 M104.02 553.43 C99.05 562.94, 94.08 572.45, 89.52 581.18 M89.52 581.18 C88.26 591.71, 87 602.24, 86.35 607.65 M86.35 607.65 C92.1 602.47, 97.86 597.3, 109.14 587.17 M109.14 587.17 C113.81 578.8, 118.48 570.42, 130.03 549.73 M130.03 549.73 C138.81 533.7, 147.6 517.67, 161.97 491.44 M161.97 491.44 C165.98 485.13, 169.99 478.82, 175.71 469.82 M175.71 469.82 C177.74 468.15, 179.77 466.48, 182.4 464.31 M182.4 464.31 C184.88 465.89, 187.36 467.46, 190.42 469.4 M190.42 469.4 C194.71 469.76, 199.01 470.13, 204.5 470.59 M204.5 470.59 C208.66 471.53, 212.82 472.48, 215.24 473.03 M215.24 473.03 C218.53 471.87, 221.82 470.72, 225.77 469.33 M225.77 469.33 C226.99 471.28, 228.2 473.22, 229.26 474.91 M229.26 474.91 C228.23 476.68, 227.19 478.46, 224.59 482.93 M224.59 482.93 C219.09 493.37, 213.58 503.8, 200.95 527.77 M200.95 527.77 C187.38 552.58, 173.81 577.39, 165.18 593.18 M165.18 593.18 C162.97 597.43, 160.76 601.69, 154.37 614.03 M154.37 614.03 C159.85 616.52, 165.33 619.02, 168.62 620.52 M168.62 620.52 C170.68 619.54, 172.73 618.57, 176.65 616.72 M176.65 616.72 C186.97 598.95, 197.29 581.18, 214.06 552.31 M214.06 552.31 C226.22 530.18, 238.38 508.06, 252.27 482.79 M252.27 482.79 C254.19 479.45, 256.12 476.11, 258.13 472.61 M258.13 472.61 C271.38 468.51, 284.64 464.41, 294.67 461.31 M294.67 461.31 C299.6 458.6, 304.53 455.89, 314.72 450.27 M314.72 450.27 C318.59 446.64, 322.46 443.01, 327.19 438.57 M327.19 438.57 C314.77 433.48, 302.35 428.38, 292.36 424.28 M292.36 424.28 C287.23 428.05, 282.11 431.82, 277.13 435.48 M277.13 435.48 C272.45 437.08, 267.77 438.67, 254.29 443.25 M254.29 443.25 C244.65 444.02, 235 444.78, 228.77 445.28 M228.77 445.28 C215.86 444.72, 202.94 444.17, 191.46 443.67 M191.46 443.67 C184.27 441.96, 177.08 440.24, 161.34 436.49 M161.34 436.49 C147.72 431.41, 134.1 426.33, 121.31 421.57 M121.31 421.57 C106.88 411.36, 92.45 401.15, 72.71 387.19 M72.71 387.19 C62.98 377.87, 53.25 368.55, 44.54 360.2 M44.54 360.2 C38.28 351.59, 32.02 342.97, 14.7 319.13 M14.7 319.13 C8.2 303.58, 1.71 288.03, -6.15 269.2 M-6.15 269.2 C-8.01 261.43, -9.86 253.65, -14.52 234.06 M-14.52 234.06 C-16.66 221.97, -18.8 209.88, -20.24 201.77 M-20.24 201.77 C-20.41 193.2, -20.58 184.62, -20.87 169.7 M-20.87 169.7 C-20.31 160.52, -19.75 151.35, -18.64 132.95 M-18.64 132.95 C-17.61 123.44, -16.58 113.92, -15.01 99.34 M-15.01 99.34 C-13.88 93.99, -12.75 88.64, -9.99 75.63 M-9.99 75.63 C-7.84 69.08, -5.7 62.54, -3.02 54.36 M-3.02 54.36 C2.02 44.11, 7.06 33.85, 11.07 25.7 M11.07 25.7 C13.31 22.36, 15.56 19.03, 16.79 17.2 M16.79 17.2 C12.99 12.08, 9.2 6.97, 2.35 -2.26 M2.35 -2.26 C1.63 -1.57, 0.92 -0.88, 0 0" stroke="#ffffff" stroke-width="1.5" fill="none" stroke-dasharray="8 9"></path></g></g><mask></mask><g stroke-linecap="round"><g transform="translate(855.109367849569 846.0096538275448) rotate(0 -262.92031911395065 -199.8472619645063)" fill-rule="evenodd"><path d="M0 0 L-76.64 -0.94 L-190.22 -124.92 L-261.88 -203.49 L-270.58 -232.57 L-473.91 -427.15 L-486.22 -417.11 L-310.85 -242.67 L-358.63 -242.1 L-517 -384.37 L-526.3 -377.81 L-529.16 -371.49 L-523.79 -357.77 L-480.37 -313.28 L-407.59 -246.02 L-376.25 -227.01 L-364.42 -219.95 L-337.4 -213.14 L-306.97 -211.38 L-225.02 -124.39 L-104.92 5.94 L-90.75 19.43 L-66.34 24.72 L-35.44 27.45 L-13.75 26.43 L-6.93 19.6 L3.32 15.85 L1.44 0.99" stroke="none" stroke-width="0" fill="#ffffff" fill-rule="evenodd"></path><path d="M0 0 C-17.03 -0.21, -34.06 -0.42, -76.64 -0.94 M-76.64 -0.94 C-100.09 -26.54, -123.55 -52.14, -190.22 -124.92 M-190.22 -124.92 C-212.19 -149.02, -234.17 -173.12, -261.88 -203.49 M-261.88 -203.49 C-263.71 -209.64, -265.55 -215.78, -270.58 -232.57 M-270.58 -232.57 C-311.58 -271.81, -352.59 -311.05, -473.91 -427.15 M-473.91 -427.15 C-477.36 -424.33, -480.82 -421.51, -486.22 -417.11 M-486.22 -417.11 C-436.75 -367.9, -387.28 -318.7, -310.85 -242.67 M-310.85 -242.67 C-326.12 -242.49, -341.39 -242.31, -358.63 -242.1 M-358.63 -242.1 C-392.74 -272.74, -426.85 -303.39, -517 -384.37 M-517 -384.37 C-518.97 -382.98, -520.94 -381.59, -526.3 -377.81 M-526.3 -377.81 C-527.06 -376.12, -527.83 -374.42, -529.16 -371.49 M-529.16 -371.49 C-528.01 -368.54, -526.85 -365.59, -523.79 -357.77 M-523.79 -357.77 C-514.69 -348.45, -505.6 -339.12, -480.37 -313.28 M-480.37 -313.28 C-454.7 -289.55, -429.02 -265.82, -407.59 -246.02 M-407.59 -246.02 C-400.59 -241.78, -393.59 -237.53, -376.25 -227.01 M-376.25 -227.01 C-373.76 -225.52, -371.26 -224.03, -364.42 -219.95 M-364.42 -219.95 C-358.79 -218.53, -353.16 -217.11, -337.4 -213.14 M-337.4 -213.14 C-327.4 -212.56, -317.4 -211.99, -306.97 -211.38 M-306.97 -211.38 C-283.39 -186.35, -259.81 -161.32, -225.02 -124.39 M-225.02 -124.39 C-177.73 -73.07, -130.45 -21.76, -104.92 5.94 M-104.92 5.94 C-100.47 10.18, -96.01 14.42, -90.75 19.43 M-90.75 19.43 C-84.99 20.68, -79.22 21.93, -66.34 24.72 M-66.34 24.72 C-54.68 25.75, -43.03 26.78, -35.44 27.45 M-35.44 27.45 C-30.64 27.23, -25.85 27, -13.75 26.43 M-13.75 26.43 C-11.65 24.33, -9.55 22.23, -6.93 19.6 M-6.93 19.6 C-4.43 18.68, -1.93 17.77, 3.32 15.85 M3.32 15.85 C2.59 10.11, 1.87 4.37, 1.44 0.99 M1.44 0.99 C0.98 0.67, 0.51 0.35, 0 0" stroke="#ffffff" stroke-width="1.5" fill="none" stroke-dasharray="8 9"></path></g></g><mask></mask><g stroke-linecap="round" transform="translate(217.0141610959763 774.2023943008062) rotate(27.74065203913684 10.098920412006464 28.72080483274067)"><path d="M0 0 L20.2 0 L20.2 57.44 L0 57.44" stroke="none" stroke-width="0" fill="#ffffff"></path><path d="M0 0 C7.35 0, 14.71 0, 20.2 0 M0 0 C6.5 0, 13 0, 20.2 0 M20.2 0 C20.2 16.59, 20.2 33.17, 20.2 57.44 M20.2 0 C20.2 19.23, 20.2 38.46, 20.2 57.44 M20.2 57.44 C12.82 57.44, 5.45 57.44, 0 57.44 M20.2 57.44 C13.21 57.44, 6.23 57.44, 0 57.44 M0 57.44 C0 39.9, 0 22.36, 0 0 M0 57.44 C0 35.9, 0 14.35, 0 0" stroke="#ffffff" stroke-width="4" fill="none"></path></g><g stroke-linecap="round" transform="translate(290.8984326105783 806.8382328397274) rotate(27.74065203913684 10.508314729911262 11.625776187836891)"><path d="M0 0 L21.02 0 L21.02 23.25 L0 23.25" stroke="none" stroke-width="0" fill="#ffffff"></path><path d="M0 0 C6.56 0, 13.12 0, 21.02 0 M0 0 C7.59 0, 15.18 0, 21.02 0 M21.02 0 C21.02 5.05, 21.02 10.1, 21.02 23.25 M21.02 0 C21.02 8.33, 21.02 16.66, 21.02 23.25 M21.02 23.25 C15.55 23.25, 10.08 23.25, 0 23.25 M21.02 23.25 C15.5 23.25, 9.98 23.25, 0 23.25 M0 23.25 C0 16.33, 0 9.41, 0 0 M0 23.25 C0 16.17, 0 9.09, 0 0" stroke="#ffffff" stroke-width="4" fill="none"></path></g><g stroke-linecap="round"><g transform="translate(206.58676273226683 820.3384276583738) rotate(0 4.227529385205116 6.551887465071104)" fill-rule="evenodd"><path d="M0 0 L-7.49 13.1 L15.94 13.1 L1.81 5.55" stroke="none" stroke-width="0" fill="#ffffff" fill-rule="evenodd"></path><path d="M0 0 C-1.56 2.72, -3.11 5.45, -7.49 13.1 M0 0 C-2.88 5.04, -5.76 10.09, -7.49 13.1 M-7.49 13.1 C-0.65 13.1, 6.2 13.1, 15.94 13.1 M-7.49 13.1 C1.54 13.1, 10.57 13.1, 15.94 13.1 M15.94 13.1 C11.84 10.91, 7.73 8.72, 1.81 5.55 M15.94 13.1 C11.21 10.57, 6.47 8.04, 1.81 5.55 M1.81 5.55 C1.43 4.39, 1.05 3.24, 0 0 M1.81 5.55 C1.14 3.51, 0.48 1.47, 0 0" stroke="#ffffff" stroke-width="4" fill="none"></path></g></g><mask></mask><g stroke-linecap="round"><g transform="translate(288.6368563766291 820.5410923640302) rotate(0 4.557369502688971 6.551887465071104)" fill-rule="evenodd"><path d="M0 0 L-7.49 13.1 L16.6 13.1 L1.81 5.55" stroke="none" stroke-width="0" fill="#ffffff" fill-rule="evenodd"></path><path d="M0 0 C-1.8 3.15, -3.6 6.31, -7.49 13.1 M0 0 C-2.81 4.92, -5.62 9.84, -7.49 13.1 M-7.49 13.1 C-1.02 13.1, 5.45 13.1, 16.6 13.1 M-7.49 13.1 C-1.79 13.1, 3.91 13.1, 16.6 13.1 M16.6 13.1 C11.87 10.69, 7.14 8.28, 1.81 5.55 M16.6 13.1 C11.01 10.25, 5.41 7.39, 1.81 5.55 M1.81 5.55 C1.17 3.58, 0.52 1.6, 0 0 M1.81 5.55 C1.21 3.72, 0.61 1.88, 0 0" stroke="#ffffff" stroke-width="4" fill="none"></path></g></g><mask></mask><g stroke-opacity="0" fill-opacity="0" stroke-linecap="round" transform="translate(10 10) rotate(0 482.3996229020793 482.39962290207905)"><path d="M32 0 C383.4 -4.15, 734.49 -3.83, 932.8 0 M32 0 C245.73 -2.27, 460.2 -2.13, 932.8 0 M932.8 0 C954.21 0.36, 965.57 10.08, 964.8 32 M932.8 0 C953.87 -2.12, 963.59 9.48, 964.8 32 M964.8 32 C964.07 368.9, 964.68 707.08, 964.8 932.8 M964.8 32 C963.36 229.12, 963.09 426.8, 964.8 932.8 M964.8 932.8 C964.05 952.92, 953.99 963.69, 932.8 964.8 M964.8 932.8 C963.08 952.91, 956.07 965.95, 932.8 964.8 M932.8 964.8 C590.87 966.78, 250.01 967.24, 32 964.8 M932.8 964.8 C671.85 965.2, 411.28 964.97, 32 964.8 M32 964.8 C10.71 966.03, 1.29 954.86, 0 932.8 M32 964.8 C10.32 963.07, -1.74 952.03, 0 932.8 M0 932.8 C3.54 710.13, 3.56 487.36, 0 32 M0 932.8 C0.74 721.7, 0.84 510.48, 0 32 M0 32 C0.54 11.23, 9.78 -0.33, 32 0 M0 32 C-1.48 8.43, 9.98 -1.38, 32 0" stroke="#ffffff" stroke-width="2" fill="none"></path></g></svg>