<svg version="1.1" xmlns="http://www.w3.org/2000/svg" viewBox="0 0 2510.0644611967564 1513.003168310388" width="7530.193383590269" height="4539.009504931164">
  <!-- svg-source:excalidraw -->

  <defs>
    <style class="style-fonts">
      @font-face {
        font-family: "Virgil";
        src: url("https://unpkg.com/@excalidraw/excalidraw@undefined/dist/excalidraw-assets/Virgil.woff2");
      }
      @font-face {
        font-family: "Cascadia";
        src: url("https://unpkg.com/@excalidraw/excalidraw@undefined/dist/excalidraw-assets/Cascadia.woff2");
      }
      @font-face {
        font-family: "Assistant";
        src: url("https://unpkg.com/@excalidraw/excalidraw@undefined/dist/excalidraw-assets/Assistant-Regular.woff2");
      }
    </style>

  </defs>
  <g stroke-linecap="round" transform="translate(682.2119431533501 1058.2917516502555) rotate(0 575.1086980646305 17.5)"><path d="M8.75 0 C270.49 0, 532.22 0, 1141.47 0 C1147.3 0, 1150.22 2.92, 1150.22 8.75 C1150.22 12.88, 1150.22 17.01, 1150.22 26.25 C1150.22 32.08, 1147.3 35, 1141.47 35 C890.33 35, 639.19 35, 8.75 35 C2.92 35, 0 32.08, 0 26.25 C0 20.15, 0 14.04, 0 8.75 C0 2.92, 2.92 0, 8.75 0" stroke="none" stroke-width="0" fill="#000"></path><path d="M8.75 0 C428.19 0, 847.62 0, 1141.47 0 M8.75 0 C295.57 0, 582.38 0, 1141.47 0 M1141.47 0 C1147.3 0, 1150.22 2.92, 1150.22 8.75 M1141.47 0 C1147.3 0, 1150.22 2.92, 1150.22 8.75 M1150.22 8.75 C1150.22 14.6, 1150.22 20.45, 1150.22 26.25 M1150.22 8.75 C1150.22 13.18, 1150.22 17.61, 1150.22 26.25 M1150.22 26.25 C1150.22 32.08, 1147.3 35, 1141.47 35 M1150.22 26.25 C1150.22 32.08, 1147.3 35, 1141.47 35 M1141.47 35 C796.21 35, 450.95 35, 8.75 35 M1141.47 35 C887.08 35, 632.7 35, 8.75 35 M8.75 35 C2.92 35, 0 32.08, 0 26.25 M8.75 35 C2.92 35, 0 32.08, 0 26.25 M0 26.25 C0 19.87, 0 13.49, 0 8.75 M0 26.25 C0 22.51, 0 18.77, 0 8.75 M0 8.75 C0 2.92, 2.92 0, 8.75 0 M0 8.75 C0 2.92, 2.92 0, 8.75 0" stroke="#000" stroke-width="4" fill="none"></path></g><g stroke-linecap="round"><g transform="translate(734.489431579932 1486.8732695842934) rotate(0 502.95993636534695 -409.16369729856115)" fill-rule="evenodd"><path d="M0 0 C-4.09 1.66, -6.8 9.08, -24.56 9.98 C-42.32 10.87, -87.75 11.53, -106.59 5.38 C-125.43 -0.76, -135.36 -11.43, -137.59 -26.9 C-139.83 -42.37, -133.48 -49.15, -119.99 -87.43 C-106.51 -125.7, -74.54 -208.93, -56.67 -256.54 C-38.81 -304.16, -31.03 -324.25, -12.8 -373.12 C5.43 -421.99, 25.88 -489.58, 52.7 -549.76 C79.53 -609.94, 119.26 -689.07, 148.15 -734.19 C177.05 -779.32, 199.39 -803.87, 226.06 -820.51 C252.72 -837.16, 281.95 -835.11, 308.15 -834.06 C334.35 -833.02, 360 -829.75, 383.25 -814.24 C406.51 -798.74, 422.05 -784.62, 447.66 -741.05 C473.28 -697.48, 513.78 -604.71, 536.95 -552.82 C560.12 -500.94, 566.54 -478.34, 586.69 -429.75 C606.84 -381.17, 636.03 -310.8, 657.85 -261.29 C679.66 -211.79, 703.84 -154.14, 717.57 -132.75 C731.31 -111.36, 729.01 -116.72, 740.24 -132.95 C751.47 -149.19, 762.77 -177.04, 784.97 -230.18 C807.18 -283.32, 849.37 -388.58, 873.48 -451.8 C897.59 -515.01, 912.28 -558.84, 929.64 -609.48 C947 -660.12, 962.65 -719.63, 977.62 -755.64 C992.58 -791.66, 1000.3 -812.96, 1019.43 -825.57 C1038.56 -838.19, 1073.12 -833.64, 1092.4 -831.35 C1111.68 -829.06, 1126.57 -823.58, 1135.09 -811.83 C1143.61 -800.09, 1151.16 -795.82, 1143.51 -760.86 C1135.86 -725.9, 1106.5 -652.62, 1089.2 -602.1 C1071.9 -551.58, 1060.89 -515.47, 1039.69 -457.74 C1018.49 -400.01, 986.21 -313.27, 962.01 -255.73 C937.8 -198.2, 919.11 -153.63, 894.45 -112.54 C869.79 -71.45, 842.66 -30.57, 814.05 -9.19 C785.44 12.19, 754.69 17.79, 722.8 15.73 C690.91 13.68, 656.85 13.12, 622.72 -21.53 C588.58 -56.18, 548.61 -129.76, 517.97 -192.14 C487.34 -254.52, 472.17 -317.08, 438.91 -395.8 C405.66 -474.52, 345.44 -618.85, 318.44 -664.47 C291.44 -710.09, 298.89 -700.85, 276.91 -669.53 C254.93 -638.21, 219.68 -555.12, 186.54 -476.54 C153.39 -397.96, 104.93 -271.02, 78.05 -198.04 C51.18 -125.07, 38.28 -71.71, 25.27 -38.7 C12.26 -5.7, 4.21 -6.45, 0 0" stroke="none" stroke-width="0" fill="#000" fill-rule="evenodd"></path><path d="M0 0 C-4.09 1.66, -6.8 9.08, -24.56 9.98 C-42.32 10.87, -87.75 11.53, -106.59 5.38 C-125.43 -0.76, -135.36 -11.43, -137.59 -26.9 C-139.83 -42.37, -133.48 -49.15, -119.99 -87.43 C-106.51 -125.7, -74.54 -208.93, -56.67 -256.54 C-38.81 -304.16, -31.03 -324.25, -12.8 -373.12 C5.43 -421.99, 25.88 -489.58, 52.7 -549.76 C79.53 -609.94, 119.26 -689.07, 148.15 -734.19 C177.05 -779.32, 199.39 -803.87, 226.06 -820.51 C252.72 -837.16, 281.95 -835.11, 308.15 -834.06 C334.35 -833.02, 360 -829.75, 383.25 -814.24 C406.51 -798.74, 422.05 -784.62, 447.66 -741.05 C473.28 -697.48, 513.78 -604.71, 536.95 -552.82 C560.12 -500.94, 566.54 -478.34, 586.69 -429.75 C606.84 -381.17, 636.03 -310.8, 657.85 -261.29 C679.66 -211.79, 703.84 -154.14, 717.57 -132.75 C731.31 -111.36, 729.01 -116.72, 740.24 -132.95 C751.47 -149.19, 762.77 -177.04, 784.97 -230.18 C807.18 -283.32, 849.37 -388.58, 873.48 -451.8 C897.59 -515.01, 912.28 -558.84, 929.64 -609.48 C947 -660.12, 962.65 -719.63, 977.62 -755.64 C992.58 -791.66, 1000.3 -812.96, 1019.43 -825.57 C1038.56 -838.19, 1073.12 -833.64, 1092.4 -831.35 C1111.68 -829.06, 1126.57 -823.58, 1135.09 -811.83 C1143.61 -800.09, 1151.16 -795.82, 1143.51 -760.86 C1135.86 -725.9, 1106.5 -652.62, 1089.2 -602.1 C1071.9 -551.58, 1060.89 -515.47, 1039.69 -457.74 C1018.49 -400.01, 986.21 -313.27, 962.01 -255.73 C937.8 -198.2, 919.11 -153.63, 894.45 -112.54 C869.79 -71.45, 842.66 -30.57, 814.05 -9.19 C785.44 12.19, 754.69 17.79, 722.8 15.73 C690.91 13.68, 656.85 13.12, 622.72 -21.53 C588.58 -56.18, 548.61 -129.76, 517.97 -192.14 C487.34 -254.52, 472.17 -317.08, 438.91 -395.8 C405.66 -474.52, 345.44 -618.85, 318.44 -664.47 C291.44 -710.09, 298.89 -700.85, 276.91 -669.53 C254.93 -638.21, 219.68 -555.12, 186.54 -476.54 C153.39 -397.96, 104.93 -271.02, 78.05 -198.04 C51.18 -125.07, 38.28 -71.71, 25.27 -38.7 C12.26 -5.7, 4.21 -6.45, 0 0 M0 0 C-4.09 1.66, -6.8 9.08, -24.56 9.98 C-42.32 10.87, -87.75 11.53, -106.59 5.38 C-125.43 -0.76, -135.36 -11.43, -137.59 -26.9 C-139.83 -42.37, -133.48 -49.15, -119.99 -87.43 C-106.51 -125.7, -74.54 -208.93, -56.67 -256.54 C-38.81 -304.16, -31.03 -324.25, -12.8 -373.12 C5.43 -421.99, 25.88 -489.58, 52.7 -549.76 C79.53 -609.94, 119.26 -689.07, 148.15 -734.19 C177.05 -779.32, 199.39 -803.87, 226.06 -820.51 C252.72 -837.16, 281.95 -835.11, 308.15 -834.06 C334.35 -833.02, 360 -829.75, 383.25 -814.24 C406.51 -798.74, 422.05 -784.62, 447.66 -741.05 C473.28 -697.48, 513.78 -604.71, 536.95 -552.82 C560.12 -500.94, 566.54 -478.34, 586.69 -429.75 C606.84 -381.17, 636.03 -310.8, 657.85 -261.29 C679.66 -211.79, 703.84 -154.14, 717.57 -132.75 C731.31 -111.36, 729.01 -116.72, 740.24 -132.95 C751.47 -149.19, 762.77 -177.04, 784.97 -230.18 C807.18 -283.32, 849.37 -388.58, 873.48 -451.8 C897.59 -515.01, 912.28 -558.84, 929.64 -609.48 C947 -660.12, 962.65 -719.63, 977.62 -755.64 C992.58 -791.66, 1000.3 -812.96, 1019.43 -825.57 C1038.56 -838.19, 1073.12 -833.64, 1092.4 -831.35 C1111.68 -829.06, 1126.57 -823.58, 1135.09 -811.83 C1143.61 -800.09, 1151.16 -795.82, 1143.51 -760.86 C1135.86 -725.9, 1106.5 -652.62, 1089.2 -602.1 C1071.9 -551.58, 1060.89 -515.47, 1039.69 -457.74 C1018.49 -400.01, 986.21 -313.27, 962.01 -255.73 C937.8 -198.2, 919.11 -153.63, 894.45 -112.54 C869.79 -71.45, 842.66 -30.57, 814.05 -9.19 C785.44 12.19, 754.69 17.79, 722.8 15.73 C690.91 13.68, 656.85 13.12, 622.72 -21.53 C588.58 -56.18, 548.61 -129.76, 517.97 -192.14 C487.34 -254.52, 472.17 -317.08, 438.91 -395.8 C405.66 -474.52, 345.44 -618.85, 318.44 -664.47 C291.44 -710.09, 298.89 -700.85, 276.91 -669.53 C254.93 -638.21, 219.68 -555.12, 186.54 -476.54 C153.39 -397.96, 104.93 -271.02, 78.05 -198.04 C51.18 -125.07, 38.28 -71.71, 25.27 -38.7 C12.26 -5.7, 4.21 -6.45, 0 0" stroke="#000" stroke-width="4" fill="none"></path></g></g><mask></mask><g stroke-linecap="round"><g transform="translate(2130.707633209917 319.24246329704806) rotate(0 3.9567266430758536 77.35906905038132)" fill-rule="evenodd"><path d="M0 0 C48.8 0.39, 232.97 -2.55, 292.79 2.32 C352.61 7.19, 346.68 11.22, 358.94 29.21 C371.19 47.21, 371.19 89.99, 366.32 110.29 C361.46 130.59, 359.52 143.62, 329.75 151.03 C299.98 158.43, 257.23 154.44, 187.71 154.72 C118.18 155, -4.54 153.68, -87.42 152.71 C-170.31 151.75, -264.42 154.81, -309.59 148.95 C-354.75 143.09, -350.32 137.02, -358.41 117.56 C-366.49 98.11, -369.72 51.3, -358.09 32.22 C-346.46 13.13, -348.31 8.4, -288.63 3.03 C-228.94 -2.34, -48.1 0.51, 0 0" stroke="none" stroke-width="0" fill="#000" fill-rule="evenodd"></path><path d="M0 0 C48.8 0.39, 232.97 -2.55, 292.79 2.32 C352.61 7.19, 346.68 11.22, 358.94 29.21 C371.19 47.21, 371.19 89.99, 366.32 110.29 C361.46 130.59, 359.52 143.62, 329.75 151.03 C299.98 158.43, 257.23 154.44, 187.71 154.72 C118.18 155, -4.54 153.68, -87.42 152.71 C-170.31 151.75, -264.42 154.81, -309.59 148.95 C-354.75 143.09, -350.32 137.02, -358.41 117.56 C-366.49 98.11, -369.72 51.3, -358.09 32.22 C-346.46 13.13, -348.31 8.4, -288.63 3.03 C-228.94 -2.34, -48.1 0.51, 0 0 M0 0 C48.8 0.39, 232.97 -2.55, 292.79 2.32 C352.61 7.19, 346.68 11.22, 358.94 29.21 C371.19 47.21, 371.19 89.99, 366.32 110.29 C361.46 130.59, 359.52 143.62, 329.75 151.03 C299.98 158.43, 257.23 154.44, 187.71 154.72 C118.18 155, -4.54 153.68, -87.42 152.71 C-170.31 151.75, -264.42 154.81, -309.59 148.95 C-354.75 143.09, -350.32 137.02, -358.41 117.56 C-366.49 98.11, -369.72 51.3, -358.09 32.22 C-346.46 13.13, -348.31 8.4, -288.63 3.03 C-228.94 -2.34, -48.1 0.51, 0 0" stroke="#000" stroke-width="4" fill="none"></path></g></g><mask></mask><g stroke-linecap="round"><g transform="translate(375.6834968265757 313.05906220386373) rotate(0 3.9567266430758536 77.35906905038132)" fill-rule="evenodd"><path d="M0 0 C48.8 0.39, 232.97 -2.55, 292.79 2.32 C352.61 7.19, 346.68 11.22, 358.94 29.21 C371.19 47.21, 371.19 89.99, 366.32 110.29 C361.46 130.59, 359.52 143.62, 329.75 151.03 C299.98 158.43, 257.23 154.44, 187.71 154.72 C118.18 155, -4.54 153.68, -87.42 152.71 C-170.31 151.75, -264.42 154.81, -309.59 148.95 C-354.75 143.09, -350.32 137.02, -358.41 117.56 C-366.49 98.11, -369.72 51.3, -358.09 32.22 C-346.46 13.13, -348.31 8.4, -288.63 3.03 C-228.94 -2.34, -48.1 0.51, 0 0" stroke="none" stroke-width="0" fill="#000" fill-rule="evenodd"></path><path d="M0 0 C48.8 0.39, 232.97 -2.55, 292.79 2.32 C352.61 7.19, 346.68 11.22, 358.94 29.21 C371.19 47.21, 371.19 89.99, 366.32 110.29 C361.46 130.59, 359.52 143.62, 329.75 151.03 C299.98 158.43, 257.23 154.44, 187.71 154.72 C118.18 155, -4.54 153.68, -87.42 152.71 C-170.31 151.75, -264.42 154.81, -309.59 148.95 C-354.75 143.09, -350.32 137.02, -358.41 117.56 C-366.49 98.11, -369.72 51.3, -358.09 32.22 C-346.46 13.13, -348.31 8.4, -288.63 3.03 C-228.94 -2.34, -48.1 0.51, 0 0 M0 0 C48.8 0.39, 232.97 -2.55, 292.79 2.32 C352.61 7.19, 346.68 11.22, 358.94 29.21 C371.19 47.21, 371.19 89.99, 366.32 110.29 C361.46 130.59, 359.52 143.62, 329.75 151.03 C299.98 158.43, 257.23 154.44, 187.71 154.72 C118.18 155, -4.54 153.68, -87.42 152.71 C-170.31 151.75, -264.42 154.81, -309.59 148.95 C-354.75 143.09, -350.32 137.02, -358.41 117.56 C-366.49 98.11, -369.72 51.3, -358.09 32.22 C-346.46 13.13, -348.31 8.4, -288.63 3.03 C-228.94 -2.34, -48.1 0.51, 0 0" stroke="#000" stroke-width="4" fill="none"></path></g></g><mask></mask><g stroke-linecap="round"><g transform="translate(363.520567397587 452.7591703941473) rotate(89.99999999999994 -3.956726643074944 -77.35906905038155)" fill-rule="evenodd"><path d="M0 0 C-48.8 -0.39, -232.97 2.55, -292.79 -2.32 C-352.61 -7.19, -346.68 -11.22, -358.94 -29.21 C-371.19 -47.21, -371.19 -89.99, -366.32 -110.29 C-361.46 -130.59, -359.52 -143.62, -329.75 -151.03 C-299.98 -158.43, -257.23 -154.44, -187.71 -154.72 C-118.18 -155, 4.54 -153.68, 87.42 -152.71 C170.31 -151.75, 264.42 -154.81, 309.59 -148.95 C354.75 -143.09, 350.32 -137.02, 358.41 -117.56 C366.49 -98.11, 369.72 -51.3, 358.09 -32.22 C346.46 -13.13, 348.31 -8.4, 288.63 -3.03 C228.94 2.34, 48.1 -0.51, 0 0" stroke="none" stroke-width="0" fill="#000" fill-rule="evenodd"></path><path d="M0 0 C-48.8 -0.39, -232.97 2.55, -292.79 -2.32 C-352.61 -7.19, -346.68 -11.22, -358.94 -29.21 C-371.19 -47.21, -371.19 -89.99, -366.32 -110.29 C-361.46 -130.59, -359.52 -143.62, -329.75 -151.03 C-299.98 -158.43, -257.23 -154.44, -187.71 -154.72 C-118.18 -155, 4.54 -153.68, 87.42 -152.71 C170.31 -151.75, 264.42 -154.81, 309.59 -148.95 C354.75 -143.09, 350.32 -137.02, 358.41 -117.56 C366.49 -98.11, 369.72 -51.3, 358.09 -32.22 C346.46 -13.13, 348.31 -8.4, 288.63 -3.03 C228.94 2.34, 48.1 -0.51, 0 0 M0 0 C-48.8 -0.39, -232.97 2.55, -292.79 -2.32 C-352.61 -7.19, -346.68 -11.22, -358.94 -29.21 C-371.19 -47.21, -371.19 -89.99, -366.32 -110.29 C-361.46 -130.59, -359.52 -143.62, -329.75 -151.03 C-299.98 -158.43, -257.23 -154.44, -187.71 -154.72 C-118.18 -155, 4.54 -153.68, 87.42 -152.71 C170.31 -151.75, 264.42 -154.81, 309.59 -148.95 C354.75 -143.09, 350.32 -137.02, 358.41 -117.56 C366.49 -98.11, 369.72 -51.3, 358.09 -32.22 C346.46 -13.13, 348.31 -8.4, 288.63 -3.03 C228.94 2.34, 48.1 -0.51, 0 0" stroke="#000" stroke-width="4" fill="none"></path></g></g><mask></mask></svg>
