<svg version="1.1" xmlns="http://www.w3.org/2000/svg" viewBox="0 0 1090.4544067382812 1090.4544067382812" width="3271.3632202148438" height="3271.3632202148438" filter="invert(93%) hue-rotate(180deg)">
  <!-- svg-source:excalidraw -->
  
  <defs>
    <style class="style-fonts">
      @font-face {
        font-family: "Virgil";
        src: url("https://unpkg.com/@excalidraw/excalidraw@undefined/dist/excalidraw-assets/Virgil.woff2");
      }
      @font-face {
        font-family: "Cascadia";
        src: url("https://unpkg.com/@excalidraw/excalidraw@undefined/dist/excalidraw-assets/Cascadia.woff2");
      }
      @font-face {
        font-family: "Assistant";
        src: url("https://unpkg.com/@excalidraw/excalidraw@undefined/dist/excalidraw-assets/Assistant-Regular.woff2");
      }
    </style>
    
  </defs>
  <g stroke-linecap="round" transform="translate(10.000000000000227 10) rotate(0 535.2272033691405 535.2272033691405)"><path d="M1070.45 535.23 C1070.45 542.8, 1070.29 550.38, 1069.97 557.94 C1069.65 565.51, 1069.17 573.07, 1068.53 580.62 C1067.88 588.16, 1067.08 595.7, 1066.12 603.21 C1065.16 610.72, 1064.04 618.22, 1062.76 625.68 C1061.48 633.14, 1060.04 640.59, 1058.44 647.99 C1056.85 655.39, 1055.09 662.77, 1053.18 670.09 C1051.28 677.42, 1049.21 684.71, 1046.99 691.95 C1044.78 699.19, 1042.4 706.39, 1039.88 713.53 C1037.36 720.67, 1034.68 727.76, 1031.86 734.79 C1029.04 741.82, 1026.06 748.79, 1022.94 755.69 C1019.82 762.59, 1016.55 769.43, 1013.15 776.19 C1009.74 782.95, 1006.18 789.64, 1002.49 796.25 C998.8 802.87, 994.96 809.4, 990.99 815.85 C987.02 822.3, 982.91 828.67, 978.67 834.94 C974.43 841.21, 970.05 847.4, 965.55 853.49 C961.05 859.58, 956.41 865.58, 951.65 871.47 C946.9 877.36, 942.01 883.15, 937.01 888.84 C932 894.52, 926.88 900.11, 921.64 905.57 C916.4 911.04, 911.04 916.4, 905.57 921.64 C900.11 926.88, 894.52 932, 888.84 937.01 C883.15 942.01, 877.36 946.9, 871.47 951.65 C865.58 956.41, 859.58 961.05, 853.49 965.55 C847.4 970.05, 841.21 974.43, 834.94 978.67 C828.67 982.91, 822.3 987.02, 815.85 990.99 C809.4 994.96, 802.87 998.8, 796.25 1002.49 C789.64 1006.18, 782.95 1009.74, 776.19 1013.15 C769.43 1016.55, 762.59 1019.82, 755.69 1022.94 C748.79 1026.06, 741.82 1029.04, 734.79 1031.86 C727.76 1034.68, 720.67 1037.36, 713.53 1039.88 C706.39 1042.4, 699.19 1044.78, 691.95 1046.99 C684.71 1049.21, 677.42 1051.28, 670.09 1053.18 C662.77 1055.09, 655.39 1056.85, 647.99 1058.44 C640.59 1060.04, 633.14 1061.48, 625.68 1062.76 C618.22 1064.04, 610.72 1065.16, 603.21 1066.12 C595.7 1067.08, 588.16 1067.88, 580.62 1068.53 C573.07 1069.17, 565.51 1069.65, 557.94 1069.97 C550.38 1070.29, 542.8 1070.45, 535.23 1070.45 C527.66 1070.45, 520.08 1070.29, 512.51 1069.97 C504.95 1069.65, 497.38 1069.17, 489.84 1068.53 C482.29 1067.88, 474.75 1067.08, 467.24 1066.12 C459.73 1065.16, 452.24 1064.04, 444.77 1062.76 C437.31 1061.48, 429.87 1060.04, 422.47 1058.44 C415.06 1056.85, 407.69 1055.09, 400.36 1053.18 C393.03 1051.28, 385.74 1049.21, 378.5 1046.99 C371.26 1044.78, 364.06 1042.4, 356.92 1039.88 C349.78 1037.36, 342.69 1034.68, 335.66 1031.86 C328.64 1029.04, 321.67 1026.06, 314.77 1022.94 C307.87 1019.82, 301.03 1016.55, 294.27 1013.15 C287.5 1009.74, 280.81 1006.18, 274.2 1002.49 C267.59 998.8, 261.05 994.96, 254.6 990.99 C248.16 987.02, 241.79 982.91, 235.51 978.67 C229.24 974.43, 223.05 970.05, 216.96 965.55 C210.88 961.05, 204.88 956.41, 198.99 951.65 C193.1 946.9, 187.3 942.01, 181.62 937.01 C175.93 932, 170.35 926.88, 164.88 921.64 C159.42 916.4, 154.06 911.04, 148.82 905.57 C143.58 900.11, 138.45 894.52, 133.45 888.84 C128.44 883.15, 123.56 877.36, 118.8 871.47 C114.04 865.58, 109.41 859.58, 104.91 853.49 C100.4 847.4, 96.03 841.21, 91.79 834.94 C87.55 828.67, 83.44 822.3, 79.47 815.85 C75.5 809.4, 71.66 802.87, 67.97 796.25 C64.27 789.64, 60.72 782.95, 57.31 776.19 C53.9 769.43, 50.63 762.59, 47.51 755.69 C44.39 748.79, 41.42 741.82, 38.6 734.79 C35.77 727.76, 33.1 720.67, 30.57 713.53 C28.05 706.39, 25.68 699.19, 23.46 691.95 C21.24 684.71, 19.18 677.42, 17.27 670.09 C15.36 662.77, 13.61 655.39, 12.01 647.99 C10.42 640.59, 8.98 633.14, 7.7 625.68 C6.42 618.22, 5.3 610.72, 4.34 603.21 C3.37 595.7, 2.57 588.16, 1.93 580.62 C1.29 573.07, 0.8 565.51, 0.48 557.94 C0.16 550.38, 0 542.8, 0 535.23 C0 527.66, 0.16 520.08, 0.48 512.51 C0.8 504.95, 1.29 497.38, 1.93 489.84 C2.57 482.29, 3.37 474.75, 4.34 467.24 C5.3 459.73, 6.42 452.24, 7.7 444.77 C8.98 437.31, 10.42 429.87, 12.01 422.47 C13.61 415.06, 15.36 407.69, 17.27 400.36 C19.18 393.03, 21.24 385.74, 23.46 378.5 C25.68 371.26, 28.05 364.06, 30.57 356.92 C33.1 349.78, 35.77 342.69, 38.6 335.66 C41.42 328.64, 44.39 321.67, 47.51 314.77 C50.63 307.87, 53.9 301.03, 57.31 294.27 C60.72 287.5, 64.27 280.81, 67.97 274.2 C71.66 267.59, 75.5 261.05, 79.47 254.6 C83.44 248.16, 87.55 241.79, 91.79 235.51 C96.03 229.24, 100.4 223.05, 104.91 216.96 C109.41 210.88, 114.04 204.88, 118.8 198.99 C123.56 193.1, 128.44 187.3, 133.45 181.62 C138.45 175.93, 143.58 170.35, 148.82 164.88 C154.06 159.42, 159.42 154.06, 164.88 148.82 C170.35 143.58, 175.93 138.45, 181.62 133.45 C187.3 128.44, 193.1 123.56, 198.99 118.8 C204.88 114.04, 210.88 109.41, 216.96 104.91 C223.05 100.4, 229.24 96.03, 235.51 91.79 C241.79 87.55, 248.16 83.44, 254.6 79.47 C261.05 75.5, 267.59 71.66, 274.2 67.97 C280.81 64.27, 287.5 60.72, 294.27 57.31 C301.03 53.9, 307.87 50.63, 314.77 47.51 C321.67 44.39, 328.64 41.42, 335.66 38.6 C342.69 35.77, 349.78 33.1, 356.92 30.57 C364.06 28.05, 371.26 25.68, 378.5 23.46 C385.74 21.24, 393.03 19.18, 400.36 17.27 C407.69 15.36, 415.06 13.61, 422.47 12.01 C429.87 10.42, 437.31 8.98, 444.77 7.7 C452.24 6.42, 459.73 5.3, 467.24 4.34 C474.75 3.37, 482.29 2.57, 489.84 1.93 C497.38 1.29, 504.95 0.8, 512.51 0.48 C520.08 0.16, 527.66 0, 535.23 0 C542.8 0, 550.38 0.16, 557.94 0.48 C565.51 0.8, 573.07 1.29, 580.62 1.93 C588.16 2.57, 595.7 3.37, 603.21 4.34 C610.72 5.3, 618.22 6.42, 625.68 7.7 C633.14 8.98, 640.59 10.42, 647.99 12.01 C655.39 13.61, 662.77 15.36, 670.09 17.27 C677.42 19.18, 684.71 21.24, 691.95 23.46 C699.19 25.68, 706.39 28.05, 713.53 30.57 C720.67 33.1, 727.76 35.77, 734.79 38.6 C741.82 41.42, 748.79 44.39, 755.69 47.51 C762.59 50.63, 769.43 53.9, 776.19 57.31 C782.95 60.72, 789.64 64.27, 796.25 67.97 C802.87 71.66, 809.4 75.5, 815.85 79.47 C822.3 83.44, 828.67 87.55, 834.94 91.79 C841.21 96.03, 847.4 100.4, 853.49 104.91 C859.58 109.41, 865.58 114.04, 871.47 118.8 C877.36 123.56, 883.15 128.44, 888.84 133.45 C894.52 138.45, 900.11 143.58, 905.57 148.82 C911.04 154.06, 916.4 159.42, 921.64 164.88 C926.88 170.35, 932 175.93, 937.01 181.62 C942.01 187.3, 946.9 193.1, 951.65 198.99 C956.41 204.88, 961.05 210.88, 965.55 216.96 C970.05 223.05, 974.43 229.24, 978.67 235.51 C982.91 241.79, 987.02 248.16, 990.99 254.6 C994.96 261.05, 998.8 267.59, 1002.49 274.2 C1006.18 280.81, 1009.74 287.5, 1013.15 294.27 C1016.55 301.03, 1019.82 307.87, 1022.94 314.77 C1026.06 321.67, 1029.04 328.64, 1031.86 335.66 C1034.68 342.69, 1037.36 349.78, 1039.88 356.92 C1042.4 364.06, 1044.78 371.26, 1046.99 378.5 C1049.21 385.74, 1051.28 393.03, 1053.18 400.36 C1055.09 407.69, 1056.85 415.06, 1058.44 422.47 C1060.04 429.87, 1061.48 437.31, 1062.76 444.77 C1064.04 452.24, 1065.16 459.73, 1066.12 467.24 C1067.08 474.75, 1067.88 482.29, 1068.53 489.84 C1069.17 497.38, 1069.65 504.95, 1069.97 512.51 C1070.29 520.08, 1070.45 527.66, 1070.45 535.23" stroke="none" stroke-width="0" fill="#ffff"></path><path d="M1070.45 535.23 C1070.45 542.8, 1070.29 550.38, 1069.97 557.94 C1069.65 565.51, 1069.17 573.07, 1068.53 580.62 C1067.88 588.16, 1067.08 595.7, 1066.12 603.21 C1065.16 610.72, 1064.04 618.22, 1062.76 625.68 C1061.48 633.14, 1060.04 640.59, 1058.44 647.99 C1056.85 655.39, 1055.09 662.77, 1053.18 670.09 C1051.28 677.42, 1049.21 684.71, 1046.99 691.95 C1044.78 699.19, 1042.4 706.39, 1039.88 713.53 C1037.36 720.67, 1034.68 727.76, 1031.86 734.79 C1029.04 741.82, 1026.06 748.79, 1022.94 755.69 C1019.82 762.59, 1016.55 769.43, 1013.15 776.19 C1009.74 782.95, 1006.18 789.64, 1002.49 796.25 C998.8 802.87, 994.96 809.4, 990.99 815.85 C987.02 822.3, 982.91 828.67, 978.67 834.94 C974.43 841.21, 970.05 847.4, 965.55 853.49 C961.05 859.58, 956.41 865.58, 951.65 871.47 C946.9 877.36, 942.01 883.15, 937.01 888.84 C932 894.52, 926.88 900.11, 921.64 905.57 C916.4 911.04, 911.04 916.4, 905.57 921.64 C900.11 926.88, 894.52 932, 888.84 937.01 C883.15 942.01, 877.36 946.9, 871.47 951.65 C865.58 956.41, 859.58 961.05, 853.49 965.55 C847.4 970.05, 841.21 974.43, 834.94 978.67 C828.67 982.91, 822.3 987.02, 815.85 990.99 C809.4 994.96, 802.87 998.8, 796.25 1002.49 C789.64 1006.18, 782.95 1009.74, 776.19 1013.15 C769.43 1016.55, 762.59 1019.82, 755.69 1022.94 C748.79 1026.06, 741.82 1029.04, 734.79 1031.86 C727.76 1034.68, 720.67 1037.36, 713.53 1039.88 C706.39 1042.4, 699.19 1044.78, 691.95 1046.99 C684.71 1049.21, 677.42 1051.28, 670.09 1053.18 C662.77 1055.09, 655.39 1056.85, 647.99 1058.44 C640.59 1060.04, 633.14 1061.48, 625.68 1062.76 C618.22 1064.04, 610.72 1065.16, 603.21 1066.12 C595.7 1067.08, 588.16 1067.88, 580.62 1068.53 C573.07 1069.17, 565.51 1069.65, 557.94 1069.97 C550.38 1070.29, 542.8 1070.45, 535.23 1070.45 C527.66 1070.45, 520.08 1070.29, 512.51 1069.97 C504.95 1069.65, 497.38 1069.17, 489.84 1068.53 C482.29 1067.88, 474.75 1067.08, 467.24 1066.12 C459.73 1065.16, 452.24 1064.04, 444.77 1062.76 C437.31 1061.48, 429.87 1060.04, 422.47 1058.44 C415.06 1056.85, 407.69 1055.09, 400.36 1053.18 C393.03 1051.28, 385.74 1049.21, 378.5 1046.99 C371.26 1044.78, 364.06 1042.4, 356.92 1039.88 C349.78 1037.36, 342.69 1034.68, 335.66 1031.86 C328.64 1029.04, 321.67 1026.06, 314.77 1022.94 C307.87 1019.82, 301.03 1016.55, 294.27 1013.15 C287.5 1009.74, 280.81 1006.18, 274.2 1002.49 C267.59 998.8, 261.05 994.96, 254.6 990.99 C248.16 987.02, 241.79 982.91, 235.51 978.67 C229.24 974.43, 223.05 970.05, 216.96 965.55 C210.88 961.05, 204.88 956.41, 198.99 951.65 C193.1 946.9, 187.3 942.01, 181.62 937.01 C175.93 932, 170.35 926.88, 164.88 921.64 C159.42 916.4, 154.06 911.04, 148.82 905.57 C143.58 900.11, 138.45 894.52, 133.45 888.84 C128.44 883.15, 123.56 877.36, 118.8 871.47 C114.04 865.58, 109.41 859.58, 104.91 853.49 C100.4 847.4, 96.03 841.21, 91.79 834.94 C87.55 828.67, 83.44 822.3, 79.47 815.85 C75.5 809.4, 71.66 802.87, 67.97 796.25 C64.27 789.64, 60.72 782.95, 57.31 776.19 C53.9 769.43, 50.63 762.59, 47.51 755.69 C44.39 748.79, 41.42 741.82, 38.6 734.79 C35.77 727.76, 33.1 720.67, 30.57 713.53 C28.05 706.39, 25.68 699.19, 23.46 691.95 C21.24 684.71, 19.18 677.42, 17.27 670.09 C15.36 662.77, 13.61 655.39, 12.01 647.99 C10.42 640.59, 8.98 633.14, 7.7 625.68 C6.42 618.22, 5.3 610.72, 4.34 603.21 C3.37 595.7, 2.57 588.16, 1.93 580.62 C1.29 573.07, 0.8 565.51, 0.48 557.94 C0.16 550.38, 0 542.8, 0 535.23 C0 527.66, 0.16 520.08, 0.48 512.51 C0.8 504.95, 1.29 497.38, 1.93 489.84 C2.57 482.29, 3.37 474.75, 4.34 467.24 C5.3 459.73, 6.42 452.24, 7.7 444.77 C8.98 437.31, 10.42 429.87, 12.01 422.47 C13.61 415.06, 15.36 407.69, 17.27 400.36 C19.18 393.03, 21.24 385.74, 23.46 378.5 C25.68 371.26, 28.05 364.06, 30.57 356.92 C33.1 349.78, 35.77 342.69, 38.6 335.66 C41.42 328.64, 44.39 321.67, 47.51 314.77 C50.63 307.87, 53.9 301.03, 57.31 294.27 C60.72 287.5, 64.27 280.81, 67.97 274.2 C71.66 267.59, 75.5 261.05, 79.47 254.6 C83.44 248.16, 87.55 241.79, 91.79 235.51 C96.03 229.24, 100.4 223.05, 104.91 216.96 C109.41 210.88, 114.04 204.88, 118.8 198.99 C123.56 193.1, 128.44 187.3, 133.45 181.62 C138.45 175.93, 143.58 170.35, 148.82 164.88 C154.06 159.42, 159.42 154.06, 164.88 148.82 C170.35 143.58, 175.93 138.45, 181.62 133.45 C187.3 128.44, 193.1 123.56, 198.99 118.8 C204.88 114.04, 210.88 109.41, 216.96 104.91 C223.05 100.4, 229.24 96.03, 235.51 91.79 C241.79 87.55, 248.16 83.44, 254.6 79.47 C261.05 75.5, 267.59 71.66, 274.2 67.97 C280.81 64.27, 287.5 60.72, 294.27 57.31 C301.03 53.9, 307.87 50.63, 314.77 47.51 C321.67 44.39, 328.64 41.42, 335.66 38.6 C342.69 35.77, 349.78 33.1, 356.92 30.57 C364.06 28.05, 371.26 25.68, 378.5 23.46 C385.74 21.24, 393.03 19.18, 400.36 17.27 C407.69 15.36, 415.06 13.61, 422.47 12.01 C429.87 10.42, 437.31 8.98, 444.77 7.7 C452.24 6.42, 459.73 5.3, 467.24 4.34 C474.75 3.37, 482.29 2.57, 489.84 1.93 C497.38 1.29, 504.95 0.8, 512.51 0.48 C520.08 0.16, 527.66 0, 535.23 0 C542.8 0, 550.38 0.16, 557.94 0.48 C565.51 0.8, 573.07 1.29, 580.62 1.93 C588.16 2.57, 595.7 3.37, 603.21 4.34 C610.72 5.3, 618.22 6.42, 625.68 7.7 C633.14 8.98, 640.59 10.42, 647.99 12.01 C655.39 13.61, 662.77 15.36, 670.09 17.27 C677.42 19.18, 684.71 21.24, 691.95 23.46 C699.19 25.68, 706.39 28.05, 713.53 30.57 C720.67 33.1, 727.76 35.77, 734.79 38.6 C741.82 41.42, 748.79 44.39, 755.69 47.51 C762.59 50.63, 769.43 53.9, 776.19 57.31 C782.95 60.72, 789.64 64.27, 796.25 67.97 C802.87 71.66, 809.4 75.5, 815.85 79.47 C822.3 83.44, 828.67 87.55, 834.94 91.79 C841.21 96.03, 847.4 100.4, 853.49 104.91 C859.58 109.41, 865.58 114.04, 871.47 118.8 C877.36 123.56, 883.15 128.44, 888.84 133.45 C894.52 138.45, 900.11 143.58, 905.57 148.82 C911.04 154.06, 916.4 159.42, 921.64 164.88 C926.88 170.35, 932 175.93, 937.01 181.62 C942.01 187.3, 946.9 193.1, 951.65 198.99 C956.41 204.88, 961.05 210.88, 965.55 216.96 C970.05 223.05, 974.43 229.24, 978.67 235.51 C982.91 241.79, 987.02 248.16, 990.99 254.6 C994.96 261.05, 998.8 267.59, 1002.49 274.2 C1006.18 280.81, 1009.74 287.5, 1013.15 294.27 C1016.55 301.03, 1019.82 307.87, 1022.94 314.77 C1026.06 321.67, 1029.04 328.64, 1031.86 335.66 C1034.68 342.69, 1037.36 349.78, 1039.88 356.92 C1042.4 364.06, 1044.78 371.26, 1046.99 378.5 C1049.21 385.74, 1051.28 393.03, 1053.18 400.36 C1055.09 407.69, 1056.85 415.06, 1058.44 422.47 C1060.04 429.87, 1061.48 437.31, 1062.76 444.77 C1064.04 452.24, 1065.16 459.73, 1066.12 467.24 C1067.08 474.75, 1067.88 482.29, 1068.53 489.84 C1069.17 497.38, 1069.65 504.95, 1069.97 512.51 C1070.29 520.08, 1070.45 527.66, 1070.45 535.23" stroke="#1e1e1e" stroke-width="4" fill="none"></path></g><g stroke-linecap="round"><g transform="translate(188.9308594029319 329.6425481097158) rotate(0 0 130.03827190883976)"><path d="M0 0 C0 94.84, 0 189.67, 0 260.08 M0 0 C0 71.61, 0 143.22, 0 260.08" stroke="#1e1e1e" stroke-width="4" fill="none"></path></g></g><mask></mask><g stroke-linecap="round"><g transform="translate(192.54149033350063 329.71571227594177) rotate(0 0 130.04823678652224)"><path d="M0 0 C0 90.51, 0 181.01, 0 260.1 M0 0 C0 75.23, 0 150.46, 0 260.1" stroke="#1e1e1e" stroke-width="4" fill="none"></path></g></g><mask></mask><g stroke-linecap="round"><g transform="translate(189.46948453233585 329.6425484835481) rotate(0 1.5360028311588394 0)"><path d="M0 0 C1.1 0, 2.2 0, 3.07 0 M0 0 C0.7 0, 1.4 0, 3.07 0" stroke="#1e1e1e" stroke-width="4" fill="none"></path></g></g><mask></mask><g stroke-linecap="round"><g transform="translate(188.9308599693652 589.8121861176396) rotate(0 1.5360028311588394 0)"><path d="M0 0 C1.21 0, 2.41 0, 3.07 0 M0 0 C1.23 0, 2.46 0, 3.07 0" stroke="#1e1e1e" stroke-width="4" fill="none"></path></g></g><mask></mask><g stroke-linecap="round"><g transform="translate(190.68962712159941 591.5709548025616) rotate(89.99999999999994 0 -130.03827190883976)"><path d="M0 0 C0 -61.88, 0 -123.75, 0 -260.08 M0 0 C0 -97.4, 0 -194.8, 0 -260.08" stroke="#1e1e1e" stroke-width="4" fill="none"></path></g></g><mask></mask><g stroke-linecap="round"><g transform="translate(190.77275616550855 587.9702887496733) rotate(89.99999999999994 0 -130.04823678652224)"><path d="M0 0 C0 -71.08, 0 -142.16, 0 -260.1 M0 0 C0 -73.98, 0 -147.96, 0 -260.1" stroke="#1e1e1e" stroke-width="4" fill="none"></path></g></g><mask></mask><g stroke-linecap="round"><g transform="translate(62.187358417748555 459.4580549331604) rotate(89.99999999999994 -1.5360028311588394 0)"><path d="M0 0 C-0.85 0, -1.71 0, -3.07 0 M0 0 C-0.97 0, -1.93 0, -3.07 0" stroke="#1e1e1e" stroke-width="4" fill="none"></path></g></g><mask></mask><g stroke-linecap="round"><g transform="translate(322.35699605184004 459.9966794961265) rotate(89.99999999999994 -1.5360028311588394 0)"><path d="M0 0 C-0.73 0, -1.45 0, -3.07 0 M0 0 C-1.22 0, -2.43 0, -3.07 0" stroke="#1e1e1e" stroke-width="4" fill="none"></path></g></g><mask></mask><g stroke-linecap="round"><g transform="translate(899.6716862693977 593.3762693749977) rotate(89.99999999999994 0 -130.03827190883976)"><path d="M0 0 C0 -90.2, 0 -180.4, 0 -260.08 M0 0 C0 -78.79, 0 -157.58, 0 -260.08" stroke="#1e1e1e" stroke-width="4" fill="none"></path></g></g><mask></mask><g stroke-linecap="round"><g transform="translate(899.7548153132996 589.7756033221094) rotate(89.99999999999994 0 -130.04823678652224)"><path d="M0 0 C0 -58.51, 0 -117.02, 0 -260.1 M0 0 C0 -88.85, 0 -177.7, 0 -260.1" stroke="#1e1e1e" stroke-width="4" fill="none"></path></g></g><mask></mask><g stroke-linecap="round"><g transform="translate(771.1694175655396 461.26336950559653) rotate(89.99999999999994 -1.5360028311588394 0)"><path d="M0 0 C-0.96 0, -1.91 0, -3.07 0 M0 0 C-0.76 0, -1.52 0, -3.07 0" stroke="#1e1e1e" stroke-width="4" fill="none"></path></g></g><mask></mask><g stroke-linecap="round"><g transform="translate(1031.3390551996383 461.80199406856264) rotate(89.99999999999994 -1.5360028311588394 0)"><path d="M0 0 C-0.86 0, -1.71 0, -3.07 0 M0 0 C-0.86 0, -1.72 0, -3.07 0" stroke="#1e1e1e" stroke-width="4" fill="none"></path></g></g><mask></mask><g stroke-linecap="round"><g transform="translate(317.7043305419395 732.1261921293044) rotate(0 226.43909363808598 0)"><path d="M0 0 C106.66 0, 213.32 0, 452.88 0 M0 0 C140.5 0, 281 0, 452.88 0" stroke="#1e1e1e" stroke-width="2" fill="none"></path></g></g><mask></mask><g stroke-linecap="round"><g transform="translate(315.5909919149601 880.3211079078137) rotate(0 228.17663150344924 -148.29704861112327)"><path d="M0 0 C24.21 -49.64, 92.85 -298.02, 145.24 -297.82 C197.63 -297.62, 262.47 0.99, 314.32 1.23 C366.18 1.47, 432.68 -246.78, 456.35 -296.39 M0 0 C24.21 -49.64, 92.85 -298.02, 145.24 -297.82 C197.63 -297.62, 262.47 0.99, 314.32 1.23 C366.18 1.47, 432.68 -246.78, 456.35 -296.39" stroke="#1e1e1e" stroke-width="4" fill="none"></path></g></g><mask></mask><g stroke-linecap="round"><g transform="translate(317.70433034605617 880.4232399737193) rotate(0 228.17663150344924 -148.29704861112327)"><path d="M0 0 C24.21 -49.64, 92.85 -298.02, 145.24 -297.82 C197.63 -297.62, 262.47 0.99, 314.32 1.23 C366.18 1.47, 432.68 -246.78, 456.35 -296.39 M0 0 C24.21 -49.64, 92.85 -298.02, 145.24 -297.82 C197.63 -297.62, 262.47 0.99, 314.32 1.23 C366.18 1.47, 432.68 -246.78, 456.35 -296.39" stroke="#1e1e1e" stroke-width="4" fill="none"></path></g></g><mask></mask></svg>