<svg version="1.1" xmlns="http://www.w3.org/2000/svg" viewBox="0 0 3383.333333333332 3383.3333333333326" width="10149.999999999996" height="10149.999999999998">
  <!-- svg-source:excalidraw -->
  
  <defs>
    <style class="style-fonts">
      @font-face {
        font-family: "Virgil";
        src: url("https://unpkg.com/@excalidraw/excalidraw@undefined/dist/excalidraw-assets/Virgil.woff2");
      }
      @font-face {
        font-family: "Cascadia";
        src: url("https://unpkg.com/@excalidraw/excalidraw@undefined/dist/excalidraw-assets/Cascadia.woff2");
      }
      @font-face {
        font-family: "Assistant";
        src: url("https://unpkg.com/@excalidraw/excalidraw@undefined/dist/excalidraw-assets/Assistant-Regular.woff2");
      }
    </style>
    
  </defs>
  <g stroke-linecap="round" transform="translate(10 10) rotate(0 1681.666666666666 1681.6666666666663)"><path d="M3363.33 1681.67 C3363.33 1695.01, 3363.17 1708.35, 3362.86 1721.69 C3362.54 1735.02, 3362.06 1748.36, 3361.43 1761.68 C3360.79 1775.01, 3360 1788.33, 3359.05 1801.64 C3358.1 1814.94, 3356.99 1828.24, 3355.72 1841.52 C3354.45 1854.8, 3353.02 1868.07, 3351.44 1881.31 C3349.86 1894.56, 3348.11 1907.79, 3346.22 1920.99 C3344.32 1934.2, 3342.26 1947.38, 3340.05 1960.54 C3337.84 1973.69, 3335.47 1986.83, 3332.94 1999.92 C3330.42 2013.02, 3327.74 2026.1, 3324.9 2039.13 C3322.07 2052.17, 3319.07 2065.17, 3315.93 2078.13 C3312.78 2091.1, 3309.48 2104.03, 3306.03 2116.91 C3302.58 2129.8, 3298.97 2142.65, 3295.21 2155.45 C3291.46 2168.25, 3287.54 2181, 3283.48 2193.71 C3279.42 2206.42, 3275.21 2219.08, 3270.84 2231.69 C3266.48 2244.29, 3261.97 2256.85, 3257.3 2269.35 C3252.64 2281.85, 3247.83 2294.29, 3242.87 2306.68 C3237.91 2319.06, 3232.81 2331.39, 3227.56 2343.66 C3222.3 2355.92, 3216.91 2368.12, 3211.36 2380.26 C3205.82 2392.39, 3200.14 2404.46, 3194.31 2416.46 C3188.48 2428.46, 3182.5 2440.39, 3176.39 2452.25 C3170.28 2464.11, 3164.02 2475.9, 3157.63 2487.6 C3151.24 2499.31, 3144.7 2510.95, 3138.03 2522.5 C3131.36 2534.05, 3124.55 2545.53, 3117.61 2556.92 C3110.67 2568.31, 3103.59 2579.62, 3096.37 2590.84 C3089.16 2602.07, 3081.81 2613.21, 3074.34 2624.25 C3066.86 2635.3, 3059.25 2646.26, 3051.51 2657.13 C3043.77 2668, 3035.9 2678.77, 3027.91 2689.45 C3019.92 2700.13, 3011.79 2710.72, 3003.55 2721.2 C2995.3 2731.69, 2986.93 2742.08, 2978.43 2752.37 C2969.94 2762.65, 2961.32 2772.84, 2952.59 2782.92 C2943.85 2793.01, 2934.99 2802.99, 2926.02 2812.86 C2917.04 2822.73, 2907.95 2832.49, 2898.75 2842.15 C2889.54 2851.8, 2880.22 2861.35, 2870.78 2870.78 C2861.35 2880.22, 2851.8 2889.54, 2842.15 2898.75 C2832.49 2907.95, 2822.73 2917.04, 2812.86 2926.02 C2802.99 2934.99, 2793.01 2943.85, 2782.92 2952.59 C2772.84 2961.32, 2762.65 2969.94, 2752.37 2978.43 C2742.08 2986.93, 2731.69 2995.3, 2721.2 3003.55 C2710.72 3011.79, 2700.13 3019.92, 2689.45 3027.91 C2678.77 3035.9, 2668 3043.77, 2657.13 3051.51 C2646.26 3059.25, 2635.3 3066.86, 2624.25 3074.34 C2613.21 3081.81, 2602.07 3089.16, 2590.84 3096.37 C2579.62 3103.59, 2568.31 3110.67, 2556.92 3117.61 C2545.53 3124.55, 2534.05 3131.36, 2522.5 3138.03 C2510.95 3144.7, 2499.31 3151.24, 2487.6 3157.63 C2475.9 3164.02, 2464.11 3170.28, 2452.25 3176.39 C2440.39 3182.5, 2428.46 3188.48, 2416.46 3194.31 C2404.46 3200.14, 2392.39 3205.82, 2380.26 3211.36 C2368.12 3216.91, 2355.92 3222.3, 2343.66 3227.56 C2331.39 3232.81, 2319.06 3237.91, 2306.68 3242.87 C2294.29 3247.83, 2281.85 3252.64, 2269.35 3257.3 C2256.85 3261.97, 2244.29 3266.48, 2231.69 3270.84 C2219.08 3275.21, 2206.42 3279.42, 2193.71 3283.48 C2181 3287.54, 2168.25 3291.46, 2155.45 3295.21 C2142.65 3298.97, 2129.8 3302.58, 2116.91 3306.03 C2104.03 3309.48, 2091.1 3312.78, 2078.13 3315.93 C2065.17 3319.07, 2052.17 3322.07, 2039.13 3324.9 C2026.1 3327.74, 2013.02 3330.42, 1999.92 3332.94 C1986.83 3335.47, 1973.69 3337.84, 1960.54 3340.05 C1947.38 3342.26, 1934.2 3344.32, 1920.99 3346.22 C1907.79 3348.11, 1894.56 3349.86, 1881.31 3351.44 C1868.07 3353.02, 1854.8 3354.45, 1841.52 3355.72 C1828.24 3356.99, 1814.94 3358.1, 1801.64 3359.05 C1788.33 3360, 1775.01 3360.79, 1761.68 3361.43 C1748.36 3362.06, 1735.02 3362.54, 1721.69 3362.86 C1708.35 3363.17, 1695.01 3363.33, 1681.67 3363.33 C1668.33 3363.33, 1654.98 3363.17, 1641.65 3362.86 C1628.31 3362.54, 1614.97 3362.06, 1601.65 3361.43 C1588.32 3360.79, 1575 3360, 1561.7 3359.05 C1548.39 3358.1, 1535.09 3356.99, 1521.81 3355.72 C1508.53 3354.45, 1495.27 3353.02, 1482.02 3351.44 C1468.78 3349.86, 1455.54 3348.11, 1442.34 3346.22 C1429.14 3344.32, 1415.95 3342.26, 1402.8 3340.05 C1389.64 3337.84, 1376.51 3335.47, 1363.41 3332.94 C1350.31 3330.42, 1337.24 3327.74, 1324.2 3324.9 C1311.17 3322.07, 1298.16 3319.07, 1285.2 3315.93 C1272.23 3312.78, 1259.3 3309.48, 1246.42 3306.03 C1233.53 3302.58, 1220.69 3298.97, 1207.89 3295.21 C1195.09 3291.46, 1182.33 3287.54, 1169.62 3283.48 C1156.92 3279.42, 1144.25 3275.21, 1131.65 3270.84 C1119.04 3266.48, 1106.48 3261.97, 1093.98 3257.3 C1081.49 3252.64, 1069.04 3247.83, 1056.65 3242.87 C1044.27 3237.91, 1031.94 3232.81, 1019.68 3227.56 C1007.42 3222.3, 995.21 3216.91, 983.08 3211.36 C970.94 3205.82, 958.87 3200.14, 946.87 3194.31 C934.87 3188.48, 922.94 3182.5, 911.08 3176.39 C899.23 3170.28, 887.44 3164.02, 875.73 3157.63 C864.02 3151.24, 852.39 3144.7, 840.83 3138.03 C829.28 3131.36, 817.8 3124.55, 806.41 3117.61 C795.02 3110.67, 783.71 3103.59, 772.49 3096.37 C761.27 3089.16, 750.13 3081.81, 739.08 3074.34 C728.03 3066.86, 717.07 3059.25, 706.2 3051.51 C695.34 3043.77, 684.56 3035.9, 673.88 3027.91 C663.2 3019.92, 652.62 3011.79, 642.13 3003.55 C631.64 2995.3, 621.25 2986.93, 610.97 2978.43 C600.68 2969.94, 590.49 2961.32, 580.41 2952.59 C570.33 2943.85, 560.35 2934.99, 550.48 2926.02 C540.61 2917.04, 530.84 2907.95, 521.18 2898.75 C511.53 2889.54, 501.98 2880.22, 492.55 2870.78 C483.12 2861.35, 473.79 2851.8, 464.59 2842.15 C455.38 2832.49, 446.29 2822.73, 437.32 2812.86 C428.34 2802.99, 419.48 2793.01, 410.75 2782.92 C402.01 2772.84, 393.39 2762.65, 384.9 2752.37 C376.41 2742.08, 368.03 2731.69, 359.79 2721.2 C351.54 2710.72, 343.42 2700.13, 335.42 2689.45 C327.43 2678.77, 319.56 2668, 311.82 2657.13 C304.08 2646.26, 296.47 2635.3, 289 2624.25 C281.52 2613.21, 274.17 2602.07, 266.96 2590.84 C259.75 2579.62, 252.67 2568.31, 245.72 2556.92 C238.78 2545.53, 231.97 2534.05, 225.3 2522.5 C218.63 2510.95, 212.1 2499.31, 205.7 2487.6 C199.31 2475.9, 193.05 2464.11, 186.94 2452.25 C180.83 2440.39, 174.86 2428.46, 169.03 2416.46 C163.2 2404.46, 157.51 2392.39, 151.97 2380.26 C146.43 2368.12, 141.03 2355.92, 135.78 2343.66 C130.53 2331.39, 125.42 2319.06, 120.46 2306.68 C115.5 2294.29, 110.69 2281.85, 106.03 2269.35 C101.37 2256.85, 96.85 2244.29, 92.49 2231.69 C88.13 2219.08, 83.91 2206.42, 79.85 2193.71 C75.79 2181, 71.88 2168.25, 68.12 2155.45 C64.36 2142.65, 60.75 2129.8, 57.3 2116.91 C53.85 2104.03, 50.55 2091.1, 47.4 2078.13 C44.26 2065.17, 41.27 2052.17, 38.43 2039.13 C35.6 2026.1, 32.91 2013.02, 30.39 1999.92 C27.87 1986.83, 25.5 1973.69, 23.28 1960.54 C21.07 1947.38, 19.02 1934.2, 17.12 1920.99 C15.22 1907.79, 13.48 1894.56, 11.89 1881.31 C10.31 1868.07, 8.88 1854.8, 7.61 1841.52 C6.35 1828.24, 5.24 1814.94, 4.28 1801.64 C3.33 1788.33, 2.54 1775.01, 1.9 1761.68 C1.27 1748.36, 0.79 1735.02, 0.48 1721.69 C0.16 1708.35, 0 1695.01, 0 1681.67 C0 1668.33, 0.16 1654.98, 0.48 1641.65 C0.79 1628.31, 1.27 1614.97, 1.9 1601.65 C2.54 1588.32, 3.33 1575, 4.28 1561.7 C5.24 1548.39, 6.35 1535.09, 7.61 1521.81 C8.88 1508.53, 10.31 1495.27, 11.89 1482.02 C13.48 1468.78, 15.22 1455.54, 17.12 1442.34 C19.02 1429.14, 21.07 1415.95, 23.28 1402.8 C25.5 1389.64, 27.87 1376.51, 30.39 1363.41 C32.91 1350.31, 35.6 1337.24, 38.43 1324.2 C41.27 1311.17, 44.26 1298.16, 47.4 1285.2 C50.55 1272.23, 53.85 1259.3, 57.3 1246.42 C60.75 1233.53, 64.36 1220.69, 68.12 1207.89 C71.88 1195.09, 75.79 1182.33, 79.85 1169.62 C83.91 1156.92, 88.13 1144.25, 92.49 1131.65 C96.85 1119.04, 101.37 1106.48, 106.03 1093.98 C110.69 1081.49, 115.5 1069.04, 120.46 1056.65 C125.42 1044.27, 130.53 1031.94, 135.78 1019.68 C141.03 1007.42, 146.43 995.21, 151.97 983.08 C157.51 970.94, 163.2 958.87, 169.03 946.87 C174.86 934.87, 180.83 922.94, 186.94 911.08 C193.05 899.23, 199.31 887.44, 205.7 875.73 C212.1 864.02, 218.63 852.39, 225.3 840.83 C231.97 829.28, 238.78 817.8, 245.72 806.41 C252.67 795.02, 259.75 783.71, 266.96 772.49 C274.17 761.27, 281.52 750.13, 289 739.08 C296.47 728.03, 304.08 717.07, 311.82 706.2 C319.56 695.34, 327.43 684.56, 335.42 673.88 C343.42 663.2, 351.54 652.62, 359.79 642.13 C368.03 631.64, 376.41 621.25, 384.9 610.97 C393.39 600.68, 402.01 590.49, 410.75 580.41 C419.48 570.33, 428.34 560.35, 437.32 550.48 C446.29 540.61, 455.38 530.84, 464.59 521.18 C473.79 511.53, 483.12 501.98, 492.55 492.55 C501.98 483.12, 511.53 473.79, 521.18 464.59 C530.84 455.38, 540.61 446.29, 550.48 437.32 C560.35 428.34, 570.33 419.48, 580.41 410.75 C590.49 402.01, 600.68 393.39, 610.97 384.9 C621.25 376.41, 631.64 368.03, 642.13 359.79 C652.62 351.54, 663.2 343.42, 673.88 335.42 C684.56 327.43, 695.34 319.56, 706.2 311.82 C717.07 304.08, 728.03 296.47, 739.08 289 C750.13 281.52, 761.27 274.17, 772.49 266.96 C783.71 259.75, 795.02 252.67, 806.41 245.72 C817.8 238.78, 829.28 231.97, 840.83 225.3 C852.39 218.63, 864.02 212.1, 875.73 205.7 C887.44 199.31, 899.23 193.05, 911.08 186.94 C922.94 180.83, 934.87 174.86, 946.87 169.03 C958.87 163.2, 970.94 157.51, 983.08 151.97 C995.21 146.43, 1007.42 141.03, 1019.68 135.78 C1031.94 130.53, 1044.27 125.42, 1056.65 120.46 C1069.04 115.5, 1081.49 110.69, 1093.98 106.03 C1106.48 101.37, 1119.04 96.85, 1131.65 92.49 C1144.25 88.13, 1156.92 83.91, 1169.62 79.85 C1182.33 75.79, 1195.09 71.88, 1207.89 68.12 C1220.69 64.36, 1233.53 60.75, 1246.42 57.3 C1259.3 53.85, 1272.23 50.55, 1285.2 47.4 C1298.16 44.26, 1311.17 41.27, 1324.2 38.43 C1337.24 35.6, 1350.31 32.91, 1363.41 30.39 C1376.51 27.87, 1389.64 25.5, 1402.8 23.28 C1415.95 21.07, 1429.14 19.02, 1442.34 17.12 C1455.54 15.22, 1468.78 13.48, 1482.02 11.89 C1495.27 10.31, 1508.53 8.88, 1521.81 7.61 C1535.09 6.35, 1548.39 5.24, 1561.7 4.28 C1575 3.33, 1588.32 2.54, 1601.65 1.9 C1614.97 1.27, 1628.31 0.79, 1641.65 0.48 C1654.98 0.16, 1668.33 0, 1681.67 0 C1695.01 0, 1708.35 0.16, 1721.69 0.48 C1735.02 0.79, 1748.36 1.27, 1761.68 1.9 C1775.01 2.54, 1788.33 3.33, 1801.64 4.28 C1814.94 5.24, 1828.24 6.35, 1841.52 7.61 C1854.8 8.88, 1868.07 10.31, 1881.31 11.89 C1894.56 13.48, 1907.79 15.22, 1920.99 17.12 C1934.2 19.02, 1947.38 21.07, 1960.54 23.28 C1973.69 25.5, 1986.83 27.87, 1999.92 30.39 C2013.02 32.91, 2026.1 35.6, 2039.13 38.43 C2052.17 41.27, 2065.17 44.26, 2078.13 47.4 C2091.1 50.55, 2104.03 53.85, 2116.91 57.3 C2129.8 60.75, 2142.65 64.36, 2155.45 68.12 C2168.25 71.88, 2181 75.79, 2193.71 79.85 C2206.42 83.91, 2219.08 88.13, 2231.69 92.49 C2244.29 96.85, 2256.85 101.37, 2269.35 106.03 C2281.85 110.69, 2294.29 115.5, 2306.68 120.46 C2319.06 125.42, 2331.39 130.53, 2343.66 135.78 C2355.92 141.03, 2368.12 146.43, 2380.26 151.97 C2392.39 157.51, 2404.46 163.2, 2416.46 169.03 C2428.46 174.86, 2440.39 180.83, 2452.25 186.94 C2464.11 193.05, 2475.9 199.31, 2487.6 205.7 C2499.31 212.1, 2510.95 218.63, 2522.5 225.3 C2534.05 231.97, 2545.53 238.78, 2556.92 245.72 C2568.31 252.67, 2579.62 259.75, 2590.84 266.96 C2602.07 274.17, 2613.21 281.52, 2624.25 289 C2635.3 296.47, 2646.26 304.08, 2657.13 311.82 C2668 319.56, 2678.77 327.43, 2689.45 335.42 C2700.13 343.42, 2710.72 351.54, 2721.2 359.79 C2731.69 368.03, 2742.08 376.41, 2752.37 384.9 C2762.65 393.39, 2772.84 402.01, 2782.92 410.75 C2793.01 419.48, 2802.99 428.34, 2812.86 437.32 C2822.73 446.29, 2832.49 455.38, 2842.15 464.59 C2851.8 473.79, 2861.35 483.12, 2870.78 492.55 C2880.22 501.98, 2889.54 511.53, 2898.75 521.18 C2907.95 530.84, 2917.04 540.61, 2926.02 550.48 C2934.99 560.35, 2943.85 570.33, 2952.59 580.41 C2961.32 590.49, 2969.94 600.68, 2978.43 610.97 C2986.93 621.25, 2995.3 631.64, 3003.55 642.13 C3011.79 652.62, 3019.92 663.2, 3027.91 673.88 C3035.9 684.56, 3043.77 695.34, 3051.51 706.2 C3059.25 717.07, 3066.86 728.03, 3074.34 739.08 C3081.81 750.13, 3089.16 761.27, 3096.37 772.49 C3103.59 783.71, 3110.67 795.02, 3117.61 806.41 C3124.55 817.8, 3131.36 829.28, 3138.03 840.83 C3144.7 852.39, 3151.24 864.02, 3157.63 875.73 C3164.02 887.44, 3170.28 899.23, 3176.39 911.08 C3182.5 922.94, 3188.48 934.87, 3194.31 946.87 C3200.14 958.87, 3205.82 970.94, 3211.36 983.08 C3216.91 995.21, 3222.3 1007.42, 3227.56 1019.68 C3232.81 1031.94, 3237.91 1044.27, 3242.87 1056.65 C3247.83 1069.04, 3252.64 1081.49, 3257.3 1093.98 C3261.97 1106.48, 3266.48 1119.04, 3270.84 1131.65 C3275.21 1144.25, 3279.42 1156.92, 3283.48 1169.62 C3287.54 1182.33, 3291.46 1195.09, 3295.21 1207.89 C3298.97 1220.69, 3302.58 1233.53, 3306.03 1246.42 C3309.48 1259.3, 3312.78 1272.23, 3315.93 1285.2 C3319.07 1298.16, 3322.07 1311.17, 3324.9 1324.2 C3327.74 1337.24, 3330.42 1350.31, 3332.94 1363.41 C3335.47 1376.51, 3337.84 1389.64, 3340.05 1402.8 C3342.26 1415.95, 3344.32 1429.14, 3346.22 1442.34 C3348.11 1455.54, 3349.86 1468.78, 3351.44 1482.02 C3353.02 1495.27, 3354.45 1508.53, 3355.72 1521.81 C3356.99 1535.09, 3358.1 1548.39, 3359.05 1561.7 C3360 1575, 3360.79 1588.32, 3361.43 1601.65 C3362.06 1614.97, 3362.54 1628.31, 3362.86 1641.65 C3363.17 1654.98, 3363.33 1668.33, 3363.33 1681.67" stroke="none" stroke-width="0" fill="#ffffff"></path><path d="M3363.33 1681.67 C3363.33 1695.01, 3363.17 1708.35, 3362.86 1721.69 C3362.54 1735.02, 3362.06 1748.36, 3361.43 1761.68 C3360.79 1775.01, 3360 1788.33, 3359.05 1801.64 C3358.1 1814.94, 3356.99 1828.24, 3355.72 1841.52 C3354.45 1854.8, 3353.02 1868.07, 3351.44 1881.31 C3349.86 1894.56, 3348.11 1907.79, 3346.22 1920.99 C3344.32 1934.2, 3342.26 1947.38, 3340.05 1960.54 C3337.84 1973.69, 3335.47 1986.83, 3332.94 1999.92 C3330.42 2013.02, 3327.74 2026.1, 3324.9 2039.13 C3322.07 2052.17, 3319.07 2065.17, 3315.93 2078.13 C3312.78 2091.1, 3309.48 2104.03, 3306.03 2116.91 C3302.58 2129.8, 3298.97 2142.65, 3295.21 2155.45 C3291.46 2168.25, 3287.54 2181, 3283.48 2193.71 C3279.42 2206.42, 3275.21 2219.08, 3270.84 2231.69 C3266.48 2244.29, 3261.97 2256.85, 3257.3 2269.35 C3252.64 2281.85, 3247.83 2294.29, 3242.87 2306.68 C3237.91 2319.06, 3232.81 2331.39, 3227.56 2343.66 C3222.3 2355.92, 3216.91 2368.12, 3211.36 2380.26 C3205.82 2392.39, 3200.14 2404.46, 3194.31 2416.46 C3188.48 2428.46, 3182.5 2440.39, 3176.39 2452.25 C3170.28 2464.11, 3164.02 2475.9, 3157.63 2487.6 C3151.24 2499.31, 3144.7 2510.95, 3138.03 2522.5 C3131.36 2534.05, 3124.55 2545.53, 3117.61 2556.92 C3110.67 2568.31, 3103.59 2579.62, 3096.37 2590.84 C3089.16 2602.07, 3081.81 2613.21, 3074.34 2624.25 C3066.86 2635.3, 3059.25 2646.26, 3051.51 2657.13 C3043.77 2668, 3035.9 2678.77, 3027.91 2689.45 C3019.92 2700.13, 3011.79 2710.72, 3003.55 2721.2 C2995.3 2731.69, 2986.93 2742.08, 2978.43 2752.37 C2969.94 2762.65, 2961.32 2772.84, 2952.59 2782.92 C2943.85 2793.01, 2934.99 2802.99, 2926.02 2812.86 C2917.04 2822.73, 2907.95 2832.49, 2898.75 2842.15 C2889.54 2851.8, 2880.22 2861.35, 2870.78 2870.78 C2861.35 2880.22, 2851.8 2889.54, 2842.15 2898.75 C2832.49 2907.95, 2822.73 2917.04, 2812.86 2926.02 C2802.99 2934.99, 2793.01 2943.85, 2782.92 2952.59 C2772.84 2961.32, 2762.65 2969.94, 2752.37 2978.43 C2742.08 2986.93, 2731.69 2995.3, 2721.2 3003.55 C2710.72 3011.79, 2700.13 3019.92, 2689.45 3027.91 C2678.77 3035.9, 2668 3043.77, 2657.13 3051.51 C2646.26 3059.25, 2635.3 3066.86, 2624.25 3074.34 C2613.21 3081.81, 2602.07 3089.16, 2590.84 3096.37 C2579.62 3103.59, 2568.31 3110.67, 2556.92 3117.61 C2545.53 3124.55, 2534.05 3131.36, 2522.5 3138.03 C2510.95 3144.7, 2499.31 3151.24, 2487.6 3157.63 C2475.9 3164.02, 2464.11 3170.28, 2452.25 3176.39 C2440.39 3182.5, 2428.46 3188.48, 2416.46 3194.31 C2404.46 3200.14, 2392.39 3205.82, 2380.26 3211.36 C2368.12 3216.91, 2355.92 3222.3, 2343.66 3227.56 C2331.39 3232.81, 2319.06 3237.91, 2306.68 3242.87 C2294.29 3247.83, 2281.85 3252.64, 2269.35 3257.3 C2256.85 3261.97, 2244.29 3266.48, 2231.69 3270.84 C2219.08 3275.21, 2206.42 3279.42, 2193.71 3283.48 C2181 3287.54, 2168.25 3291.46, 2155.45 3295.21 C2142.65 3298.97, 2129.8 3302.58, 2116.91 3306.03 C2104.03 3309.48, 2091.1 3312.78, 2078.13 3315.93 C2065.17 3319.07, 2052.17 3322.07, 2039.13 3324.9 C2026.1 3327.74, 2013.02 3330.42, 1999.92 3332.94 C1986.83 3335.47, 1973.69 3337.84, 1960.54 3340.05 C1947.38 3342.26, 1934.2 3344.32, 1920.99 3346.22 C1907.79 3348.11, 1894.56 3349.86, 1881.31 3351.44 C1868.07 3353.02, 1854.8 3354.45, 1841.52 3355.72 C1828.24 3356.99, 1814.94 3358.1, 1801.64 3359.05 C1788.33 3360, 1775.01 3360.79, 1761.68 3361.43 C1748.36 3362.06, 1735.02 3362.54, 1721.69 3362.86 C1708.35 3363.17, 1695.01 3363.33, 1681.67 3363.33 C1668.33 3363.33, 1654.98 3363.17, 1641.65 3362.86 C1628.31 3362.54, 1614.97 3362.06, 1601.65 3361.43 C1588.32 3360.79, 1575 3360, 1561.7 3359.05 C1548.39 3358.1, 1535.09 3356.99, 1521.81 3355.72 C1508.53 3354.45, 1495.27 3353.02, 1482.02 3351.44 C1468.78 3349.86, 1455.54 3348.11, 1442.34 3346.22 C1429.14 3344.32, 1415.95 3342.26, 1402.8 3340.05 C1389.64 3337.84, 1376.51 3335.47, 1363.41 3332.94 C1350.31 3330.42, 1337.24 3327.74, 1324.2 3324.9 C1311.17 3322.07, 1298.16 3319.07, 1285.2 3315.93 C1272.23 3312.78, 1259.3 3309.48, 1246.42 3306.03 C1233.53 3302.58, 1220.69 3298.97, 1207.89 3295.21 C1195.09 3291.46, 1182.33 3287.54, 1169.62 3283.48 C1156.92 3279.42, 1144.25 3275.21, 1131.65 3270.84 C1119.04 3266.48, 1106.48 3261.97, 1093.98 3257.3 C1081.49 3252.64, 1069.04 3247.83, 1056.65 3242.87 C1044.27 3237.91, 1031.94 3232.81, 1019.68 3227.56 C1007.42 3222.3, 995.21 3216.91, 983.08 3211.36 C970.94 3205.82, 958.87 3200.14, 946.87 3194.31 C934.87 3188.48, 922.94 3182.5, 911.08 3176.39 C899.23 3170.28, 887.44 3164.02, 875.73 3157.63 C864.02 3151.24, 852.39 3144.7, 840.83 3138.03 C829.28 3131.36, 817.8 3124.55, 806.41 3117.61 C795.02 3110.67, 783.71 3103.59, 772.49 3096.37 C761.27 3089.16, 750.13 3081.81, 739.08 3074.34 C728.03 3066.86, 717.07 3059.25, 706.2 3051.51 C695.34 3043.77, 684.56 3035.9, 673.88 3027.91 C663.2 3019.92, 652.62 3011.79, 642.13 3003.55 C631.64 2995.3, 621.25 2986.93, 610.97 2978.43 C600.68 2969.94, 590.49 2961.32, 580.41 2952.59 C570.33 2943.85, 560.35 2934.99, 550.48 2926.02 C540.61 2917.04, 530.84 2907.95, 521.18 2898.75 C511.53 2889.54, 501.98 2880.22, 492.55 2870.78 C483.12 2861.35, 473.79 2851.8, 464.59 2842.15 C455.38 2832.49, 446.29 2822.73, 437.32 2812.86 C428.34 2802.99, 419.48 2793.01, 410.75 2782.92 C402.01 2772.84, 393.39 2762.65, 384.9 2752.37 C376.41 2742.08, 368.03 2731.69, 359.79 2721.2 C351.54 2710.72, 343.42 2700.13, 335.42 2689.45 C327.43 2678.77, 319.56 2668, 311.82 2657.13 C304.08 2646.26, 296.47 2635.3, 289 2624.25 C281.52 2613.21, 274.17 2602.07, 266.96 2590.84 C259.75 2579.62, 252.67 2568.31, 245.72 2556.92 C238.78 2545.53, 231.97 2534.05, 225.3 2522.5 C218.63 2510.95, 212.1 2499.31, 205.7 2487.6 C199.31 2475.9, 193.05 2464.11, 186.94 2452.25 C180.83 2440.39, 174.86 2428.46, 169.03 2416.46 C163.2 2404.46, 157.51 2392.39, 151.97 2380.26 C146.43 2368.12, 141.03 2355.92, 135.78 2343.66 C130.53 2331.39, 125.42 2319.06, 120.46 2306.68 C115.5 2294.29, 110.69 2281.85, 106.03 2269.35 C101.37 2256.85, 96.85 2244.29, 92.49 2231.69 C88.13 2219.08, 83.91 2206.42, 79.85 2193.71 C75.79 2181, 71.88 2168.25, 68.12 2155.45 C64.36 2142.65, 60.75 2129.8, 57.3 2116.91 C53.85 2104.03, 50.55 2091.1, 47.4 2078.13 C44.26 2065.17, 41.27 2052.17, 38.43 2039.13 C35.6 2026.1, 32.91 2013.02, 30.39 1999.92 C27.87 1986.83, 25.5 1973.69, 23.28 1960.54 C21.07 1947.38, 19.02 1934.2, 17.12 1920.99 C15.22 1907.79, 13.48 1894.56, 11.89 1881.31 C10.31 1868.07, 8.88 1854.8, 7.61 1841.52 C6.35 1828.24, 5.24 1814.94, 4.28 1801.64 C3.33 1788.33, 2.54 1775.01, 1.9 1761.68 C1.27 1748.36, 0.79 1735.02, 0.48 1721.69 C0.16 1708.35, 0 1695.01, 0 1681.67 C0 1668.33, 0.16 1654.98, 0.48 1641.65 C0.79 1628.31, 1.27 1614.97, 1.9 1601.65 C2.54 1588.32, 3.33 1575, 4.28 1561.7 C5.24 1548.39, 6.35 1535.09, 7.61 1521.81 C8.88 1508.53, 10.31 1495.27, 11.89 1482.02 C13.48 1468.78, 15.22 1455.54, 17.12 1442.34 C19.02 1429.14, 21.07 1415.95, 23.28 1402.8 C25.5 1389.64, 27.87 1376.51, 30.39 1363.41 C32.91 1350.31, 35.6 1337.24, 38.43 1324.2 C41.27 1311.17, 44.26 1298.16, 47.4 1285.2 C50.55 1272.23, 53.85 1259.3, 57.3 1246.42 C60.75 1233.53, 64.36 1220.69, 68.12 1207.89 C71.88 1195.09, 75.79 1182.33, 79.85 1169.62 C83.91 1156.92, 88.13 1144.25, 92.49 1131.65 C96.85 1119.04, 101.37 1106.48, 106.03 1093.98 C110.69 1081.49, 115.5 1069.04, 120.46 1056.65 C125.42 1044.27, 130.53 1031.94, 135.78 1019.68 C141.03 1007.42, 146.43 995.21, 151.97 983.08 C157.51 970.94, 163.2 958.87, 169.03 946.87 C174.86 934.87, 180.83 922.94, 186.94 911.08 C193.05 899.23, 199.31 887.44, 205.7 875.73 C212.1 864.02, 218.63 852.39, 225.3 840.83 C231.97 829.28, 238.78 817.8, 245.72 806.41 C252.67 795.02, 259.75 783.71, 266.96 772.49 C274.17 761.27, 281.52 750.13, 289 739.08 C296.47 728.03, 304.08 717.07, 311.82 706.2 C319.56 695.34, 327.43 684.56, 335.42 673.88 C343.42 663.2, 351.54 652.62, 359.79 642.13 C368.03 631.64, 376.41 621.25, 384.9 610.97 C393.39 600.68, 402.01 590.49, 410.75 580.41 C419.48 570.33, 428.34 560.35, 437.32 550.48 C446.29 540.61, 455.38 530.84, 464.59 521.18 C473.79 511.53, 483.12 501.98, 492.55 492.55 C501.98 483.12, 511.53 473.79, 521.18 464.59 C530.84 455.38, 540.61 446.29, 550.48 437.32 C560.35 428.34, 570.33 419.48, 580.41 410.75 C590.49 402.01, 600.68 393.39, 610.97 384.9 C621.25 376.41, 631.64 368.03, 642.13 359.79 C652.62 351.54, 663.2 343.42, 673.88 335.42 C684.56 327.43, 695.34 319.56, 706.2 311.82 C717.07 304.08, 728.03 296.47, 739.08 289 C750.13 281.52, 761.27 274.17, 772.49 266.96 C783.71 259.75, 795.02 252.67, 806.41 245.72 C817.8 238.78, 829.28 231.97, 840.83 225.3 C852.39 218.63, 864.02 212.1, 875.73 205.7 C887.44 199.31, 899.23 193.05, 911.08 186.94 C922.94 180.83, 934.87 174.86, 946.87 169.03 C958.87 163.2, 970.94 157.51, 983.08 151.97 C995.21 146.43, 1007.42 141.03, 1019.68 135.78 C1031.94 130.53, 1044.27 125.42, 1056.65 120.46 C1069.04 115.5, 1081.49 110.69, 1093.98 106.03 C1106.48 101.37, 1119.04 96.85, 1131.65 92.49 C1144.25 88.13, 1156.92 83.91, 1169.62 79.85 C1182.33 75.79, 1195.09 71.88, 1207.89 68.12 C1220.69 64.36, 1233.53 60.75, 1246.42 57.3 C1259.3 53.85, 1272.23 50.55, 1285.2 47.4 C1298.16 44.26, 1311.17 41.27, 1324.2 38.43 C1337.24 35.6, 1350.31 32.91, 1363.41 30.39 C1376.51 27.87, 1389.64 25.5, 1402.8 23.28 C1415.95 21.07, 1429.14 19.02, 1442.34 17.12 C1455.54 15.22, 1468.78 13.48, 1482.02 11.89 C1495.27 10.31, 1508.53 8.88, 1521.81 7.61 C1535.09 6.35, 1548.39 5.24, 1561.7 4.28 C1575 3.33, 1588.32 2.54, 1601.65 1.9 C1614.97 1.27, 1628.31 0.79, 1641.65 0.48 C1654.98 0.16, 1668.33 0, 1681.67 0 C1695.01 0, 1708.35 0.16, 1721.69 0.48 C1735.02 0.79, 1748.36 1.27, 1761.68 1.9 C1775.01 2.54, 1788.33 3.33, 1801.64 4.28 C1814.94 5.24, 1828.24 6.35, 1841.52 7.61 C1854.8 8.88, 1868.07 10.31, 1881.31 11.89 C1894.56 13.48, 1907.79 15.22, 1920.99 17.12 C1934.2 19.02, 1947.38 21.07, 1960.54 23.28 C1973.69 25.5, 1986.83 27.87, 1999.92 30.39 C2013.02 32.91, 2026.1 35.6, 2039.13 38.43 C2052.17 41.27, 2065.17 44.26, 2078.13 47.4 C2091.1 50.55, 2104.03 53.85, 2116.91 57.3 C2129.8 60.75, 2142.65 64.36, 2155.45 68.12 C2168.25 71.88, 2181 75.79, 2193.71 79.85 C2206.42 83.91, 2219.08 88.13, 2231.69 92.49 C2244.29 96.85, 2256.85 101.37, 2269.35 106.03 C2281.85 110.69, 2294.29 115.5, 2306.68 120.46 C2319.06 125.42, 2331.39 130.53, 2343.66 135.78 C2355.92 141.03, 2368.12 146.43, 2380.26 151.97 C2392.39 157.51, 2404.46 163.2, 2416.46 169.03 C2428.46 174.86, 2440.39 180.83, 2452.25 186.94 C2464.11 193.05, 2475.9 199.31, 2487.6 205.7 C2499.31 212.1, 2510.95 218.63, 2522.5 225.3 C2534.05 231.97, 2545.53 238.78, 2556.92 245.72 C2568.31 252.67, 2579.62 259.75, 2590.84 266.96 C2602.07 274.17, 2613.21 281.52, 2624.25 289 C2635.3 296.47, 2646.26 304.08, 2657.13 311.82 C2668 319.56, 2678.77 327.43, 2689.45 335.42 C2700.13 343.42, 2710.72 351.54, 2721.2 359.79 C2731.69 368.03, 2742.08 376.41, 2752.37 384.9 C2762.65 393.39, 2772.84 402.01, 2782.92 410.75 C2793.01 419.48, 2802.99 428.34, 2812.86 437.32 C2822.73 446.29, 2832.49 455.38, 2842.15 464.59 C2851.8 473.79, 2861.35 483.12, 2870.78 492.55 C2880.22 501.98, 2889.54 511.53, 2898.75 521.18 C2907.95 530.84, 2917.04 540.61, 2926.02 550.48 C2934.99 560.35, 2943.85 570.33, 2952.59 580.41 C2961.32 590.49, 2969.94 600.68, 2978.43 610.97 C2986.93 621.25, 2995.3 631.64, 3003.55 642.13 C3011.79 652.62, 3019.92 663.2, 3027.91 673.88 C3035.9 684.56, 3043.77 695.34, 3051.51 706.2 C3059.25 717.07, 3066.86 728.03, 3074.34 739.08 C3081.81 750.13, 3089.16 761.27, 3096.37 772.49 C3103.59 783.71, 3110.67 795.02, 3117.61 806.41 C3124.55 817.8, 3131.36 829.28, 3138.03 840.83 C3144.7 852.39, 3151.24 864.02, 3157.63 875.73 C3164.02 887.44, 3170.28 899.23, 3176.39 911.08 C3182.5 922.94, 3188.48 934.87, 3194.31 946.87 C3200.14 958.87, 3205.82 970.94, 3211.36 983.08 C3216.91 995.21, 3222.3 1007.42, 3227.56 1019.68 C3232.81 1031.94, 3237.91 1044.27, 3242.87 1056.65 C3247.83 1069.04, 3252.64 1081.49, 3257.3 1093.98 C3261.97 1106.48, 3266.48 1119.04, 3270.84 1131.65 C3275.21 1144.25, 3279.42 1156.92, 3283.48 1169.62 C3287.54 1182.33, 3291.46 1195.09, 3295.21 1207.89 C3298.97 1220.69, 3302.58 1233.53, 3306.03 1246.42 C3309.48 1259.3, 3312.78 1272.23, 3315.93 1285.2 C3319.07 1298.16, 3322.07 1311.17, 3324.9 1324.2 C3327.74 1337.24, 3330.42 1350.31, 3332.94 1363.41 C3335.47 1376.51, 3337.84 1389.64, 3340.05 1402.8 C3342.26 1415.95, 3344.32 1429.14, 3346.22 1442.34 C3348.11 1455.54, 3349.86 1468.78, 3351.44 1482.02 C3353.02 1495.27, 3354.45 1508.53, 3355.72 1521.81 C3356.99 1535.09, 3358.1 1548.39, 3359.05 1561.7 C3360 1575, 3360.79 1588.32, 3361.43 1601.65 C3362.06 1614.97, 3362.54 1628.31, 3362.86 1641.65 C3363.17 1654.98, 3363.33 1668.33, 3363.33 1681.67" stroke="#ffffff" stroke-width="4" fill="none"></path></g><g stroke-linecap="round" transform="translate(1135.0654041747985 2097.8290581924434) rotate(0 575.1086980646305 17.5)"><path d="M8.75 0 C244.83 0, 480.91 0, 1141.47 0 C1147.3 0, 1150.22 2.92, 1150.22 8.75 C1150.22 14.43, 1150.22 20.12, 1150.22 26.25 C1150.22 32.08, 1147.3 35, 1141.47 35 C794.93 35, 448.39 35, 8.75 35 C2.92 35, 0 32.08, 0 26.25 C0 21.21, 0 16.17, 0 8.75 C0 2.92, 2.92 0, 8.75 0" stroke="none" stroke-width="0" fill="#000"></path><path d="M8.75 0 C264.46 0, 520.17 0, 1141.47 0 M8.75 0 C345.53 0, 682.3 0, 1141.47 0 M1141.47 0 C1147.3 0, 1150.22 2.92, 1150.22 8.75 M1141.47 0 C1147.3 0, 1150.22 2.92, 1150.22 8.75 M1150.22 8.75 C1150.22 12.61, 1150.22 16.48, 1150.22 26.25 M1150.22 8.75 C1150.22 12.38, 1150.22 16.02, 1150.22 26.25 M1150.22 26.25 C1150.22 32.08, 1147.3 35, 1141.47 35 M1150.22 26.25 C1150.22 32.08, 1147.3 35, 1141.47 35 M1141.47 35 C775.89 35, 410.31 35, 8.75 35 M1141.47 35 C867.15 35, 592.84 35, 8.75 35 M8.75 35 C2.92 35, 0 32.08, 0 26.25 M8.75 35 C2.92 35, 0 32.08, 0 26.25 M0 26.25 C0 19.51, 0 12.77, 0 8.75 M0 26.25 C0 21.96, 0 17.67, 0 8.75 M0 8.75 C0 2.92, 2.92 0, 8.75 0 M0 8.75 C0 2.92, 2.92 0, 8.75 0" stroke="#000" stroke-width="4" fill="none"></path></g><g stroke-linecap="round"><g transform="translate(1187.3428926013803 2526.4105761264814) rotate(0 502.95993636534695 -409.16369729856115)" fill-rule="evenodd"><path d="M0 0 C-4.09 1.66, -6.8 9.08, -24.56 9.98 C-42.32 10.87, -87.75 11.53, -106.59 5.38 C-125.43 -0.76, -135.36 -11.43, -137.59 -26.9 C-139.83 -42.37, -133.48 -49.15, -119.99 -87.43 C-106.51 -125.7, -74.54 -208.93, -56.67 -256.54 C-38.81 -304.16, -31.03 -324.25, -12.8 -373.12 C5.43 -421.99, 25.88 -489.58, 52.7 -549.76 C79.53 -609.94, 119.26 -689.07, 148.15 -734.19 C177.05 -779.32, 199.39 -803.87, 226.06 -820.51 C252.72 -837.16, 281.95 -835.11, 308.15 -834.06 C334.35 -833.02, 360 -829.75, 383.25 -814.24 C406.51 -798.74, 422.05 -784.62, 447.66 -741.05 C473.28 -697.48, 513.78 -604.71, 536.95 -552.82 C560.12 -500.94, 566.54 -478.34, 586.69 -429.75 C606.84 -381.17, 636.03 -310.8, 657.85 -261.29 C679.66 -211.79, 703.84 -154.14, 717.57 -132.75 C731.31 -111.36, 729.01 -116.72, 740.24 -132.95 C751.47 -149.19, 762.77 -177.04, 784.97 -230.18 C807.18 -283.32, 849.37 -388.58, 873.48 -451.8 C897.59 -515.01, 912.28 -558.84, 929.64 -609.48 C947 -660.12, 962.65 -719.63, 977.62 -755.64 C992.58 -791.66, 1000.3 -812.96, 1019.43 -825.57 C1038.56 -838.19, 1073.12 -833.64, 1092.4 -831.35 C1111.68 -829.06, 1126.57 -823.58, 1135.09 -811.83 C1143.61 -800.09, 1151.16 -795.82, 1143.51 -760.86 C1135.86 -725.9, 1106.5 -652.62, 1089.2 -602.1 C1071.9 -551.58, 1060.89 -515.47, 1039.69 -457.74 C1018.49 -400.01, 986.21 -313.27, 962.01 -255.73 C937.8 -198.2, 919.11 -153.63, 894.45 -112.54 C869.79 -71.45, 842.66 -30.57, 814.05 -9.19 C785.44 12.19, 754.69 17.79, 722.8 15.73 C690.91 13.68, 656.85 13.12, 622.72 -21.53 C588.58 -56.18, 548.61 -129.76, 517.97 -192.14 C487.34 -254.52, 472.17 -317.08, 438.91 -395.8 C405.66 -474.52, 345.44 -618.85, 318.44 -664.47 C291.44 -710.09, 298.89 -700.85, 276.91 -669.53 C254.93 -638.21, 219.68 -555.12, 186.54 -476.54 C153.39 -397.96, 104.93 -271.02, 78.05 -198.04 C51.18 -125.07, 38.28 -71.71, 25.27 -38.7 C12.26 -5.7, 4.21 -6.45, 0 0" stroke="none" stroke-width="0" fill="#000" fill-rule="evenodd"></path><path d="M0 0 C-4.09 1.66, -6.8 9.08, -24.56 9.98 C-42.32 10.87, -87.75 11.53, -106.59 5.38 C-125.43 -0.76, -135.36 -11.43, -137.59 -26.9 C-139.83 -42.37, -133.48 -49.15, -119.99 -87.43 C-106.51 -125.7, -74.54 -208.93, -56.67 -256.54 C-38.81 -304.16, -31.03 -324.25, -12.8 -373.12 C5.43 -421.99, 25.88 -489.58, 52.7 -549.76 C79.53 -609.94, 119.26 -689.07, 148.15 -734.19 C177.05 -779.32, 199.39 -803.87, 226.06 -820.51 C252.72 -837.16, 281.95 -835.11, 308.15 -834.06 C334.35 -833.02, 360 -829.75, 383.25 -814.24 C406.51 -798.74, 422.05 -784.62, 447.66 -741.05 C473.28 -697.48, 513.78 -604.71, 536.95 -552.82 C560.12 -500.94, 566.54 -478.34, 586.69 -429.75 C606.84 -381.17, 636.03 -310.8, 657.85 -261.29 C679.66 -211.79, 703.84 -154.14, 717.57 -132.75 C731.31 -111.36, 729.01 -116.72, 740.24 -132.95 C751.47 -149.19, 762.77 -177.04, 784.97 -230.18 C807.18 -283.32, 849.37 -388.58, 873.48 -451.8 C897.59 -515.01, 912.28 -558.84, 929.64 -609.48 C947 -660.12, 962.65 -719.63, 977.62 -755.64 C992.58 -791.66, 1000.3 -812.96, 1019.43 -825.57 C1038.56 -838.19, 1073.12 -833.64, 1092.4 -831.35 C1111.68 -829.06, 1126.57 -823.58, 1135.09 -811.83 C1143.61 -800.09, 1151.16 -795.82, 1143.51 -760.86 C1135.86 -725.9, 1106.5 -652.62, 1089.2 -602.1 C1071.9 -551.58, 1060.89 -515.47, 1039.69 -457.74 C1018.49 -400.01, 986.21 -313.27, 962.01 -255.73 C937.8 -198.2, 919.11 -153.63, 894.45 -112.54 C869.79 -71.45, 842.66 -30.57, 814.05 -9.19 C785.44 12.19, 754.69 17.79, 722.8 15.73 C690.91 13.68, 656.85 13.12, 622.72 -21.53 C588.58 -56.18, 548.61 -129.76, 517.97 -192.14 C487.34 -254.52, 472.17 -317.08, 438.91 -395.8 C405.66 -474.52, 345.44 -618.85, 318.44 -664.47 C291.44 -710.09, 298.89 -700.85, 276.91 -669.53 C254.93 -638.21, 219.68 -555.12, 186.54 -476.54 C153.39 -397.96, 104.93 -271.02, 78.05 -198.04 C51.18 -125.07, 38.28 -71.71, 25.27 -38.7 C12.26 -5.7, 4.21 -6.45, 0 0 M0 0 C-4.09 1.66, -6.8 9.08, -24.56 9.98 C-42.32 10.87, -87.75 11.53, -106.59 5.38 C-125.43 -0.76, -135.36 -11.43, -137.59 -26.9 C-139.83 -42.37, -133.48 -49.15, -119.99 -87.43 C-106.51 -125.7, -74.54 -208.93, -56.67 -256.54 C-38.81 -304.16, -31.03 -324.25, -12.8 -373.12 C5.43 -421.99, 25.88 -489.58, 52.7 -549.76 C79.53 -609.94, 119.26 -689.07, 148.15 -734.19 C177.05 -779.32, 199.39 -803.87, 226.06 -820.51 C252.72 -837.16, 281.95 -835.11, 308.15 -834.06 C334.35 -833.02, 360 -829.75, 383.25 -814.24 C406.51 -798.74, 422.05 -784.62, 447.66 -741.05 C473.28 -697.48, 513.78 -604.71, 536.95 -552.82 C560.12 -500.94, 566.54 -478.34, 586.69 -429.75 C606.84 -381.17, 636.03 -310.8, 657.85 -261.29 C679.66 -211.79, 703.84 -154.14, 717.57 -132.75 C731.31 -111.36, 729.01 -116.72, 740.24 -132.95 C751.47 -149.19, 762.77 -177.04, 784.97 -230.18 C807.18 -283.32, 849.37 -388.58, 873.48 -451.8 C897.59 -515.01, 912.28 -558.84, 929.64 -609.48 C947 -660.12, 962.65 -719.63, 977.62 -755.64 C992.58 -791.66, 1000.3 -812.96, 1019.43 -825.57 C1038.56 -838.19, 1073.12 -833.64, 1092.4 -831.35 C1111.68 -829.06, 1126.57 -823.58, 1135.09 -811.83 C1143.61 -800.09, 1151.16 -795.82, 1143.51 -760.86 C1135.86 -725.9, 1106.5 -652.62, 1089.2 -602.1 C1071.9 -551.58, 1060.89 -515.47, 1039.69 -457.74 C1018.49 -400.01, 986.21 -313.27, 962.01 -255.73 C937.8 -198.2, 919.11 -153.63, 894.45 -112.54 C869.79 -71.45, 842.66 -30.57, 814.05 -9.19 C785.44 12.19, 754.69 17.79, 722.8 15.73 C690.91 13.68, 656.85 13.12, 622.72 -21.53 C588.58 -56.18, 548.61 -129.76, 517.97 -192.14 C487.34 -254.52, 472.17 -317.08, 438.91 -395.8 C405.66 -474.52, 345.44 -618.85, 318.44 -664.47 C291.44 -710.09, 298.89 -700.85, 276.91 -669.53 C254.93 -638.21, 219.68 -555.12, 186.54 -476.54 C153.39 -397.96, 104.93 -271.02, 78.05 -198.04 C51.18 -125.07, 38.28 -71.71, 25.27 -38.7 C12.26 -5.7, 4.21 -6.45, 0 0" stroke="#000" stroke-width="4" fill="none"></path></g></g><mask></mask><g stroke-linecap="round"><g transform="translate(2583.561094231365 1358.779769839236) rotate(0 3.9567266430758536 77.35906905038132)" fill-rule="evenodd"><path d="M0 0 C48.8 0.39, 232.97 -2.55, 292.79 2.32 C352.61 7.19, 346.68 11.22, 358.94 29.21 C371.19 47.21, 371.19 89.99, 366.32 110.29 C361.46 130.59, 359.52 143.62, 329.75 151.03 C299.98 158.43, 257.23 154.44, 187.71 154.72 C118.18 155, -4.54 153.68, -87.42 152.71 C-170.31 151.75, -264.42 154.81, -309.59 148.95 C-354.75 143.09, -350.32 137.02, -358.41 117.56 C-366.49 98.11, -369.72 51.3, -358.09 32.22 C-346.46 13.13, -348.31 8.4, -288.63 3.03 C-228.94 -2.34, -48.1 0.51, 0 0" stroke="none" stroke-width="0" fill="#000" fill-rule="evenodd"></path><path d="M0 0 C48.8 0.39, 232.97 -2.55, 292.79 2.32 C352.61 7.19, 346.68 11.22, 358.94 29.21 C371.19 47.21, 371.19 89.99, 366.32 110.29 C361.46 130.59, 359.52 143.62, 329.75 151.03 C299.98 158.43, 257.23 154.44, 187.71 154.72 C118.18 155, -4.54 153.68, -87.42 152.71 C-170.31 151.75, -264.42 154.81, -309.59 148.95 C-354.75 143.09, -350.32 137.02, -358.41 117.56 C-366.49 98.11, -369.72 51.3, -358.09 32.22 C-346.46 13.13, -348.31 8.4, -288.63 3.03 C-228.94 -2.34, -48.1 0.51, 0 0 M0 0 C48.8 0.39, 232.97 -2.55, 292.79 2.32 C352.61 7.19, 346.68 11.22, 358.94 29.21 C371.19 47.21, 371.19 89.99, 366.32 110.29 C361.46 130.59, 359.52 143.62, 329.75 151.03 C299.98 158.43, 257.23 154.44, 187.71 154.72 C118.18 155, -4.54 153.68, -87.42 152.71 C-170.31 151.75, -264.42 154.81, -309.59 148.95 C-354.75 143.09, -350.32 137.02, -358.41 117.56 C-366.49 98.11, -369.72 51.3, -358.09 32.22 C-346.46 13.13, -348.31 8.4, -288.63 3.03 C-228.94 -2.34, -48.1 0.51, 0 0" stroke="#000" stroke-width="4" fill="none"></path></g></g><mask></mask><g stroke-linecap="round"><g transform="translate(828.536957848024 1352.5963687460517) rotate(0 3.956726643076763 77.35906905038132)" fill-rule="evenodd"><path d="M0 0 C48.8 0.39, 232.97 -2.55, 292.79 2.32 C352.61 7.19, 346.68 11.22, 358.94 29.21 C371.19 47.21, 371.19 89.99, 366.32 110.29 C361.46 130.59, 359.52 143.62, 329.75 151.03 C299.98 158.43, 257.23 154.44, 187.71 154.72 C118.18 155, -4.54 153.68, -87.42 152.71 C-170.31 151.75, -264.42 154.81, -309.59 148.95 C-354.75 143.09, -350.32 137.02, -358.41 117.56 C-366.49 98.11, -369.72 51.3, -358.09 32.22 C-346.46 13.13, -348.31 8.4, -288.63 3.03 C-228.94 -2.34, -48.1 0.51, 0 0" stroke="none" stroke-width="0" fill="#000" fill-rule="evenodd"></path><path d="M0 0 C48.8 0.39, 232.97 -2.55, 292.79 2.32 C352.61 7.19, 346.68 11.22, 358.94 29.21 C371.19 47.21, 371.19 89.99, 366.32 110.29 C361.46 130.59, 359.52 143.62, 329.75 151.03 C299.98 158.43, 257.23 154.44, 187.71 154.72 C118.18 155, -4.54 153.68, -87.42 152.71 C-170.31 151.75, -264.42 154.81, -309.59 148.95 C-354.75 143.09, -350.32 137.02, -358.41 117.56 C-366.49 98.11, -369.72 51.3, -358.09 32.22 C-346.46 13.13, -348.31 8.4, -288.63 3.03 C-228.94 -2.34, -48.1 0.51, 0 0 M0 0 C48.8 0.39, 232.97 -2.55, 292.79 2.32 C352.61 7.19, 346.68 11.22, 358.94 29.21 C371.19 47.21, 371.19 89.99, 366.32 110.29 C361.46 130.59, 359.52 143.62, 329.75 151.03 C299.98 158.43, 257.23 154.44, 187.71 154.72 C118.18 155, -4.54 153.68, -87.42 152.71 C-170.31 151.75, -264.42 154.81, -309.59 148.95 C-354.75 143.09, -350.32 137.02, -358.41 117.56 C-366.49 98.11, -369.72 51.3, -358.09 32.22 C-346.46 13.13, -348.31 8.4, -288.63 3.03 C-228.94 -2.34, -48.1 0.51, 0 0" stroke="#000" stroke-width="4" fill="none"></path></g></g><mask></mask><g stroke-linecap="round"><g transform="translate(816.3740284190353 1492.2964769363352) rotate(89.99999999999994 -3.956726643074944 -77.35906905038155)" fill-rule="evenodd"><path d="M0 0 C-48.8 -0.39, -232.97 2.55, -292.79 -2.32 C-352.61 -7.19, -346.68 -11.22, -358.94 -29.21 C-371.19 -47.21, -371.19 -89.99, -366.32 -110.29 C-361.46 -130.59, -359.52 -143.62, -329.75 -151.03 C-299.98 -158.43, -257.23 -154.44, -187.71 -154.72 C-118.18 -155, 4.54 -153.68, 87.42 -152.71 C170.31 -151.75, 264.42 -154.81, 309.59 -148.95 C354.75 -143.09, 350.32 -137.02, 358.41 -117.56 C366.49 -98.11, 369.72 -51.3, 358.09 -32.22 C346.46 -13.13, 348.31 -8.4, 288.63 -3.03 C228.94 2.34, 48.1 -0.51, 0 0" stroke="none" stroke-width="0" fill="#000" fill-rule="evenodd"></path><path d="M0 0 C-48.8 -0.39, -232.97 2.55, -292.79 -2.32 C-352.61 -7.19, -346.68 -11.22, -358.94 -29.21 C-371.19 -47.21, -371.19 -89.99, -366.32 -110.29 C-361.46 -130.59, -359.52 -143.62, -329.75 -151.03 C-299.98 -158.43, -257.23 -154.44, -187.71 -154.72 C-118.18 -155, 4.54 -153.68, 87.42 -152.71 C170.31 -151.75, 264.42 -154.81, 309.59 -148.95 C354.75 -143.09, 350.32 -137.02, 358.41 -117.56 C366.49 -98.11, 369.72 -51.3, 358.09 -32.22 C346.46 -13.13, 348.31 -8.4, 288.63 -3.03 C228.94 2.34, 48.1 -0.51, 0 0 M0 0 C-48.8 -0.39, -232.97 2.55, -292.79 -2.32 C-352.61 -7.19, -346.68 -11.22, -358.94 -29.21 C-371.19 -47.21, -371.19 -89.99, -366.32 -110.29 C-361.46 -130.59, -359.52 -143.62, -329.75 -151.03 C-299.98 -158.43, -257.23 -154.44, -187.71 -154.72 C-118.18 -155, 4.54 -153.68, 87.42 -152.71 C170.31 -151.75, 264.42 -154.81, 309.59 -148.95 C354.75 -143.09, 350.32 -137.02, 358.41 -117.56 C366.49 -98.11, 369.72 -51.3, 358.09 -32.22 C346.46 -13.13, 348.31 -8.4, 288.63 -3.03 C228.94 2.34, 48.1 -0.51, 0 0" stroke="#000" stroke-width="4" fill="none"></path></g></g><mask></mask></svg>