<svg version="1.1" xmlns="http://www.w3.org/2000/svg" viewBox="0 0 1777.1720048871211 722.3778242316628" width="5331.516014661363" height="2167.133472694988">
  <!-- svg-source:excalidraw -->
  
  <defs>
    <style class="style-fonts">
      @font-face {
        font-family: "Virgil";
        src: url("https://unpkg.com/@excalidraw/excalidraw@undefined/dist/excalidraw-assets/Virgil.woff2");
      }
      @font-face {
        font-family: "Cascadia";
        src: url("https://unpkg.com/@excalidraw/excalidraw@undefined/dist/excalidraw-assets/Cascadia.woff2");
      }
      @font-face {
        font-family: "Assistant";
        src: url("https://unpkg.com/@excalidraw/excalidraw@undefined/dist/excalidraw-assets/Assistant-Regular.woff2");
      }
    </style>
    
  </defs>
  <g stroke-linecap="round"><g transform="translate(1705.6967148108379 631.0557475247319) rotate(41.9841845538396 -139.72178744110533 -75.97773343623697)" fill-rule="evenodd"><path d="M0 0 C-1.18 0.43, -5.47 0, -7.08 2.58 C-8.69 5.15, 0.97 16.63, -9.66 15.45 C-20.28 14.27, -42.39 -0.43, -70.83 -4.51 C-99.26 -8.59, -145.84 -14.49, -180.29 -9.01 C-214.73 -3.54, -253.37 21.03, -277.51 28.33 C-301.66 35.63, -323.66 38.42, -325.16 34.77 C-326.66 31.12, -295.86 11.27, -286.53 6.44 C-277.19 1.61, -288.89 13.41, -269.14 5.79 C-249.4 -1.82, -205.29 -16.2, -168.05 -39.28 C-130.81 -62.35, -75.66 -111.93, -45.72 -132.64 C-15.78 -153.35, -0.43 -154.53, 11.59 -163.55 C23.61 -172.56, 22.64 -184.47, 26.4 -186.72 C30.16 -188.98, 30.91 -180.61, 34.13 -177.07 C37.34 -173.53, 51.3 -171.7, 45.72 -165.48 C40.14 -159.25, 8.77 -146.26, 0.64 -139.72 C-7.48 -133.18, 0.19 -129.24, -3.03 -126.24 C-6.25 -123.23, -8.12 -126.21, -18.67 -121.69 C-29.22 -117.18, -45.13 -114.59, -66.32 -99.16 C-87.51 -83.73, -134.53 -41.85, -145.83 -29.12 C-157.12 -16.39, -154.29 -26.43, -134.09 -22.77 C-113.89 -19.11, -46.32 -10.29, -24.64 -7.16 C-2.95 -4.02, -8.09 -5.14, -3.98 -3.95 C0.12 -2.76, -0.66 -0.66, 0 0" stroke="none" stroke-width="0" fill="#ffffff" fill-rule="evenodd"></path><path d="M0 0 C-1.18 0.43, -5.47 0, -7.08 2.58 C-8.69 5.15, 0.97 16.63, -9.66 15.45 C-20.28 14.27, -42.39 -0.43, -70.83 -4.51 C-99.26 -8.59, -145.84 -14.49, -180.29 -9.01 C-214.73 -3.54, -253.37 21.03, -277.51 28.33 C-301.66 35.63, -323.66 38.42, -325.16 34.77 C-326.66 31.12, -295.86 11.27, -286.53 6.44 C-277.19 1.61, -288.89 13.41, -269.14 5.79 C-249.4 -1.82, -205.29 -16.2, -168.05 -39.28 C-130.81 -62.35, -75.66 -111.93, -45.72 -132.64 C-15.78 -153.35, -0.43 -154.53, 11.59 -163.55 C23.61 -172.56, 22.64 -184.47, 26.4 -186.72 C30.16 -188.98, 30.91 -180.61, 34.13 -177.07 C37.34 -173.53, 51.3 -171.7, 45.72 -165.48 C40.14 -159.25, 8.77 -146.26, 0.64 -139.72 C-7.48 -133.18, 0.19 -129.24, -3.03 -126.24 C-6.25 -123.23, -8.12 -126.21, -18.67 -121.69 C-29.22 -117.18, -45.13 -114.59, -66.32 -99.16 C-87.51 -83.73, -134.53 -41.85, -145.83 -29.12 C-157.12 -16.39, -154.29 -26.43, -134.09 -22.77 C-113.89 -19.11, -46.32 -10.29, -24.64 -7.16 C-2.95 -4.02, -8.09 -5.14, -3.98 -3.95 C0.12 -2.76, -0.66 -0.66, 0 0 M0 0 C-1.18 0.43, -5.47 0, -7.08 2.58 C-8.69 5.15, 0.97 16.63, -9.66 15.45 C-20.28 14.27, -42.39 -0.43, -70.83 -4.51 C-99.26 -8.59, -145.84 -14.49, -180.29 -9.01 C-214.73 -3.54, -253.37 21.03, -277.51 28.33 C-301.66 35.63, -323.66 38.42, -325.16 34.77 C-326.66 31.12, -295.86 11.27, -286.53 6.44 C-277.19 1.61, -288.89 13.41, -269.14 5.79 C-249.4 -1.82, -205.29 -16.2, -168.05 -39.28 C-130.81 -62.35, -75.66 -111.93, -45.72 -132.64 C-15.78 -153.35, -0.43 -154.53, 11.59 -163.55 C23.61 -172.56, 22.64 -184.47, 26.4 -186.72 C30.16 -188.98, 30.91 -180.61, 34.13 -177.07 C37.34 -173.53, 51.3 -171.7, 45.72 -165.48 C40.14 -159.25, 8.77 -146.26, 0.64 -139.72 C-7.48 -133.18, 0.19 -129.24, -3.03 -126.24 C-6.25 -123.23, -8.12 -126.21, -18.67 -121.69 C-29.22 -117.18, -45.13 -114.59, -66.32 -99.16 C-87.51 -83.73, -134.53 -41.85, -145.83 -29.12 C-157.12 -16.39, -154.29 -26.43, -134.09 -22.77 C-113.89 -19.11, -46.32 -10.29, -24.64 -7.16 C-2.95 -4.02, -8.09 -5.14, -3.98 -3.95 C0.12 -2.76, -0.66 -0.66, 0 0" stroke="#ffffff" stroke-width="1" fill="none"></path></g></g><mask></mask><g stroke-linecap="round"><g transform="translate(1428.3571496913792 429.27956245416544) rotate(19.88119980814563 -236.9419640764727 -25.071359617883786)"><path d="M0 0 C-8.3 -0.91, -29.57 -3.94, -49.77 -5.47 C-69.97 -7, -103.31 -4.98, -121.2 -9.17 C-139.09 -13.36, -141.48 -21.05, -157.12 -30.62 C-172.76 -40.18, -195.07 -57.96, -215.03 -66.59 C-234.99 -75.21, -257.84 -80.7, -276.88 -82.37 C-295.92 -84.04, -313.99 -76.69, -329.28 -76.6 C-344.57 -76.51, -351.46 -83.96, -368.64 -81.82 C-385.82 -79.69, -432.41 -66.96, -432.34 -63.79 C-432.28 -60.62, -371.37 -69.51, -368.23 -62.82 C-365.1 -56.14, -395.94 -39.53, -413.55 -23.69 C-431.16 -7.85, -463.83 22.91, -473.88 32.23 M0 0 C-8.3 -0.91, -29.57 -3.94, -49.77 -5.47 C-69.97 -7, -103.31 -4.98, -121.2 -9.17 C-139.09 -13.36, -141.48 -21.05, -157.12 -30.62 C-172.76 -40.18, -195.07 -57.96, -215.03 -66.59 C-234.99 -75.21, -257.84 -80.7, -276.88 -82.37 C-295.92 -84.04, -313.99 -76.69, -329.28 -76.6 C-344.57 -76.51, -351.46 -83.96, -368.64 -81.82 C-385.82 -79.69, -432.41 -66.96, -432.34 -63.79 C-432.28 -60.62, -371.37 -69.51, -368.23 -62.82 C-365.1 -56.14, -395.94 -39.53, -413.55 -23.69 C-431.16 -7.85, -463.83 22.91, -473.88 32.23" stroke="#ffffff" stroke-width="4" fill="none"></path></g></g><mask></mask><g stroke-linecap="round"><g transform="translate(722.2492833703436 631.1265684600298) rotate(19.88119980814563 327.21307378301117 -99.27453874169922)"><path d="M0 0 C13.08 6.48, 47.83 31.72, 78.5 38.9 C109.18 46.08, 144.22 51.69, 184.06 43.08 C223.9 34.46, 279 17.94, 317.54 -12.8 C356.09 -43.53, 383.43 -109.56, 415.34 -141.31 C447.24 -173.05, 469.14 -186.53, 508.99 -203.25 C548.84 -219.97, 630.19 -235.23, 654.43 -241.63 M0 0 C13.08 6.48, 47.83 31.72, 78.5 38.9 C109.18 46.08, 144.22 51.69, 184.06 43.08 C223.9 34.46, 279 17.94, 317.54 -12.8 C356.09 -43.53, 383.43 -109.56, 415.34 -141.31 C447.24 -173.05, 469.14 -186.53, 508.99 -203.25 C548.84 -219.97, 630.19 -235.23, 654.43 -241.63" stroke="#ffffff" stroke-width="4" fill="none"></path></g></g><mask></mask><g stroke-linecap="round"><g transform="translate(634.5923242421413 303.3784369215232) rotate(38.57775097688691 -255.085588102389 210.41280977702857)"><path d="M0 0 C-41.71 49.42, -192.49 222.68, -250.25 296.55 C-308.01 370.42, -325.51 415.94, -346.57 443.24 C-367.62 470.55, -359.61 456.55, -376.58 460.39 C-393.55 464.23, -433.01 467.09, -448.39 466.29 C-463.78 465.49, -458.59 462.92, -468.89 455.57 C-479.18 448.22, -564.11 492.72, -510.17 422.17 C-456.23 351.63, -217.92 110.24, -145.25 32.3 C-72.58 -45.64, -85.99 -32.5, -74.14 -45.46 M0 0 C-41.71 49.42, -192.49 222.68, -250.25 296.55 C-308.01 370.42, -325.51 415.94, -346.57 443.24 C-367.62 470.55, -359.61 456.55, -376.58 460.39 C-393.55 464.23, -433.01 467.09, -448.39 466.29 C-463.78 465.49, -458.59 462.92, -468.89 455.57 C-479.18 448.22, -564.11 492.72, -510.17 422.17 C-456.23 351.63, -217.92 110.24, -145.25 32.3 C-72.58 -45.64, -85.99 -32.5, -74.14 -45.46" stroke="#ffffff" stroke-width="4" fill="none"></path></g></g><mask></mask><g stroke-linecap="round"><g transform="translate(631.8910158892832 311.7834887972281) rotate(38.57775097688691 -235.5935805516565 199.27676585308643)"><path d="M0 0 C-17.78 -10.47, -35.56 -20.94, -51.68 -30.42 M0 0 C-18.89 -11.12, -37.77 -22.24, -51.68 -30.42 M-51.68 -30.42 C-175.57 105.24, -299.45 240.91, -471.19 428.98 M-51.68 -30.42 C-144.26 70.96, -236.84 172.35, -471.19 428.98 M-471.19 428.98 C-436.47 428.43, -401.75 427.89, -374.71 427.47 M-471.19 428.98 C-434.44 428.4, -397.68 427.83, -374.71 427.47 M-374.71 427.47 C-244.24 278.62, -113.77 129.78, 0 0 M-374.71 427.47 C-247.85 282.74, -120.98 138.02, 0 0" stroke="#ffffff" stroke-width="4" fill="none"></path></g></g><mask></mask><g stroke-linecap="round" transform="translate(1141.2783895816374 386.34438004962203) rotate(0 28.278124784273132 28.278124784273132)"><path d="M56.56 28.28 C56.56 29.91, 56.41 31.58, 56.13 33.19 C55.84 34.8, 55.41 36.41, 54.85 37.95 C54.29 39.49, 53.59 41, 52.77 42.42 C51.95 43.83, 50.99 45.2, 49.94 46.45 C48.89 47.71, 47.71 48.89, 46.45 49.94 C45.2 50.99, 43.83 51.95, 42.42 52.77 C41 53.59, 39.49 54.29, 37.95 54.85 C36.41 55.41, 34.8 55.84, 33.19 56.13 C31.58 56.41, 29.91 56.56, 28.28 56.56 C26.64 56.56, 24.98 56.41, 23.37 56.13 C21.76 55.84, 20.14 55.41, 18.61 54.85 C17.07 54.29, 15.56 53.59, 14.14 52.77 C12.72 51.95, 11.36 50.99, 10.1 49.94 C8.85 48.89, 7.67 47.71, 6.62 46.45 C5.56 45.2, 4.61 43.83, 3.79 42.42 C2.97 41, 2.27 39.49, 1.71 37.95 C1.15 36.41, 0.71 34.8, 0.43 33.19 C0.15 31.58, 0 29.91, 0 28.28 C0 26.64, 0.15 24.98, 0.43 23.37 C0.71 21.76, 1.15 20.14, 1.71 18.61 C2.27 17.07, 2.97 15.56, 3.79 14.14 C4.61 12.72, 5.56 11.36, 6.62 10.1 C7.67 8.85, 8.85 7.67, 10.1 6.62 C11.36 5.56, 12.72 4.61, 14.14 3.79 C15.56 2.97, 17.07 2.27, 18.61 1.71 C20.14 1.15, 21.76 0.71, 23.37 0.43 C24.98 0.15, 26.64 0, 28.28 0 C29.91 0, 31.58 0.15, 33.19 0.43 C34.8 0.71, 36.41 1.15, 37.95 1.71 C39.49 2.27, 41 2.97, 42.42 3.79 C43.83 4.61, 45.2 5.56, 46.45 6.62 C47.71 7.67, 48.89 8.85, 49.94 10.1 C50.99 11.36, 51.95 12.72, 52.77 14.14 C53.59 15.56, 54.29 17.07, 54.85 18.61 C55.41 20.14, 55.84 21.76, 56.13 23.37 C56.41 24.98, 56.48 27.46, 56.56 28.28 C56.63 29.1, 56.63 27.46, 56.56 28.28" stroke="none" stroke-width="0" fill="#ffffff"></path><path d="M56.56 28.28 C56.56 29.91, 56.41 31.58, 56.13 33.19 C55.84 34.8, 55.41 36.41, 54.85 37.95 C54.29 39.49, 53.59 41, 52.77 42.42 C51.95 43.83, 50.99 45.2, 49.94 46.45 C48.89 47.71, 47.71 48.89, 46.45 49.94 C45.2 50.99, 43.83 51.95, 42.42 52.77 C41 53.59, 39.49 54.29, 37.95 54.85 C36.41 55.41, 34.8 55.84, 33.19 56.13 C31.58 56.41, 29.91 56.56, 28.28 56.56 C26.64 56.56, 24.98 56.41, 23.37 56.13 C21.76 55.84, 20.14 55.41, 18.61 54.85 C17.07 54.29, 15.56 53.59, 14.14 52.77 C12.72 51.95, 11.36 50.99, 10.1 49.94 C8.85 48.89, 7.67 47.71, 6.62 46.45 C5.56 45.2, 4.61 43.83, 3.79 42.42 C2.97 41, 2.27 39.49, 1.71 37.95 C1.15 36.41, 0.71 34.8, 0.43 33.19 C0.15 31.58, 0 29.91, 0 28.28 C0 26.64, 0.15 24.98, 0.43 23.37 C0.71 21.76, 1.15 20.14, 1.71 18.61 C2.27 17.07, 2.97 15.56, 3.79 14.14 C4.61 12.72, 5.56 11.36, 6.62 10.1 C7.67 8.85, 8.85 7.67, 10.1 6.62 C11.36 5.56, 12.72 4.61, 14.14 3.79 C15.56 2.97, 17.07 2.27, 18.61 1.71 C20.14 1.15, 21.76 0.71, 23.37 0.43 C24.98 0.15, 26.64 0, 28.28 0 C29.91 0, 31.58 0.15, 33.19 0.43 C34.8 0.71, 36.41 1.15, 37.95 1.71 C39.49 2.27, 41 2.97, 42.42 3.79 C43.83 4.61, 45.2 5.56, 46.45 6.62 C47.71 7.67, 48.89 8.85, 49.94 10.1 C50.99 11.36, 51.95 12.72, 52.77 14.14 C53.59 15.56, 54.29 17.07, 54.85 18.61 C55.41 20.14, 55.84 21.76, 56.13 23.37 C56.41 24.98, 56.48 27.46, 56.56 28.28 C56.63 29.1, 56.63 27.46, 56.56 28.28" stroke="#ffffff" stroke-width="4" fill="none"></path></g><g stroke-linecap="round"><g transform="translate(687.2179833190894 392.90049439857694) rotate(67.7295076183435 9.998895771309435 -177.88375742435397)"><path d="M0 0 C10.55 -3.15, 39.19 -9.23, 63.33 -18.91 C87.46 -28.59, 121.68 -43.94, 144.8 -58.08 C167.91 -72.22, 185.87 -82.59, 202.02 -103.72 C218.17 -124.85, 232.7 -157.23, 241.69 -184.87 C250.67 -212.5, 256.35 -243.42, 255.92 -269.54 C255.48 -295.66, 251.42 -324.86, 239.1 -341.57 C226.77 -358.27, 205.79 -375.63, 181.96 -369.76 C158.13 -363.88, 135.28 -340.38, 96.11 -306.31 C56.93 -272.23, 2.24 -218.7, -53.1 -165.31 C-108.44 -111.93, -205.45 -15.89, -235.92 13.99 M0 0 C10.55 -3.15, 39.19 -9.23, 63.33 -18.91 C87.46 -28.59, 121.68 -43.94, 144.8 -58.08 C167.91 -72.22, 185.87 -82.59, 202.02 -103.72 C218.17 -124.85, 232.7 -157.23, 241.69 -184.87 C250.67 -212.5, 256.35 -243.42, 255.92 -269.54 C255.48 -295.66, 251.42 -324.86, 239.1 -341.57 C226.77 -358.27, 205.79 -375.63, 181.96 -369.76 C158.13 -363.88, 135.28 -340.38, 96.11 -306.31 C56.93 -272.23, 2.24 -218.7, -53.1 -165.31 C-108.44 -111.93, -205.45 -15.89, -235.92 13.99" stroke="#ffffff" stroke-width="4" fill="none"></path></g></g><mask></mask><g stroke-linecap="round"><g transform="translate(466.92644586629467 339.768330308591) rotate(67.7295076183435 155.4412409798333 -122.92490755178835)"><path d="M0 0 C63.37 -60.84, 126.74 -121.69, 256.05 -245.85 M0 0 C58.06 -55.75, 116.13 -111.5, 256.05 -245.85 M256.05 -245.85 C261.24 -241.44, 266.42 -237.03, 271.71 -232.53 M256.05 -245.85 C261.47 -241.24, 266.9 -236.62, 271.71 -232.53 M271.71 -232.53 C184.65 -146.08, 97.59 -59.62, 47.67 -10.06 M271.71 -232.53 C207.47 -168.73, 143.22 -104.93, 47.67 -10.06 M47.67 -10.06 C69.62 -10.06, 91.57 -10.06, 108.78 -10.06 M47.67 -10.06 C68.98 -10.06, 90.3 -10.06, 108.78 -10.06 M108.78 -10.06 C181.11 -74.82, 253.45 -139.59, 310.88 -191.01 M108.78 -10.06 C158.31 -54.41, 207.85 -98.77, 310.88 -191.01" stroke="#ffffff" stroke-width="4" fill="none"></path></g></g><mask></mask><g stroke-linecap="round"><g transform="translate(702.1409316005593 222.28859944680107) rotate(67.7295076183435 -62.99010649353386 88.42719040143385)"><path d="M0 0 C2.35 3.07, 16.53 8.7, 14.09 18.43 C11.65 28.16, 11.07 31.95, -14.62 58.36 C-40.32 84.76, -119.16 157.1, -140.07 176.85 M0 0 C2.35 3.07, 16.53 8.7, 14.09 18.43 C11.65 28.16, 11.07 31.95, -14.62 58.36 C-40.32 84.76, -119.16 157.1, -140.07 176.85" stroke="#ffffff" stroke-width="4" fill="none"></path></g></g><mask></mask><g stroke-linecap="round"><g transform="translate(519.2421146981942 68.3208204724856) rotate(0 93.8461955456296 53.61665556272294)"><path d="M0 0 C55.45 27.59, 356.87 175.27, 332.7 165.55 C308.54 155.83, -65.39 -21.01, -145.01 -58.32 M0 0 C55.45 27.59, 356.87 175.27, 332.7 165.55 C308.54 155.83, -65.39 -21.01, -145.01 -58.32" stroke="#ffffff" stroke-width="4" fill="none"></path></g></g><mask></mask><g stroke-linecap="round"><g transform="translate(678.9957290449893 432.2671123476416) rotate(0 -152.3321165017096 -211.04221824367932)"><path d="M0 0 C-14.35 -9.61, -57.11 -30.06, -86.09 -57.67 C-115.07 -85.28, -145.81 -122.1, -173.89 -165.67 C-201.97 -209.25, -232.77 -276.38, -254.57 -319.12 C-276.37 -361.85, -296.32 -404.92, -304.66 -422.08 M0 0 C-14.35 -9.61, -57.11 -30.06, -86.09 -57.67 C-115.07 -85.28, -145.81 -122.1, -173.89 -165.67 C-201.97 -209.25, -232.77 -276.38, -254.57 -319.12 C-276.37 -361.85, -296.32 -404.92, -304.66 -422.08" stroke="#ffffff" stroke-width="4" fill="none"></path></g></g><mask></mask><g stroke-linecap="round"><g transform="translate(968.5555639103477 346.89388144650684) rotate(7.0982277529692 -263.6989392743053 -149.88925022537865)"><path d="M0 0 C0.12 -12.7, 22.27 -50.92, 0.75 -76.23 C-20.78 -101.54, -41 -114.59, -129.15 -151.85 C-217.3 -189.11, -461.65 -275.12, -528.15 -299.78 M0 0 C0.12 -12.7, 22.27 -50.92, 0.75 -76.23 C-20.78 -101.54, -41 -114.59, -129.15 -151.85 C-217.3 -189.11, -461.65 -275.12, -528.15 -299.78" stroke="#ffffff" stroke-width="4" fill="none"></path></g></g><mask></mask><g stroke-linecap="round"><g transform="translate(461.17617614359915 15.467633328048123) rotate(0 28.761579099999835 26.27261394735234)"><path d="M0 0 C9.59 8.76, 47.94 43.79, 57.52 52.55 M0 0 C9.59 8.76, 47.94 43.79, 57.52 52.55" stroke="#ffffff" stroke-width="4" fill="none"></path></g></g><mask></mask><g stroke-linecap="round"><g transform="translate(1265.608200208233 449.77010254673087) rotate(0 -283.6037693737535 -51.67756299522512)"><path d="M0 0 C-10.32 -12.16, -38.31 -55.74, -61.95 -72.97 C-85.59 -90.19, -115.66 -100.86, -141.84 -103.36 C-168.01 -105.85, -189.29 -96.86, -219.01 -87.94 C-248.73 -79.02, -282.71 -63.16, -320.15 -49.82 C-357.59 -36.47, -402.49 -14.96, -443.67 -7.89 C-484.84 -0.82, -546.62 -7.46, -567.21 -7.37 M0 0 C-10.32 -12.16, -38.31 -55.74, -61.95 -72.97 C-85.59 -90.19, -115.66 -100.86, -141.84 -103.36 C-168.01 -105.85, -189.29 -96.86, -219.01 -87.94 C-248.73 -79.02, -282.71 -63.16, -320.15 -49.82 C-357.59 -36.47, -402.49 -14.96, -443.67 -7.89 C-484.84 -0.82, -546.62 -7.46, -567.21 -7.37" stroke="#ffffff" stroke-width="4" fill="none"></path></g></g><mask></mask><g stroke-linecap="round"><g transform="translate(1265.2802176866753 450.6926383659825) rotate(0 -5.221382756592902 14.041767662762624)"><path d="M0 0 C-1.2 1.96, -5.48 7.05, -7.22 11.73 C-8.96 16.41, -9.91 25.36, -10.44 28.08 M0 0 C-1.2 1.96, -5.48 7.05, -7.22 11.73 C-8.96 16.41, -9.91 25.36, -10.44 28.08" stroke="#ffffff" stroke-width="4" fill="none"></path></g></g><mask></mask><g stroke-linecap="round"><g transform="translate(1254.199229028076 478.900579897027) rotate(0 -278.1622786848884 42.34524847036994)"><path d="M0 0 C-16.55 3.92, -55.84 3.28, -99.27 23.51 C-142.7 43.73, -207.54 106.02, -260.56 121.35 C-313.58 136.68, -375.32 127.28, -417.39 115.48 C-459.46 103.68, -489.85 75.93, -513 50.57 C-536.16 25.22, -549.1 -22.12, -556.32 -36.66 M0 0 C-16.55 3.92, -55.84 3.28, -99.27 23.51 C-142.7 43.73, -207.54 106.02, -260.56 121.35 C-313.58 136.68, -375.32 127.28, -417.39 115.48 C-459.46 103.68, -489.85 75.93, -513 50.57 C-536.16 25.22, -549.1 -22.12, -556.32 -36.66" stroke="#ffffff" stroke-width="4" fill="none"></path></g></g><mask></mask><g stroke-linecap="round"><g transform="translate(426.20591636885365 60.21420669230474) rotate(0 11.899901894138566 29.672386162652742)"><path d="M0 0 C3.97 9.89, 19.83 49.45, 23.8 59.34 M0 0 C3.97 9.89, 19.83 49.45, 23.8 59.34" stroke="#ffffff" stroke-width="4" fill="none"></path></g></g><mask></mask><g stroke-linecap="round" transform="translate(712.5109330187315 547.9020346910597) rotate(34.174556605109906 10.556403702198622 39.502669197412246)"><path d="M0 0 L21.11 0 L21.11 79.01 L0 79.01" stroke="none" stroke-width="0" fill="#ffffff"></path><path d="M0 0 C5.75 0, 11.5 0, 21.11 0 M0 0 C7.54 0, 15.08 0, 21.11 0 M21.11 0 C21.11 24.7, 21.11 49.4, 21.11 79.01 M21.11 0 C21.11 29.11, 21.11 58.22, 21.11 79.01 M21.11 79.01 C14.78 79.01, 8.45 79.01, 0 79.01 M21.11 79.01 C15.44 79.01, 9.76 79.01, 0 79.01 M0 79.01 C0 60.99, 0 42.97, 0 0 M0 79.01 C0 60.88, 0 42.76, 0 0" stroke="#ffffff" stroke-width="4" fill="none"></path></g><g stroke-linecap="round" transform="translate(747.452403488971 614.6966287385917) rotate(343.90646054355204 7.561580993365169 34.32071239754217)"><path d="M0 0 L15.12 0 L15.12 68.64 L0 68.64" stroke="none" stroke-width="0" fill="#ffffff"></path><path d="M0 0 C5.44 0, 10.89 0, 15.12 0 M0 0 C5.76 0, 11.52 0, 15.12 0 M15.12 0 C15.12 23.9, 15.12 47.8, 15.12 68.64 M15.12 0 C15.12 23.24, 15.12 46.48, 15.12 68.64 M15.12 68.64 C10.26 68.64, 5.4 68.64, 0 68.64 M15.12 68.64 C10.24 68.64, 5.37 68.64, 0 68.64 M0 68.64 C0 53.79, 0 38.94, 0 0 M0 68.64 C0 49.84, 0 31.04, 0 0" stroke="#ffffff" stroke-width="4" fill="none"></path></g><g stroke-linecap="round" transform="translate(701.4216612786931 611.6171657061964) rotate(343.90646054355204 7.561580993365169 34.32071239754217)"><path d="M0 0 L15.12 0 L15.12 68.64 L0 68.64" stroke="none" stroke-width="0" fill="#ffffff"></path><path d="M0 0 C4.44 0, 8.88 0, 15.12 0 M0 0 C3.62 0, 7.25 0, 15.12 0 M15.12 0 C15.12 17.98, 15.12 35.96, 15.12 68.64 M15.12 0 C15.12 25.43, 15.12 50.86, 15.12 68.64 M15.12 68.64 C10.72 68.64, 6.31 68.64, 0 68.64 M15.12 68.64 C11.88 68.64, 8.63 68.64, 0 68.64 M0 68.64 C0 48.98, 0 29.32, 0 0 M0 68.64 C0 50.99, 0 33.34, 0 0" stroke="#ffffff" stroke-width="4" fill="none"></path></g><g stroke-linecap="round" transform="translate(746.7498166935784 590.1194316960868) rotate(34.174556605109906 10.866942679446765 18.333733419325227)"><path d="M0 0 L21.73 0 L21.73 36.67 L0 36.67" stroke="none" stroke-width="0" fill="#ffffff"></path><path d="M0 0 C4.53 0, 9.05 0, 21.73 0 M0 0 C7.18 0, 14.35 0, 21.73 0 M21.73 0 C21.73 11.69, 21.73 23.38, 21.73 36.67 M21.73 0 C21.73 8.93, 21.73 17.86, 21.73 36.67 M21.73 36.67 C13.48 36.67, 5.23 36.67, 0 36.67 M21.73 36.67 C14.54 36.67, 7.34 36.67, 0 36.67 M0 36.67 C0 26.07, 0 15.47, 0 0 M0 36.67 C0 22.09, 0 7.51, 0 0" stroke="#ffffff" stroke-width="4" fill="none"></path></g><g stroke-linecap="round"><g transform="translate(1405.7035054242006 509.83252496920113) rotate(0 -697.8517527121003 -180.33737619085377)" fill-rule="evenodd"><path d="M0 0 L-34.01 -4.79 L-76.56 -9.57 L-106.47 -12.65 L-133.13 -14.18 L-171.76 -12.3 L-205.77 -7.86 L-243.36 5.13 L-273.61 21.02 L-305.23 42.21 L-357.18 81.35 L-371.71 89.72 L-395.3 100.49 L-427.25 109.21 L-457.85 111.77 L-513.39 110.57 L-546.37 105.79 L-580.72 96.56 L-615.59 80.67 L-642.76 63.44 L-665.12 42.29 L-688.46 15.2 L-696.98 3.79 L-786.59 21.09 L-865.3 35.75 L-968.82 56.56 L-1081.62 80.25 L-1148.8 99.92 L-1202.82 119.23 L-1233.4 131.01 L-1266.74 139.03 L-1279.77 128.75 L-1305.46 113.08 L-1341.31 87.14 L-1347.2 77.49 L-1348.83 65.83 L-1382.79 48.29 L-1395.7 38.01 L-1392.44 27.48 L-1369.26 17.96 L-1250.4 -3.37 L-1056.41 -31.37 L-887.81 -53.57 L-726.61 -77.57 L-749.81 -90.97 L-789.41 -115.77 L-824.01 -145.77 L-874.01 -203.57 L-917.01 -268.77 L-947.81 -328.17 L-993.21 -421.37 L-1031.39 -499.7 L-553.73 -276 L-884.68 -440.91 L-943.28 -493.89 L-759.03 -400.59 L-527.65 -276.58 L-482.88 -246.1 L-463.42 -228.52 L-447.01 -207.19 L-441.38 -192.42 L-443.02 -169.92 L-458.03 -132.41 L-390.75 -160.31 L-325.11 -183.28 L-333.31 -192.89 L-386.29 -208.36 L-363.79 -209.77 L-319.95 -204.61 L-305.65 -198.75 L-288.77 -187.26 L-241.89 -177.18 L-220.56 -167.57 L-193.83 -149.52 L-167.58 -125.38 L-138.27 -85.06 L-120.82 -59.6 L-96.47 -43.88 L-150.42 -30.71 L-148.05 -48.31 L-139.86 -60.48 L-174.39 -105.42 L-195.87 -129.77 L-223.76 -146.82 L-260.06 -160.32 L-291.94 -164.75 L-310.98 -161.65 L-368.09 -145.71 L-449.33 -114.28 L-522.6 -86.16 L-566.88 -71.77 L-601.85 -65.13 L-707.2 -68.5 L-694.4 -34.78 L-683.1 -8.91 L-701.69 -7.36 L-722.72 -62.48 L-707.88 -68.95 L-675.13 -83.51 L-628.64 -82.4 L-587.69 -86.38 L-548.73 -95.68 L-509.1 -111.84 L-488.96 -125.79 L-469.92 -146.15 L-461.51 -164.75 L-458.19 -176.92 L-459.96 -198.17 L-468.37 -212.56 L-485.41 -226.51 L-529.47 -250.42 L-571.08 -271.45 L-688.19 -324.57 L-979.74 -450.73 L-955.28 -389.97 L-631.32 -246.68 L-638.04 -225.97 L-928.13 -349.91 L-905.81 -295.07 L-660.84 -174.93 L-664.83 -160.45 L-673.83 -154.2 L-687.06 -153.7 L-737.76 -171.69 L-878.13 -238.12 L-851.65 -204.16 L-805.45 -155.2 L-752.25 -112.99 L-720.53 -94.51 L-674.95 -83.52 L-722.53 -62.54 L-761.24 -57.8 L-1336.09 34.14 L-1261.54 92.25 L-701.78 -7.39 L-682.87 -8.92 L-666.98 17.99 L-627.18 54.61 L-592.33 76.04 L-555.36 88.64 L-513.31 96.17 L-475.84 99.11 L-443.45 96.82 L-406.47 88.81 L-369.99 71.46 L-304.05 25.98 L-271.98 4.22 L-230.1 -17.05 L-178.56 -27.52 L-151.89 -30.47 L-96.58 -43.79 L-49.31 -25.23 L-1.7 -2.98" stroke="none" stroke-width="0" fill="#ffffff" fill-rule="evenodd"></path><path d="M0 0 C-13.22 -1.86, -26.43 -3.72, -34.01 -4.79 M0 0 C-9.75 -1.37, -19.51 -2.74, -34.01 -4.79 M-34.01 -4.79 C-49.29 -6.5, -64.58 -8.22, -76.56 -9.57 M-34.01 -4.79 C-48.85 -6.45, -63.69 -8.12, -76.56 -9.57 M-76.56 -9.57 C-87.27 -10.67, -97.97 -11.77, -106.47 -12.65 M-76.56 -9.57 C-83.89 -10.32, -91.23 -11.08, -106.47 -12.65 M-106.47 -12.65 C-114.49 -13.11, -122.5 -13.57, -133.13 -14.18 M-106.47 -12.65 C-113.81 -13.07, -121.14 -13.49, -133.13 -14.18 M-133.13 -14.18 C-145.84 -13.57, -158.55 -12.95, -171.76 -12.3 M-133.13 -14.18 C-144.72 -13.62, -156.31 -13.06, -171.76 -12.3 M-171.76 -12.3 C-179.76 -11.26, -187.77 -10.21, -205.77 -7.86 M-171.76 -12.3 C-182.56 -10.89, -193.36 -9.48, -205.77 -7.86 M-205.77 -7.86 C-216.6 -4.12, -227.43 -0.38, -243.36 5.13 M-205.77 -7.86 C-214.69 -4.78, -223.61 -1.7, -243.36 5.13 M-243.36 5.13 C-251.11 9.19, -258.85 13.26, -273.61 21.02 M-243.36 5.13 C-251.09 9.19, -258.82 13.25, -273.61 21.02 M-273.61 21.02 C-281 25.97, -288.39 30.93, -305.23 42.21 M-273.61 21.02 C-280.89 25.9, -288.16 30.77, -305.23 42.21 M-305.23 42.21 C-319.1 52.66, -332.97 63.11, -357.18 81.35 M-305.23 42.21 C-318.52 52.23, -331.82 62.24, -357.18 81.35 M-357.18 81.35 C-362.66 84.51, -368.14 87.66, -371.71 89.72 M-357.18 81.35 C-360.66 83.35, -364.13 85.36, -371.71 89.72 M-371.71 89.72 C-380.81 93.88, -389.92 98.04, -395.3 100.49 M-371.71 89.72 C-378.16 92.67, -384.6 95.61, -395.3 100.49 M-395.3 100.49 C-406.22 103.47, -417.14 106.45, -427.25 109.21 M-395.3 100.49 C-402.1 102.35, -408.9 104.2, -427.25 109.21 M-427.25 109.21 C-437.74 110.09, -448.23 110.96, -457.85 111.77 M-427.25 109.21 C-434.89 109.85, -442.53 110.49, -457.85 111.77 M-457.85 111.77 C-478.06 111.33, -498.27 110.9, -513.39 110.57 M-457.85 111.77 C-473.77 111.43, -489.7 111.08, -513.39 110.57 M-513.39 110.57 C-522.62 109.23, -531.86 107.89, -546.37 105.79 M-513.39 110.57 C-523.76 109.07, -534.13 107.56, -546.37 105.79 M-546.37 105.79 C-556.41 103.09, -566.44 100.4, -580.72 96.56 M-546.37 105.79 C-559.57 102.24, -572.77 98.7, -580.72 96.56 M-580.72 96.56 C-593 90.96, -605.28 85.36, -615.59 80.67 M-580.72 96.56 C-594.14 90.44, -607.55 84.33, -615.59 80.67 M-615.59 80.67 C-626.12 73.99, -636.65 67.31, -642.76 63.44 M-615.59 80.67 C-621.46 76.94, -627.33 73.22, -642.76 63.44 M-642.76 63.44 C-650.07 56.53, -657.38 49.61, -665.12 42.29 M-642.76 63.44 C-650.92 55.72, -659.09 48, -665.12 42.29 M-665.12 42.29 C-672.68 33.51, -680.24 24.73, -688.46 15.2 M-665.12 42.29 C-671.66 34.69, -678.2 27.1, -688.46 15.2 M-688.46 15.2 C-691.73 10.82, -695 6.44, -696.98 3.79 M-688.46 15.2 C-691.41 11.24, -694.37 7.28, -696.98 3.79 M-696.98 3.79 C-731.69 10.49, -766.4 17.19, -786.59 21.09 M-696.98 3.79 C-720.53 8.34, -744.08 12.89, -786.59 21.09 M-786.59 21.09 C-811.44 25.72, -836.3 30.35, -865.3 35.75 M-786.59 21.09 C-803.19 24.18, -819.79 27.28, -865.3 35.75 M-865.3 35.75 C-893.91 41.5, -922.52 47.25, -968.82 56.56 M-865.3 35.75 C-889.82 40.68, -914.34 45.61, -968.82 56.56 M-968.82 56.56 C-1005.74 64.31, -1042.65 72.06, -1081.62 80.25 M-968.82 56.56 C-993.97 61.84, -1019.12 67.12, -1081.62 80.25 M-1081.62 80.25 C-1101.92 86.19, -1122.22 92.14, -1148.8 99.92 M-1081.62 80.25 C-1099.3 85.42, -1116.97 90.6, -1148.8 99.92 M-1148.8 99.92 C-1161.53 104.47, -1174.27 109.02, -1202.82 119.23 M-1148.8 99.92 C-1161.65 104.52, -1174.51 109.11, -1202.82 119.23 M-1202.82 119.23 C-1214.69 123.8, -1226.57 128.38, -1233.4 131.01 M-1202.82 119.23 C-1214.74 123.82, -1226.66 128.41, -1233.4 131.01 M-1233.4 131.01 C-1242.44 133.18, -1251.48 135.36, -1266.74 139.03 M-1233.4 131.01 C-1243.33 133.4, -1253.26 135.79, -1266.74 139.03 M-1266.74 139.03 C-1270.27 136.24, -1273.8 133.46, -1279.77 128.75 M-1266.74 139.03 C-1270.03 136.43, -1273.33 133.83, -1279.77 128.75 M-1279.77 128.75 C-1286.86 124.43, -1293.95 120.11, -1305.46 113.08 M-1279.77 128.75 C-1285.74 125.11, -1291.71 121.47, -1305.46 113.08 M-1305.46 113.08 C-1316.18 105.33, -1326.9 97.57, -1341.31 87.14 M-1305.46 113.08 C-1315.33 105.94, -1325.2 98.8, -1341.31 87.14 M-1341.31 87.14 C-1343.1 84.2, -1344.9 81.26, -1347.2 77.49 M-1341.31 87.14 C-1342.83 84.65, -1344.35 82.16, -1347.2 77.49 M-1347.2 77.49 C-1347.58 74.77, -1347.96 72.05, -1348.83 65.83 M-1347.2 77.49 C-1347.64 74.37, -1348.07 71.24, -1348.83 65.83 M-1348.83 65.83 C-1356.48 61.88, -1364.12 57.93, -1382.79 48.29 M-1348.83 65.83 C-1361.72 59.17, -1374.62 52.51, -1382.79 48.29 M-1382.79 48.29 C-1385.99 45.75, -1389.18 43.2, -1395.7 38.01 M-1382.79 48.29 C-1385.75 45.93, -1388.71 43.58, -1395.7 38.01 M-1395.7 38.01 C-1394.67 34.67, -1393.64 31.34, -1392.44 27.48 M-1395.7 38.01 C-1394.44 33.91, -1393.17 29.82, -1392.44 27.48 M-1392.44 27.48 C-1384.85 24.36, -1377.26 21.24, -1369.26 17.96 M-1392.44 27.48 C-1384.46 24.2, -1376.47 20.92, -1369.26 17.96 M-1369.26 17.96 C-1336.85 12.14, -1304.44 6.33, -1250.4 -3.37 M-1369.26 17.96 C-1337.63 12.28, -1306 6.61, -1250.4 -3.37 M-1250.4 -3.37 C-1197.56 -11, -1144.72 -18.62, -1056.41 -31.37 M-1250.4 -3.37 C-1175.29 -14.21, -1100.18 -25.05, -1056.41 -31.37 M-1056.41 -31.37 C-989.46 -40.19, -922.51 -49, -887.81 -53.57 M-1056.41 -31.37 C-992.78 -39.75, -929.15 -48.13, -887.81 -53.57 M-887.81 -53.57 C-840.56 -60.6, -793.31 -67.64, -726.61 -77.57 M-887.81 -53.57 C-836.53 -61.21, -785.24 -68.84, -726.61 -77.57 M-726.61 -77.57 C-731.42 -80.35, -736.24 -83.13, -749.81 -90.97 M-726.61 -77.57 C-733.05 -81.29, -739.49 -85.01, -749.81 -90.97 M-749.81 -90.97 C-758.25 -96.26, -766.7 -101.55, -789.41 -115.77 M-749.81 -90.97 C-761.11 -98.05, -772.42 -105.13, -789.41 -115.77 M-789.41 -115.77 C-797.5 -122.79, -805.6 -129.81, -824.01 -145.77 M-789.41 -115.77 C-800.08 -125.03, -810.76 -134.28, -824.01 -145.77 M-824.01 -145.77 C-837.46 -161.32, -850.92 -176.88, -874.01 -203.57 M-824.01 -145.77 C-835.26 -158.77, -846.51 -171.78, -874.01 -203.57 M-874.01 -203.57 C-883.42 -217.84, -892.82 -232.1, -917.01 -268.77 M-874.01 -203.57 C-891.2 -229.64, -908.4 -255.71, -917.01 -268.77 M-917.01 -268.77 C-926.53 -287.13, -936.05 -305.49, -947.81 -328.17 M-917.01 -268.77 C-925.01 -284.21, -933.02 -299.65, -947.81 -328.17 M-947.81 -328.17 C-962.19 -357.7, -976.58 -387.23, -993.21 -421.37 M-947.81 -328.17 C-960 -353.2, -972.19 -378.23, -993.21 -421.37 M-993.21 -421.37 C-1008.27 -452.27, -1023.34 -483.18, -1031.39 -499.7 M-993.21 -421.37 C-1004.7 -444.95, -1016.19 -468.53, -1031.39 -499.7 M-1031.39 -499.7 C-890.24 -433.6, -749.1 -367.5, -553.73 -276 M-1031.39 -499.7 C-926.73 -450.69, -822.07 -401.67, -553.73 -276 M-553.73 -276 C-685.75 -341.78, -817.76 -407.57, -884.68 -440.91 M-553.73 -276 C-635.3 -316.65, -716.88 -357.3, -884.68 -440.91 M-884.68 -440.91 C-904.29 -458.64, -923.9 -476.37, -943.28 -493.89 M-884.68 -440.91 C-904.81 -459.11, -924.94 -477.3, -943.28 -493.89 M-943.28 -493.89 C-904.88 -474.44, -866.48 -455, -759.03 -400.59 M-943.28 -493.89 C-872.88 -458.24, -802.48 -422.59, -759.03 -400.59 M-759.03 -400.59 C-706.58 -372.48, -654.13 -344.37, -527.65 -276.58 M-759.03 -400.59 C-684.72 -360.77, -610.42 -320.94, -527.65 -276.58 M-527.65 -276.58 C-513.25 -266.78, -498.84 -256.97, -482.88 -246.1 M-527.65 -276.58 C-510.59 -264.97, -493.53 -253.35, -482.88 -246.1 M-482.88 -246.1 C-475.55 -239.49, -468.23 -232.87, -463.42 -228.52 M-482.88 -246.1 C-478.61 -242.25, -474.35 -238.4, -463.42 -228.52 M-463.42 -228.52 C-459.32 -223.19, -455.22 -217.86, -447.01 -207.19 M-463.42 -228.52 C-458.43 -222.03, -453.44 -215.55, -447.01 -207.19 M-447.01 -207.19 C-445.88 -204.22, -444.74 -201.24, -441.38 -192.42 M-447.01 -207.19 C-445.37 -202.88, -443.72 -198.57, -441.38 -192.42 M-441.38 -192.42 C-441.9 -185.3, -442.42 -178.17, -443.02 -169.92 M-441.38 -192.42 C-442.04 -183.43, -442.69 -174.43, -443.02 -169.92 M-443.02 -169.92 C-448 -157.49, -452.97 -145.05, -458.03 -132.41 M-443.02 -169.92 C-448.75 -155.61, -454.47 -141.3, -458.03 -132.41 M-458.03 -132.41 C-440.67 -139.61, -423.32 -146.8, -390.75 -160.31 M-458.03 -132.41 C-437.63 -140.87, -417.23 -149.33, -390.75 -160.31 M-390.75 -160.31 C-377.04 -165.1, -363.33 -169.9, -325.11 -183.28 M-390.75 -160.31 C-369.92 -167.6, -349.09 -174.89, -325.11 -183.28 M-325.11 -183.28 C-326.94 -185.42, -328.76 -187.56, -333.31 -192.89 M-325.11 -183.28 C-327.06 -185.57, -329.02 -187.86, -333.31 -192.89 M-333.31 -192.89 C-348.6 -197.35, -363.89 -201.82, -386.29 -208.36 M-333.31 -192.89 C-350.08 -197.79, -366.85 -202.68, -386.29 -208.36 M-386.29 -208.36 C-377.93 -208.89, -369.56 -209.41, -363.79 -209.77 M-386.29 -208.36 C-381.45 -208.66, -376.61 -208.97, -363.79 -209.77 M-363.79 -209.77 C-353.36 -208.54, -342.93 -207.31, -319.95 -204.61 M-363.79 -209.77 C-346.98 -207.79, -330.18 -205.81, -319.95 -204.61 M-319.95 -204.61 C-315.96 -202.98, -311.98 -201.34, -305.65 -198.75 M-319.95 -204.61 C-316.63 -203.25, -313.3 -201.89, -305.65 -198.75 M-305.65 -198.75 C-299.97 -194.88, -294.28 -191.01, -288.77 -187.26 M-305.65 -198.75 C-300.42 -195.19, -295.19 -191.63, -288.77 -187.26 M-288.77 -187.26 C-273.29 -183.94, -257.81 -180.61, -241.89 -177.18 M-288.77 -187.26 C-275.84 -184.48, -262.91 -181.7, -241.89 -177.18 M-241.89 -177.18 C-235.96 -174.51, -230.04 -171.84, -220.56 -167.57 M-241.89 -177.18 C-236 -174.53, -230.11 -171.88, -220.56 -167.57 M-220.56 -167.57 C-211.89 -161.72, -203.22 -155.86, -193.83 -149.52 M-220.56 -167.57 C-212.04 -161.82, -203.53 -156.07, -193.83 -149.52 M-193.83 -149.52 C-184.24 -140.7, -174.64 -131.87, -167.58 -125.38 M-193.83 -149.52 C-187.32 -143.53, -180.8 -137.54, -167.58 -125.38 M-167.58 -125.38 C-159.59 -114.39, -151.61 -103.4, -138.27 -85.06 M-167.58 -125.38 C-158.16 -112.42, -148.75 -99.47, -138.27 -85.06 M-138.27 -85.06 C-132.74 -76.98, -127.2 -68.9, -120.82 -59.6 M-138.27 -85.06 C-131.62 -75.36, -124.97 -65.65, -120.82 -59.6 M-120.82 -59.6 C-111.13 -53.34, -101.43 -47.08, -96.47 -43.88 M-120.82 -59.6 C-115.17 -55.95, -109.51 -52.3, -96.47 -43.88 M-96.47 -43.88 C-110.69 -40.41, -124.9 -36.94, -150.42 -30.71 M-96.47 -43.88 C-108.16 -41.03, -119.86 -38.17, -150.42 -30.71 M-150.42 -30.71 C-149.62 -36.65, -148.82 -42.59, -148.05 -48.31 M-150.42 -30.71 C-149.5 -37.53, -148.59 -44.35, -148.05 -48.31 M-148.05 -48.31 C-145.22 -52.52, -142.38 -56.73, -139.86 -60.48 M-148.05 -48.31 C-145.72 -51.77, -143.39 -55.24, -139.86 -60.48 M-139.86 -60.48 C-151.58 -75.74, -163.3 -90.99, -174.39 -105.42 M-139.86 -60.48 C-150.56 -74.41, -161.26 -88.33, -174.39 -105.42 M-174.39 -105.42 C-181.26 -113.21, -188.13 -121, -195.87 -129.77 M-174.39 -105.42 C-180.87 -112.77, -187.35 -120.11, -195.87 -129.77 M-195.87 -129.77 C-203.25 -134.28, -210.63 -138.8, -223.76 -146.82 M-195.87 -129.77 C-204.52 -135.06, -213.17 -140.35, -223.76 -146.82 M-223.76 -146.82 C-236.55 -151.58, -249.35 -156.33, -260.06 -160.32 M-223.76 -146.82 C-237.28 -151.85, -250.8 -156.88, -260.06 -160.32 M-260.06 -160.32 C-272.4 -162.03, -284.74 -163.75, -291.94 -164.75 M-260.06 -160.32 C-269.21 -161.59, -278.35 -162.86, -291.94 -164.75 M-291.94 -164.75 C-296.2 -164.05, -300.46 -163.36, -310.98 -161.65 M-291.94 -164.75 C-299.34 -163.54, -306.75 -162.34, -310.98 -161.65 M-310.98 -161.65 C-333.41 -155.39, -355.84 -149.13, -368.09 -145.71 M-310.98 -161.65 C-329.57 -156.46, -348.17 -151.27, -368.09 -145.71 M-368.09 -145.71 C-394.57 -135.47, -421.04 -125.22, -449.33 -114.28 M-368.09 -145.71 C-386.83 -138.46, -405.56 -131.21, -449.33 -114.28 M-449.33 -114.28 C-477.2 -103.58, -505.06 -92.89, -522.6 -86.16 M-449.33 -114.28 C-471.28 -105.86, -493.22 -97.44, -522.6 -86.16 M-522.6 -86.16 C-534.29 -82.36, -545.98 -78.56, -566.88 -71.77 M-522.6 -86.16 C-538.74 -80.92, -554.88 -75.67, -566.88 -71.77 M-566.88 -71.77 C-576 -70.04, -585.13 -68.31, -601.85 -65.13 M-566.88 -71.77 C-576.3 -69.98, -585.73 -68.2, -601.85 -65.13 M-601.85 -65.13 C-628.76 -65.99, -655.67 -66.85, -707.2 -68.5 M-601.85 -65.13 C-627.67 -65.96, -653.48 -66.78, -707.2 -68.5 M-707.2 -68.5 C-702.61 -56.42, -698.03 -44.35, -694.4 -34.78 M-707.2 -68.5 C-703.57 -58.94, -699.94 -49.37, -694.4 -34.78 M-694.4 -34.78 C-690.67 -26.24, -686.94 -17.7, -683.1 -8.91 M-694.4 -34.78 C-690.85 -26.65, -687.3 -18.52, -683.1 -8.91 M-683.1 -8.91 C-686.97 -8.58, -690.83 -8.26, -701.69 -7.36 M-683.1 -8.91 C-690.12 -8.32, -697.14 -7.74, -701.69 -7.36 M-701.69 -7.36 C-708.63 -25.55, -715.57 -43.75, -722.72 -62.48 M-701.69 -7.36 C-705.93 -18.47, -710.17 -29.58, -722.72 -62.48 M-722.72 -62.48 C-717.39 -64.81, -712.05 -67.13, -707.88 -68.95 M-722.72 -62.48 C-717.15 -64.91, -711.59 -67.34, -707.88 -68.95 M-707.88 -68.95 C-697.71 -73.47, -687.53 -77.99, -675.13 -83.51 M-707.88 -68.95 C-697.26 -73.67, -686.65 -78.39, -675.13 -83.51 M-675.13 -83.51 C-657.76 -83.09, -640.4 -82.68, -628.64 -82.4 M-675.13 -83.51 C-661.81 -83.19, -648.5 -82.87, -628.64 -82.4 M-628.64 -82.4 C-614.76 -83.75, -600.88 -85.1, -587.69 -86.38 M-628.64 -82.4 C-616.91 -83.54, -605.19 -84.68, -587.69 -86.38 M-587.69 -86.38 C-578.97 -88.46, -570.26 -90.54, -548.73 -95.68 M-587.69 -86.38 C-575.61 -89.27, -563.54 -92.15, -548.73 -95.68 M-548.73 -95.68 C-537.04 -100.45, -525.35 -105.22, -509.1 -111.84 M-548.73 -95.68 C-537.63 -100.21, -526.53 -104.73, -509.1 -111.84 M-509.1 -111.84 C-503.14 -115.97, -497.17 -120.1, -488.96 -125.79 M-509.1 -111.84 C-504.44 -115.07, -499.78 -118.3, -488.96 -125.79 M-488.96 -125.79 C-483.8 -131.31, -478.63 -136.83, -469.92 -146.15 M-488.96 -125.79 C-483.53 -131.59, -478.1 -137.4, -469.92 -146.15 M-469.92 -146.15 C-466.64 -153.4, -463.36 -160.64, -461.51 -164.75 M-469.92 -146.15 C-468.03 -150.32, -466.15 -154.49, -461.51 -164.75 M-461.51 -164.75 C-460.27 -169.28, -459.04 -173.81, -458.19 -176.92 M-461.51 -164.75 C-460.62 -168.01, -459.73 -171.28, -458.19 -176.92 M-458.19 -176.92 C-458.74 -183.62, -459.3 -190.32, -459.96 -198.17 M-458.19 -176.92 C-458.63 -182.21, -459.07 -187.49, -459.96 -198.17 M-459.96 -198.17 C-462.61 -202.71, -465.27 -207.25, -468.37 -212.56 M-459.96 -198.17 C-463.19 -203.7, -466.41 -209.22, -468.37 -212.56 M-468.37 -212.56 C-473.42 -216.7, -478.47 -220.83, -485.41 -226.51 M-468.37 -212.56 C-472.69 -216.1, -477.01 -219.63, -485.41 -226.51 M-485.41 -226.51 C-495.6 -232.04, -505.78 -237.56, -529.47 -250.42 M-485.41 -226.51 C-501.89 -235.45, -518.37 -244.4, -529.47 -250.42 M-529.47 -250.42 C-544.84 -258.19, -560.21 -265.95, -571.08 -271.45 M-529.47 -250.42 C-545.04 -258.28, -560.6 -266.15, -571.08 -271.45 M-571.08 -271.45 C-601.69 -285.33, -632.29 -299.22, -688.19 -324.57 M-571.08 -271.45 C-614.23 -291.02, -657.38 -310.6, -688.19 -324.57 M-688.19 -324.57 C-799.84 -372.89, -911.5 -421.2, -979.74 -450.73 M-688.19 -324.57 C-785.54 -366.7, -882.9 -408.83, -979.74 -450.73 M-979.74 -450.73 C-970.91 -428.79, -962.08 -406.86, -955.28 -389.97 M-979.74 -450.73 C-972.8 -433.48, -965.85 -416.23, -955.28 -389.97 M-955.28 -389.97 C-826.3 -332.92, -697.32 -275.87, -631.32 -246.68 M-955.28 -389.97 C-876.35 -355.06, -797.41 -320.14, -631.32 -246.68 M-631.32 -246.68 C-633.32 -240.51, -635.32 -234.35, -638.04 -225.97 M-631.32 -246.68 C-632.83 -242.02, -634.35 -237.36, -638.04 -225.97 M-638.04 -225.97 C-721.75 -261.74, -805.46 -297.5, -928.13 -349.91 M-638.04 -225.97 C-696.5 -250.95, -754.96 -275.93, -928.13 -349.91 M-928.13 -349.91 C-922.53 -336.15, -916.93 -322.39, -905.81 -295.07 M-928.13 -349.91 C-921.8 -334.36, -915.47 -318.8, -905.81 -295.07 M-905.81 -295.07 C-822.43 -254.18, -739.05 -213.29, -660.84 -174.93 M-905.81 -295.07 C-833.97 -259.83, -762.12 -224.6, -660.84 -174.93 M-660.84 -174.93 C-661.69 -171.84, -662.54 -168.75, -664.83 -160.45 M-660.84 -174.93 C-662.19 -170.02, -663.55 -165.1, -664.83 -160.45 M-664.83 -160.45 C-667.1 -158.87, -669.37 -157.3, -673.83 -154.2 M-664.83 -160.45 C-668.36 -158, -671.89 -155.55, -673.83 -154.2 M-673.83 -154.2 C-678.99 -154.01, -684.15 -153.81, -687.06 -153.7 M-673.83 -154.2 C-677.26 -154.07, -680.68 -153.94, -687.06 -153.7 M-687.06 -153.7 C-704.06 -159.73, -721.05 -165.76, -737.76 -171.69 M-687.06 -153.7 C-705.26 -160.16, -723.46 -166.61, -737.76 -171.69 M-737.76 -171.69 C-793.59 -198.11, -849.41 -224.53, -878.13 -238.12 M-737.76 -171.69 C-779.51 -191.44, -821.25 -211.2, -878.13 -238.12 M-878.13 -238.12 C-869.85 -227.49, -861.56 -216.87, -851.65 -204.16 M-878.13 -238.12 C-871.73 -229.91, -865.33 -221.7, -851.65 -204.16 M-851.65 -204.16 C-839.32 -191.09, -826.99 -178.03, -805.45 -155.2 M-851.65 -204.16 C-837.97 -189.65, -824.28 -175.15, -805.45 -155.2 M-805.45 -155.2 C-788.34 -141.63, -771.24 -128.06, -752.25 -112.99 M-805.45 -155.2 C-790.74 -143.53, -776.03 -131.86, -752.25 -112.99 M-752.25 -112.99 C-744.65 -108.56, -737.05 -104.13, -720.53 -94.51 M-752.25 -112.99 C-743.21 -107.72, -734.16 -102.45, -720.53 -94.51 M-720.53 -94.51 C-706.41 -91.11, -692.3 -87.7, -674.95 -83.52 M-720.53 -94.51 C-707.48 -91.36, -694.43 -88.22, -674.95 -83.52 M-674.95 -83.52 C-692.6 -75.74, -710.26 -67.95, -722.53 -62.54 M-674.95 -83.52 C-688.32 -77.63, -701.69 -71.73, -722.53 -62.54 M-722.53 -62.54 C-731.77 -61.41, -741 -60.28, -761.24 -57.8 M-722.53 -62.54 C-733.44 -61.2, -744.36 -59.87, -761.24 -57.8 M-761.24 -57.8 C-949.97 -27.61, -1138.71 2.57, -1336.09 34.14 M-761.24 -57.8 C-927.07 -31.28, -1092.89 -4.76, -1336.09 34.14 M-1336.09 34.14 C-1315.09 50.51, -1294.08 66.89, -1261.54 92.25 M-1336.09 34.14 C-1316.59 49.34, -1297.08 64.55, -1261.54 92.25 M-1261.54 92.25 C-1042.44 53.25, -823.34 14.25, -701.78 -7.39 M-1261.54 92.25 C-1093.94 62.42, -926.34 32.58, -701.78 -7.39 M-701.78 -7.39 C-697.52 -7.74, -693.25 -8.08, -682.87 -8.92 M-701.78 -7.39 C-697.78 -7.71, -693.79 -8.04, -682.87 -8.92 M-682.87 -8.92 C-678.86 -2.12, -674.84 4.68, -666.98 17.99 M-682.87 -8.92 C-678.21 -1.02, -673.55 6.87, -666.98 17.99 M-666.98 17.99 C-656.31 27.81, -645.64 37.63, -627.18 54.61 M-666.98 17.99 C-654.89 29.12, -642.8 40.24, -627.18 54.61 M-627.18 54.61 C-619.62 59.26, -612.05 63.92, -592.33 76.04 M-627.18 54.61 C-618.91 59.7, -610.64 64.78, -592.33 76.04 M-592.33 76.04 C-584.16 78.83, -575.99 81.61, -555.36 88.64 M-592.33 76.04 C-581.23 79.83, -570.13 83.61, -555.36 88.64 M-555.36 88.64 C-546.87 90.16, -538.37 91.68, -513.31 96.17 M-555.36 88.64 C-543.34 90.79, -531.33 92.94, -513.31 96.17 M-513.31 96.17 C-501.78 97.07, -490.25 97.98, -475.84 99.11 M-513.31 96.17 C-500.24 97.19, -487.18 98.22, -475.84 99.11 M-475.84 99.11 C-464.92 98.34, -454 97.57, -443.45 96.82 M-475.84 99.11 C-463.51 98.24, -451.18 97.37, -443.45 96.82 M-443.45 96.82 C-429.97 93.9, -416.49 90.98, -406.47 88.81 M-443.45 96.82 C-429.21 93.74, -414.98 90.65, -406.47 88.81 M-406.47 88.81 C-393.15 82.47, -379.83 76.14, -369.99 71.46 M-406.47 88.81 C-397.29 84.44, -388.11 80.08, -369.99 71.46 M-369.99 71.46 C-354.17 60.56, -338.36 49.65, -304.05 25.98 M-369.99 71.46 C-348.08 56.35, -326.17 41.24, -304.05 25.98 M-304.05 25.98 C-296.34 20.74, -288.62 15.51, -271.98 4.22 M-304.05 25.98 C-297.14 21.29, -290.24 16.6, -271.98 4.22 M-271.98 4.22 C-255.45 -4.18, -238.91 -12.58, -230.1 -17.05 M-271.98 4.22 C-259.36 -2.19, -246.74 -8.6, -230.1 -17.05 M-230.1 -17.05 C-213.04 -20.52, -195.97 -23.98, -178.56 -27.52 M-230.1 -17.05 C-210.68 -21, -191.27 -24.94, -178.56 -27.52 M-178.56 -27.52 C-170.47 -28.41, -162.38 -29.31, -151.89 -30.47 M-178.56 -27.52 C-168.15 -28.67, -157.74 -29.82, -151.89 -30.47 M-151.89 -30.47 C-139.92 -33.35, -127.94 -36.24, -96.58 -43.79 M-151.89 -30.47 C-139.31 -33.5, -126.72 -36.53, -96.58 -43.79 M-96.58 -43.79 C-84.7 -39.13, -72.82 -34.46, -49.31 -25.23 M-96.58 -43.79 C-83.1 -38.5, -69.62 -33.2, -49.31 -25.23 M-49.31 -25.23 C-35.55 -18.8, -21.78 -12.36, -1.7 -2.98 M-49.31 -25.23 C-37.54 -19.73, -25.77 -14.23, -1.7 -2.98 M-1.7 -2.98 C-1.13 -1.97, -0.55 -0.97, 0 0 M-1.7 -2.98 C-1.26 -2.21, -0.82 -1.44, 0 0" stroke="#ffffff" stroke-width="1" fill="none"></path></g></g><mask></mask></svg>