<svg version="1.1" xmlns="http://www.w3.org/2000/svg" viewBox="0 0 1008.0998613396569 1639.9999999999993" width="3024.2995840189706" height="4919.999999999998">
  <!-- svg-source:excalidraw -->
  
  <defs>
    <style class="style-fonts">
      @font-face {
        font-family: "Virgil";
        src: url("https://unpkg.com/@excalidraw/excalidraw@undefined/dist/excalidraw-assets/Virgil.woff2");
      }
      @font-face {
        font-family: "Cascadia";
        src: url("https://unpkg.com/@excalidraw/excalidraw@undefined/dist/excalidraw-assets/Cascadia.woff2");
      }
      @font-face {
        font-family: "Assistant";
        src: url("https://unpkg.com/@excalidraw/excalidraw@undefined/dist/excalidraw-assets/Assistant-Regular.woff2");
      }
    </style>
    
  </defs>
  <g transform="translate(270 1309.9999999999993) rotate(0 12.5 -489.99999999999966)" stroke="none"><path fill="#ffffff" d="M -1.20,-2.40 Q -1.20,-2.40 1.17,-4.87 3.55,-7.34 6.66,-8.26 9.78,-9.17 11.38,-10.63 12.99,-12.09 14.68,-15.08 16.38,-18.08 18.49,-23.39 20.61,-28.70 21.36,-38.94 22.11,-49.18 22.50,-63.76 22.89,-78.34 23.03,-97.49 23.18,-116.65 21.81,-146.20 20.43,-175.74 16.98,-211.21 13.54,-246.68 9.21,-281.87 4.88,-317.05 -2.69,-364.99 -10.27,-412.93 -19.24,-460.57 -28.21,-508.21 -40.65,-573.05 -53.09,-637.89 -66.97,-698.39 -80.86,-758.90 -95.39,-822.04 -109.91,-885.18 -123.22,-933.45 -136.53,-981.71 -152.16,-1025.05 -167.79,-1068.40 -181.60,-1104.11 -195.41,-1139.82 -207.00,-1166.40 -218.59,-1192.99 -229.25,-1215.76 -239.91,-1238.53 -245.94,-1252.66 -251.97,-1266.78 -255.91,-1275.55 -259.86,-1284.32 -261.55,-1286.65 -263.25,-1288.98 -263.48,-1289.70 -263.70,-1290.43 -263.75,-1291.19 -263.79,-1291.95 -263.66,-1292.70 -263.52,-1293.44 -263.21,-1294.14 -262.90,-1294.83 -262.43,-1295.43 -261.96,-1296.03 -261.36,-1296.50 -260.76,-1296.97 -260.07,-1297.28 -259.37,-1297.59 -258.63,-1297.73 -257.88,-1297.87 -257.12,-1297.82 -256.36,-1297.78 -255.63,-1297.55 -254.91,-1297.33 -254.25,-1296.93 -253.60,-1296.54 -253.06,-1296.00 -252.53,-1295.46 -252.13,-1294.81 -251.74,-1294.16 -249.60,-1289.39 -247.45,-1284.63 -243.54,-1272.18 -239.63,-1259.74 -235.14,-1244.48 -230.64,-1229.23 -220.12,-1194.03 -209.60,-1158.83 -193.61,-1100.67 -177.61,-1042.52 -160.75,-978.99 -143.89,-915.46 -120.92,-829.54 -97.95,-743.62 -76.69,-665.43 -55.43,-587.23 -29.17,-500.90 -2.91,-414.56 21.16,-341.97 45.25,-269.37 72.72,-192.56 100.20,-115.74 123.37,-54.37 146.53,7.00 167.86,60.36 189.20,113.72 205.45,153.66 221.71,193.59 231.50,217.76 241.29,241.93 246.91,256.56 252.53,271.20 257.57,279.83 262.61,288.47 266.32,295.27 270.03,302.08 271.67,306.64 273.31,311.20 275.09,315.60 276.86,320.00 275.86,317.09 274.87,314.17 275.37,314.73 275.87,315.28 276.22,315.94 276.57,316.60 276.76,317.32 276.94,318.04 276.95,318.79 276.96,319.54 276.79,320.26 276.61,320.99 276.27,321.66 275.93,322.32 275.44,322.88 274.95,323.45 274.34,323.88 273.73,324.31 273.03,324.58 272.34,324.85 271.60,324.95 270.86,325.04 270.11,324.96 269.37,324.88 268.67,324.62 267.97,324.36 267.35,323.94 266.73,323.52 265.50,320.71 264.27,317.89 264.12,315.57 263.98,313.24 262.70,310.50 261.42,307.76 259.31,301.75 257.20,295.74 252.13,284.90 247.05,274.06 237.62,251.99 228.18,229.92 217.00,203.31 205.82,176.70 189.50,130.74 173.18,84.77 160.49,43.62 147.80,2.47 138.07,-35.22 128.34,-72.93 122.73,-106.40 117.11,-139.88 113.29,-169.93 109.47,-199.97 106.43,-218.33 103.38,-236.68 102.06,-249.08 100.74,-261.48 101.62,-265.15 102.49,-268.82 102.50,-269.57 102.51,-270.32 102.70,-271.05 102.89,-271.77 103.25,-272.43 103.61,-273.09 104.12,-273.65 104.62,-274.20 105.25,-274.62 105.87,-275.03 106.58,-275.29 107.28,-275.55 108.03,-275.63 108.78,-275.71 109.52,-275.60 110.26,-275.50 110.96,-275.23 111.66,-274.95 112.27,-274.51 112.88,-274.08 113.37,-273.51 113.86,-272.94 114.20,-272.27 114.54,-271.60 114.71,-270.87 114.88,-270.14 117.51,-267.53 120.14,-264.92 129.13,-242.28 138.13,-219.63 146.11,-197.30 154.10,-174.97 161.79,-154.05 169.47,-133.12 176.99,-115.75 184.51,-98.39 191.89,-85.50 199.27,-72.61 202.47,-68.43 205.68,-64.26 205.97,-63.56 206.26,-62.87 206.38,-62.13 206.50,-61.38 206.43,-60.63 206.37,-59.89 206.13,-59.17 205.88,-58.46 205.48,-57.83 205.07,-57.19 204.53,-56.68 203.98,-56.16 203.33,-55.78 202.68,-55.41 201.95,-55.21 201.23,-55.00 200.48,-54.97 199.73,-54.95 198.99,-55.10 198.26,-55.26 197.58,-55.58 196.90,-55.91 196.32,-56.39 195.74,-56.86 195.29,-57.47 194.84,-58.07 194.36,-69.31 193.88,-80.55 189.59,-102.82 185.30,-125.09 180.57,-152.09 175.84,-179.08 172.36,-209.41 168.88,-239.73 167.40,-259.86 165.92,-279.99 166.72,-291.35 167.52,-302.72 167.55,-303.48 167.59,-304.24 167.80,-304.96 168.02,-305.69 168.40,-306.34 168.79,-307.00 169.32,-307.54 169.85,-308.08 170.49,-308.48 171.14,-308.89 171.86,-309.12 172.58,-309.35 173.33,-309.41 174.09,-309.47 174.84,-309.34 175.59,-309.21 176.28,-308.91 176.98,-308.61 177.58,-308.15 178.18,-307.69 178.66,-307.09 179.13,-306.50 179.45,-305.82 179.77,-305.13 179.92,-304.38 180.06,-303.64 188.73,-291.99 197.40,-280.34 204.25,-262.10 211.10,-243.85 218.31,-223.21 225.51,-202.56 232.51,-188.67 239.50,-174.77 242.82,-172.72 246.15,-170.66 246.41,-169.93 246.68,-169.19 246.76,-168.42 246.85,-167.64 246.74,-166.87 246.64,-166.09 246.35,-165.37 246.06,-164.64 245.61,-164.00 245.16,-163.37 244.57,-162.86 243.98,-162.35 243.28,-162.00 242.58,-161.64 241.82,-161.47 241.06,-161.29 240.28,-161.30 239.50,-161.31 238.75,-161.51 237.99,-161.70 237.31,-162.08 236.62,-162.45 236.04,-162.97 235.46,-163.50 235.03,-164.15 234.60,-164.80 235.68,-171.97 236.77,-179.14 234.38,-195.91 232.00,-212.67 228.18,-233.05 224.35,-253.42 221.24,-279.62 218.14,-305.82 217.34,-321.08 216.55,-336.33 219.73,-338.11 222.92,-339.89 222.94,-340.68 222.96,-341.47 223.17,-342.23 223.38,-342.99 223.77,-343.68 224.15,-344.37 224.69,-344.94 225.23,-345.52 225.89,-345.95 226.56,-346.38 227.30,-346.64 228.05,-346.90 228.83,-346.98 229.62,-347.05 230.40,-346.93 231.18,-346.82 231.91,-346.52 232.64,-346.22 233.28,-345.75 233.92,-345.28 234.43,-344.68 234.93,-344.07 235.28,-343.37 235.63,-342.66 235.80,-341.88 235.97,-341.11 242.78,-332.53 249.59,-323.94 256.03,-307.37 262.47,-290.81 269.35,-272.57 276.23,-254.34 280.67,-236.12 285.10,-217.90 285.28,-206.66 285.45,-195.43 281.66,-190.65 277.88,-185.87 274.45,-186.57 271.02,-187.28 270.61,-187.38 270.20,-187.48 269.84,-187.71 269.48,-187.94 269.21,-188.27 268.95,-188.60 268.80,-189.00 268.66,-189.40 268.64,-189.82 268.63,-190.25 268.76,-190.66 268.88,-191.06 269.13,-191.41 269.38,-191.75 269.72,-192.00 270.07,-192.25 270.48,-192.37 270.88,-192.50 271.31,-192.48 271.73,-192.47 272.13,-192.33 272.53,-192.18 272.86,-191.91 273.19,-191.65 273.42,-191.29 273.65,-190.93 273.75,-190.52 273.85,-190.10 273.82,-189.68 273.78,-189.26 273.62,-188.87 273.45,-188.48 273.16,-188.16 272.88,-187.84 272.51,-187.64 272.14,-187.43 271.72,-187.35 271.30,-187.27 270.88,-187.33 270.46,-187.38 270.08,-187.57 269.70,-187.76 269.40,-188.06 269.10,-188.36 268.91,-188.74 268.72,-189.12 268.67,-189.55 268.61,-189.97 268.69,-190.38 268.77,-190.80 268.98,-191.17 269.19,-191.54 269.51,-191.82 269.82,-192.11 270.21,-192.28 270.60,-192.44 271.03,-192.48 271.45,-192.51 271.45,-192.51 271.45,-192.51 272.38,-193.98 273.32,-195.44 272.67,-205.10 272.02,-214.75 267.74,-232.15 263.47,-249.55 256.63,-267.78 249.79,-286.01 244.23,-301.12 238.68,-316.23 230.80,-328.06 222.92,-339.89 222.94,-340.68 222.96,-341.47 223.17,-342.23 223.38,-342.99 223.77,-343.68 224.15,-344.37 224.69,-344.94 225.23,-345.52 225.89,-345.95 226.55,-346.38 227.30,-346.64 228.05,-346.90 228.83,-346.98 229.62,-347.05 230.40,-346.93 231.18,-346.82 231.91,-346.52 232.64,-346.22 233.28,-345.75 233.92,-345.29 234.43,-344.68 234.93,-344.07 235.28,-343.37 235.63,-342.66 235.80,-341.88 235.97,-341.11 231.64,-336.81 227.31,-332.51 229.13,-319.93 230.95,-307.34 234.00,-281.57 237.04,-255.80 240.93,-235.06 244.82,-214.33 247.06,-195.25 249.29,-176.17 247.72,-173.42 246.15,-170.66 246.41,-169.93 246.68,-169.19 246.76,-168.42 246.85,-167.64 246.74,-166.87 246.64,-166.09 246.35,-165.37 246.06,-164.64 245.61,-164.00 245.16,-163.37 244.57,-162.86 243.98,-162.35 243.28,-162.00 242.59,-161.64 241.83,-161.47 241.06,-161.29 240.28,-161.30 239.50,-161.31 238.75,-161.51 237.99,-161.70 237.31,-162.08 236.62,-162.45 236.04,-162.97 235.46,-163.50 235.03,-164.15 234.60,-164.80 231.66,-166.44 228.73,-168.08 221.00,-183.18 213.28,-198.28 206.14,-218.80 199.00,-239.33 192.39,-257.06 185.79,-274.80 181.46,-285.58 177.14,-296.37 172.33,-299.55 167.52,-302.72 167.55,-303.48 167.59,-304.24 167.80,-304.96 168.02,-305.69 168.40,-306.34 168.79,-307.00 169.32,-307.54 169.85,-308.08 170.49,-308.48 171.13,-308.88 171.86,-309.12 172.58,-309.35 173.33,-309.41 174.09,-309.47 174.84,-309.34 175.58,-309.21 176.28,-308.91 176.98,-308.61 177.58,-308.15 178.18,-307.69 178.66,-307.09 179.13,-306.50 179.45,-305.82 179.77,-305.13 179.92,-304.38 180.06,-303.64 179.23,-292.26 178.40,-280.88 179.85,-261.01 181.29,-241.15 184.70,-211.19 188.11,-181.23 192.82,-154.33 197.54,-127.42 201.94,-104.05 206.34,-80.68 206.01,-72.47 205.68,-64.26 205.97,-63.56 206.26,-62.87 206.38,-62.13 206.50,-61.38 206.43,-60.64 206.37,-59.89 206.13,-59.17 205.88,-58.46 205.48,-57.83 205.07,-57.19 204.53,-56.68 203.98,-56.16 203.33,-55.79 202.68,-55.41 201.96,-55.21 201.23,-55.00 200.48,-54.97 199.73,-54.95 198.99,-55.10 198.26,-55.26 197.58,-55.58 196.90,-55.91 196.32,-56.39 195.74,-56.86 195.29,-57.47 194.84,-58.07 191.64,-62.24 188.44,-66.41 180.75,-79.92 173.06,-93.43 165.42,-111.12 157.77,-128.82 150.07,-149.80 142.37,-170.78 134.45,-192.94 126.53,-215.09 118.38,-236.24 110.24,-257.38 106.37,-263.10 102.49,-268.82 102.50,-269.57 102.51,-270.32 102.70,-271.05 102.89,-271.77 103.25,-272.43 103.61,-273.09 104.12,-273.65 104.62,-274.20 105.25,-274.62 105.87,-275.03 106.58,-275.29 107.28,-275.55 108.03,-275.63 108.78,-275.71 109.52,-275.60 110.26,-275.50 110.96,-275.23 111.66,-274.95 112.27,-274.52 112.88,-274.08 113.37,-273.51 113.86,-272.94 114.20,-272.27 114.54,-271.60 114.71,-270.87 114.88,-270.14 113.98,-266.35 113.09,-262.56 114.36,-250.63 115.63,-238.70 118.69,-220.12 121.75,-201.53 125.53,-171.72 129.30,-141.92 134.80,-108.96 140.31,-76.01 149.96,-38.59 159.62,-1.17 172.23,39.73 184.85,80.63 201.04,126.27 217.23,171.90 228.40,198.48 239.58,225.05 248.93,246.93 258.28,268.82 263.59,280.22 268.90,291.63 270.92,297.38 272.94,303.13 273.90,308.65 274.87,314.17 275.37,314.73 275.87,315.28 276.22,315.94 276.57,316.60 276.76,317.32 276.94,318.04 276.95,318.79 276.96,319.54 276.79,320.26 276.61,320.99 276.27,321.66 275.93,322.32 275.44,322.88 274.95,323.45 274.34,323.88 273.73,324.31 273.03,324.58 272.34,324.85 271.60,324.95 270.86,325.04 270.12,324.96 269.37,324.88 268.67,324.62 267.97,324.36 267.35,323.94 266.73,323.52 266.83,319.05 266.92,314.59 264.49,315.34 262.07,316.09 260.59,312.05 259.11,308.01 255.48,301.35 251.85,294.70 246.38,285.19 240.92,275.68 235.34,261.14 229.76,246.60 219.98,222.44 210.20,198.28 193.93,158.31 177.66,118.33 156.28,64.86 134.91,11.39 111.70,-50.08 88.49,-111.56 60.98,-188.51 33.46,-265.46 9.33,-338.20 -14.80,-410.95 -41.11,-497.46 -67.43,-583.97 -88.70,-662.19 -109.96,-740.41 -132.94,-826.34 -155.93,-912.27 -172.77,-975.74 -189.61,-1039.22 -205.57,-1097.24 -221.52,-1155.26 -232.07,-1190.48 -242.61,-1225.70 -247.09,-1240.85 -251.57,-1255.99 -255.24,-1267.72 -258.91,-1279.45 -261.08,-1284.21 -263.25,-1288.98 -263.48,-1289.70 -263.70,-1290.43 -263.75,-1291.19 -263.79,-1291.95 -263.66,-1292.70 -263.52,-1293.44 -263.21,-1294.14 -262.90,-1294.83 -262.43,-1295.43 -261.96,-1296.03 -261.36,-1296.50 -260.76,-1296.97 -260.07,-1297.28 -259.37,-1297.59 -258.63,-1297.73 -257.88,-1297.87 -257.12,-1297.82 -256.36,-1297.78 -255.63,-1297.55 -254.91,-1297.33 -254.25,-1296.93 -253.60,-1296.54 -253.07,-1296.00 -252.53,-1295.46 -252.13,-1294.81 -251.74,-1294.16 -250.05,-1291.86 -248.36,-1289.55 -244.35,-1280.65 -240.33,-1271.75 -234.38,-1257.83 -228.44,-1243.91 -217.70,-1220.98 -206.97,-1198.06 -195.26,-1171.24 -183.55,-1144.42 -169.60,-1108.60 -155.66,-1072.78 -139.80,-1028.99 -123.94,-985.19 -110.52,-936.66 -97.10,-888.13 -82.55,-824.99 -68.00,-761.85 -54.06,-701.11 -40.12,-640.37 -27.68,-575.51 -15.24,-510.65 -6.25,-462.82 2.73,-414.99 10.34,-366.83 17.95,-318.66 22.30,-283.31 26.65,-247.95 30.11,-212.15 33.57,-176.34 34.90,-146.43 36.24,-116.52 36.00,-97.23 35.76,-77.94 35.24,-62.96 34.73,-47.97 33.34,-35.99 31.95,-24.02 29.04,-17.65 26.14,-11.28 22.77,-7.08 19.41,-2.88 15.88,-0.95 12.35,0.98 10.15,1.29 7.94,1.59 4.57,2.00 1.20,2.40 0.89,2.51 0.59,2.62 0.26,2.66 -0.05,2.69 -0.37,2.64 -0.69,2.60 -0.99,2.48 -1.29,2.35 -1.56,2.17 -1.82,1.98 -2.03,1.73 -2.24,1.48 -2.39,1.19 -2.53,0.90 -2.60,0.58 -2.67,0.27 -2.67,-0.05 -2.66,-0.37 -2.58,-0.69 -2.49,-1.00 -2.34,-1.28 -2.18,-1.57 -1.96,-1.81 -1.74,-2.05 -1.47,-2.23 -1.20,-2.40 -1.20,-2.40 L -1.20,-2.40 Z"></path></g><g transform="translate(294 1528.6666666666663) rotate(0 335 -291.0000000000001)" stroke="none"><path fill="#ffffff" d="M -1.58,-2.11 Q -1.58,-2.11 0.40,-4.24 2.40,-6.38 5.49,-9.07 8.59,-11.76 13.49,-17.43 18.40,-23.09 25.53,-32.39 32.67,-41.69 46.59,-59.56 60.52,-77.43 78.54,-100.51 96.55,-123.60 125.01,-157.07 153.46,-190.54 181.08,-222.01 208.70,-253.48 238.88,-285.89 269.06,-318.30 291.64,-342.40 314.23,-366.50 333.02,-386.51 351.82,-406.53 363.19,-419.55 374.56,-432.57 379.68,-438.26 384.80,-443.95 384.42,-446.74 384.05,-449.53 384.54,-450.05 385.04,-450.57 385.64,-450.95 386.25,-451.34 386.93,-451.57 387.61,-451.80 388.33,-451.86 389.05,-451.92 389.76,-451.81 390.47,-451.70 391.13,-451.42 391.79,-451.14 392.37,-450.71 392.95,-450.28 393.40,-449.73 393.86,-449.17 394.17,-448.52 394.48,-447.87 394.63,-447.17 394.77,-446.47 394.75,-445.75 394.72,-445.03 394.52,-444.34 394.33,-443.64 393.97,-443.02 393.61,-442.40 384.62,-436.00 375.63,-429.61 360.25,-416.45 344.87,-403.29 325.13,-384.50 305.38,-365.71 277.49,-336.50 249.59,-307.29 223.44,-276.55 197.28,-245.82 169.49,-210.94 141.70,-176.06 120.15,-146.91 98.61,-117.76 80.31,-89.94 62.02,-62.12 47.97,-38.28 33.91,-14.44 25.10,2.49 16.29,19.43 12.54,27.64 8.78,35.84 6.59,36.26 4.39,36.69 7.90,34.43 11.41,32.18 23.11,18.47 34.80,4.76 58.29,-25.35 81.78,-55.46 114.89,-94.85 148.00,-134.23 200.10,-190.72 252.19,-247.21 314.09,-308.64 375.98,-370.06 427.22,-417.83 478.46,-465.60 525.13,-506.37 571.81,-547.15 600.24,-571.96 628.67,-596.78 640.63,-607.46 652.59,-618.14 652.95,-618.37 653.31,-618.59 653.72,-618.70 654.13,-618.80 654.55,-618.76 654.98,-618.73 655.37,-618.56 655.76,-618.39 656.08,-618.11 656.39,-617.82 656.60,-617.45 656.81,-617.08 656.89,-616.67 656.97,-616.25 656.91,-615.83 656.85,-615.41 656.66,-615.03 656.47,-614.65 656.17,-614.35 655.87,-614.05 655.49,-613.86 655.11,-613.67 654.69,-613.61 654.27,-613.56 653.85,-613.64 653.43,-613.72 653.07,-613.93 652.70,-614.13 652.41,-614.45 652.13,-614.77 651.96,-615.16 651.79,-615.55 651.76,-615.97 651.72,-616.40 651.83,-616.81 651.93,-617.22 652.16,-617.58 652.39,-617.94 652.72,-618.20 653.05,-618.47 653.45,-618.61 653.85,-618.76 654.27,-618.77 654.70,-618.78 655.11,-618.66 655.51,-618.53 655.86,-618.28 656.20,-618.04 656.45,-617.69 656.70,-617.35 656.82,-616.94 656.95,-616.53 656.93,-616.11 656.92,-615.68 656.77,-615.28 656.63,-614.89 656.36,-614.55 656.09,-614.22 656.10,-614.22 656.10,-614.22 644.17,-603.51 632.25,-592.79 604.49,-567.26 576.73,-541.73 531.76,-499.23 486.80,-456.73 436.08,-408.67 385.36,-360.61 323.70,-299.37 262.04,-238.13 210.12,-181.89 158.20,-125.65 125.16,-86.49 92.13,-47.33 68.21,-17.10 44.29,13.11 31.02,27.73 17.76,42.35 13.95,44.52 10.15,46.69 4.26,41.29 -1.62,35.88 2.17,24.97 5.96,14.06 14.92,-3.15 23.88,-20.37 38.10,-44.43 52.32,-68.50 70.79,-96.58 89.26,-124.66 110.93,-153.98 132.60,-183.31 160.49,-218.35 188.38,-253.40 214.76,-284.38 241.14,-315.36 269.23,-344.77 297.31,-374.18 317.27,-393.19 337.23,-412.21 353.05,-425.78 368.87,-439.35 376.46,-444.44 384.05,-449.53 384.54,-450.05 385.04,-450.57 385.64,-450.95 386.25,-451.34 386.93,-451.57 387.61,-451.80 388.33,-451.86 389.05,-451.92 389.76,-451.81 390.47,-451.70 391.13,-451.42 391.79,-451.14 392.37,-450.71 392.94,-450.28 393.40,-449.73 393.86,-449.17 394.17,-448.52 394.48,-447.87 394.63,-447.17 394.77,-446.47 394.75,-445.75 394.72,-445.03 394.52,-444.34 394.33,-443.65 393.97,-443.02 393.61,-442.40 394.36,-442.43 395.11,-442.47 389.36,-433.57 383.61,-424.67 372.11,-411.48 360.60,-398.29 341.81,-378.27 323.01,-358.26 300.44,-334.18 277.87,-310.09 247.80,-277.83 217.73,-245.56 190.18,-214.16 162.62,-182.76 134.32,-149.47 106.02,-116.19 87.89,-93.13 69.77,-70.08 55.49,-52.45 41.22,-34.81 33.39,-25.51 25.57,-16.21 19.64,-10.59 13.71,-4.96 10.25,-2.74 6.79,-0.51 4.19,0.79 1.58,2.11 1.30,2.27 1.03,2.43 0.72,2.51 0.42,2.60 0.10,2.62 -0.21,2.63 -0.52,2.56 -0.83,2.50 -1.12,2.36 -1.41,2.23 -1.66,2.02 -1.90,1.82 -2.09,1.57 -2.28,1.31 -2.41,1.02 -2.53,0.73 -2.58,0.41 -2.63,0.10 -2.61,-0.21 -2.58,-0.53 -2.48,-0.83 -2.38,-1.13 -2.21,-1.40 -2.04,-1.67 -1.81,-1.89 -1.58,-2.11 -1.58,-2.11 L -1.58,-2.11 Z"></path></g><g transform="translate(591.2681826885005 1594.4218641095479) rotate(6.225682079237382 -15.697721599736497 -72.99440543877438)" stroke="none"><path fill="#ffffff" d="M -2.58,0.51 Q -2.58,0.51 -5.53,-3.58 -8.49,-7.68 -9.87,-13.08 -11.25,-18.48 -13.66,-28.97 -16.08,-39.45 -18.45,-51.68 -20.83,-63.90 -23.89,-78.48 -26.96,-93.05 -28.63,-104.42 -30.30,-115.79 -30.92,-123.91 -31.54,-132.03 -32.17,-135.92 -32.79,-139.81 -33.13,-141.43 -33.46,-143.05 -33.48,-143.48 -33.50,-143.90 -33.38,-144.31 -33.26,-144.72 -33.02,-145.07 -32.78,-145.41 -32.44,-145.67 -32.10,-145.92 -31.69,-146.05 -31.29,-146.18 -30.86,-146.18 -30.44,-146.18 -30.04,-146.04 -29.63,-145.90 -29.30,-145.63 -28.96,-145.37 -28.73,-145.02 -28.49,-144.66 -28.39,-144.25 -28.28,-143.84 -28.30,-143.42 -28.33,-143.00 -28.49,-142.60 -28.65,-142.21 -28.93,-141.89 -29.21,-141.57 -29.58,-141.35 -29.94,-141.14 -30.36,-141.05 -30.78,-140.96 -31.20,-141.01 -31.62,-141.06 -32.00,-141.25 -32.39,-141.43 -32.69,-141.73 -33.00,-142.02 -33.19,-142.40 -33.39,-142.78 -33.45,-143.20 -33.52,-143.62 -33.44,-144.04 -33.37,-144.45 -33.17,-144.83 -32.96,-145.20 -32.65,-145.49 -32.34,-145.78 -31.95,-145.95 -31.56,-146.13 -31.14,-146.17 -30.72,-146.21 -30.30,-146.11 -29.89,-146.02 -29.53,-145.79 -29.17,-145.57 -28.90,-145.24 -28.62,-144.92 -28.47,-144.52 -28.32,-144.12 -28.32,-144.12 -28.32,-144.12 -27.98,-142.50 -27.63,-140.88 -26.67,-137.15 -25.70,-133.41 -22.57,-125.71 -19.44,-118.01 -16.54,-107.01 -13.64,-96.01 -10.19,-81.33 -6.74,-66.64 -4.41,-54.62 -2.07,-42.60 0.21,-32.14 2.50,-21.68 3.69,-16.02 4.88,-10.36 3.73,-5.44 2.58,-0.51 2.60,-0.20 2.63,0.11 2.57,0.42 2.52,0.74 2.40,1.03 2.27,1.32 2.08,1.57 1.89,1.83 1.64,2.03 1.39,2.23 1.11,2.36 0.82,2.50 0.51,2.56 0.20,2.62 -0.11,2.61 -0.43,2.59 -0.73,2.50 -1.04,2.41 -1.31,2.25 -1.59,2.09 -1.81,1.87 -2.04,1.65 -2.21,1.38 -2.38,1.11 -2.48,0.81 -2.58,0.51 -2.58,0.51 L -2.58,0.51 Z"></path></g><g transform="translate(528.3734409434946 1504.7684656975223) rotate(6.225682079237382 50.23270911915665 -69.06997503884031)" stroke="none"><path fill="#ffffff" d="M -2.24,-1.49 Q -2.24,-1.49 -0.94,-6.49 0.34,-11.50 5.30,-19.32 10.26,-27.13 17.04,-35.99 23.82,-44.85 32.97,-56.67 42.12,-68.48 50.63,-79.28 59.15,-90.07 68.00,-100.35 76.85,-110.64 83.24,-118.73 89.63,-126.83 92.16,-130.46 94.68,-134.10 94.97,-134.41 95.26,-134.73 95.63,-134.93 96.00,-135.14 96.42,-135.21 96.84,-135.29 97.26,-135.23 97.68,-135.16 98.06,-134.97 98.44,-134.78 98.73,-134.48 99.03,-134.17 99.22,-133.79 99.40,-133.41 99.45,-132.98 99.51,-132.56 99.42,-132.15 99.34,-131.73 99.13,-131.36 98.91,-130.99 98.59,-130.71 98.27,-130.43 97.88,-130.27 97.49,-130.11 97.07,-130.08 96.64,-130.05 96.23,-130.15 95.82,-130.26 95.46,-130.49 95.11,-130.72 94.85,-131.06 94.58,-131.39 94.44,-131.79 94.30,-132.19 94.29,-132.62 94.28,-133.04 94.41,-133.45 94.54,-133.85 94.79,-134.20 95.04,-134.54 95.39,-134.78 95.74,-135.03 96.15,-135.15 96.56,-135.27 96.98,-135.25 97.40,-135.24 97.80,-135.08 98.20,-134.93 98.53,-134.66 98.86,-134.39 99.08,-134.03 99.31,-133.67 99.40,-133.26 99.50,-132.85 99.46,-132.42 99.43,-132.00 99.25,-131.61 99.08,-131.22 99.08,-131.22 99.08,-131.22 96.77,-127.45 94.45,-123.68 89.45,-114.35 84.45,-105.02 77.13,-93.42 69.81,-81.82 61.49,-70.86 53.17,-59.89 43.97,-48.11 34.77,-36.33 28.09,-27.90 21.41,-19.48 15.95,-12.11 10.48,-4.74 6.36,-1.62 2.24,1.49 2.02,1.74 1.81,1.98 1.55,2.17 1.29,2.36 0.98,2.48 0.68,2.60 0.36,2.64 0.04,2.69 -0.27,2.65 -0.60,2.62 -0.90,2.51 -1.21,2.40 -1.48,2.22 -1.75,2.04 -1.97,1.80 -2.19,1.56 -2.34,1.28 -2.50,0.99 -2.58,0.68 -2.66,0.36 -2.67,0.04 -2.67,-0.28 -2.60,-0.59 -2.53,-0.91 -2.38,-1.20 -2.24,-1.49 -2.24,-1.49 L -2.24,-1.49 Z"></path></g><g transform="translate(624.5486503751677 1469.322272100737) rotate(6.225682079237382 13.343063359775897 52.587367359117025)" stroke="none"><path fill="#ffffff" d="M 2.61,-0.43 Q 2.61,-0.43 3.77,2.15 4.92,4.74 5.30,6.92 5.67,9.11 6.48,12.02 7.28,14.94 7.66,18.30 8.04,21.67 8.69,26.50 9.34,31.33 9.63,36.31 9.92,41.28 10.50,46.32 11.07,51.36 11.75,56.19 12.44,61.01 13.59,65.51 14.75,70.01 15.73,74.38 16.71,78.74 17.98,83.10 19.25,87.45 20.59,90.36 21.92,93.28 22.95,95.48 23.99,97.69 23.36,97.41 22.74,97.13 22.71,96.71 22.68,96.28 22.79,95.87 22.90,95.46 23.13,95.11 23.36,94.75 23.70,94.49 24.03,94.23 24.44,94.09 24.84,93.95 25.26,93.94 25.69,93.94 26.09,94.07 26.49,94.20 26.84,94.45 27.18,94.70 27.42,95.05 27.66,95.40 27.78,95.81 27.90,96.22 27.88,96.64 27.87,97.07 27.71,97.46 27.56,97.86 27.29,98.19 27.02,98.51 26.66,98.74 26.30,98.96 25.88,99.06 25.47,99.15 25.05,99.11 24.62,99.07 24.24,98.90 23.85,98.73 23.54,98.44 23.22,98.15 23.02,97.78 22.82,97.40 22.74,96.98 22.67,96.57 22.73,96.15 22.79,95.73 22.99,95.35 23.18,94.97 23.49,94.67 23.79,94.38 24.18,94.19 24.56,94.01 24.98,93.96 25.40,93.91 25.82,94.00 26.24,94.08 26.60,94.30 26.97,94.51 27.25,94.83 27.53,95.15 27.69,95.54 27.85,95.94 27.85,95.94 27.85,95.94 28.39,100.61 28.93,105.29 26.75,106.89 24.57,108.49 21.31,107.95 18.05,107.40 15.85,105.06 13.65,102.72 12.54,100.33 11.43,97.95 9.84,94.30 8.26,90.64 6.91,85.94 5.56,81.23 4.63,77.00 3.69,72.77 2.46,67.67 1.22,62.58 0.54,57.56 -0.14,52.55 -0.67,47.18 -1.19,41.82 -1.36,37.18 -1.54,32.53 -1.98,27.48 -2.43,22.43 -2.51,19.52 -2.58,16.61 -2.85,11.35 -3.12,6.08 -2.86,3.26 -2.61,0.43 -2.62,0.11 -2.64,-0.20 -2.57,-0.51 -2.51,-0.82 -2.38,-1.11 -2.24,-1.40 -2.04,-1.65 -1.84,-1.90 -1.58,-2.09 -1.33,-2.28 -1.04,-2.41 -0.74,-2.54 -0.43,-2.59 -0.11,-2.64 0.20,-2.62 0.51,-2.59 0.82,-2.49 1.12,-2.39 1.39,-2.22 1.66,-2.05 1.88,-1.82 2.11,-1.59 2.27,-1.32 2.43,-1.04 2.52,-0.74 2.61,-0.43 2.61,-0.43 L 2.61,-0.43 Z"></path></g><g transform="translate(663.4666099375459 1544.04196803155) rotate(6.225682079237382 10.203519039828507 11.773291199802316)" stroke="none"><path fill="#ffffff" d="M 1.86,1.86 Q 1.86,1.86 1.09,3.77 0.32,5.68 -0.46,8.49 -1.25,11.30 -1.39,13.45 -1.53,15.61 0.32,16.92 2.18,18.23 2.75,14.79 3.32,11.36 3.41,8.17 3.49,4.98 3.50,3.96 3.51,2.94 3.61,2.24 3.71,1.54 3.98,0.88 4.24,0.22 4.66,-0.34 5.07,-0.92 5.62,-1.38 6.16,-1.84 6.79,-2.15 7.43,-2.47 8.12,-2.63 8.81,-2.78 9.52,-2.76 10.23,-2.75 10.92,-2.56 11.60,-2.38 12.22,-2.04 12.84,-1.69 13.37,-1.21 13.89,-0.73 14.28,-0.14 14.67,0.45 14.90,1.11 15.14,1.78 15.21,2.49 15.28,3.20 16.85,5.36 18.42,7.53 20.41,8.66 22.41,9.80 23.19,8.88 23.98,7.96 24.13,7.56 24.28,7.16 24.55,6.83 24.81,6.50 25.17,6.27 25.53,6.04 25.95,5.94 26.36,5.84 26.78,5.88 27.21,5.92 27.59,6.09 27.98,6.26 28.30,6.54 28.61,6.83 28.82,7.20 29.03,7.57 29.11,7.99 29.19,8.40 29.13,8.82 29.07,9.25 28.88,9.63 28.69,10.00 28.38,10.30 28.08,10.60 27.70,10.79 27.32,10.98 26.90,11.03 26.48,11.09 26.06,11.01 25.64,10.92 25.27,10.71 24.90,10.50 24.62,10.18 24.34,9.87 24.17,9.48 24.01,9.08 23.97,8.66 23.94,8.24 24.05,7.82 24.15,7.41 24.38,7.06 24.61,6.70 24.95,6.43 25.28,6.17 25.68,6.03 26.08,5.88 26.50,5.87 26.93,5.86 27.33,5.99 27.74,6.11 28.08,6.36 28.43,6.61 28.67,6.96 28.92,7.31 29.04,7.71 29.16,8.12 29.15,8.55 29.14,8.97 29.14,8.97 29.14,8.97 28.99,13.42 28.85,17.86 26.17,19.47 23.50,21.07 20.87,20.94 18.25,20.82 14.76,18.64 11.27,16.46 9.48,14.33 7.68,12.20 6.89,10.16 6.10,8.12 4.81,5.53 3.51,2.94 3.61,2.24 3.71,1.54 3.98,0.88 4.24,0.22 4.66,-0.34 5.07,-0.92 5.61,-1.38 6.16,-1.84 6.79,-2.15 7.43,-2.47 8.12,-2.63 8.81,-2.78 9.52,-2.76 10.23,-2.75 10.92,-2.56 11.60,-2.38 12.22,-2.04 12.84,-1.69 13.36,-1.21 13.89,-0.73 14.28,-0.14 14.67,0.45 14.90,1.11 15.14,1.78 15.21,2.49 15.28,3.20 15.24,5.58 15.19,7.96 14.90,12.20 14.60,16.44 13.72,19.34 12.83,22.25 9.26,24.94 5.69,27.64 3.16,27.79 0.63,27.93 -2.45,26.46 -5.54,24.99 -7.59,22.23 -9.63,19.48 -10.21,16.26 -10.80,13.05 -10.06,9.21 -9.33,5.37 -7.53,2.55 -5.74,-0.26 -3.80,-1.06 -1.86,-1.86 -1.61,-2.05 -1.36,-2.25 -1.07,-2.38 -0.78,-2.51 -0.47,-2.57 -0.15,-2.62 0.15,-2.61 0.47,-2.59 0.77,-2.49 1.08,-2.40 1.35,-2.23 1.62,-2.07 1.84,-1.84 2.07,-1.62 2.23,-1.35 2.40,-1.08 2.49,-0.77 2.59,-0.47 2.61,-0.15 2.62,0.15 2.57,0.47 2.51,0.78 2.38,1.07 2.25,1.36 2.05,1.61 1.86,1.86 1.86,1.86 L 1.86,1.86 Z"></path></g><g transform="translate(912.4196107137077 1471.266214915228) rotate(6.225682079237382 10.203519039828507 11.773291199802316)" stroke="none"><path fill="#ffffff" d="M 1.86,1.86 Q 1.86,1.86 1.09,3.77 0.32,5.68 -0.46,8.49 -1.25,11.30 -1.39,13.45 -1.53,15.61 0.32,16.92 2.18,18.23 2.75,14.79 3.32,11.36 3.41,8.17 3.49,4.98 3.50,3.96 3.51,2.94 3.61,2.24 3.71,1.54 3.98,0.88 4.24,0.22 4.66,-0.34 5.07,-0.92 5.62,-1.38 6.16,-1.84 6.79,-2.15 7.43,-2.47 8.12,-2.63 8.81,-2.78 9.52,-2.76 10.23,-2.75 10.92,-2.56 11.60,-2.38 12.22,-2.04 12.84,-1.69 13.37,-1.21 13.89,-0.73 14.28,-0.14 14.67,0.45 14.90,1.11 15.14,1.78 15.21,2.49 15.28,3.20 16.85,5.36 18.42,7.53 20.41,8.66 22.41,9.80 23.19,8.88 23.98,7.96 24.13,7.56 24.28,7.16 24.55,6.83 24.81,6.50 25.17,6.27 25.53,6.04 25.95,5.94 26.36,5.84 26.78,5.88 27.21,5.92 27.59,6.09 27.98,6.26 28.30,6.54 28.61,6.83 28.82,7.20 29.03,7.57 29.11,7.99 29.19,8.40 29.13,8.82 29.07,9.25 28.88,9.63 28.69,10.00 28.38,10.30 28.08,10.60 27.70,10.79 27.32,10.98 26.90,11.03 26.48,11.09 26.06,11.01 25.64,10.92 25.27,10.71 24.90,10.50 24.62,10.18 24.34,9.87 24.17,9.48 24.01,9.08 23.97,8.66 23.94,8.24 24.05,7.82 24.15,7.41 24.38,7.06 24.61,6.70 24.95,6.43 25.28,6.17 25.68,6.03 26.08,5.88 26.50,5.87 26.93,5.86 27.33,5.99 27.74,6.11 28.08,6.36 28.43,6.61 28.67,6.96 28.92,7.31 29.04,7.71 29.16,8.12 29.15,8.55 29.14,8.97 29.14,8.97 29.14,8.97 28.99,13.42 28.85,17.86 26.17,19.47 23.50,21.07 20.87,20.94 18.25,20.82 14.76,18.64 11.27,16.46 9.48,14.33 7.68,12.20 6.89,10.16 6.10,8.12 4.81,5.53 3.51,2.94 3.61,2.24 3.71,1.54 3.98,0.88 4.24,0.22 4.66,-0.34 5.07,-0.92 5.61,-1.38 6.16,-1.84 6.79,-2.15 7.43,-2.47 8.12,-2.63 8.81,-2.78 9.52,-2.76 10.23,-2.75 10.92,-2.56 11.60,-2.38 12.22,-2.04 12.84,-1.69 13.36,-1.21 13.89,-0.73 14.28,-0.14 14.67,0.45 14.90,1.11 15.14,1.78 15.21,2.49 15.28,3.20 15.24,5.58 15.19,7.96 14.90,12.20 14.60,16.44 13.72,19.34 12.83,22.25 9.26,24.94 5.69,27.64 3.16,27.79 0.63,27.93 -2.45,26.46 -5.54,24.99 -7.59,22.23 -9.63,19.48 -10.21,16.26 -10.80,13.05 -10.06,9.21 -9.33,5.37 -7.53,2.55 -5.74,-0.26 -3.80,-1.06 -1.86,-1.86 -1.61,-2.05 -1.36,-2.25 -1.07,-2.38 -0.78,-2.51 -0.47,-2.57 -0.15,-2.62 0.15,-2.61 0.47,-2.59 0.77,-2.49 1.08,-2.40 1.35,-2.23 1.62,-2.07 1.84,-1.84 2.07,-1.62 2.23,-1.35 2.40,-1.08 2.49,-0.77 2.59,-0.47 2.61,-0.15 2.62,0.15 2.57,0.47 2.51,0.78 2.38,1.07 2.25,1.36 2.05,1.61 1.86,1.86 1.86,1.86 L 1.86,1.86 Z"></path></g><g transform="translate(925.9239057507712 1378.8680295466509) rotate(355.87236203530813 13.343063359775897 52.587367359117025)" stroke="none"><path fill="#ffffff" d="M 2.61,-0.43 Q 2.61,-0.43 3.77,2.15 4.92,4.74 5.30,6.92 5.67,9.11 6.48,12.02 7.28,14.94 7.66,18.30 8.04,21.67 8.69,26.50 9.34,31.33 9.63,36.31 9.92,41.28 10.50,46.32 11.07,51.36 11.75,56.19 12.44,61.01 13.59,65.51 14.75,70.01 15.73,74.38 16.71,78.74 17.98,83.10 19.25,87.45 20.59,90.36 21.92,93.28 22.95,95.48 23.99,97.69 23.36,97.41 22.74,97.13 22.71,96.71 22.68,96.28 22.79,95.87 22.90,95.46 23.13,95.11 23.36,94.75 23.70,94.49 24.03,94.23 24.44,94.09 24.84,93.95 25.26,93.94 25.69,93.94 26.09,94.07 26.49,94.20 26.84,94.45 27.18,94.70 27.42,95.05 27.66,95.40 27.78,95.81 27.90,96.22 27.88,96.64 27.87,97.07 27.71,97.46 27.56,97.86 27.29,98.19 27.02,98.51 26.66,98.74 26.30,98.96 25.88,99.06 25.47,99.15 25.05,99.11 24.62,99.07 24.24,98.90 23.85,98.73 23.54,98.44 23.22,98.15 23.02,97.78 22.82,97.40 22.74,96.98 22.67,96.57 22.73,96.15 22.79,95.73 22.99,95.35 23.18,94.97 23.49,94.67 23.79,94.38 24.18,94.19 24.56,94.01 24.98,93.96 25.40,93.91 25.82,94.00 26.24,94.08 26.60,94.30 26.97,94.51 27.25,94.83 27.53,95.15 27.69,95.54 27.85,95.94 27.85,95.94 27.85,95.94 28.39,100.61 28.93,105.29 26.75,106.89 24.57,108.49 21.31,107.95 18.05,107.40 15.85,105.06 13.65,102.72 12.54,100.33 11.43,97.95 9.84,94.30 8.26,90.64 6.91,85.94 5.56,81.23 4.63,77.00 3.69,72.77 2.46,67.67 1.22,62.58 0.54,57.56 -0.14,52.55 -0.67,47.18 -1.19,41.82 -1.36,37.18 -1.54,32.53 -1.98,27.48 -2.43,22.43 -2.51,19.52 -2.58,16.61 -2.85,11.35 -3.12,6.08 -2.86,3.26 -2.61,0.43 -2.62,0.11 -2.64,-0.20 -2.57,-0.51 -2.51,-0.82 -2.38,-1.11 -2.24,-1.40 -2.04,-1.65 -1.84,-1.90 -1.58,-2.09 -1.33,-2.28 -1.04,-2.41 -0.74,-2.54 -0.43,-2.59 -0.11,-2.64 0.20,-2.62 0.51,-2.59 0.82,-2.49 1.12,-2.39 1.39,-2.22 1.66,-2.05 1.88,-1.82 2.11,-1.59 2.27,-1.32 2.43,-1.04 2.52,-0.74 2.61,-0.43 2.61,-0.43 L 2.61,-0.43 Z"></path></g><g transform="translate(750.0370896254763 1543.3068377200466) rotate(6.225682079237382 0.9586895541694958 -10.425748901588804)" stroke="none"><path fill="#ffffff" d="M -0.25,2.68 Q -0.25,2.68 -1.78,3.31 -3.31,3.94 -6.60,1.97 -9.88,0.00 -10.94,-1.84 -12.00,-3.69 -12.54,-6.23 -13.08,-8.78 -13.09,-11.02 -13.10,-13.27 -12.52,-15.74 -11.95,-18.21 -10.77,-20.18 -9.60,-22.15 -7.49,-23.50 -5.38,-24.84 -3.05,-25.17 -0.72,-25.49 1.92,-24.90 4.58,-24.32 7.07,-23.08 9.55,-21.83 11.45,-20.10 13.36,-18.37 14.75,-15.43 16.14,-12.49 16.53,-9.86 16.93,-7.23 16.05,-3.95 15.18,-0.66 12.54,1.56 9.89,3.79 6.32,3.55 2.75,3.30 0.18,2.44 -2.37,1.57 -2.77,1.42 -3.17,1.27 -3.50,1.01 -3.83,0.74 -4.06,0.38 -4.29,0.02 -4.39,-0.38 -4.49,-0.79 -4.46,-1.21 -4.42,-1.64 -4.26,-2.03 -4.09,-2.42 -3.80,-2.73 -3.52,-3.05 -3.15,-3.26 -2.78,-3.47 -2.36,-3.55 -1.95,-3.63 -1.52,-3.57 -1.10,-3.51 -0.72,-3.32 -0.34,-3.13 -0.04,-2.83 0.25,-2.53 0.44,-2.15 0.63,-1.77 0.68,-1.35 0.74,-0.93 0.66,-0.51 0.58,-0.09 0.37,0.27 0.16,0.64 -0.15,0.92 -0.46,1.20 -0.85,1.37 -1.24,1.54 -1.67,1.57 -2.09,1.61 -2.50,1.50 -2.92,1.40 -3.27,1.17 -3.63,0.94 -3.90,0.61 -4.16,0.28 -4.31,-0.11 -4.46,-0.51 -4.47,-0.93 -4.48,-1.36 -4.35,-1.76 -4.23,-2.17 -3.98,-2.52 -3.73,-2.86 -3.39,-3.11 -3.04,-3.36 -2.63,-3.48 -2.23,-3.60 -1.80,-3.59 -1.38,-3.58 -1.38,-3.58 -1.38,-3.58 1.75,-4.86 4.88,-6.15 4.73,-8.69 4.59,-11.23 3.04,-13.59 1.50,-15.94 -1.39,-16.09 -4.30,-16.24 -4.63,-13.29 -4.96,-10.33 -3.71,-7.41 -2.46,-4.49 -1.10,-3.59 0.25,-2.68 0.57,-2.61 0.89,-2.54 1.18,-2.40 1.47,-2.26 1.72,-2.05 1.97,-1.84 2.16,-1.57 2.35,-1.31 2.48,-1.01 2.60,-0.71 2.65,-0.39 2.70,-0.06 2.66,0.25 2.63,0.57 2.53,0.88 2.42,1.19 2.24,1.46 2.06,1.73 1.82,1.96 1.59,2.18 1.30,2.34 1.02,2.49 0.70,2.58 0.39,2.67 0.06,2.68 -0.25,2.68 -0.25,2.68 L -0.25,2.68 Z"></path></g><g transform="translate(691.855676286008 1540.3838109030753) rotate(6.225682079237382 11.743947038570695 2.6363962739649196)" stroke="none"><path fill="#ffffff" d="M 1.33,-2.32 Q 1.33,-2.32 3.29,-1.56 5.24,-0.80 7.68,1.03 10.11,2.87 12.10,4.56 14.10,6.24 15.74,7.80 17.38,9.35 17.48,6.30 17.58,3.24 18.53,-0.14 19.49,-3.54 20.12,-5.65 20.75,-7.76 20.87,-8.16 21.00,-8.57 21.24,-8.92 21.49,-9.26 21.84,-9.51 22.18,-9.76 22.59,-9.88 22.99,-10.01 23.42,-10.00 23.84,-9.98 24.24,-9.84 24.64,-9.69 24.97,-9.43 25.30,-9.16 25.53,-8.80 25.76,-8.44 25.87,-8.03 25.97,-7.62 25.93,-7.19 25.90,-6.77 25.73,-6.38 25.56,-5.99 25.28,-5.67 25.00,-5.36 24.63,-5.15 24.26,-4.94 23.84,-4.86 23.42,-4.78 23.00,-4.84 22.58,-4.89 22.20,-5.08 21.82,-5.27 21.52,-5.57 21.22,-5.87 21.03,-6.25 20.84,-6.63 20.78,-7.05 20.72,-7.47 20.80,-7.89 20.88,-8.31 21.09,-8.68 21.30,-9.05 21.62,-9.33 21.93,-9.62 22.33,-9.79 22.72,-9.95 23.14,-9.99 23.56,-10.02 23.98,-9.92 24.39,-9.82 24.75,-9.59 25.10,-9.36 25.37,-9.03 25.64,-8.70 25.78,-8.30 25.93,-7.90 25.94,-7.47 25.95,-7.05 25.95,-7.05 25.95,-7.05 25.91,-2.78 25.87,1.48 25.21,4.94 24.55,8.39 23.60,11.06 22.65,13.73 20.26,15.23 17.88,16.72 15.74,15.84 13.60,14.96 11.67,13.12 9.74,11.28 7.84,9.66 5.95,8.05 3.93,6.49 1.92,4.94 0.29,3.63 -1.33,2.32 -1.59,2.12 -1.85,1.93 -2.05,1.68 -2.26,1.43 -2.40,1.14 -2.54,0.84 -2.60,0.53 -2.66,0.21 -2.65,-0.10 -2.64,-0.42 -2.55,-0.73 -2.46,-1.04 -2.30,-1.32 -2.14,-1.60 -1.91,-1.84 -1.69,-2.07 -1.42,-2.24 -1.14,-2.41 -0.84,-2.52 -0.53,-2.62 -0.21,-2.65 0.10,-2.67 0.42,-2.62 0.74,-2.57 1.04,-2.44 1.33,-2.32 1.33,-2.32 L 1.33,-2.32 Z"></path></g><g transform="translate(730.7221058829796 1546.5935132541665) rotate(6.225682079237382 -2.4149728739610055 -8.3702846104419)" stroke="none"><path fill="#ffffff" d="M -3.60,1.43 Q -3.60,1.43 -4.24,-0.92 -4.88,-3.28 -5.33,-6.37 -5.78,-9.46 -6.08,-13.19 -6.38,-16.92 -6.36,-17.34 -6.34,-17.77 -6.18,-18.16 -6.03,-18.56 -5.76,-18.88 -5.48,-19.21 -5.12,-19.43 -4.76,-19.65 -4.34,-19.74 -3.93,-19.84 -3.50,-19.79 -3.08,-19.75 -2.69,-19.57 -2.31,-19.40 -2.00,-19.11 -1.69,-18.82 -1.49,-18.44 -1.29,-18.07 -1.22,-17.65 -1.14,-17.23 -1.21,-16.81 -1.28,-16.39 -1.47,-16.01 -1.67,-15.64 -1.98,-15.34 -2.29,-15.05 -2.67,-14.87 -3.06,-14.69 -3.48,-14.64 -3.90,-14.59 -4.32,-14.68 -4.73,-14.77 -5.10,-14.99 -5.46,-15.21 -5.74,-15.53 -6.02,-15.85 -6.17,-16.24 -6.33,-16.64 -6.36,-17.06 -6.38,-17.49 -6.27,-17.90 -6.16,-18.31 -5.92,-18.66 -5.69,-19.01 -5.35,-19.27 -5.01,-19.53 -4.61,-19.67 -4.21,-19.81 -3.78,-19.81 -3.36,-19.81 -2.96,-19.68 -2.55,-19.54 -2.21,-19.29 -1.87,-19.03 -1.63,-18.68 -1.39,-18.33 -1.28,-17.92 -1.16,-17.51 -1.16,-17.51 -1.16,-17.51 -0.44,-14.00 0.26,-10.48 0.76,-7.40 1.26,-4.33 1.44,-1.88 1.61,0.55 1.63,0.87 1.64,1.18 1.58,1.50 1.52,1.81 1.38,2.10 1.25,2.39 1.05,2.64 0.85,2.89 0.59,3.08 0.34,3.27 0.05,3.40 -0.23,3.53 -0.55,3.58 -0.86,3.64 -1.18,3.61 -1.50,3.59 -1.80,3.49 -2.11,3.39 -2.38,3.22 -2.65,3.05 -2.87,2.83 -3.10,2.60 -3.26,2.32 -3.42,2.05 -3.51,1.74 -3.60,1.43 -3.60,1.43 L -3.60,1.43 Z"></path></g><g transform="translate(726.5720381343704 1515.6319636764474) rotate(6.225682079237382 0 0.2396723885423171)" stroke="none"><path fill="#ffffff" d="M 2.61,-0.81 Q 2.61,-0.81 2.65,-0.16 2.69,0.49 2.42,1.09 2.15,1.68 1.63,2.09 1.12,2.49 0.47,2.61 -0.16,2.73 -0.79,2.53 -1.41,2.34 -1.87,1.87 -2.34,1.41 -2.53,0.79 -2.73,0.16 -2.61,-0.47 -2.49,-1.12 -2.09,-1.63 -1.68,-2.15 -1.09,-2.42 -0.49,-2.69 0.16,-2.65 0.81,-2.61 1.37,-2.27 1.93,-1.93 2.27,-1.37 L 2.61,-0.81 Z"></path></g><g transform="translate(862.8765707486123 1508.5500901641462) rotate(6.225682079237382 0.9586895541694958 -10.425748901588804)" stroke="none"><path fill="#ffffff" d="M -0.25,2.68 Q -0.25,2.68 -1.78,3.31 -3.31,3.94 -6.60,1.97 -9.88,0.00 -10.94,-1.84 -12.00,-3.69 -12.54,-6.23 -13.08,-8.78 -13.09,-11.02 -13.10,-13.27 -12.52,-15.74 -11.95,-18.21 -10.77,-20.18 -9.60,-22.15 -7.49,-23.50 -5.38,-24.84 -3.05,-25.17 -0.72,-25.49 1.92,-24.90 4.58,-24.32 7.07,-23.08 9.55,-21.83 11.45,-20.10 13.36,-18.37 14.75,-15.43 16.14,-12.49 16.53,-9.86 16.93,-7.23 16.05,-3.95 15.18,-0.66 12.54,1.56 9.89,3.79 6.32,3.55 2.75,3.30 0.18,2.44 -2.37,1.57 -2.77,1.42 -3.17,1.27 -3.50,1.01 -3.83,0.74 -4.06,0.38 -4.29,0.02 -4.39,-0.38 -4.49,-0.79 -4.46,-1.21 -4.42,-1.64 -4.26,-2.03 -4.09,-2.42 -3.80,-2.73 -3.52,-3.05 -3.15,-3.26 -2.78,-3.47 -2.36,-3.55 -1.95,-3.63 -1.52,-3.57 -1.10,-3.51 -0.72,-3.32 -0.34,-3.13 -0.04,-2.83 0.25,-2.53 0.44,-2.15 0.63,-1.77 0.68,-1.35 0.74,-0.93 0.66,-0.51 0.58,-0.09 0.37,0.27 0.16,0.64 -0.15,0.92 -0.46,1.20 -0.85,1.37 -1.24,1.54 -1.67,1.57 -2.09,1.61 -2.50,1.50 -2.92,1.40 -3.27,1.17 -3.63,0.94 -3.90,0.61 -4.16,0.28 -4.31,-0.11 -4.46,-0.51 -4.47,-0.93 -4.48,-1.36 -4.35,-1.76 -4.23,-2.17 -3.98,-2.52 -3.73,-2.86 -3.39,-3.11 -3.04,-3.36 -2.63,-3.48 -2.23,-3.60 -1.80,-3.59 -1.38,-3.58 -1.38,-3.58 -1.38,-3.58 1.75,-4.86 4.88,-6.15 4.73,-8.69 4.59,-11.23 3.04,-13.59 1.50,-15.94 -1.39,-16.09 -4.30,-16.24 -4.63,-13.29 -4.96,-10.33 -3.71,-7.41 -2.46,-4.49 -1.10,-3.59 0.25,-2.68 0.57,-2.61 0.89,-2.54 1.18,-2.40 1.47,-2.26 1.72,-2.05 1.97,-1.84 2.16,-1.57 2.35,-1.31 2.48,-1.01 2.60,-0.71 2.65,-0.39 2.70,-0.06 2.66,0.25 2.63,0.57 2.53,0.88 2.42,1.19 2.24,1.46 2.06,1.73 1.82,1.96 1.59,2.18 1.30,2.34 1.02,2.49 0.70,2.58 0.39,2.67 0.06,2.68 -0.25,2.68 -0.25,2.68 L -0.25,2.68 Z"></path></g><g transform="translate(878.8949728097032 1479.750318004724) rotate(12.64753046275537 7.055700336121163 10.614227462165104)" stroke="none"><path fill="#ffffff" d="M 2.22,-1.48 Q 2.22,-1.48 3.81,0.21 5.39,1.90 7.32,4.68 9.24,7.46 10.99,10.29 12.74,13.12 14.29,16.11 15.85,19.10 16.03,19.49 16.20,19.88 16.24,20.30 16.28,20.72 16.18,21.13 16.09,21.55 15.86,21.91 15.64,22.27 15.31,22.54 14.99,22.81 14.59,22.97 14.19,23.12 13.77,23.14 13.34,23.15 12.94,23.04 12.53,22.92 12.18,22.67 11.83,22.43 11.58,22.09 11.32,21.75 11.19,21.34 11.06,20.94 11.07,20.52 11.07,20.09 11.21,19.69 11.35,19.29 11.62,18.95 11.88,18.62 12.23,18.38 12.59,18.15 13.00,18.04 13.41,17.93 13.83,17.96 14.26,17.99 14.65,18.15 15.04,18.31 15.36,18.59 15.68,18.87 15.90,19.24 16.11,19.60 16.20,20.02 16.28,20.44 16.23,20.86 16.18,21.28 16.00,21.66 15.82,22.05 15.52,22.35 15.22,22.66 14.85,22.85 14.47,23.05 14.05,23.11 13.63,23.17 13.21,23.10 12.79,23.03 12.42,22.82 12.04,22.62 11.76,22.31 11.47,21.99 11.47,21.99 11.47,21.99 9.31,19.34 7.16,16.68 5.39,14.03 3.61,11.39 1.65,8.55 -0.31,5.71 -1.27,3.59 -2.22,1.48 -2.37,1.19 -2.51,0.90 -2.59,0.59 -2.66,0.27 -2.65,-0.04 -2.65,-0.36 -2.57,-0.67 -2.48,-0.99 -2.33,-1.27 -2.17,-1.55 -1.96,-1.79 -1.74,-2.03 -1.47,-2.21 -1.20,-2.39 -0.90,-2.50 -0.59,-2.61 -0.27,-2.64 0.04,-2.67 0.36,-2.63 0.68,-2.59 0.98,-2.47 1.28,-2.35 1.54,-2.16 1.80,-1.97 2.01,-1.73 2.22,-1.48 2.22,-1.48 L 2.22,-1.48 Z"></path></g><g transform="translate(887.694862271147 1491.8236287706113) rotate(12.64753046275537 3.3744653781450324 -5.215082857133211)" stroke="none"><path fill="#ffffff" d="M -2.63,-0.53 Q -2.63,-0.53 -2.47,-2.48 -2.30,-4.44 -1.02,-7.00 0.25,-9.57 2.97,-11.11 5.69,-12.66 6.10,-12.78 6.51,-12.90 6.93,-12.88 7.36,-12.87 7.76,-12.71 8.15,-12.56 8.48,-12.29 8.81,-12.02 9.03,-11.66 9.26,-11.30 9.36,-10.89 9.46,-10.48 9.42,-10.05 9.38,-9.63 9.20,-9.24 9.03,-8.85 8.75,-8.54 8.46,-8.23 8.09,-8.02 7.71,-7.82 7.30,-7.74 6.88,-7.67 6.46,-7.73 6.04,-7.79 5.66,-7.98 5.28,-8.18 4.98,-8.48 4.68,-8.78 4.50,-9.17 4.32,-9.55 4.26,-9.97 4.21,-10.39 4.30,-10.81 4.38,-11.23 4.59,-11.59 4.81,-11.96 5.13,-12.24 5.45,-12.52 5.84,-12.68 6.23,-12.85 6.65,-12.88 7.08,-12.91 7.49,-12.80 7.90,-12.69 8.26,-12.46 8.61,-12.23 8.87,-11.89 9.14,-11.56 9.28,-11.16 9.42,-10.76 9.43,-10.33 9.43,-9.91 9.30,-9.50 9.18,-9.10 8.92,-8.76 8.67,-8.41 8.32,-8.17 7.98,-7.93 7.98,-7.93 7.98,-7.93 5.91,-5.55 3.85,-3.17 3.24,-1.32 2.63,0.53 2.53,0.84 2.43,1.15 2.26,1.42 2.08,1.70 1.85,1.92 1.61,2.15 1.33,2.31 1.05,2.47 0.74,2.56 0.43,2.65 0.10,2.67 -0.21,2.68 -0.53,2.62 -0.85,2.55 -1.14,2.41 -1.43,2.27 -1.69,2.07 -1.94,1.86 -2.13,1.60 -2.33,1.34 -2.45,1.04 -2.58,0.75 -2.63,0.42 -2.69,0.10 -2.66,-0.21 -2.63,-0.53 -2.63,-0.53 L -2.63,-0.53 Z"></path></g><g transform="translate(982.6181300542066 1473.0946582037077) rotate(6.225682079237382 -9.631881943943199 -6.987835920115685)" stroke="none"><path fill="#ffffff" d="M 1.20,2.40 Q 1.20,2.40 0.17,3.60 -0.85,4.80 -3.35,5.55 -5.84,6.31 -8.19,6.16 -10.53,6.02 -13.30,4.76 -16.08,3.51 -17.92,2.11 -19.77,0.71 -21.06,-0.97 -22.36,-2.67 -22.63,-5.04 -22.90,-7.41 -22.25,-9.74 -21.61,-12.07 -20.37,-14.18 -19.14,-16.30 -17.16,-17.84 -15.19,-19.38 -12.38,-19.64 -9.56,-19.90 -7.03,-17.72 -4.50,-15.54 -3.70,-12.48 -2.91,-9.43 -3.49,-6.70 -4.07,-3.97 -7.90,-1.91 -11.74,0.13 -12.16,0.20 -12.58,0.27 -13.00,0.20 -13.42,0.14 -13.79,-0.05 -14.17,-0.24 -14.46,-0.55 -14.76,-0.86 -14.94,-1.24 -15.12,-1.63 -15.17,-2.05 -15.22,-2.47 -15.13,-2.89 -15.04,-3.30 -14.82,-3.67 -14.61,-4.03 -14.28,-4.31 -13.96,-4.59 -13.57,-4.75 -13.17,-4.91 -12.75,-4.93 -12.33,-4.96 -11.92,-4.85 -11.51,-4.74 -11.15,-4.50 -10.80,-4.26 -10.54,-3.93 -10.28,-3.59 -10.14,-3.19 -10.00,-2.79 -10.00,-2.36 -10.00,-1.94 -10.13,-1.53 -10.26,-1.13 -10.52,-0.79 -10.77,-0.45 -11.12,-0.21 -11.47,0.02 -11.88,0.14 -12.29,0.25 -12.72,0.23 -13.14,0.21 -13.54,0.06 -13.93,-0.09 -14.26,-0.36 -14.58,-0.63 -14.81,-1.00 -15.03,-1.36 -15.12,-1.77 -15.21,-2.19 -15.17,-2.61 -15.13,-3.03 -14.95,-3.42 -14.78,-3.81 -14.49,-4.12 -14.20,-4.43 -13.82,-4.63 -13.45,-4.83 -13.45,-4.83 -13.45,-4.83 -11.96,-6.08 -10.47,-7.34 -11.29,-9.75 -12.11,-12.17 -13.46,-10.08 -14.81,-8.00 -14.00,-5.96 -13.19,-3.92 -11.01,-2.81 -8.84,-1.69 -6.59,-1.94 -4.35,-2.20 -2.78,-2.30 -1.20,-2.40 -0.89,-2.51 -0.59,-2.62 -0.26,-2.66 0.05,-2.69 0.37,-2.64 0.69,-2.60 0.99,-2.48 1.29,-2.35 1.56,-2.17 1.82,-1.98 2.03,-1.73 2.24,-1.48 2.39,-1.19 2.53,-0.90 2.60,-0.58 2.67,-0.27 2.67,0.05 2.66,0.37 2.58,0.69 2.49,1.00 2.34,1.28 2.18,1.57 1.96,1.81 1.74,2.05 1.47,2.23 1.20,2.40 1.20,2.40 L 1.20,2.40 Z"></path></g><g transform="translate(989.5378239485681 1472.0925266717227) rotate(6.225682079237382 2.4551855935537787 -13.031369688864743)" stroke="none"><path fill="#ffffff" d="M -1.22,-2.44 Q -1.22,-2.44 0.33,-3.68 1.88,-4.92 0.18,-7.01 -1.51,-9.10 -3.48,-9.98 -5.45,-10.85 -6.23,-13.18 -7.00,-15.51 -5.77,-17.87 -4.54,-20.23 -2.97,-21.90 -1.39,-23.58 1.84,-25.64 5.07,-27.70 5.43,-27.93 5.79,-28.16 6.20,-28.27 6.61,-28.37 7.04,-28.34 7.46,-28.31 7.85,-28.14 8.24,-27.98 8.56,-27.70 8.88,-27.41 9.09,-27.05 9.30,-26.68 9.38,-26.26 9.47,-25.84 9.41,-25.42 9.36,-25.00 9.17,-24.62 8.98,-24.24 8.68,-23.93 8.38,-23.63 8.01,-23.44 7.63,-23.25 7.20,-23.19 6.78,-23.13 6.37,-23.21 5.95,-23.29 5.58,-23.49 5.21,-23.70 4.92,-24.01 4.64,-24.33 4.46,-24.72 4.29,-25.11 4.26,-25.53 4.22,-25.95 4.32,-26.37 4.42,-26.78 4.65,-27.14 4.87,-27.50 5.20,-27.77 5.53,-28.04 5.93,-28.18 6.33,-28.33 6.76,-28.35 7.18,-28.36 7.59,-28.24 7.99,-28.12 8.34,-27.87 8.69,-27.62 8.94,-27.28 9.19,-26.94 9.31,-26.53 9.44,-26.13 9.43,-25.70 9.42,-25.28 9.28,-24.88 9.13,-24.48 8.87,-24.14 8.61,-23.81 8.61,-23.81 8.61,-23.81 6.91,-21.36 5.21,-18.91 3.52,-17.24 1.84,-15.56 4.04,-14.98 6.24,-14.40 8.64,-12.79 11.05,-11.19 11.66,-8.69 12.27,-6.20 11.17,-4.02 10.06,-1.85 7.56,-0.20 5.06,1.44 3.14,1.94 1.22,2.44 0.91,2.55 0.60,2.66 0.27,2.69 -0.05,2.73 -0.37,2.68 -0.70,2.63 -1.01,2.51 -1.31,2.39 -1.58,2.20 -1.85,2.00 -2.06,1.75 -2.27,1.50 -2.42,1.21 -2.57,0.91 -2.64,0.59 -2.71,0.27 -2.71,-0.05 -2.70,-0.38 -2.61,-0.70 -2.53,-1.01 -2.37,-1.30 -2.21,-1.59 -1.99,-1.83 -1.76,-2.07 -1.49,-2.26 -1.22,-2.44 -1.22,-2.44 L -1.22,-2.44 Z"></path></g><g transform="translate(575.2622744300211 1512.723732586251) rotate(6.225682079237382 12.027479557465313 -11.853168259531117)" stroke="none"><path fill="#ffffff" d="M -1.77,-1.99 Q -1.77,-1.99 1.08,-5.83 3.94,-9.67 7.07,-12.30 10.20,-14.93 13.81,-17.75 17.43,-20.58 18.79,-21.99 20.15,-23.41 20.49,-23.66 20.83,-23.92 21.23,-24.06 21.63,-24.19 22.06,-24.19 22.48,-24.19 22.88,-24.05 23.29,-23.92 23.62,-23.66 23.96,-23.40 24.20,-23.05 24.44,-22.70 24.55,-22.29 24.67,-21.88 24.64,-21.46 24.62,-21.03 24.46,-20.64 24.30,-20.24 24.03,-19.92 23.75,-19.59 23.39,-19.38 23.02,-19.16 22.61,-19.07 22.19,-18.98 21.77,-19.02 21.35,-19.07 20.96,-19.25 20.58,-19.43 20.27,-19.72 19.96,-20.01 19.76,-20.39 19.56,-20.76 19.50,-21.18 19.43,-21.60 19.50,-22.02 19.57,-22.44 19.77,-22.81 19.96,-23.19 20.27,-23.48 20.58,-23.77 20.97,-23.95 21.35,-24.13 21.78,-24.18 22.20,-24.22 22.61,-24.13 23.03,-24.04 23.39,-23.82 23.76,-23.60 24.03,-23.27 24.31,-22.95 24.46,-22.55 24.62,-22.16 24.64,-21.74 24.66,-21.31 24.55,-20.90 24.44,-20.49 24.20,-20.14 23.96,-19.79 23.96,-19.79 23.96,-19.79 22.62,-18.36 21.28,-16.93 18.54,-13.06 15.80,-9.19 12.94,-5.97 10.08,-2.75 5.92,-0.37 1.77,1.99 1.50,2.18 1.24,2.36 0.94,2.47 0.63,2.59 0.31,2.63 -0.00,2.67 -0.32,2.63 -0.63,2.59 -0.94,2.47 -1.24,2.36 -1.50,2.18 -1.77,1.99 -1.98,1.75 -2.19,1.51 -2.34,1.23 -2.49,0.94 -2.57,0.63 -2.65,0.32 -2.65,-0.00 -2.65,-0.32 -2.57,-0.63 -2.49,-0.94 -2.34,-1.23 -2.19,-1.51 -1.98,-1.75 -1.77,-1.99 -1.77,-1.99 L -1.77,-1.99 Z"></path></g><g transform="translate(755.8242527788193 1520.3180670419536) rotate(341.57886033130234 51.12844288478891 -99.63669595888535)" stroke="none"><path fill="#ffffff" d="M -2.46,1.70 Q -2.46,1.70 -1.89,-1.65 -1.32,-5.01 -0.37,-8.13 0.57,-11.25 1.43,-15.04 2.29,-18.82 3.81,-25.59 5.33,-32.36 7.21,-41.34 9.09,-50.33 11.16,-59.36 13.23,-68.39 15.64,-79.39 18.06,-90.39 20.66,-100.56 23.27,-110.74 25.92,-121.19 28.56,-131.64 31.26,-141.76 33.96,-151.89 36.04,-160.01 38.12,-168.12 39.95,-174.95 41.78,-181.79 42.84,-186.39 43.90,-190.99 45.03,-194.35 46.17,-197.70 46.94,-200.04 47.70,-202.37 47.97,-203.06 48.24,-203.75 48.66,-204.35 49.09,-204.95 49.65,-205.44 50.21,-205.92 50.86,-206.26 51.52,-206.59 52.24,-206.76 52.96,-206.93 53.70,-206.92 54.43,-206.92 55.15,-206.73 55.86,-206.55 56.51,-206.20 57.16,-205.85 57.71,-205.35 58.26,-204.86 58.67,-204.25 59.09,-203.64 59.34,-202.94 59.60,-202.25 59.68,-201.52 59.76,-200.78 59.66,-200.05 59.57,-199.32 58.35,-194.02 57.13,-188.72 55.76,-182.90 54.39,-177.08 53.17,-171.11 51.94,-165.15 50.13,-156.64 48.32,-148.13 46.94,-140.02 45.55,-131.90 44.28,-122.60 43.02,-113.30 42.13,-105.52 41.24,-97.73 40.84,-90.18 40.43,-82.64 40.26,-77.10 40.09,-71.56 40.32,-67.60 40.55,-63.65 40.91,-61.36 41.28,-59.06 38.05,-58.79 34.82,-58.52 36.52,-59.99 38.21,-61.47 39.79,-63.54 41.36,-65.62 42.88,-68.37 44.39,-71.12 46.96,-75.97 49.53,-80.82 52.16,-86.17 54.79,-91.53 58.08,-98.89 61.37,-106.24 64.96,-114.75 68.54,-123.27 71.63,-130.74 74.72,-138.22 77.90,-146.02 81.09,-153.82 83.71,-160.00 86.33,-166.18 88.34,-171.52 90.34,-176.87 91.84,-180.75 93.34,-184.63 94.21,-187.08 95.09,-189.53 95.64,-191.70 96.19,-193.88 96.54,-194.44 96.89,-195.00 97.37,-195.46 97.84,-195.93 98.41,-196.26 98.98,-196.60 99.62,-196.79 100.25,-196.98 100.92,-197.01 101.58,-197.04 102.23,-196.91 102.88,-196.78 103.48,-196.50 104.08,-196.22 104.60,-195.81 105.11,-195.39 105.52,-194.87 105.92,-194.34 106.18,-193.73 106.45,-193.12 106.56,-192.47 106.67,-191.82 106.62,-191.16 106.57,-190.49 106.37,-189.86 106.16,-189.23 104.30,-184.39 102.43,-179.55 100.98,-176.09 99.54,-172.63 97.78,-167.28 96.02,-161.94 93.99,-155.75 91.96,-149.56 88.88,-140.48 85.80,-131.40 82.95,-122.46 80.11,-113.51 77.05,-103.06 73.98,-92.61 71.76,-83.88 69.53,-75.14 67.98,-66.93 66.43,-58.72 65.45,-52.66 64.47,-46.61 64.02,-42.14 63.57,-37.67 63.22,-34.75 62.88,-31.83 61.59,-28.29 60.30,-24.74 60.22,-24.32 60.13,-23.90 59.93,-23.53 59.72,-23.16 59.40,-22.88 59.08,-22.60 58.69,-22.43 58.30,-22.26 57.88,-22.23 57.45,-22.20 57.04,-22.30 56.63,-22.40 56.27,-22.63 55.91,-22.86 55.65,-23.19 55.38,-23.52 55.24,-23.92 55.09,-24.32 55.08,-24.75 55.07,-25.17 55.19,-25.58 55.32,-25.98 55.57,-26.33 55.82,-26.67 56.16,-26.92 56.51,-27.17 56.91,-27.29 57.32,-27.42 57.74,-27.40 58.17,-27.39 58.57,-27.24 58.97,-27.10 59.30,-26.83 59.63,-26.56 59.86,-26.21 60.09,-25.85 60.19,-25.43 60.29,-25.02 60.25,-24.60 60.22,-24.18 60.05,-23.78 59.88,-23.39 59.60,-23.08 59.31,-22.76 58.94,-22.55 58.57,-22.35 58.15,-22.27 57.74,-22.19 57.32,-22.25 56.90,-22.30 56.52,-22.49 56.13,-22.68 55.83,-22.98 55.53,-23.28 55.35,-23.67 55.16,-24.05 55.10,-24.47 55.05,-24.89 55.05,-24.89 55.05,-24.89 54.34,-26.53 53.63,-28.18 53.29,-30.30 52.95,-32.42 52.96,-35.52 52.97,-38.62 53.36,-43.47 53.75,-48.33 54.74,-54.53 55.73,-60.74 57.34,-69.29 58.96,-77.84 61.24,-86.76 63.52,-95.69 66.64,-106.25 69.77,-116.80 72.64,-125.84 75.52,-134.87 78.55,-143.92 81.58,-152.97 83.63,-159.19 85.68,-165.41 87.63,-171.13 89.58,-176.85 90.97,-180.08 92.35,-183.30 93.40,-186.08 94.45,-188.87 95.32,-191.37 96.19,-193.88 96.54,-194.44 96.89,-195.00 97.37,-195.46 97.84,-195.93 98.41,-196.26 98.98,-196.60 99.62,-196.79 100.25,-196.98 100.92,-197.01 101.58,-197.04 102.23,-196.91 102.88,-196.78 103.48,-196.50 104.08,-196.22 104.60,-195.81 105.11,-195.39 105.52,-194.87 105.92,-194.34 106.18,-193.73 106.45,-193.12 106.56,-192.47 106.67,-191.82 106.62,-191.16 106.57,-190.50 106.37,-189.87 106.16,-189.23 105.30,-187.54 104.44,-185.85 103.41,-183.48 102.39,-181.11 100.90,-177.29 99.41,-173.46 97.32,-167.93 95.24,-162.40 92.64,-156.28 90.04,-150.17 86.85,-142.35 83.65,-134.53 80.55,-127.02 77.45,-119.52 73.83,-110.91 70.21,-102.30 66.86,-94.77 63.50,-87.24 60.79,-81.76 58.08,-76.27 55.46,-71.34 52.83,-66.40 50.94,-63.06 49.06,-59.72 47.05,-57.13 45.04,-54.54 42.60,-52.46 40.17,-50.37 35.81,-53.91 31.45,-57.45 30.97,-60.24 30.50,-63.04 30.23,-67.43 29.96,-71.83 30.09,-77.46 30.22,-83.10 30.51,-90.96 30.81,-98.83 31.57,-106.75 32.34,-114.67 33.48,-124.19 34.63,-133.71 35.98,-142.05 37.33,-150.40 39.01,-158.85 40.69,-167.31 41.80,-173.46 42.90,-179.60 44.07,-185.33 45.23,-191.07 46.47,-196.72 47.70,-202.37 47.97,-203.06 48.24,-203.74 48.66,-204.35 49.09,-204.95 49.65,-205.44 50.21,-205.92 50.86,-206.26 51.52,-206.59 52.24,-206.76 52.96,-206.93 53.70,-206.92 54.43,-206.92 55.15,-206.73 55.86,-206.55 56.51,-206.20 57.16,-205.85 57.71,-205.35 58.26,-204.86 58.67,-204.25 59.09,-203.64 59.34,-202.94 59.60,-202.25 59.68,-201.52 59.76,-200.78 59.66,-200.05 59.57,-199.32 58.39,-196.53 57.21,-193.74 56.17,-191.05 55.13,-188.37 54.02,-183.59 52.90,-178.81 51.08,-172.04 49.25,-165.27 47.17,-157.09 45.08,-148.92 42.38,-138.86 39.68,-128.79 36.98,-118.34 34.28,-107.89 31.68,-97.91 29.07,-87.93 26.58,-76.90 24.09,-65.86 21.96,-56.92 19.84,-47.98 17.75,-38.85 15.66,-29.73 13.73,-22.91 11.80,-16.09 10.43,-12.10 9.06,-8.10 7.69,-5.00 6.32,-1.90 4.39,0.89 2.46,3.70 2.30,3.98 2.15,4.26 1.93,4.49 1.71,4.73 1.44,4.90 1.18,5.08 0.87,5.19 0.57,5.29 0.25,5.32 -0.06,5.36 -0.37,5.31 -0.69,5.26 -0.99,5.14 -1.28,5.02 -1.54,4.84 -1.80,4.65 -2.01,4.40 -2.22,4.16 -2.36,3.87 -2.50,3.58 -2.57,3.27 -2.64,2.96 -2.63,2.64 -2.62,2.32 -2.54,2.01 -2.46,1.70 -2.46,1.70 L -2.46,1.70 Z"></path></g><g transform="translate(848.0576510940668 1525.5705207432352) rotate(0 -8.612730088857461 -33.05426624190807)" stroke="none"><path fill="#ffffff" d="M -2.54,0.84 Q -2.54,0.84 -3.79,-1.41 -5.03,-3.67 -6.30,-7.61 -7.57,-11.55 -8.33,-13.71 -9.08,-15.88 -10.16,-18.76 -11.24,-21.64 -12.29,-24.45 -13.34,-27.26 -14.43,-30.68 -15.51,-34.10 -16.30,-37.12 -17.09,-40.14 -17.76,-43.20 -18.43,-46.27 -18.91,-48.64 -19.40,-51.01 -19.84,-53.36 -20.28,-55.70 -20.00,-60.41 -19.72,-65.13 -19.72,-65.55 -19.72,-65.98 -19.58,-66.38 -19.45,-66.78 -19.19,-67.12 -18.93,-67.46 -18.58,-67.69 -18.23,-67.93 -17.82,-68.04 -17.41,-68.15 -16.98,-68.13 -16.56,-68.11 -16.16,-67.95 -15.77,-67.79 -15.45,-67.51 -15.12,-67.24 -14.91,-66.87 -14.69,-66.51 -14.60,-66.09 -14.51,-65.68 -14.55,-65.25 -14.60,-64.83 -14.78,-64.45 -14.96,-64.06 -15.25,-63.75 -15.55,-63.45 -15.92,-63.25 -16.30,-63.05 -16.72,-62.98 -17.14,-62.92 -17.56,-62.99 -17.98,-63.06 -18.35,-63.26 -18.73,-63.46 -19.02,-63.77 -19.31,-64.08 -19.49,-64.46 -19.66,-64.85 -19.71,-65.27 -19.75,-65.69 -19.66,-66.11 -19.57,-66.52 -19.35,-66.89 -19.13,-67.25 -18.80,-67.52 -18.48,-67.80 -18.08,-67.95 -17.69,-68.11 -17.26,-68.13 -16.84,-68.15 -16.43,-68.04 -16.02,-67.92 -15.67,-67.68 -15.32,-67.44 -15.06,-67.10 -14.81,-66.77 -14.67,-66.36 -14.54,-65.96 -14.54,-65.96 -14.54,-65.96 -12.96,-61.73 -11.38,-57.49 -10.88,-55.17 -10.38,-52.84 -9.91,-50.52 -9.45,-48.20 -8.83,-45.27 -8.21,-42.33 -7.52,-39.43 -6.84,-36.52 -6.06,-33.23 -5.27,-29.94 -4.42,-27.05 -3.58,-24.16 -2.73,-21.18 -1.88,-18.20 -1.24,-16.02 -0.60,-13.85 0.61,-9.90 1.82,-5.96 2.18,-3.40 2.54,-0.84 2.61,-0.53 2.67,-0.21 2.66,0.10 2.65,0.43 2.56,0.74 2.47,1.05 2.30,1.33 2.14,1.61 1.92,1.84 1.69,2.08 1.42,2.25 1.15,2.42 0.84,2.52 0.53,2.63 0.21,2.65 -0.10,2.68 -0.42,2.63 -0.74,2.57 -1.04,2.45 -1.34,2.32 -1.60,2.13 -1.86,1.93 -2.06,1.68 -2.27,1.43 -2.40,1.14 -2.54,0.84 -2.54,0.84 L -2.54,0.84 Z"></path></g></svg>